<svg width="26" height="26" viewBox="0 0 26 26" fill="none" xmlns="http://www.w3.org/2000/svg">
<path d="M7.13735 13.7044C7.40297 13.5272 7.7152 13.4328 8.0345 13.4331C8.4621 13.4331 8.87218 13.6029 9.17454 13.9053C9.4769 14.2077 9.64677 14.6177 9.64677 15.0454C9.64707 15.3647 9.55264 15.6769 9.37543 15.9425C9.19822 16.2081 8.9462 16.4152 8.65126 16.5375C8.35631 16.6599 8.0317 16.6919 7.71851 16.6297C7.40532 16.5675 7.11763 16.4138 6.89185 16.188C6.66607 15.9622 6.51233 15.6745 6.45011 15.3613C6.38789 15.0481 6.41999 14.7235 6.54232 14.4286C6.66465 14.1337 6.87173 13.8816 7.13735 13.7044Z" fill="#AFDBF5"/>
<path d="M17.0663 13.7044C17.3319 13.5272 17.6441 13.4328 17.9634 13.4331C18.3909 13.4335 18.8008 13.6035 19.103 13.9057C19.4053 14.208 19.5753 14.6179 19.5757 15.0454C19.576 15.3647 19.4816 15.6769 19.3044 15.9425C19.1271 16.2081 18.8751 16.4152 18.5802 16.5375C18.2852 16.6599 17.9606 16.6919 17.6474 16.6297C17.3342 16.5675 17.0466 16.4138 16.8208 16.188C16.595 15.9622 16.4413 15.6745 16.3791 15.3613C16.3168 15.0481 16.3489 14.7235 16.4712 14.4286C16.5936 14.1337 16.8007 13.8816 17.0663 13.7044Z" fill="#AFDBF5"/>
<path d="M17.2869 18.7543C16.8782 18.2829 16.1674 18.2282 15.6917 18.6288C15.6901 18.6301 15.6871 18.6325 15.6828 18.6357C15.6676 18.6473 15.6359 18.6705 15.5877 18.702C15.4913 18.7649 15.3291 18.8606 15.1001 18.962C14.6445 19.1636 13.9143 19.3925 12.8938 19.4254C11.9136 19.457 11.2193 19.2363 10.7892 19.0318C10.5716 18.9284 10.4174 18.827 10.3257 18.7596C10.2799 18.7259 10.25 18.7008 10.2358 18.6886C10.2323 18.6855 10.2298 18.6833 10.2282 18.6819C9.78221 18.2498 9.07038 18.2542 8.62968 18.6949C8.1846 19.14 8.1846 19.8616 8.62968 20.3066L9.43556 19.5008C8.62968 20.3066 8.6301 20.3071 8.63053 20.3075L8.63327 20.3102L8.63731 20.3142C8.64016 20.317 8.64332 20.3201 8.64678 20.3234C8.6537 20.3301 8.66186 20.3379 8.67124 20.3467C8.69001 20.3642 8.71374 20.3857 8.74244 20.4106C8.79983 20.4604 8.87732 20.5238 8.97515 20.5957C9.17072 20.7396 9.44865 20.9184 9.81048 21.0904C10.539 21.4368 11.5923 21.7479 12.9673 21.7036C14.3022 21.6605 15.3195 21.3575 16.0226 21.0463C16.3729 20.8912 16.6429 20.7352 16.8338 20.6106C16.9292 20.5483 17.005 20.4937 17.0613 20.451C17.0894 20.4296 17.1127 20.4112 17.1311 20.3962C17.1404 20.3887 17.1484 20.3821 17.1552 20.3764C17.1571 20.3747 17.159 20.3731 17.1608 20.3717C17.1621 20.3706 17.1633 20.3695 17.1645 20.3685L17.1685 20.3651L17.1703 20.3635L17.1712 20.3627C17.1716 20.3624 17.172 20.362 16.4256 19.5008L17.172 20.362C17.6477 19.9498 17.6991 19.23 17.2869 18.7543Z" fill="#AFDBF5"/>
<path fill-rule="evenodd" clip-rule="evenodd" d="M12.999 0.00607973C12.2595 0.00738095 11.5214 0.070921 10.7926 0.196027C3.53007 1.87365 1.30581 4.71503e-06 1.30581 4.71503e-06C0.697982 2.72648 0.533894 4.93255 2.017 6.04488C0.473737 8.48189 -0.215158 11.363 0.0587644 14.2345C0.332687 17.106 1.55389 19.8049 3.53007 21.9062C5.50625 24.0074 8.12517 25.3918 10.9745 25.8412C13.8238 26.2907 16.7417 25.7797 19.2688 24.3887C21.7958 22.9977 23.7884 20.8058 24.9329 18.158C26.0774 15.5102 26.3088 12.557 25.5906 9.76325C24.8724 6.96953 23.2454 4.49402 20.9659 2.72648C18.6863 0.958944 15.8836 -0.000223055 12.999 3.89083e-08V0.00607973ZM12.999 23.8224C11.3656 23.8233 9.75329 23.4541 8.28309 22.7425C6.8129 22.0309 5.52307 20.9953 4.51051 19.7137C3.49794 18.432 2.78898 16.9376 2.43685 15.3427C2.08473 13.7477 2.0986 12.0937 2.47744 10.5048C4.21584 9.91221 7.31427 8.59929 8.03455 6.57673C8.03455 6.57673 16.2843 13.7096 23.785 12.2584C23.8017 12.5061 23.8138 12.7553 23.8138 13.0076C23.8134 15.8757 22.6739 18.6263 20.6458 20.6544C18.6177 22.6825 15.8671 23.822 12.999 23.8224Z" fill="#AFDBF5"/>
</svg>
