<svg width="435" height="662" viewBox="0 0 435 662" fill="none" xmlns="http://www.w3.org/2000/svg">
<path d="M398.426 478.538C398.429 480.362 398.18 482.177 397.688 483.933C396.504 488.218 393.944 491.996 390.401 494.687C386.858 497.377 382.528 498.831 378.077 498.825C372.686 498.822 367.516 496.682 363.704 492.875C359.892 489.068 357.749 483.904 357.747 478.52C357.69 475.818 358.174 473.132 359.17 470.619C360.165 468.107 361.654 465.818 363.547 463.887C365.44 461.956 367.7 460.422 370.194 459.375C372.688 458.327 375.367 457.788 378.073 457.788C380.779 457.788 383.457 458.327 385.952 459.375C388.446 460.422 390.706 461.956 392.599 463.887C394.492 465.818 395.98 468.107 396.976 470.619C397.972 473.132 398.456 475.818 398.399 478.52L398.426 478.538Z" fill="#E02B27"/>
<path d="M82.7526 483.853C89.6232 476.991 89.6232 465.866 82.7526 459.004C75.8819 452.142 64.7424 452.142 57.8718 459.004C51.0011 465.866 51.0011 476.991 57.8718 483.853C64.7424 490.715 75.8819 490.715 82.7526 483.853Z" fill="#E02B27"/>
<path d="M297.925 255.856C300.157 246.411 294.3 236.948 284.844 234.718C275.387 232.489 265.911 238.339 263.679 247.783C261.447 257.228 267.304 266.692 276.761 268.921C286.218 271.15 295.693 265.301 297.925 255.856Z" fill="#0067AC"/>
<path d="M134.075 342.852C134.07 345.239 133.54 347.596 132.522 349.757C131.504 351.917 130.023 353.827 128.184 355.352C126.345 356.878 124.193 357.981 121.88 358.584C119.568 359.187 117.15 359.275 114.8 358.841C112.449 358.408 110.222 357.464 108.277 356.077C106.332 354.689 104.716 352.891 103.543 350.811C102.371 348.73 101.67 346.418 101.491 344.037C101.312 341.657 101.659 339.266 102.508 337.034V337.034C103.436 334.591 104.943 332.408 106.9 330.673C108.857 328.938 111.205 327.702 113.745 327.07V327.07C115.052 326.729 116.399 326.56 117.751 326.567C120.451 326.564 123.11 327.231 125.488 328.509C127.866 329.786 129.889 331.634 131.374 333.887C132.8 336.043 133.687 338.51 133.958 341.081C134.035 341.668 134.074 342.26 134.075 342.852V342.852Z" fill="#E02B27"/>
<path d="M411.653 567.05H410.752C415.344 575.475 418.856 586.761 409.312 591.491C404.224 594.027 396.706 591.491 389.008 586.437C391.862 598.613 391.061 609.17 382.831 612.731C373.666 616.705 364.518 613.261 356.495 607.218C359.737 619.007 359.242 628.998 350.112 631.237C338.11 634.187 329.448 626.543 323.397 615.051C326.576 635.329 322.443 647.72 309.054 650.49C299.06 652.558 290.534 645.184 283.844 632.37C283.844 632.91 283.754 633.458 283.7 633.989C282.664 643.88 278.649 651.434 269.717 652.477C262.019 653.376 255.869 646.083 251.709 636.066C248.441 653.358 240.743 664.23 226.031 661.604C214.506 659.536 209.68 647.873 208.194 632.658C204.133 648.35 196.363 657.333 182.56 655.481C171.261 653.979 166.093 641.992 164.301 626.867C147.518 660.678 124.216 654.437 121.587 631.714C121.078 626.087 121.22 620.42 122.01 614.826C104.903 633.566 92.4416 624.664 92.4416 604.188C92.4416 603.199 92.4417 602.129 92.5587 601.014C83.5549 615.042 73.5427 622.29 63.7466 617.497C55.8233 613.621 54.9499 601.697 59.5328 586.599C48.4942 597.066 36.5102 599.647 29.6493 591.095C25.4265 585.835 25.1474 578.973 27.1373 571.663C6.81573 569.963 1.66557 554.955 0.405041 546.223C0.0787885 544.184 -0.0508665 542.118 0.0178711 540.054V540.054C17.6448 535.463 34.7566 529.088 51.0873 521.027C59.4377 516.884 67.4913 512.17 75.1904 506.918C88.8671 497.593 101.418 486.073 109.792 472.135C114.178 464.929 117.282 457.019 118.967 448.755C126.881 409.189 177.266 435.752 221.556 468.206C262.379 439.637 305.714 419.943 315.33 455.877C316.008 458.413 316.786 460.862 317.662 463.224C328.548 492.899 353.857 510.092 378.05 519.975C380.031 520.784 382.012 521.557 383.957 522.268C399.962 528.076 416.664 531.749 433.631 533.193C433.631 533.193 438.412 565.791 411.653 567.05Z" fill="#037BC0"/>
<path d="M378.077 520.019C375.601 522.107 372.772 523.736 369.722 524.83C367.434 525.668 365.051 526.218 362.627 526.467C361.06 526.633 359.485 526.711 357.909 526.701C354.257 526.664 350.618 526.252 347.05 525.469C343.653 524.753 340.336 523.701 337.146 522.331C336.039 521.863 334.958 521.341 333.896 520.793C333.779 521.341 333.653 521.881 333.518 522.393C331.069 531.611 325.297 535.396 320.912 536.925C318.164 537.893 315.3 538.498 312.395 538.724C306.014 539.256 299.635 537.676 294.243 534.227C293.649 533.85 293.055 533.436 292.443 533.013C291.83 532.591 291.362 532.222 290.831 531.79C290.651 532.114 290.453 532.429 290.237 532.744C290.021 533.058 289.921 533.247 289.75 533.49C288.203 535.718 286.302 537.68 284.123 539.299C279.654 542.558 274.432 544.634 268.943 545.333C268.556 545.396 268.168 545.441 267.772 545.486L266.62 545.603C266.296 545.603 265.971 545.603 265.638 545.657C258.246 545.953 251.349 543.139 245.272 537.339C244.948 537.033 244.623 536.718 244.308 536.44C241.686 541.377 237.597 545.382 232.603 547.905C229.227 549.604 225.563 550.659 221.799 551.016C220.719 551.125 219.634 551.179 218.549 551.178H217.747C205.871 550.998 196.534 542.716 192.149 532.042C189.495 533.037 186.683 533.546 183.848 533.544H183.236C182.732 533.544 182.227 533.544 181.723 533.454C179.921 533.304 178.139 532.976 176.402 532.474C174.594 531.968 172.869 531.205 171.279 530.208H171.225C165.822 536.242 158.25 540.468 150.183 540.837C149.472 540.837 148.751 540.837 148.022 540.837C146.928 540.789 145.839 540.666 144.763 540.468C141.552 539.843 138.494 538.6 135.759 536.808C132.629 534.754 129.871 532.185 127.601 529.21C127.319 528.85 127.049 528.49 126.791 528.131C125.01 525.677 123.557 523.001 122.469 520.172C116.293 524.552 108.72 527.474 99.9598 526.692C96.6946 526.395 93.4909 525.619 90.4518 524.39C83.1318 521.467 78.0986 516.189 75.8837 509.202C75.6586 508.482 75.4605 507.754 75.2985 506.99C96.0071 492.881 114.096 473.79 119.075 448.863C126.989 409.296 177.383 435.851 221.718 468.304C262.532 439.736 305.867 420.042 315.483 455.976C324.514 490.165 351.949 509.328 378.077 520.019Z" fill="#0067AC"/>
<path opacity="0.4" d="M411.652 567.05H410.752C415.344 575.475 418.856 586.761 409.312 591.491C404.224 594.027 396.706 591.491 389.008 586.437C391.862 598.613 391.061 609.17 382.831 612.731C373.666 616.705 364.518 613.261 356.495 607.218C359.737 619.007 359.242 628.998 350.112 631.237C338.11 634.187 329.448 626.543 323.397 615.051C326.576 635.329 322.443 647.72 309.054 650.49C299.06 652.558 290.534 645.184 283.844 632.37C283.844 632.91 283.754 633.458 283.7 633.989C263.171 593.038 250.134 532.438 247.685 492.467L317.725 463.251C328.611 492.926 353.92 510.119 378.113 520.002C380.094 520.811 382.075 521.584 384.02 522.295C400.025 528.103 416.727 531.776 433.694 533.22C433.694 533.22 438.412 565.791 411.652 567.05Z" fill="#0067AC"/>
<path d="M433.982 535.118C422.115 560.854 348.446 621.13 226.895 599.566C91.2621 575.52 63.8546 527.096 61.3606 516.458L104.624 549.281L143.619 561.106L179.949 572.634L210.643 579.927L244.047 587.858C244.047 587.858 286.581 589.306 285.861 589.656C285.14 590.007 308.892 589.656 308.892 589.656L334.913 584.818L361.925 575.502L386.622 561.474L403.468 549.263L411.716 538.229L433.982 535.118Z" fill="#0067AC"/>
<path d="M420.503 531.665C315.024 651.821 82.3934 549.982 63.4855 514.318" stroke="white" stroke-width="7.2" stroke-miterlimit="10" stroke-linecap="round"/>
<path d="M408.708 450.023C401.028 471.209 378.996 470.355 368.344 468.538C373.855 481.793 367.966 504.265 343.602 495.515C335.428 492.618 328.533 486.947 324.118 479.491C325.504 491.793 323.172 502.044 313.466 503.824C300.861 506.153 292.434 500.614 286.626 491.82C286.626 491.999 286.572 492.179 286.536 492.359C284.978 501.972 280.107 509.094 268.339 508.662C258.678 508.303 252.079 501.468 247.631 492.476C245.605 504.166 240.194 513.113 228.228 512.844C218.585 512.637 213.029 502.799 210.13 490.363C206.772 495.758 201.883 499.589 194.824 497.611C191.492 496.711 188.935 493.816 187.035 489.814C179.688 503.761 167.677 510.991 156.828 497.611C152.173 491.874 150.309 484.85 150.3 477.342C143.412 489.158 133.787 497.557 121.488 493.609C112.988 490.911 110.215 482.971 110.539 473.133C101.797 482.764 89.8306 489.104 76.3249 480.031C71.5619 476.838 70.9857 471.398 72.8224 465.112C56.1294 467.118 48.3322 459.303 44.8027 453.098C43.5496 450.931 42.6386 448.583 42.1016 446.138C70.9136 438.675 101.391 417.363 122.604 392.904C124.963 390.188 127.196 387.442 129.303 384.667C137.533 373.876 143.799 362.716 147.239 352.087C149.124 346.54 150.129 340.733 150.219 334.876C150.219 334.876 254.663 309.149 289.976 327.106C297.179 330.757 301.491 336.216 301.491 344.093C301.491 355.208 305.021 365.792 310.774 375.638C312.636 378.808 314.683 381.864 316.906 384.792C346.627 424.242 408.708 450.023 408.708 450.023Z" fill="#037BC0"/>
<path d="M303.697 395.089C299.817 389.235 294.919 381.061 288.589 377.104C287.553 372.797 286.644 368.462 286.041 364.065C285.411 359.371 279.918 356.107 275.578 356.107C274.484 356.108 273.396 356.281 272.355 356.619C269.974 356.242 267.536 356.687 265.443 357.883C263.35 359.078 261.729 360.952 260.848 363.193C258.699 362.995 256.55 362.848 254.402 362.752C254.077 358.256 251.133 353.616 246.514 352.86C232.639 350.666 218.72 350.567 204.71 350.262C191.447 349.983 178.194 348.652 164.922 349.434C159 349.88 153.121 350.781 147.338 352.132C143.898 362.761 137.632 373.921 129.402 384.711C127.295 387.481 125.053 390.242 122.694 392.948C101.481 417.372 71.0487 438.72 42.2006 446.174C42.7354 448.623 43.6466 450.973 44.9017 453.143C45.2799 453.143 45.658 453.089 46.0452 453.035C61.3161 450.924 76.1734 446.491 90.1007 439.889C84.5273 451.003 84.5543 463.574 98.9244 464.627C107.694 465.274 116.932 458.485 123.622 453.629C124.405 453.062 125.179 452.487 125.954 451.902C128.259 449.609 130.411 447.568 132.445 445.779C131.599 450.275 131.896 454.771 134.507 458.296C141.71 468.008 154.199 462.298 161.276 455.472C159.052 469.932 165.327 486.946 182.47 483.609C191.654 481.811 196.759 472.153 199.767 464.285C199.848 464.078 199.911 463.862 199.992 463.655C201.624 464.887 203.538 465.69 205.561 465.991C207.584 466.293 209.65 466.083 211.571 465.382C215.058 463.932 217.993 461.413 219.953 458.188C222.483 464.797 226.535 470.472 233.504 473.106C238.402 474.959 242.985 471.766 245.758 468.125C250.206 462.316 251.286 455.113 251.25 447.838C257.364 459.528 267.718 473.223 282.268 466.47C290.948 462.45 291.866 451.39 290.813 443.216C290.146 438.17 288.991 433.201 287.364 428.378C292.506 433.054 297.881 435.572 305.003 434.574C311.251 433.675 314.835 426.481 314.772 420.834C314.691 411.662 308.577 402.471 303.697 395.089Z" fill="#39A6E1"/>
<path d="M317.005 384.819C313.942 386.918 310.301 388.012 306.587 387.949C302.47 387.845 298.411 386.954 294.63 385.323C292.786 384.581 291.001 383.7 289.291 382.688C289.065 387.151 287.928 391.521 285.951 395.529C284.614 398.165 282.67 400.446 280.278 402.184C277.886 403.922 275.115 405.069 272.193 405.529C270.806 405.786 269.399 405.919 267.988 405.924C259.444 405.924 252.448 400.925 247.117 391.033C242.048 402.292 234.017 408.191 223.609 408.191C221.41 408.174 219.22 407.93 217.072 407.462C209.086 405.754 203.125 398.766 199.587 387.076C194.184 397.346 186.513 402.543 176.807 402.543C176.348 402.543 175.907 402.543 175.42 402.543C168.298 402.175 159.907 398.398 157.809 383.426C149.625 391.977 141.602 396.303 133.895 396.303C129.929 396.273 126.053 395.115 122.721 392.966C125.08 390.269 127.322 387.499 129.429 384.729C142.268 367.887 150.345 350.172 150.345 334.93C150.345 334.93 301.608 297.665 301.608 344.147C301.608 355.27 305.129 365.854 310.891 375.71C312.75 378.863 314.791 381.904 317.005 384.819V384.819Z" fill="#0067AC"/>
<path opacity="0.4" d="M408.708 450.023C401.028 471.209 378.996 470.355 368.344 468.538C373.855 481.793 367.966 504.265 343.602 495.515C335.428 492.618 328.533 486.947 324.118 479.491C325.504 491.792 323.172 502.044 313.466 503.824C300.861 506.153 292.434 500.614 286.626 491.819C286.626 491.999 286.572 492.179 286.536 492.359C264.27 460.463 244.272 398.038 244.272 367.536C244.272 367.536 277.325 338.859 290.075 327.115C297.278 330.766 301.59 336.225 301.59 344.102C301.59 355.216 305.12 365.8 310.873 375.647C312.735 378.816 314.782 381.873 317.005 384.801C346.627 424.242 408.708 450.023 408.708 450.023Z" fill="#0067AC"/>
<path d="M61.1085 440.788C72.5883 446.867 150.048 477.881 247.649 455.427C345.25 432.973 332.698 402.049 332.698 402.049L321.183 390.017L293.667 413.577L246.262 437.434L171.531 450.149L118.994 448.8L61.1085 440.788Z" fill="#0067AC"/>
<path d="M61.1085 439.475C78.4858 449.924 254.168 473.889 321.183 390.071" stroke="white" stroke-width="7.2" stroke-miterlimit="10" stroke-linecap="round"/>
<path d="M341.117 319.058C340.411 323.577 338.869 327.926 336.57 331.881C335.077 334.441 333.056 336.655 330.64 338.374C328.225 340.094 325.47 341.28 322.56 341.854C319.748 342.4 316.868 342.504 314.025 342.16C314.309 346.565 313.375 350.964 311.323 354.875C307.812 361.071 300.699 364.362 289.075 359.659C288.517 359.443 287.959 359.191 287.427 358.948C285.628 358.112 283.907 357.116 282.286 355.972C282.061 367.437 277.784 376.043 267.16 378.021C256.914 379.927 250.053 373.237 245.47 363.247C242.156 373.768 233.576 383.192 217.675 379.811C209.059 377.958 204.07 368.022 201.829 355.738C197.795 367.14 190.889 375.809 179.148 375.207C168.47 374.676 164.814 365.207 164.931 352.609C155.099 363.606 143.322 370.18 132.058 362.878C125.08 358.382 123.955 350.433 125.963 341.233H125.612C98.6632 344.39 95.4939 319.058 95.4939 319.058C97.6728 317.988 99.7977 316.846 101.86 315.686C121.362 304.589 136.074 289.851 146.662 276.066C153.239 267.517 158.931 258.325 163.652 248.63C163.652 248.63 166.75 247.425 171.936 245.6C186.666 240.42 218.161 230.313 242.769 228.928C249.873 228.532 256.4 228.874 261.776 230.259C263.082 230.587 264.364 231.008 265.611 231.517C271.545 233.936 275.515 238.109 276.416 244.664C277.676 253.989 281.719 262.919 287.22 271.156C305.111 297.962 338.362 317.44 341.018 318.968L341.117 319.058Z" fill="#037BC0"/>
<path d="M131.383 332.232C128.843 334.72 126.983 337.815 125.981 341.224H125.612C98.6632 344.381 95.4939 319.049 95.4939 319.049C97.8619 326.872 111.917 337.744 131.383 332.232Z" fill="#0067AC"/>
<path d="M276.875 283.988C276.922 278.2 276.388 272.422 275.281 266.74C272.958 253.885 268.387 241.539 261.776 230.267C261.587 229.935 261.388 229.593 261.181 229.26C256.454 221.563 246.91 223.415 242.769 228.928C241.812 230.156 241.175 231.603 240.916 233.138C240.657 234.673 240.783 236.248 241.283 237.722C241.116 237.752 240.951 237.791 240.788 237.839C238.524 238.508 236.529 239.874 235.088 241.742C234.387 241.065 233.648 240.428 232.874 239.835C228.768 236.697 222.609 238.459 219.296 242.029C215.316 238.019 208.176 238.603 204.341 242.425C202.732 244.029 201.68 246.106 201.34 248.351C201 250.595 201.389 252.89 202.45 254.898C201.808 254.56 201.132 254.292 200.433 254.097L200.073 254.007C199.172 248.801 195.076 244.673 189.412 244.673C187.503 244.718 185.636 245.24 183.981 246.192C182.326 247.144 180.937 248.496 179.94 250.123C179.065 248.787 177.881 247.681 176.488 246.898C175.095 246.115 173.534 245.679 171.936 245.626C166.759 247.425 163.652 248.666 163.652 248.666C158.936 258.359 153.247 267.548 146.671 276.093C136.092 289.887 121.362 304.625 101.86 315.713C111.133 320.713 125.594 314.274 134.894 309.113C132.413 313.556 130.545 318.314 129.339 323.258C127.016 332.07 127.457 345.999 138.712 348.229C144.114 349.299 149.408 346.988 154.072 343.688C156.825 342.572 159.397 341.057 161.708 339.192C166.75 335.253 170.585 329.498 174.196 324.319C174.529 323.851 174.844 323.365 175.168 322.889C175.222 323.069 175.267 323.249 175.33 323.428C177.023 328.626 182.966 333.167 188.674 330.991C195.562 328.392 200.379 323.527 204.052 317.583C204.531 323.719 206.236 329.697 209.068 335.163C212.255 344.156 218.071 351.503 227.156 353.04C241.562 355.495 248.666 343.032 251.682 331.018C252.741 326.765 253.484 322.44 253.906 318.078C254.402 318.698 254.915 319.301 255.428 319.876C262.946 327.97 274.084 324.193 278.604 315.38C283.7 305.399 281.089 293.727 276.875 283.988ZM230.289 319.795C230.289 320.011 230.289 320.227 230.235 320.434L230.181 320.686C230.064 320.425 229.938 320.155 229.821 319.912L230.289 319.795Z" fill="#39A6E1"/>
<path d="M287.148 271.156C285.906 277.316 283.349 281.776 279.045 283.377C266.647 287.945 256.373 280.877 249.422 268.377C246.829 275.949 241.76 282.495 231.856 281.209C226.958 280.571 222.942 276.713 219.737 271.093C215.91 282.064 209.275 289.59 197.948 288.178L197.345 288.098C195.131 287.788 193.029 286.938 191.222 285.625C189.591 284.417 188.184 282.935 187.062 281.245V281.245C186.37 280.224 185.753 279.154 185.217 278.044V278.044C183.269 273.783 181.947 269.265 181.291 264.627C179.785 267.363 178.031 269.955 176.051 272.37C171.603 277.765 166.435 281.084 160.681 281.362C156.729 281.542 152.497 280.256 148.076 277.163C147.603 276.836 147.155 276.475 146.734 276.084C153.31 267.539 158.999 258.35 163.716 248.657C163.716 248.657 271.32 206.753 276.452 244.7C277.595 253.981 281.638 262.919 287.148 271.156Z" fill="#0067AC"/>
<path opacity="0.4" d="M341.117 319.058C338.263 334.939 329.943 340.352 322.56 341.854C319.748 342.401 316.868 342.504 314.025 342.16C314.309 346.565 313.375 350.964 311.323 354.875C307.812 361.071 300.699 364.362 289.075 359.659C288.517 359.443 287.959 359.191 287.427 358.948C262.325 332.232 246.262 301.047 246.262 255.608C252.269 249.236 257.659 242.311 262.361 234.926C263.209 233.589 264.31 232.432 265.602 231.518C271.536 233.937 275.506 238.109 276.407 244.664C277.667 253.989 281.71 262.919 287.211 271.156C305.795 299.086 341.117 319.058 341.117 319.058Z" fill="#0067AC"/>
<path d="M341.117 319.058C340.411 323.577 338.869 327.926 336.57 331.881C326.045 333.167 315.546 340.46 298.349 341.503C183.155 348.463 145.006 290.705 143.43 285.139L151.704 292.234L170.765 304.643L194.986 316.432L221.79 325.425L260.182 330.254L310.072 326.531L332.698 317.808L340.946 318.968L341.117 319.058Z" fill="#0067AC"/>
<path d="M334.733 316.432C317.005 330.281 207.285 346.907 141.062 282.918" stroke="white" stroke-width="7.2" stroke-miterlimit="10" stroke-linecap="round"/>
<path d="M310.072 224.881C310.072 224.881 310.072 225.043 310.072 225.349C309.919 229.305 307.704 257.406 276.074 250.32C275.398 257.146 272.976 262.208 267.97 263.656C258.066 266.525 249.891 261.624 244.209 252.793C242.364 258.701 238.186 263.665 228.903 262.838C224.716 262.46 221.322 259.241 218.639 254.565C215.37 263.036 209.788 268.71 200.352 267.406C192.735 266.345 188.791 258.8 187.098 249.133C180.165 261.768 170.171 268.854 158.583 261.156C154.361 258.351 152.884 253.369 153.289 247.218C141.116 249.844 130.78 244.34 124.891 235.789C123.472 233.75 122.313 231.542 121.443 229.215C121.254 228.667 121.056 228.127 120.885 227.588C120.605 226.688 120.371 225.789 120.173 224.89C120.173 224.89 122.973 223.577 127.376 220.879C129.096 219.827 131.086 218.55 133.229 217.058C135.876 215.259 138.757 213.101 141.782 210.628C142.242 210.259 142.683 209.891 143.142 209.504C144.276 208.551 145.429 207.544 146.59 206.501C147.122 206.015 147.68 205.511 148.229 204.999C148.778 204.486 149.562 203.74 150.246 203.093C150.597 202.733 150.975 202.373 151.353 202.004L151.768 201.591C152.155 201.177 152.551 200.772 152.965 200.359C153.082 200.224 153.226 200.089 153.361 199.945C153.745 199.55 154.133 199.136 154.523 198.704C154.703 198.515 154.883 198.327 155.054 198.12C155.414 197.733 155.783 197.346 156.116 196.96C156.45 196.573 157.017 195.971 157.431 195.485L158.502 194.244C158.592 194.136 158.682 194.037 158.763 193.92C159.205 193.399 159.664 192.886 160.06 192.356C160.456 191.825 160.87 191.34 161.276 190.809C161.681 190.278 162.041 189.838 162.392 189.352C164.112 187.086 165.786 184.703 167.362 182.203C170.772 176.893 173.69 171.282 176.078 165.442C177.577 161.743 178.858 157.96 179.913 154.111C180.147 153.266 180.364 152.421 180.571 151.566C181.318 148.428 181.957 145.164 182.434 141.801C190.61 84.0156 217.711 128.042 217.711 128.042C217.711 128.042 245.209 102.711 254.384 141.531C254.735 142.979 255.059 144.507 255.338 146.135C256.506 152.824 258.1 159.432 260.11 165.918C261.346 169.851 262.7 173.592 264.171 177.141C275.56 204.693 293.388 220.673 310.072 224.881Z" fill="#037BC0"/>
<path d="M310.063 224.881C310.063 224.881 310.063 225.043 310.063 225.34C304.742 227.363 247.604 209.297 249.666 174.083C249.99 168.562 250.809 165.091 254.924 166.089C256.606 165.452 258.448 165.367 260.182 165.846C261.406 169.785 262.766 173.526 264.234 177.078C275.56 204.693 293.397 220.673 310.063 224.881Z" fill="#39A6E1"/>
<path opacity="0.4" d="M310.072 224.881C310.072 224.881 310.072 225.043 310.072 225.349C309.919 229.305 307.704 257.406 276.074 250.32C275.398 257.146 272.976 262.208 267.97 263.656C245.794 237.47 230.533 200.107 228.777 166.368L239.266 143.779L254.438 141.531C254.789 142.979 255.113 144.507 255.392 146.135C256.56 152.824 258.154 159.432 260.164 165.918C261.4 169.851 262.754 173.592 264.225 177.141C275.56 204.693 293.388 220.673 310.072 224.881Z" fill="#0067AC"/>
<path d="M250.008 227.327C247.496 232.722 241.481 235.195 235.818 234.305C231.19 233.577 227.318 229.503 225.229 225.546C224.932 224.989 224.644 224.413 224.329 223.82C222.528 231.077 219.476 238.208 213.416 242.704C211.655 244.05 209.616 244.986 207.446 245.446C205.277 245.905 203.032 245.875 200.876 245.358C198.719 244.841 196.705 243.85 194.981 242.458C193.256 241.065 191.865 239.306 190.907 237.308C187.864 241.805 183.938 245.204 179.157 245.914C171.954 247.002 164.067 243.918 162.518 235.96C162 233.295 161.843 230.573 162.05 227.866C154.91 232.908 146.627 236.097 137.947 237.147C133.559 237.669 129.11 237.202 124.927 235.78C123.509 233.734 122.351 231.519 121.479 229.188C121.281 228.658 121.092 228.118 120.93 227.561C120.642 226.676 120.404 225.775 120.218 224.863C120.218 224.863 123.009 223.55 127.421 220.852C129.15 219.809 131.131 218.523 133.292 217.031C135.921 215.232 138.811 213.074 141.836 210.601C142.296 210.232 142.737 209.864 143.196 209.477C144.33 208.524 145.48 207.523 146.644 206.474C147.185 205.997 147.734 205.493 148.274 204.972C148.814 204.45 149.616 203.722 150.291 203.056C150.669 202.706 151.029 202.346 151.398 201.977L151.813 201.564C152.209 201.15 152.614 200.745 153.019 200.332L153.406 199.927L154.586 198.677C154.766 198.488 154.946 198.3 155.117 198.102C155.477 197.715 155.828 197.328 156.17 196.933C156.512 196.537 157.071 195.953 157.485 195.458L158.556 194.208C158.646 194.109 158.736 194.001 158.817 193.893C159.25 193.381 159.673 192.859 160.105 192.329C160.537 191.798 160.924 191.312 161.33 190.782C161.735 190.251 162.077 189.82 162.446 189.325C164.166 187.05 165.831 184.676 167.425 182.176C170.835 176.868 173.746 171.257 176.123 165.414C179.913 165.226 183.551 169.083 183.254 173.166C184.292 171.895 185.334 170.645 186.378 169.416C188.548 166.844 191.78 166.862 194.229 168.274C196.462 160.774 207.87 161.08 209.887 167.761C210.609 166.822 211.512 166.036 212.543 165.45C212.723 165.199 212.894 164.938 213.083 164.677C213.958 163.399 215.156 162.375 216.556 161.71C217.956 161.045 219.507 160.763 221.052 160.891C220.488 157.231 220.187 153.534 220.151 149.831C220.007 139.346 236.286 139.355 236.43 149.831C236.43 150.064 236.43 150.298 236.43 150.532C237.256 151.26 237.916 152.155 238.366 153.159C238.817 154.162 239.047 155.25 239.041 156.35C239.042 157.01 238.97 157.667 238.825 158.31C243.588 160.496 244.966 168.301 240.482 172.267C242.976 180.36 246.109 188.246 248.423 196.357C251.124 205.844 254.366 217.939 250.008 227.327Z" fill="#39A6E1"/>
<path d="M264.27 177.114C262.319 181.008 258.919 183.984 254.798 185.404C246.226 188.507 239.131 184.919 233.333 177.797C229.227 187.419 222.393 195.557 211.4 192.185C206.357 190.638 202.738 185.422 200.244 178.274C198.344 181.074 196.048 183.585 193.428 185.728C189.879 188.713 185.341 190.262 180.706 190.072C179.303 189.993 177.912 189.77 176.555 189.406C174.605 188.946 172.78 188.063 171.21 186.82C169.64 185.576 168.363 184.003 167.47 182.212C175.337 169.992 180.461 156.214 182.488 141.827C190.673 84.0515 217.765 128.078 217.765 128.078C217.765 128.078 247.343 100.831 255.392 146.18C257.231 156.779 260.207 167.151 264.27 177.114V177.114Z" fill="#0067AC"/>
<path d="M196.66 177.518C196.664 181.056 197.717 184.513 199.688 187.453C201.658 190.393 204.456 192.684 207.729 194.036C211.003 195.389 214.604 195.742 218.078 195.05C221.552 194.359 224.743 192.655 227.247 190.154C229.752 187.652 231.458 184.465 232.15 180.996C232.842 177.526 232.489 173.93 231.135 170.661C229.781 167.392 227.487 164.597 224.544 162.629C221.6 160.661 218.138 159.609 214.596 159.606C212.235 159.586 209.894 160.037 207.71 160.93C205.525 161.823 203.54 163.142 201.871 164.809C200.201 166.477 198.881 168.459 197.987 170.641C197.092 172.823 196.641 175.161 196.66 177.518V177.518Z" fill="#0067AC"/>
<path d="M169.487 231.517C154.262 231.517 139.711 230.447 131.401 226.859C123.586 223.496 124.819 222.417 124.819 222.417C124.819 222.417 244.065 231.499 266.584 190.44C267.439 188.876 269.843 187.743 270.482 189.388C271.728 192.049 273.166 194.616 274.786 197.068C263.225 219.207 227.435 226.482 201.901 229.836C191.456 231.212 181.219 231.517 169.487 231.517Z" fill="#0067AC"/>
<path d="M127.412 220.871C147.365 229.863 245.884 229.314 269.411 186.394" stroke="white" stroke-width="7.2" stroke-miterlimit="10" stroke-linecap="round"/>
<path d="M286.59 138.824C286.59 153.383 273.589 161.764 260.281 151.261C260.2 159.273 257.364 165.648 249.729 168.157C242.291 170.612 236.151 167.762 231.127 162.132C227.525 169.749 221.655 176.161 212.111 173.508C207.744 172.285 204.62 168.112 202.45 162.51C197.228 169.317 190.502 173.391 181.921 171.296C173.818 169.317 171.396 162.393 172.242 153.383C170.36 153.572 168.641 153.68 167.119 153.734C146.221 154.381 147.635 140.11 147.635 140.11C165.381 129.769 177.473 118.951 185.676 107.881C185.676 107.881 185.721 107.881 185.748 107.819C185.84 107.704 185.924 107.584 186 107.459L186.063 107.378C186.261 107.09 186.468 106.811 186.702 106.479C188.643 103.743 190.423 100.897 192.032 97.9539C193.426 95.4068 194.673 92.7828 195.769 90.0946C197.541 85.7819 198.966 81.3345 200.028 76.7949C200.415 75.1133 201.72 73.8904 202.018 72.2088C202.081 71.921 202.531 70.6891 202.576 70.4103C203.179 66.9303 203.314 63.8908 204.557 60.4108C205.534 57.8886 206.141 55.2383 206.357 52.5425L217.774 53.9093L228.633 56.3372C229.902 61.2111 230.352 64.5653 231.937 68.4949C233.081 71.3545 232.189 72.9911 232.72 75.464C233.324 78.3236 235.422 81.0932 236.133 83.692C236.844 86.2908 237.691 88.8716 238.546 91.2636C239.828 94.8621 241.316 98.384 243.003 101.812C243.507 102.837 244.029 103.817 244.542 104.77C244.768 105.193 245.002 105.606 245.236 106.002C246.454 107.393 247.464 108.953 248.234 110.633C248.378 110.939 248.513 111.236 248.648 111.532L249.549 112.818C265.746 135.794 286.59 138.824 286.59 138.824Z" fill="#39A6E1"/>
<path d="M183.236 111.047C183.794 115.822 187.738 133.402 212.048 141.971C236.358 150.541 256.635 152.951 267.592 147.007C277.721 141.531 278.676 136.432 278.676 136.432C277.208 135.83 271.473 132.988 271.473 132.988C271.473 132.988 238.672 138.68 236.178 138.644C233.684 138.608 219.782 134.148 219.125 134.049C218.467 133.95 198.776 126.388 198.776 126.388L186.171 115.489L183.236 111.047Z" fill="#037BC0"/>
<path opacity="0.4" d="M286.59 138.824C286.59 153.383 273.589 161.764 260.281 151.261C260.2 159.273 257.364 165.648 249.729 168.157C231.289 130.389 219.368 80.8233 217.792 53.9541L227.858 55.1591C229.542 60.1948 229.47 63.8367 231.046 67.7484C232.189 70.608 232.207 72.973 232.739 75.4908C233.342 78.3504 235.44 81.12 236.151 83.7188C236.862 86.3176 237.709 88.8984 238.564 91.2904C239.846 94.889 241.334 98.4108 243.021 101.838C243.525 102.864 244.047 103.844 244.56 104.797C244.786 105.22 245.02 105.633 245.254 106.029C246.472 107.42 247.482 108.98 248.252 110.66C248.396 110.966 248.531 111.262 248.666 111.559L249.567 112.845C265.746 135.794 286.59 138.824 286.59 138.824Z" fill="#0067AC"/>
<path d="M271.473 134.067C259.921 144.022 195.148 141.459 182.831 109.095" stroke="white" stroke-width="7.2" stroke-miterlimit="10" stroke-linecap="round"/>
<path d="M192.14 168.481C192.144 172.019 193.197 175.476 195.168 178.416C197.138 181.356 199.936 183.647 203.21 184.999C206.483 186.351 210.084 186.704 213.558 186.013C217.032 185.322 220.223 183.618 222.728 181.117C225.232 178.615 226.938 175.428 227.63 171.959C228.322 168.489 227.969 164.892 226.615 161.623C225.261 158.354 222.967 155.559 220.024 153.592C217.08 151.624 213.618 150.572 210.076 150.568C207.714 150.545 205.372 150.993 203.185 151.885C200.999 152.777 199.013 154.096 197.343 155.764C195.673 157.432 194.352 159.416 193.459 161.599C192.566 163.783 192.118 166.122 192.14 168.481V168.481Z" fill="#E02B27"/>
<path d="M192.14 168.481C192.133 172.087 193.226 175.609 195.274 178.579C208.851 176.331 218.017 162.6 220.619 154.003C217.946 152.055 214.785 150.884 211.486 150.621C208.187 150.357 204.879 151.012 201.93 152.511C198.981 154.01 196.505 156.296 194.777 159.115C193.049 161.934 192.136 165.176 192.14 168.481Z" fill="#FF4743"/>
<path d="M201.054 183.957C203.197 185.205 205.575 185.995 208.04 186.277C210.504 186.56 213 186.328 215.37 185.597C217.739 184.865 219.932 183.651 221.807 182.03C223.682 180.408 225.2 178.416 226.265 176.179C218.765 174.398 206.574 180.117 201.054 183.957Z" fill="#FF4743"/>
<path opacity="0.8" d="M206.853 154.12H206.763C206.417 154.03 206.052 154.049 205.718 154.174C201.892 155.73 195.373 161.953 200.883 165.576C203.044 166.997 206.06 165.46 207.888 164.219C209.959 162.807 211.805 160.954 212.057 158.338C212.345 155.316 209.635 153.644 206.853 154.12Z" fill="white"/>
<path d="M243.732 150.119C243.73 152.52 244.442 154.869 245.777 156.866C247.112 158.864 249.01 160.421 251.231 161.341C253.453 162.261 255.898 162.503 258.256 162.034C260.615 161.566 262.782 160.41 264.482 158.712C266.183 157.013 267.34 154.849 267.809 152.494C268.278 150.138 268.036 147.696 267.115 145.478C266.194 143.259 264.635 141.363 262.635 140.03C260.634 138.697 258.283 137.986 255.878 137.988C254.279 137.973 252.693 138.277 251.213 138.882C249.733 139.486 248.388 140.379 247.257 141.509C246.127 142.638 245.233 143.981 244.627 145.459C244.022 146.938 243.718 148.521 243.732 150.119V150.119Z" fill="#E02B27"/>
<path d="M243.732 150.119C243.724 153.167 244.876 156.105 246.955 158.338C257.76 156.071 263.612 150.838 266.269 143.815C264.885 141.567 262.806 139.831 260.346 138.869C257.887 137.907 255.18 137.772 252.637 138.483C250.093 139.194 247.851 140.714 246.249 142.812C244.647 144.91 243.773 147.471 243.759 150.11L243.732 150.119Z" fill="#FF4743"/>
<path opacity="0.8" d="M254.176 140.659C253.181 140.429 252.137 140.579 251.246 141.078C250.355 141.576 249.683 142.389 249.359 143.356C247.973 147.277 254.321 149.066 255.761 143.428C255.913 142.851 255.833 142.238 255.536 141.72C255.24 141.201 254.751 140.82 254.176 140.659Z" fill="white"/>
<path d="M167.425 251.849C176.112 251.849 183.155 244.816 183.155 236.14C183.155 227.463 176.112 220.43 167.425 220.43C158.738 220.43 151.695 227.463 151.695 236.14C151.695 244.816 158.738 251.849 167.425 251.849Z" fill="#0067AC"/>
<path d="M145.861 229.054C145.861 232.294 146.823 235.462 148.626 238.156C150.428 240.851 152.99 242.951 155.988 244.191C158.986 245.431 162.284 245.755 165.466 245.123C168.649 244.491 171.572 242.93 173.866 240.639C176.16 238.348 177.723 235.428 178.356 232.25C178.989 229.072 178.664 225.778 177.422 222.784C176.18 219.79 174.078 217.231 171.38 215.431C168.682 213.63 165.51 212.67 162.266 212.67C160.109 212.661 157.972 213.079 155.978 213.9C153.984 214.72 152.172 215.927 150.647 217.45C149.122 218.973 147.914 220.782 147.093 222.774C146.271 224.765 145.853 226.9 145.861 229.054V229.054Z" fill="#E02B27"/>
<path d="M145.861 229.054C145.858 232.661 147.052 236.168 149.255 239.026C165.543 244.377 178.212 225.205 171.477 215.493C169.01 213.822 166.134 212.853 163.158 212.691C160.181 212.529 157.217 213.18 154.583 214.575C151.949 215.969 149.746 218.053 148.209 220.604C146.672 223.155 145.861 226.076 145.861 229.054V229.054Z" fill="#FF4743"/>
<g style="mix-blend-mode:screen" opacity="0.7">
<path d="M164.256 217.606C163.953 217.22 163.581 216.893 163.157 216.644C162.714 216.105 162.141 215.687 161.492 215.43C158.133 214.036 154.099 216.213 152.02 218.829C149.318 222.246 149.228 226.653 153.253 229.072C157.278 231.491 163.04 227.912 164.832 224.243C165.386 223.199 165.627 222.017 165.525 220.84C165.422 219.662 164.982 218.539 164.256 217.606Z" fill="white"/>
</g>
<path d="M155.324 243.882C159.113 245.654 163.437 245.914 167.411 244.608C171.386 243.303 174.711 240.531 176.708 236.859C168.073 236.4 157.332 241.121 155.324 243.882Z" fill="#FF4743"/>
<path d="M236.628 259.466C236.633 260.66 236.503 261.852 236.241 263.018C235.684 265.583 234.53 267.981 232.87 270.016C231.211 272.052 229.094 273.667 226.692 274.732C224.29 275.796 221.67 276.28 219.046 276.143C216.422 276.006 213.867 275.252 211.589 273.943C211.002 273.608 210.436 273.235 209.896 272.828C207.086 270.728 205.009 267.798 203.961 264.453C202.912 261.108 202.944 257.518 204.053 254.192C205.162 250.867 207.291 247.974 210.139 245.925C212.986 243.876 216.407 242.774 219.917 242.776C221.273 242.777 222.624 242.94 223.942 243.261C227.85 244.24 231.276 246.589 233.594 249.88C235.576 252.684 236.636 256.034 236.628 259.466V259.466Z" fill="#E02B27"/>
<path d="M228.444 249.493C228.101 248.216 227.469 247.034 226.596 246.039C225.723 245.045 224.633 244.263 223.411 243.756C222.185 243.456 220.927 243.305 219.665 243.306C217.513 243.306 209.527 245.105 205.871 253.477C202.945 260.176 208.266 267.865 214.101 267.865C223.753 267.946 230.37 258.629 228.444 249.493Z" fill="#FF4743"/>
<path d="M218.819 247.038C218.547 246.832 218.243 246.674 217.918 246.571C217.348 246.327 216.711 246.292 216.117 246.472C213.794 247.137 211.805 249.115 210.49 251.067C210.095 251.599 209.826 252.214 209.701 252.864C209.576 253.515 209.6 254.185 209.77 254.826C210.075 255.637 210.646 256.322 211.389 256.769C212.133 257.216 213.006 257.4 213.867 257.29C215.353 257.124 216.742 256.473 217.819 255.437C218.894 254.645 219.77 253.614 220.376 252.425C220.841 251.495 220.939 250.426 220.651 249.428C220.362 248.43 219.708 247.577 218.819 247.038V247.038Z" fill="#FF9792"/>
<path d="M236.241 263.018C235.684 265.583 234.53 267.981 232.87 270.016C231.211 272.051 229.095 273.667 226.692 274.732C224.29 275.796 221.67 276.28 219.046 276.143C216.422 276.006 213.867 275.252 211.589 273.943C213.443 272.307 231.127 263.269 236.241 263.018Z" fill="#FF4743"/>
<path d="M323.461 335.775C323.467 337.835 323.163 339.884 322.56 341.854C319.745 342.401 316.862 342.504 314.016 342.16C314.302 346.562 313.367 350.959 311.314 354.866C308.502 356.204 305.426 356.895 302.311 356.889C297.653 356.893 293.124 355.36 289.428 352.529C285.733 349.698 283.076 345.727 281.872 341.233C281.39 339.454 281.147 337.618 281.152 335.775C281.153 330.25 283.322 324.945 287.193 320.998C291.064 317.051 296.33 314.776 301.86 314.661H302.311C307.918 314.661 313.297 316.885 317.263 320.845C321.229 324.804 323.458 330.174 323.461 335.775V335.775Z" fill="#0067AC"/>
<path d="M313.007 327.97C313.016 332.074 311.588 336.052 308.971 339.217C306.355 342.381 302.713 344.534 298.676 345.301C294.639 346.069 290.461 345.405 286.862 343.422C283.264 341.44 280.472 338.264 278.97 334.444C277.467 330.624 277.347 326.4 278.632 322.501C279.917 318.603 282.524 315.275 286.005 313.093C289.486 310.911 293.62 310.012 297.694 310.551C301.768 311.09 305.525 313.034 308.316 316.046C308.955 316.731 309.536 317.468 310.054 318.249C311.983 321.125 313.011 324.508 313.007 327.97Z" fill="#CD303B"/>
<path d="M308.316 316.046C306.443 328.113 294.063 336.782 283.106 340.505C281.403 338.872 280.047 336.913 279.118 334.746C278.19 332.578 277.708 330.246 277.701 327.888C277.694 325.531 278.162 323.196 279.078 321.023C279.994 318.85 281.339 316.883 283.032 315.241C284.726 313.598 286.733 312.312 288.934 311.461C291.135 310.609 293.486 310.209 295.845 310.284C298.205 310.359 300.525 310.908 302.668 311.898C304.81 312.888 306.731 314.299 308.316 316.046Z" fill="#FF4743"/>
<path opacity="0.8" d="M293.307 315.281C292.373 314.886 291.344 314.77 290.345 314.947C289.346 315.124 288.42 315.587 287.679 316.28C286.383 317.323 285.185 319.094 285.384 320.839C285.392 321.33 285.557 321.806 285.855 322.198C286.153 322.589 286.568 322.875 287.04 323.015C289.948 323.806 292.28 321.171 294.117 318.366C294.27 318.111 294.37 317.828 294.412 317.534C294.454 317.24 294.437 316.941 294.362 316.653C294.286 316.366 294.154 316.097 293.973 315.861C293.792 315.626 293.565 315.428 293.307 315.281V315.281Z" fill="white"/>
<path opacity="0.8" d="M313.007 327.969C313.012 330.941 312.26 333.866 310.822 336.467C309.384 339.069 307.307 341.263 304.787 342.843C303.814 334.183 311.395 320.479 311.864 321.702C312.627 323.703 313.015 325.828 313.007 327.969V327.969Z" fill="#FF4743"/>
<path d="M233.918 368.175C241.471 368.175 247.595 362.047 247.595 354.488C247.595 346.929 241.471 340.802 233.918 340.802C226.364 340.802 220.241 346.929 220.241 354.488C220.241 362.047 226.364 368.175 233.918 368.175Z" fill="#0067AC"/>
<path d="M219.098 348.454C219.094 351.135 219.942 353.749 221.52 355.918C222.046 356.641 222.65 357.304 223.321 357.896C224.97 359.396 226.986 360.436 229.166 360.912C231.345 361.388 233.612 361.283 235.738 360.608C237.864 359.933 239.775 358.712 241.28 357.066C242.784 355.421 243.828 353.409 244.308 351.233C244.511 350.32 244.614 349.389 244.614 348.454C244.614 345.08 243.272 341.843 240.883 339.457C238.494 337.071 235.253 335.73 231.874 335.73C228.495 335.73 225.255 337.071 222.865 339.457C220.476 341.843 219.134 345.08 219.134 348.454H219.098Z" fill="#E02B27"/>
<path d="M219.098 348.454C219.094 351.135 219.942 353.749 221.52 355.918C234.332 354.003 239.527 346.926 241.823 340.559C240.184 338.484 237.937 336.971 235.396 336.23C232.855 335.489 230.146 335.558 227.646 336.427C225.146 337.295 222.979 338.92 221.447 341.076C219.915 343.232 219.094 345.811 219.098 348.454V348.454Z" fill="#FF4743"/>
<g style="mix-blend-mode:screen" opacity="0.7">
<path d="M230.001 340.559C229.489 340.274 228.913 340.125 228.327 340.127C228.074 340.14 227.824 340.18 227.579 340.244H227.471H227.417C226.902 340.295 226.419 340.52 226.049 340.883C225.409 341.439 224.914 342.143 224.608 342.933C224.479 343.406 224.456 343.902 224.54 344.385C224.624 344.868 224.813 345.327 225.094 345.729C225.346 346.16 225.733 346.496 226.196 346.684C226.658 346.873 227.17 346.904 227.651 346.773C228.485 346.497 229.234 346.013 229.827 345.366C230.42 344.719 230.836 343.931 231.037 343.077C231.161 342.602 231.126 342.099 230.94 341.645C230.753 341.191 230.424 340.81 230.001 340.559V340.559Z" fill="white"/>
</g>
<path d="M223.285 357.896C224.935 359.396 226.95 360.436 229.13 360.912C231.309 361.388 233.576 361.283 235.702 360.608C237.828 359.933 239.739 358.712 241.244 357.066C242.748 355.421 243.792 353.409 244.272 351.233C237.88 352.195 228.345 354.794 223.285 357.896Z" fill="#FF4743"/>
<path d="M191.384 362.572C191.385 367.506 189.931 372.33 187.204 376.443C184.478 380.557 180.599 383.778 176.052 385.704C171.504 387.631 166.49 388.178 161.633 387.277C156.777 386.376 152.293 384.067 148.742 380.638C147.224 379.185 145.899 377.544 144.799 375.755C142.725 372.443 141.451 368.694 141.078 364.805C140.705 360.916 141.244 356.994 142.651 353.349C144.058 349.704 146.295 346.436 149.185 343.803C152.074 341.171 155.538 339.246 159.301 338.181C163.065 337.116 167.025 336.94 170.868 337.667C174.711 338.395 178.332 340.005 181.444 342.371C184.557 344.738 187.075 347.795 188.8 351.301C190.525 354.807 191.41 358.666 191.384 362.572V362.572Z" fill="#0067AC"/>
<path d="M186.054 354.515C186.058 359.959 184.159 365.234 180.686 369.43C177.213 373.625 172.382 376.479 167.028 377.498C161.673 378.518 156.13 377.639 151.355 375.014C146.58 372.388 142.872 368.181 140.87 363.117C138.868 358.054 138.698 352.451 140.39 347.276C142.082 342.101 145.528 337.677 150.136 334.769C154.744 331.86 160.223 330.648 165.63 331.342C171.036 332.037 176.03 334.593 179.751 338.572C183.809 342.89 186.063 348.593 186.054 354.515V354.515Z" fill="#E02B27"/>
<path d="M179.76 338.572C175.736 353.598 158.403 362.437 142.773 366.763C139.812 361.832 138.775 355.984 139.859 350.338C140.942 344.691 144.072 339.641 148.648 336.153C153.224 332.665 158.927 330.984 164.666 331.43C170.406 331.876 175.779 334.418 179.76 338.572Z" fill="#FF4743"/>
<path opacity="0.8" d="M161.897 340.82C162.005 337.178 158.457 335.658 155.387 336.251C153.549 336.526 151.841 337.361 150.498 338.643C148.774 340.05 147.658 342.066 147.383 344.273C147.327 344.904 147.433 345.54 147.689 346.12C147.946 346.7 148.345 347.206 148.85 347.591C149.682 348.419 150.771 348.939 151.939 349.066C153.431 349.149 154.909 348.738 156.143 347.897C158.79 346.629 161.798 343.868 161.897 340.82Z" fill="white"/>
<path d="M182.587 366.745C180.751 369.715 178.273 372.237 175.333 374.126C172.393 376.015 169.067 377.222 165.599 377.66C162.132 378.097 158.61 377.753 155.292 376.653C151.975 375.553 148.946 373.725 146.428 371.304C157.917 366.814 170.342 365.247 182.587 366.745Z" fill="#FF4743"/>
<path opacity="0.2" d="M321.939 403.263C321.941 409.364 320.131 415.328 316.738 420.402C313.345 425.475 308.522 429.43 302.878 431.766C297.235 434.101 291.025 434.713 285.033 433.523C279.042 432.333 273.538 429.396 269.218 425.081C264.899 420.767 261.957 415.271 260.766 409.287C259.575 403.303 260.187 397.1 262.526 391.464C264.864 385.828 268.824 381.011 273.904 377.622C278.984 374.234 284.956 372.426 291.065 372.428C293.927 372.422 296.777 372.818 299.528 373.606C305.985 375.442 311.666 379.331 315.71 384.683C319.754 390.035 321.941 396.558 321.939 403.263Z" fill="#0067AC"/>
<path d="M309.622 394.837C309.62 400.557 307.819 406.131 304.472 410.772C301.125 415.414 296.403 418.887 290.972 420.702C285.541 422.517 279.676 422.581 274.206 420.886C268.737 419.19 263.939 415.821 260.492 411.254C257.044 406.687 255.121 401.153 254.994 395.435C254.866 389.716 256.542 384.103 259.783 379.387C263.025 374.672 267.668 371.093 273.057 369.157C278.445 367.221 284.307 367.025 289.813 368.597C295.54 370.195 300.582 373.629 304.161 378.371C307.74 383.113 309.659 388.899 309.622 394.837V394.837Z" fill="#E02B27"/>
<path d="M297.971 386.798C297.966 391.569 296.559 396.234 293.925 400.214C291.29 404.194 287.545 407.315 283.151 409.19C278.758 411.064 273.911 411.61 269.21 410.759C264.509 409.909 260.162 407.699 256.706 404.405C254.93 399.674 254.503 394.543 255.473 389.583C256.443 384.624 258.773 380.031 262.202 376.316C265.631 372.6 270.025 369.908 274.895 368.539C279.765 367.17 284.92 367.178 289.786 368.561C292.368 370.847 294.433 373.655 295.844 376.799C297.256 379.944 297.98 383.352 297.971 386.798Z" fill="#FF4743"/>
<g style="mix-blend-mode:screen" opacity="0.7">
<path d="M277.415 377.428C277.127 375.485 274.714 374.415 272.967 374.901C272.57 375.015 272.18 375.15 271.797 375.306C270.979 375.429 270.208 375.768 269.564 376.286C266.476 378.687 264.459 382.176 265.008 386.123C265.251 387.805 267.043 388.623 268.502 388.821C271.383 389.127 273.85 386.951 275.425 384.792C276.232 383.759 276.823 382.575 277.165 381.311C277.507 380.046 277.592 378.726 277.415 377.428V377.428Z" fill="white"/>
</g>
<path d="M304.994 410.025C302.955 413.064 300.325 415.662 297.261 417.666C294.196 419.669 290.759 421.036 287.155 421.687C283.551 422.337 279.852 422.256 276.279 421.45C272.707 420.644 269.333 419.129 266.359 416.994C277.181 413.397 293.082 408.901 304.994 410.025Z" fill="#FF4743"/>
<path d="M141.35 487.332C141.353 489.73 141.029 492.117 140.387 494.427C138.585 500.944 134.371 506.534 128.599 510.065C122.826 513.597 115.926 514.806 109.294 513.449C102.663 512.091 96.7954 508.269 92.8791 502.754C88.9627 497.24 87.2902 490.446 88.1999 483.746C89.1096 477.047 92.5336 470.943 97.779 466.669C103.024 462.396 109.699 460.272 116.453 460.727C123.207 461.183 129.536 464.184 134.158 469.124C138.78 474.063 141.351 480.571 141.35 487.332V487.332Z" fill="#E02B27"/>
<path d="M134.039 468.997C124.702 491.478 110.35 499.265 95.0257 505.425C90.2672 500.245 87.7491 493.397 88.0189 486.372C88.2887 479.347 91.3247 472.713 96.4665 467.912C101.608 463.111 108.44 460.531 115.476 460.735C122.512 460.938 129.184 463.907 134.039 468.997V468.997Z" fill="#FF4743"/>
<g style="mix-blend-mode:screen">
<path d="M109.972 464.878C109.066 464.407 108.02 464.279 107.028 464.519C106.394 464.32 105.709 464.368 105.11 464.653C101.607 466.191 97.7898 469.15 97.7988 473.367C97.7988 477.71 102.301 478.268 105.533 477.171C108.765 476.074 111.719 473.457 112.583 470.211C113.159 468.035 111.773 465.912 109.972 464.878Z" fill="#FF9792"/>
</g>
<path d="M140.387 494.427C139.324 498.287 137.404 501.858 134.77 504.876C132.136 507.893 128.855 510.279 125.171 511.857C121.487 513.434 117.494 514.163 113.49 513.988C109.485 513.813 105.572 512.74 102.04 510.847C113.849 503.338 126.799 497.793 140.387 494.427Z" fill="#FF4743"/>
<path d="M275.975 493.735C275.97 496.869 276.684 499.962 278.062 502.777C279.44 505.592 281.446 508.055 283.925 509.975C285.564 511.249 287.385 512.27 289.327 513.006C293.44 514.552 297.94 514.746 302.171 513.559C306.402 512.371 310.142 509.865 312.846 506.405C315.551 502.945 317.077 498.713 317.203 494.325C317.33 489.938 316.049 485.625 313.548 482.016C311.047 478.407 307.457 475.69 303.301 474.262C299.146 472.834 294.642 472.769 290.447 474.078C286.252 475.386 282.585 477.999 279.982 481.535C277.378 485.071 275.974 489.346 275.975 493.735Z" fill="#E02B27"/>
<path d="M275.975 493.735C275.97 496.869 276.684 499.962 278.062 502.777C279.44 505.592 281.446 508.055 283.925 509.975C302.986 503.77 306.245 487.8 307.254 476.11C304.126 474.223 300.553 473.2 296.9 473.146C293.246 473.092 289.644 474.008 286.462 475.801C283.279 477.594 280.631 480.2 278.789 483.351C276.946 486.502 275.975 490.086 275.975 493.735V493.735Z" fill="#FF4743"/>
<path opacity="0.8" d="M292.479 478.412C291.516 478.215 290.516 478.332 289.624 478.745C289.508 478.763 289.394 478.79 289.282 478.826C285.87 479.95 282.979 482.899 283.169 486.676C283.172 487.564 283.478 488.424 284.036 489.115C284.594 489.807 285.371 490.288 286.239 490.48C287.124 490.581 288.02 490.499 288.872 490.239C289.725 489.98 290.514 489.547 291.191 488.969C293.289 487.341 295.171 484.958 295.495 482.279C295.72 480.48 294.126 478.799 292.479 478.412Z" fill="white"/>
<path opacity="0.8" d="M289.354 513.006C291.927 513.97 294.666 514.411 297.411 514.304C300.156 514.197 302.853 513.543 305.342 512.381C307.831 511.22 310.063 509.573 311.906 507.539C313.75 505.504 315.168 503.122 316.077 500.533C311.197 500.623 303.238 503.636 290.867 511.513C290.234 511.861 289.711 512.378 289.354 513.006V513.006Z" fill="#FF4743"/>
<path d="M193.5 514.507C193.495 519.393 194.94 524.172 197.655 528.237C200.369 532.303 204.229 535.473 208.748 537.347C213.266 539.221 218.239 539.715 223.039 538.765C227.838 537.816 232.248 535.466 235.71 532.014C239.172 528.561 241.531 524.161 242.488 519.369C243.446 514.577 242.959 509.609 241.089 505.094C239.219 500.578 236.051 496.718 231.984 494.001C227.917 491.285 223.135 489.834 218.242 489.832C214.994 489.825 211.777 490.458 208.774 491.695C205.771 492.932 203.042 494.749 200.744 497.041C198.445 499.333 196.622 502.056 195.379 505.053C194.136 508.05 193.498 511.263 193.5 514.507V514.507Z" fill="#E02B27"/>
<path d="M201.504 532.699C204.315 535.281 207.686 537.177 211.353 538.24C215.02 539.302 218.884 539.502 222.642 538.824C226.399 538.145 229.948 536.606 233.011 534.328C236.073 532.05 238.565 529.095 240.293 525.694C228.606 525.802 213.714 527.6 201.504 532.699Z" fill="#FF4743"/>
<path d="M193.5 514.507C193.504 519.299 194.905 523.986 197.534 527.996C215.145 524.677 227.813 511.683 236.835 498.195C233.52 494.417 229.13 491.738 224.251 490.515C219.372 489.293 214.236 489.585 209.527 491.354C204.819 493.122 200.762 496.282 197.899 500.413C195.035 504.543 193.501 509.447 193.5 514.471V514.507Z" fill="#FF4743"/>
<g style="mix-blend-mode:screen" opacity="0.7">
<path d="M214.749 497.476C214.24 496.661 213.486 496.027 212.595 495.666C211.704 495.304 210.722 495.232 209.788 495.461C208.517 495.753 207.302 496.244 206.186 496.918C206.069 496.972 205.943 497.008 205.835 497.071C203.828 498.137 202.264 499.88 201.423 501.99C201.394 502.046 201.361 502.1 201.324 502.152C200.803 503.153 200.65 504.305 200.892 505.407C201.027 507.727 202.135 510.263 204.539 510.937C205.98 511.328 207.5 511.328 208.942 510.937C214.299 509.615 218.269 502.277 214.749 497.476Z" fill="white"/>
</g>
<path d="M126.17 542.5C126.176 545.745 125.005 548.882 122.874 551.331C120.744 553.781 117.797 555.376 114.579 555.823C111.361 556.27 108.09 555.538 105.371 553.763C102.652 551.987 100.669 549.288 99.7879 546.165C98.9072 543.042 99.1887 539.706 100.58 536.774C101.972 533.843 104.38 531.513 107.358 530.217C110.336 528.922 113.684 528.747 116.781 529.725C119.879 530.704 122.517 532.77 124.207 535.54C125.497 537.633 126.176 540.043 126.17 542.5V542.5Z" fill="#0067AC"/>
<g style="mix-blend-mode:screen">
<path d="M107.298 524.75C106.822 524.571 106.314 524.488 105.806 524.507C105.297 524.525 104.798 524.645 104.336 524.857C103.897 525.04 103.526 525.354 103.273 525.757C102.997 525.98 102.776 526.263 102.625 526.584C102.413 526.995 102.316 527.456 102.343 527.918C102.37 528.38 102.52 528.826 102.778 529.21C103.069 529.586 103.45 529.884 103.885 530.078C104.32 530.271 104.797 530.353 105.272 530.316C105.984 530.218 106.656 529.929 107.216 529.479C107.775 529.029 108.202 528.436 108.45 527.762C108.575 527.489 108.643 527.194 108.653 526.894C108.662 526.594 108.612 526.296 108.504 526.015C108.397 525.735 108.235 525.479 108.028 525.262C107.821 525.044 107.573 524.87 107.298 524.75V524.75Z" fill="#0067AC"/>
</g>
<path d="M38.8962 548.076C37.9818 549.334 36.806 550.379 35.4493 551.142C34.0927 551.904 32.5872 552.364 31.0359 552.491C29.3746 552.616 27.7053 552.397 26.1326 551.848C24.56 551.299 23.118 550.431 21.8971 549.299C20.6393 548.187 19.6223 546.83 18.9085 545.312C18.1948 543.793 17.7993 542.145 17.7463 540.468C17.7184 538.911 18.0348 537.368 18.6729 535.947C19.311 534.526 20.2551 533.264 21.4379 532.249C23.7636 530.242 26.7285 529.126 29.8024 529.102C32.6685 529.022 35.4582 530.031 37.6087 531.925C39.7298 533.891 41.0344 536.58 41.2642 539.461C41.5466 542.524 40.7051 545.586 38.8962 548.076Z" fill="#60B8E9"/>
<path d="M60.3432 566.267C59.6672 567.489 58.6433 568.482 57.4013 569.122C56.1593 569.762 54.7551 570.019 53.3666 569.861C51.9781 569.703 50.6678 569.137 49.6017 568.235C48.5355 567.333 47.7615 566.134 47.3778 564.792C47.13 563.912 47.0653 562.99 47.1876 562.084C47.3099 561.178 47.6167 560.306 48.0891 559.523C48.9911 557.912 50.4944 556.723 52.271 556.216C54.0476 555.708 55.9531 555.923 57.5715 556.814C59.1898 557.705 60.3897 559.199 60.909 560.97C61.4283 562.741 61.2249 564.645 60.3432 566.267V566.267Z" fill="#60B8E9"/>
<path d="M94.2064 576.24C93.8466 577.409 93.2492 578.492 92.4513 579.42C91.6534 580.349 90.6724 581.103 89.5695 581.635C87.2634 582.718 84.6215 582.843 82.2231 581.984C79.8246 581.124 77.8655 579.349 76.7751 577.049C76.2599 575.94 75.9804 574.736 75.954 573.513C75.9277 572.29 76.1551 571.076 76.622 569.945C77.556 567.684 79.3216 565.866 81.5561 564.864C83.7351 563.855 86.2246 563.742 88.4859 564.552C90.7472 565.361 92.5985 567.027 93.6392 569.19C94.7265 571.38 94.9296 573.904 94.2064 576.24V576.24Z" fill="#A3DFF7"/>
<path d="M127.835 584.396C127.574 585.917 127.002 587.368 126.155 588.658C125.308 589.948 124.203 591.05 122.91 591.895C121.605 592.744 120.146 593.331 118.616 593.622C116.998 593.906 115.341 593.875 113.736 593.532C112.171 593.193 110.69 592.547 109.379 591.629C108.068 590.712 106.954 589.543 106.1 588.191C105.282 586.879 104.742 585.414 104.516 583.885C104.29 582.357 104.382 580.798 104.786 579.306C105.591 576.303 107.527 573.726 110.188 572.112C111.453 571.343 112.847 570.81 114.303 570.539C115.794 570.268 117.325 570.298 118.805 570.628C120.289 570.936 121.693 571.549 122.928 572.427C124.144 573.273 125.189 574.341 126.008 575.574C127.731 578.17 128.385 581.33 127.835 584.396Z" fill="#60B8E9"/>
<path d="M159.745 588.218C159.648 589.762 159.234 591.27 158.53 592.649C157.825 594.027 156.844 595.246 155.648 596.23C154.407 597.235 152.98 597.985 151.448 598.439C149.916 598.892 148.31 599.04 146.721 598.873C145.132 598.706 143.592 598.227 142.188 597.465C140.785 596.703 139.545 595.672 138.541 594.431C137.578 593.22 136.876 591.823 136.476 590.329C136.076 588.835 135.989 587.274 136.218 585.745C136.668 582.69 138.28 579.926 140.72 578.029C143.102 576.121 146.143 575.231 149.18 575.555C152.216 575.878 155.001 577.389 156.927 579.756C158.921 582.109 159.93 585.14 159.745 588.218V588.218Z" fill="#A3DFF7"/>
<path d="M188.638 588.748C188.68 589.863 188.492 590.975 188.087 592.014C187.681 593.054 187.066 593.999 186.279 594.791C185.475 595.606 184.516 596.251 183.458 596.69C182.401 597.128 181.266 597.351 180.12 597.345C178.984 597.369 177.855 597.164 176.8 596.74C175.746 596.317 174.788 595.684 173.985 594.881C173.182 594.077 172.551 593.119 172.129 592.065C171.707 591.011 171.504 589.883 171.531 588.748C171.596 586.527 172.519 584.417 174.106 582.859C175.694 581.302 177.823 580.419 180.048 580.394C182.251 580.408 184.362 581.275 185.937 582.813C187.582 584.361 188.552 586.493 188.638 588.748Z" fill="#60B8E9"/>
<path d="M223.861 585.484C224.105 587.013 224.031 588.576 223.644 590.075C223.257 591.574 222.564 592.977 221.61 594.198C220.614 595.447 219.381 596.489 217.981 597.261C216.581 598.034 215.042 598.523 213.453 598.7C211.863 598.877 210.254 598.739 208.718 598.293C207.183 597.848 205.75 597.104 204.503 596.104C203.301 595.132 202.314 593.923 201.603 592.552C200.892 591.18 200.472 589.677 200.37 588.137C200.162 585.046 201.151 581.994 203.134 579.612C205.049 577.267 207.809 575.765 210.82 575.429C213.832 575.092 216.855 575.949 219.242 577.813C221.716 579.678 223.371 582.427 223.861 585.484V585.484Z" fill="#60B8E9"/>
<path d="M252.988 579.288C253.317 580.481 253.398 581.729 253.228 582.955C253.058 584.181 252.639 585.36 251.998 586.419C251.328 587.5 250.451 588.439 249.417 589.181C248.383 589.923 247.213 590.454 245.974 590.744C244.734 591.034 243.45 591.077 242.194 590.87C240.938 590.663 239.735 590.211 238.654 589.539C237.606 588.879 236.705 588.01 236.006 586.988C235.308 585.966 234.827 584.811 234.593 583.595C234.115 581.167 234.602 578.648 235.953 576.572C237.253 574.515 239.315 573.054 241.688 572.508C242.861 572.225 244.079 572.177 245.27 572.367C246.462 572.557 247.604 572.98 248.63 573.614C250.766 574.868 252.329 576.903 252.988 579.288V579.288Z" fill="#A3DFF7"/>
<path d="M285.51 567.823C286.134 569.24 286.457 570.771 286.457 572.319C286.457 573.867 286.134 575.398 285.51 576.815C284.862 578.288 283.925 579.616 282.754 580.72C281.583 581.824 280.203 582.683 278.694 583.245C277.146 583.82 275.501 584.089 273.85 584.036C272.29 583.986 270.758 583.616 269.348 582.948C267.944 582.293 266.692 581.355 265.669 580.192C264.647 579.03 263.876 577.669 263.405 576.195C262.463 573.247 262.689 570.052 264.036 567.265C264.676 565.925 265.547 564.707 266.611 563.668C267.7 562.633 268.99 561.831 270.401 561.312C273.212 560.253 276.324 560.328 279.081 561.519C281.95 562.725 284.25 564.98 285.51 567.823Z" fill="#60B8E9"/>
<path d="M310.477 554.739C311.026 555.618 311.389 556.599 311.544 557.623C311.698 558.646 311.642 559.691 311.378 560.692C310.791 562.756 309.407 564.502 307.531 565.548C305.656 566.593 303.441 566.852 301.374 566.267C300.383 565.984 299.461 565.499 298.666 564.843C297.871 564.187 297.221 563.374 296.755 562.455C295.822 560.608 295.632 558.475 296.224 556.493C296.79 554.561 298.08 552.922 299.826 551.915C301.594 550.928 303.679 550.673 305.633 551.205C307.648 551.705 309.387 552.974 310.477 554.739V554.739Z" fill="#A3DFF7"/>
<path d="M337.299 534.794C338.108 535.689 338.724 536.741 339.106 537.884C339.489 539.028 339.631 540.238 339.523 541.439C339.418 542.659 339.069 543.845 338.497 544.928C337.875 546.055 337.04 547.05 336.039 547.86C335.073 548.663 333.955 549.261 332.75 549.618C331.546 549.975 330.282 550.084 329.034 549.937C327.833 549.802 326.675 549.416 325.633 548.806C324.59 548.196 323.688 547.374 322.983 546.394C321.571 544.433 320.953 542.011 321.255 539.614C321.545 537.291 322.71 535.165 324.514 533.67C325.425 532.924 326.484 532.379 327.62 532.069C328.719 531.738 329.871 531.616 331.015 531.709C333.426 531.903 335.672 533.006 337.299 534.794V534.794Z" fill="#60B8E9"/>
<path d="M359.404 510.811C360.422 511.577 361.269 512.547 361.889 513.659C362.509 514.771 362.889 516 363.005 517.268C363.122 518.558 362.988 519.859 362.609 521.099C362.188 522.399 361.508 523.601 360.61 524.633C359.759 525.657 358.708 526.498 357.521 527.103C356.333 527.707 355.034 528.063 353.704 528.149C352.432 528.234 351.156 528.051 349.958 527.613C348.761 527.175 347.669 526.49 346.753 525.604C344.917 523.831 343.818 521.433 343.674 518.886C343.527 516.428 344.325 514.005 345.907 512.115C346.711 511.179 347.693 510.411 348.797 509.858C349.871 509.3 351.041 508.952 352.246 508.833C354.796 508.567 357.353 509.274 359.404 510.811V510.811Z" fill="#A3DFF7"/>
<path d="M137.542 409.89C136.589 411.047 135.392 411.98 134.036 412.622C132.68 413.264 131.2 413.6 129.699 413.604C128.045 413.576 126.415 413.2 124.916 412.5C123.417 411.799 122.083 410.79 121.002 409.539C119.844 408.286 118.965 406.802 118.42 405.186C117.876 403.57 117.678 401.858 117.841 400.16C118.005 398.644 118.537 397.19 119.39 395.925C120.244 394.685 121.376 393.66 122.694 392.93C125.255 391.552 128.178 390.99 131.068 391.321C133.63 391.519 136.024 392.671 137.776 394.549C139.508 396.57 140.437 399.155 140.387 401.815C140.427 404.758 139.418 407.62 137.542 409.89V409.89Z" fill="#60B8E9"/>
<path d="M158.214 423.828C157.86 424.47 157.38 425.035 156.803 425.487C156.225 425.94 155.562 426.271 154.854 426.462C154.145 426.653 153.405 426.698 152.678 426.597C151.951 426.495 151.252 426.248 150.623 425.871C149.994 425.493 149.448 424.992 149.017 424.399C148.586 423.805 148.28 423.131 148.116 422.416C147.952 421.702 147.934 420.962 148.063 420.24C148.193 419.519 148.466 418.83 148.868 418.217C149.641 417.037 150.841 416.203 152.216 415.888C153.592 415.574 155.036 415.804 156.246 416.53C157.455 417.256 158.336 418.422 158.703 419.783C159.07 421.144 158.895 422.593 158.214 423.828V423.828Z" fill="#A3DFF7"/>
<path d="M189.592 437.748C189.202 438.856 188.59 439.872 187.792 440.735C186.995 441.598 186.03 442.289 184.955 442.766C182.711 443.729 180.177 443.764 177.907 442.864C175.637 441.964 173.817 440.202 172.845 437.964C172.392 436.879 172.166 435.713 172.182 434.538C172.197 433.362 172.454 432.203 172.935 431.13C173.894 428.985 175.646 427.294 177.824 426.409C179.95 425.512 182.344 425.487 184.489 426.338C186.633 427.19 188.357 428.85 189.286 430.959C190.262 433.098 190.372 435.531 189.592 437.748V437.748Z" fill="#60B8E9"/>
<path d="M221.538 446.813C221.237 448.267 220.639 449.644 219.78 450.858C218.922 452.071 217.822 453.094 216.55 453.863C215.271 454.63 213.85 455.131 212.372 455.337C210.815 455.574 209.227 455.482 207.708 455.068C206.22 454.69 204.823 454.017 203.6 453.091C202.376 452.164 201.351 451.002 200.586 449.672C199.853 448.381 199.395 446.953 199.24 445.477C199.085 444.001 199.237 442.508 199.686 441.094C200.559 438.258 202.494 435.867 205.088 434.421C206.976 433.336 209.143 432.833 211.317 432.974C213.49 433.114 215.574 433.893 217.306 435.213C219.044 436.55 220.369 438.352 221.125 440.409C221.882 442.467 222.041 444.696 221.583 446.84L221.538 446.813Z" fill="#A3DFF7"/>
<path d="M251.989 451.714C251.837 453.191 251.384 454.622 250.658 455.918C249.931 457.214 248.947 458.347 247.766 459.249C245.281 461.081 242.171 461.858 239.115 461.41C236.059 460.961 233.304 459.325 231.451 456.857C230.573 455.66 229.952 454.294 229.627 452.846C229.301 451.397 229.279 449.898 229.56 448.44C230.121 445.521 231.784 442.929 234.206 441.201C236.556 439.482 239.489 438.755 242.372 439.177C245.255 439.599 247.855 441.137 249.612 443.459C251.437 445.803 252.288 448.759 251.989 451.714V451.714Z" fill="#60B8E9"/>
<path d="M279.648 453.143C279.655 454.218 279.441 455.282 279.022 456.272C278.602 457.261 277.985 458.155 277.208 458.898C276.406 459.65 275.464 460.236 274.435 460.623C273.406 461.01 272.311 461.191 271.212 461.155C270.127 461.134 269.058 460.895 268.067 460.453C267.077 460.011 266.185 459.375 265.445 458.583C264.706 457.79 264.133 456.857 263.761 455.84C263.388 454.822 263.225 453.74 263.279 452.658C263.409 450.529 264.359 448.534 265.931 447.09C267.502 445.647 269.572 444.867 271.707 444.915C273.826 444.978 275.836 445.873 277.298 447.406C278.8 448.94 279.643 450.998 279.648 453.143V453.143Z" fill="#A3DFF7"/>
<path d="M313.529 450.599C313.764 452.068 313.689 453.571 313.311 455.011C312.933 456.45 312.259 457.796 311.332 458.961C310.359 460.158 309.157 461.151 307.797 461.882C306.438 462.613 304.947 463.068 303.41 463.221C301.873 463.374 300.322 463.222 298.844 462.773C297.367 462.324 295.993 461.588 294.802 460.607C293.662 459.651 292.733 458.47 292.075 457.137C291.416 455.804 291.041 454.349 290.975 452.865C290.859 449.91 291.862 447.02 293.784 444.771C295.634 442.556 298.281 441.154 301.156 440.868C304.03 440.582 306.902 441.435 309.154 443.243C311.49 445.054 313.054 447.682 313.529 450.599V450.599Z" fill="#A3DFF7"/>
<path d="M341.342 444.133C341.712 445.265 341.841 446.461 341.722 447.646C341.602 448.83 341.237 449.977 340.649 451.012C340.033 452.082 339.21 453.017 338.226 453.763C337.242 454.509 336.119 455.05 334.922 455.355C333.694 455.67 332.416 455.747 331.159 455.58C329.97 455.402 328.828 454.989 327.8 454.366C326.781 453.755 325.901 452.939 325.214 451.97C324.527 451.001 324.05 449.9 323.812 448.737C323.339 446.407 323.766 443.984 325.009 441.957C325.609 440.994 326.385 440.152 327.296 439.475C328.212 438.767 329.263 438.253 330.384 437.964C332.621 437.397 334.99 437.719 336.993 438.863C339.061 440.004 340.616 441.888 341.342 444.133Z" fill="#60B8E9"/>
<path d="M371.577 430.779C372.344 432.056 372.829 433.482 373 434.962C373.171 436.441 373.023 437.94 372.567 439.358C372.105 440.814 371.341 442.156 370.325 443.297C369.8 443.897 369.222 444.448 368.597 444.942C367.932 445.433 367.224 445.86 366.481 446.219C365.741 446.594 364.966 446.896 364.167 447.119C363.393 447.304 362.603 447.416 361.808 447.451C360.275 447.543 358.74 447.307 357.306 446.759C355.911 446.237 354.643 445.426 353.585 444.38C352.527 443.334 351.702 442.076 351.165 440.689C350.382 438.661 350.168 436.458 350.546 434.317C350.923 432.176 351.878 430.179 353.308 428.54C353.77 428.022 354.283 427.552 354.839 427.137C355.397 426.699 356.001 426.323 356.64 426.013C357.278 425.713 357.945 425.475 358.629 425.303C359.297 425.124 359.982 425.016 360.673 424.979C362.844 424.877 365.002 425.366 366.916 426.394C368.83 427.422 370.429 428.95 371.541 430.815L371.577 430.779Z" fill="#60B8E9"/>
<path d="M141.593 309.418C141.244 310.728 140.616 311.946 139.75 312.989C138.884 314.033 137.802 314.876 136.578 315.461C135.222 316.081 133.751 316.412 132.26 316.432C130.768 316.452 129.289 316.161 127.916 315.578C126.429 314.989 125.079 314.102 123.948 312.971C122.818 311.841 121.931 310.491 121.344 309.005C121.086 308.315 120.914 307.596 120.83 306.864C120.76 306.166 120.784 305.461 120.903 304.769C121.165 303.429 121.788 302.186 122.703 301.172C123.603 300.164 124.636 299.284 125.774 298.555C126.293 298.206 126.831 297.885 127.385 297.593C127.903 297.313 128.438 297.066 128.988 296.856C131.084 295.959 133.45 295.927 135.57 296.766C137.846 297.737 139.692 299.501 140.765 301.73C141.983 304.102 142.278 306.841 141.593 309.418V309.418Z" fill="#60B8E9"/>
<path d="M169.46 314.481C169.213 315.97 168.396 317.305 167.181 318.202C165.966 319.1 164.449 319.49 162.951 319.29C161.453 319.091 160.092 318.316 159.156 317.132C158.22 315.947 157.782 314.445 157.935 312.943C158.182 311.454 158.999 310.119 160.214 309.222C161.429 308.324 162.946 307.934 164.444 308.134C165.942 308.334 167.303 309.108 168.239 310.293C169.175 311.477 169.613 312.979 169.46 314.481V314.481Z" fill="#A3DFF7"/>
<path d="M206.078 315.38C206.091 316.634 205.857 317.879 205.388 319.042C204.92 320.206 204.226 321.266 203.348 322.162C202.469 323.058 201.422 323.772 200.267 324.264C199.112 324.756 197.871 325.016 196.615 325.029C195.36 325.042 194.114 324.808 192.949 324.34C191.783 323.872 190.722 323.179 189.825 322.302C188.928 321.424 188.213 320.379 187.72 319.225C187.227 318.071 186.967 316.832 186.954 315.578C187.033 313.114 188.061 310.775 189.826 309.051C191.59 307.326 193.953 306.349 196.421 306.323C198.89 306.298 201.273 307.226 203.072 308.913C204.872 310.601 205.949 312.918 206.078 315.38Z" fill="#60B8E9"/>
<path d="M241.121 310.398C241.51 311.925 241.568 313.518 241.29 315.069C241.012 316.62 240.405 318.094 239.509 319.391C238.552 320.753 237.331 321.911 235.92 322.795C234.508 323.68 232.934 324.275 231.289 324.543C229.655 324.84 227.979 324.804 226.359 324.44C224.74 324.075 223.21 323.389 221.862 322.421C220.587 321.502 219.521 320.323 218.736 318.962C217.95 317.601 217.463 316.089 217.306 314.526C216.995 311.414 217.883 308.301 219.791 305.821C221.594 303.385 224.269 301.737 227.258 301.223C230.248 300.708 233.321 301.367 235.836 303.061C238.452 304.763 240.337 307.38 241.121 310.398V310.398Z" fill="#60B8E9"/>
<path d="M267.466 301.397C267.804 302.058 267.998 302.782 268.035 303.523C268.072 304.264 267.952 305.004 267.682 305.696C267.102 307.156 265.967 308.328 264.525 308.957C263.083 309.585 261.451 309.618 259.984 309.05C259.295 308.772 258.671 308.353 258.153 307.82C257.635 307.287 257.235 306.653 256.977 305.956C256.458 304.568 256.5 303.034 257.094 301.676C257.652 300.329 258.713 299.252 260.052 298.671C261.391 298.091 262.903 298.052 264.27 298.565C265.656 299.069 266.799 300.082 267.466 301.397V301.397Z" fill="#A3DFF7"/>
<path d="M291.569 277.999C292.638 278.695 293.536 279.622 294.197 280.712C294.857 281.801 295.264 283.026 295.387 284.294C295.475 285.641 295.291 286.993 294.847 288.268C294.345 289.658 293.56 290.929 292.542 292C291.592 293.031 290.434 293.849 289.144 294.399C287.854 294.949 286.462 295.22 285.059 295.192C283.781 295.148 282.529 294.821 281.394 294.233C280.258 293.645 279.268 292.811 278.496 291.793C276.983 289.805 276.204 287.356 276.29 284.86C276.289 282.618 277.127 280.456 278.64 278.799C279.391 278.022 280.295 277.41 281.296 277.001C282.319 276.556 283.414 276.297 284.528 276.237C287.006 276.024 289.485 276.644 291.569 277.999V277.999Z" fill="#A3DFF7"/>
<path d="M273.922 219.971C273.57 217.681 274.039 215.341 275.245 213.362C276.286 211.551 277.97 210.197 279.963 209.567C281.895 209.052 283.952 209.317 285.69 210.305C286.649 210.811 287.533 211.446 288.319 212.193C289.185 213.001 289.912 213.946 290.471 214.99C291.02 216.042 291.327 217.203 291.371 218.389C291.413 219.574 291.169 220.752 290.66 221.824C290.089 222.991 289.275 224.024 288.274 224.853C287.273 225.682 286.106 226.29 284.852 226.635C283.653 226.995 282.391 227.097 281.149 226.934C279.908 226.771 278.715 226.347 277.649 225.69C276.657 225.056 275.811 224.218 275.168 223.232C274.526 222.246 274.101 221.134 273.922 219.971Z" fill="#A3DFF7"/>
<path d="M237.069 221.275C237.463 217.955 239.065 214.895 241.571 212.678C243.9 210.546 246.966 209.399 250.125 209.477C253.267 209.606 256.234 210.958 258.39 213.245C260.731 215.621 262.129 218.765 262.325 222.093C262.432 223.776 262.18 225.461 261.583 227.038C260.987 228.615 260.061 230.047 258.867 231.239C257.598 232.464 256.096 233.422 254.449 234.055C252.802 234.688 251.044 234.985 249.28 234.926C247.516 234.867 245.782 234.455 244.181 233.713C242.579 232.972 241.144 231.916 239.96 230.609C238.849 229.343 238.018 227.858 237.52 226.249C237.022 224.641 236.868 222.946 237.069 221.275V221.275Z" fill="#60B8E9"/>
<path d="M210.499 216.959C211.173 214.702 212.666 212.778 214.686 211.563C216.613 210.362 218.939 209.971 221.154 210.477C223.369 210.982 225.294 212.343 226.508 214.261C227.81 216.229 228.321 218.615 227.939 220.942C227.749 222.109 227.32 223.224 226.679 224.217C226.037 225.211 225.198 226.061 224.212 226.716C223.179 227.376 222.026 227.825 220.818 228.036C219.61 228.247 218.373 228.216 217.177 227.945C215.981 227.674 214.852 227.168 213.854 226.457C212.856 225.745 212.009 224.843 211.364 223.802C210.748 222.785 210.353 221.651 210.204 220.472C210.055 219.293 210.156 218.096 210.499 216.959Z" fill="#60B8E9"/>
<path d="M182.569 203.129C184.052 201.139 186.166 199.709 188.566 199.073C190.743 198.436 193.082 198.655 195.103 199.685C197.115 200.808 198.63 202.648 199.343 204.837C200.162 207.194 200.104 209.767 199.181 212.085C198.716 213.258 198.006 214.317 197.097 215.194C196.189 216.07 195.104 216.742 193.914 217.166C192.641 217.604 191.291 217.772 189.949 217.657C188.608 217.543 187.305 217.149 186.126 216.5C184.913 215.871 183.845 214.997 182.99 213.934C182.134 212.87 181.51 211.64 181.156 210.322C180.841 209.094 180.805 207.811 181.05 206.566C181.294 205.322 181.813 204.147 182.569 203.129V203.129Z" fill="#A3DFF7"/>
<path d="M167.425 182.194C168.791 181.932 170.205 182.114 171.459 182.716C172.571 183.192 173.465 184.068 173.962 185.171C174.201 185.711 174.318 186.298 174.304 186.888C174.305 187.502 174.198 188.11 173.989 188.687C173.553 190.012 172.685 191.152 171.522 191.924C170.926 192.322 170.249 192.581 169.539 192.68C168.83 192.78 168.107 192.718 167.425 192.5C166.709 192.259 166.052 191.87 165.498 191.358C164.894 190.781 164.41 190.09 164.076 189.325C163.758 188.59 163.598 187.796 163.607 186.995C163.617 186.194 163.795 185.404 164.13 184.676C164.453 184.039 164.918 183.483 165.489 183.053C166.06 182.623 166.722 182.329 167.425 182.194V182.194Z" fill="#60B8E9"/>
<path d="M217.45 114.797C217.928 115.778 218.201 116.846 218.25 117.937C218.3 119.027 218.125 120.116 217.738 121.136C217.332 122.18 216.717 123.131 215.932 123.931C215.147 124.731 214.208 125.364 213.171 125.791C212.134 126.218 211.021 126.431 209.899 126.416C208.778 126.401 207.671 126.159 206.645 125.704C205.65 125.256 204.756 124.609 204.019 123.803C203.282 122.998 202.717 122.05 202.36 121.019C201.641 118.969 201.712 116.726 202.558 114.725C202.942 113.769 203.514 112.9 204.239 112.168C204.965 111.436 205.829 110.856 206.781 110.461C207.734 110.067 208.755 109.866 209.786 109.871C210.818 109.876 211.837 110.086 212.786 110.489C214.825 111.292 216.489 112.829 217.45 114.797Z" fill="#A3DFF7"/>
<path d="M238.798 110.876C244.124 110.876 248.441 106.564 248.441 101.245C248.441 95.9261 244.124 91.6143 238.798 91.6143C233.472 91.6143 229.155 95.9261 229.155 101.245C229.155 106.564 233.472 110.876 238.798 110.876Z" fill="#60B8E9"/>
<path d="M187.669 127.465C188.756 122.863 185.903 118.253 181.295 117.167C176.688 116.081 172.071 118.93 170.984 123.532C169.896 128.133 172.75 132.744 177.357 133.83C181.965 134.916 186.581 132.066 187.669 127.465Z" fill="#60B8E9"/>
<path d="M73.2096 485.408C72.2192 486.154 72.7504 485.777 73.2096 485.408V485.408Z" fill="#306617"/>
<path d="M199.866 77.4782L199.37 79.4295C199.37 79.4295 237.456 88.0172 237.483 88.1072L235.07 81.264L198.92 77.3523" fill="#0067AC"/>
<path d="M205.403 57.821L230.713 64.2505L229.155 58.4055L206.384 55.5549L205.403 57.821Z" fill="#0067AC"/>
<path d="M230.262 60.1768L205.403 56.6788C205.556 55.8245 205.7 54.7274 205.844 53.5135C206.465 48.163 206.997 40.1418 207.159 36.428L226.229 37.3272L227.849 37.4082C227.849 37.7768 227.903 38.1905 227.939 38.6311C228.273 42.9744 228.903 50.3212 229.542 55.5368C229.794 57.4431 230.055 59.0977 230.262 60.1768Z" fill="#E02B27"/>
<path d="M236.475 82.2711L223.564 80.5805L198.92 77.3523C201.35 72.211 203.076 66.7668 204.052 61.166L220.817 67.7484L232.639 72.3975C233.659 75.7832 234.942 79.0844 236.475 82.2711V82.2711Z" fill="#FF3B44"/>
<path d="M236.475 82.2712L221.313 80.2838C220.277 75.6798 219.728 69.9336 219.134 67.092L232.639 72.3975C233.659 75.7833 234.942 79.0845 236.475 82.2712V82.2712Z" fill="#CF2F2F"/>
<path d="M234.107 63.9806C233.695 63.9802 233.289 63.8803 232.923 63.6892C232.558 63.4982 232.244 63.2218 232.009 62.8835L230.623 60.9052L230.488 61.6696C230.385 62.2594 230.076 62.7938 229.616 63.1775C229.156 63.5612 228.575 63.7693 227.976 63.7648C227.826 63.7778 227.675 63.7778 227.525 63.7648L225.085 63.3242C224.688 63.2529 224.314 63.0885 223.993 62.8447C223.672 62.6008 223.414 62.2844 223.24 61.9214C222.997 61.993 222.745 62.0294 222.492 62.0293C222.342 62.0426 222.192 62.0426 222.042 62.0293L219.602 61.5886C219.272 61.5301 218.957 61.407 218.674 61.2266C218.392 61.0461 218.148 60.8117 217.956 60.5368C217.765 60.262 217.629 59.9521 217.558 59.6249C217.487 59.2977 217.48 58.9597 217.54 58.6301L219.89 45.5553L217.531 42.1651L215.028 45.4563L216.829 58.5852C216.874 58.9176 216.854 59.2558 216.769 59.5804C216.684 59.9049 216.535 60.2096 216.332 60.4768C216.129 60.744 215.875 60.9687 215.585 61.1378C215.295 61.307 214.974 61.4174 214.641 61.4627L212.192 61.7955C212.075 61.8044 211.958 61.8044 211.841 61.7955C211.322 61.604 210.749 61.6229 210.244 61.8481C209.739 62.0733 209.343 62.4869 209.14 63.0004L206.682 63.3422C206.565 63.3511 206.447 63.3511 206.33 63.3422C205.715 63.3412 205.12 63.1175 204.656 62.7125C204.193 62.3075 203.892 61.7485 203.809 61.139L203.701 60.3657L202.243 62.29C201.829 62.8257 201.221 63.1777 200.55 63.2702C200.436 63.2795 200.322 63.2795 200.208 63.2702C199.651 63.2723 199.109 63.0888 198.668 62.7487L196.687 61.2559C196.418 61.0527 196.191 60.798 196.02 60.5067C195.849 60.2154 195.738 59.8932 195.693 59.5587C195.648 59.2242 195.67 58.8841 195.757 58.5581C195.844 58.232 195.995 57.9264 196.201 57.659L197.642 55.7706L196.867 55.8785H196.516C195.9 55.8775 195.306 55.6539 194.842 55.2488C194.379 54.8438 194.078 54.2849 193.995 53.6754L193.653 51.2294C193.563 50.5594 193.741 49.881 194.148 49.341C194.234 49.2329 194.328 49.1308 194.427 49.0353C194.192 48.7047 194.041 48.3221 193.986 47.9202L193.644 45.4653C193.554 44.7953 193.734 44.1172 194.145 43.5795C194.555 43.0418 195.161 42.6884 195.832 42.5968L209.005 40.7983L211.508 37.5071L207.546 36.1582L195.598 41.9313C195.25 42.0993 194.868 42.1855 194.481 42.1831C194.197 42.1825 193.914 42.1369 193.644 42.0482C193.004 41.8232 192.48 41.3544 192.185 40.7443L191.105 38.5232C190.931 38.1617 190.845 37.7643 190.853 37.3632C190.451 37.2959 190.072 37.1334 189.746 36.8893C189.42 36.6452 189.157 36.3267 188.98 35.9604L187.9 33.7303C187.752 33.4289 187.665 33.1013 187.645 32.7663C187.625 32.4314 187.672 32.0958 187.783 31.7789C188.01 31.1442 188.475 30.6222 189.079 30.3222L189.781 29.9895L187.504 29.1981C186.864 28.9757 186.339 28.509 186.044 27.9004C185.748 27.2918 185.707 26.5911 185.928 25.9519L186.747 23.6139C186.922 23.1135 187.248 22.6797 187.68 22.3721C188.113 22.0645 188.63 21.8983 189.16 21.8963C189.445 21.8999 189.728 21.9484 189.998 22.0402L192.276 22.8315L191.933 22.1391C191.639 21.5297 191.599 20.8285 191.822 20.1895C192.044 19.5505 192.512 19.026 193.122 18.731L195.355 17.6519C195.7 17.485 196.079 17.3989 196.462 17.4001C196.747 17.3996 197.03 17.4451 197.3 17.535C197.432 17.5772 197.559 17.6346 197.678 17.7059C197.912 17.3828 198.221 17.1206 198.578 16.9415L200.811 15.8625C201.156 15.6955 201.535 15.6094 201.919 15.6107C202.203 15.6101 202.486 15.6556 202.756 15.7456C203.075 15.8555 203.368 16.0274 203.62 16.2511C203.872 16.4749 204.077 16.7462 204.224 17.0494L210.013 29.0093L213.921 30.3581L214.002 26.2396L204.845 16.6718C204.38 16.1828 204.128 15.5304 204.143 14.8566C204.159 14.1829 204.44 13.5424 204.926 13.0748L206.727 11.3573C207.018 11.0821 207.369 10.8788 207.753 10.7638C207.69 10.3601 207.726 9.9471 207.857 9.56025C207.989 9.17341 208.213 8.82423 208.509 8.54267L210.31 6.82513C210.797 6.36829 211.443 6.11701 212.111 6.12372H212.156C212.493 6.12563 212.827 6.19596 213.137 6.33043C213.446 6.46491 213.725 6.66074 213.957 6.90606L214.497 7.46359L214.551 5.05363C214.565 4.38809 214.84 3.75458 215.316 3.28894C215.792 2.82329 216.432 2.56259 217.099 2.56274H219.629C219.965 2.56857 220.297 2.6408 220.605 2.77525C220.913 2.9097 221.192 3.10373 221.424 3.34614C221.657 3.58855 221.839 3.87456 221.961 4.18768C222.082 4.5008 222.14 4.83483 222.132 5.17053L222.078 7.58049L222.636 7.04095C223.12 6.57757 223.767 6.32246 224.437 6.33055H224.491C224.828 6.33451 225.161 6.40576 225.471 6.54011C225.78 6.67446 226.059 6.8692 226.292 7.11289L228.012 8.91136C228.291 9.202 228.498 9.55512 228.614 9.94141C228.73 10.3277 228.752 10.736 228.678 11.1325C229.064 11.2629 229.414 11.485 229.695 11.7799L231.406 13.5784C231.872 14.0661 232.125 14.7179 232.112 15.3917C232.098 16.0654 231.819 16.7066 231.334 17.1753L221.736 26.3745L221.655 30.502L225.608 29.306L231.91 17.616C232.068 17.32 232.283 17.0581 232.543 16.8452C232.802 16.6323 233.101 16.4725 233.423 16.375C233.662 16.3041 233.911 16.2677 234.161 16.2671C234.583 16.2636 234.999 16.3689 235.368 16.5729L237.556 17.7419C237.913 17.9281 238.222 18.1961 238.456 18.5242C238.586 18.4594 238.722 18.4053 238.861 18.3623C239.101 18.2908 239.349 18.2544 239.599 18.2544C240.021 18.2533 240.436 18.3584 240.806 18.5602L242.985 19.7292C243.281 19.886 243.542 20.0996 243.755 20.3579C243.968 20.6162 244.128 20.914 244.225 21.2341C244.322 21.5542 244.355 21.8904 244.321 22.2232C244.287 22.556 244.188 22.8789 244.029 23.1733L243.66 23.8657L245.974 23.1643C246.214 23.0933 246.462 23.057 246.712 23.0563C247.258 23.0555 247.79 23.2298 248.229 23.5536C248.669 23.8774 248.992 24.3335 249.152 24.8548L249.873 27.2288C249.971 27.5488 250.005 27.8851 249.973 28.2182C249.94 28.5514 249.842 28.8749 249.684 29.17C249.526 29.465 249.311 29.726 249.051 29.9376C248.791 30.1493 248.492 30.3075 248.171 30.4031L245.857 31.1045L246.541 31.4732C247.137 31.7916 247.582 32.3334 247.778 32.9792C247.973 33.6251 247.904 34.3222 247.586 34.9173L246.415 37.1024C246.095 37.6994 245.551 38.1456 244.903 38.3434C244.773 38.3798 244.64 38.4069 244.506 38.4243C244.498 38.8287 244.397 39.2258 244.209 39.5843L243.03 41.7695C242.812 42.1771 242.488 42.518 242.092 42.7557C241.695 42.9933 241.241 43.1186 240.779 43.1183C240.36 43.1184 239.949 43.0132 239.581 42.8126L227.876 36.5179L223.915 37.7139L226.274 41.104L239.338 43.451C239.668 43.5096 239.984 43.6326 240.266 43.8131C240.549 43.9936 240.793 44.228 240.984 44.5028C241.176 44.7777 241.311 45.0876 241.382 45.4148C241.454 45.742 241.46 46.08 241.4 46.4095L240.968 48.8465C240.894 49.2379 240.731 49.6071 240.491 49.9255C240.777 50.2164 240.989 50.5714 241.11 50.961C241.23 51.3505 241.256 51.7632 241.184 52.1646L240.743 54.6016C240.685 54.9318 240.562 55.2473 240.381 55.5297C240.2 55.8122 239.965 56.056 239.689 56.2472C239.261 56.5445 238.752 56.7045 238.231 56.7058C238.08 56.7037 237.929 56.6887 237.781 56.6608L237.015 56.5259L238.393 58.5043C238.777 59.0609 238.925 59.7464 238.805 60.4117C238.686 61.0769 238.308 61.668 237.754 62.0562L235.719 63.468C235.255 63.8165 234.687 63.9973 234.107 63.9806V63.9806Z" fill="white"/>
<path d="M217.054 5.14363L219.53 5.19759L219.359 13.7583L224.365 8.9564L226.076 10.7549L219.251 17.2114L219.152 21.7795L227.723 13.5695L229.443 15.368L219.116 25.2865L218.936 33.9732L227.264 31.4553L234.035 18.866L236.223 20.044L230.623 30.4751L235.007 29.1532L239.455 20.8623L241.634 22.0313L238.357 28.1371L246.568 25.6552L247.289 28.0292L239.059 30.4841L245.173 33.7574L244.002 35.9335L235.701 31.4913L231.325 32.8131L241.814 38.4154L240.644 40.6005L227.984 33.8293L219.656 36.3471L224.626 43.4781L238.726 46.0139L238.294 48.4509L226.589 46.3557L229.2 50.1055L238.474 51.7691L238.033 54.206L231.199 52.983L236.097 60.0151L234.062 61.4269L229.164 54.3948L227.939 61.22L225.499 60.7794L227.165 51.5173L224.554 47.7674L222.456 59.4575L220.016 59.0169L222.555 44.9079L217.585 37.7679L212.318 44.6921L214.272 58.873L211.814 59.2057L210.202 47.5157L207.438 51.1576L208.716 60.4827L206.258 60.8154L205.358 53.9452L200.172 60.7704L198.2 59.2777L203.377 52.4525L196.507 53.3967L196.165 50.9417L205.502 49.6648L208.266 46.0229L196.498 47.6326L196.156 45.1866L210.382 43.2353L215.649 36.2572L207.429 33.4066L194.526 39.6384L193.455 37.4082L204.124 32.2556L199.794 30.7539L191.339 34.8184L190.259 32.5973L196.507 29.5759L188.404 26.7613L189.223 24.4233L197.327 27.2379L194.31 20.9972L196.534 19.9181L200.64 28.3889L204.962 29.8906L199.785 19.2077L202.018 18.1286L208.275 31.0417L216.46 33.9192L216.64 25.2326L206.736 14.9004L208.536 13.1918L216.748 21.7345L216.838 17.1574L210.247 10.3772L212.048 8.65965L216.847 13.6594L217.027 5.09867L217.054 5.14363ZM217.027 0C215.937 0.00304095 214.877 0.353631 214.001 1.00066C213.124 1.64768 212.478 2.55732 212.156 3.59695H212.048C210.728 3.59246 209.459 4.10217 208.509 5.01774L206.709 6.73528C206 7.41663 205.503 8.28774 205.277 9.24415C205.16 9.34307 205.043 9.44199 204.935 9.5499L203.134 11.2584C202.604 11.7653 202.187 12.3781 201.91 13.0569C201.148 13.0653 200.399 13.2402 199.713 13.5695L197.489 14.6486C197.336 14.7205 197.192 14.8014 197.047 14.8824C196.85 14.8689 196.651 14.8689 196.453 14.8824C195.683 14.8828 194.922 15.0581 194.229 15.3949L191.996 16.474C191.391 16.7642 190.85 17.1722 190.405 17.674C189.959 18.1759 189.619 18.7615 189.403 19.3965H189.151C188.38 19.3951 187.619 19.5704 186.927 19.9091C186.323 20.1998 185.782 20.6068 185.335 21.1068C184.889 21.6067 184.546 22.1898 184.325 22.8226L183.515 25.1606C183.151 26.2002 183.135 27.3296 183.47 28.379C183.804 29.4283 184.471 30.3407 185.37 30.9787V30.9787C184.927 32.2593 185.011 33.6627 185.604 34.8814L186.675 37.1025C187.107 37.9911 187.785 38.7371 188.629 39.2517C188.683 39.3866 188.746 39.5304 188.809 39.6653L189.89 41.8954C190.212 42.5654 190.679 43.1552 191.258 43.622C191.027 44.3477 190.963 45.116 191.069 45.8701L191.402 48.316C191.422 48.4796 191.452 48.6418 191.492 48.8016C191.087 49.6839 190.943 50.6638 191.078 51.6252L191.411 54.0801C191.502 54.745 191.724 55.3853 192.064 55.9641C192.404 56.5429 192.855 57.0486 193.392 57.4522C193 58.4827 192.951 59.6123 193.255 60.6723C193.558 61.7323 194.197 62.6658 195.076 63.3332L197.047 64.826C197.937 65.497 199.021 65.8601 200.136 65.8601C200.367 65.8735 200.598 65.8735 200.829 65.8601C201.677 65.743 202.482 65.4153 203.17 64.9069V64.9069C204.056 65.5779 205.137 65.941 206.249 65.941C206.484 65.9395 206.719 65.9245 206.952 65.8961L209.401 65.5543C210.38 65.4247 211.3 65.0122 212.048 64.3674L212.498 64.3224L214.956 63.9897C215.693 63.8849 216.399 63.6243 217.027 63.2253C217.646 63.674 218.356 63.9811 219.107 64.1246L221.538 64.5652L222.033 64.6281C222.747 65.2855 223.634 65.7254 224.59 65.8961L227.03 66.3367C227.69 66.456 228.367 66.4436 229.023 66.3C229.678 66.1565 230.298 65.8847 230.848 65.5004V65.5004C231.755 66.2263 232.882 66.6227 234.044 66.6244C235.085 66.6261 236.102 66.3125 236.961 65.7252L238.996 64.3044C239.903 63.6763 240.581 62.7712 240.928 61.7253C241.276 60.6794 241.274 59.5491 240.923 58.5043C241.476 58.1229 241.948 57.6356 242.311 57.0706C242.674 56.5057 242.922 55.8743 243.039 55.2131L243.48 52.7852C243.654 51.812 243.541 50.8092 243.156 49.8986C243.201 49.7543 243.237 49.6071 243.264 49.458L243.696 47.0211C243.828 46.2894 243.8 45.538 243.615 44.8179C244.224 44.3662 244.725 43.7859 245.083 43.1184L246.253 40.9333C246.334 40.7894 246.406 40.6365 246.469 40.4926C247.316 40.015 248.009 39.3071 248.468 38.4514L249.639 36.2662C249.956 35.6762 250.154 35.0292 250.221 34.3625C250.287 33.6958 250.221 33.0225 250.026 32.3815C250.949 31.7778 251.651 30.8917 252.028 29.8558C252.405 28.8199 252.435 27.69 252.115 26.6354L251.403 24.2614C251.006 22.9718 250.116 21.8899 248.927 21.249C248.186 20.8504 247.356 20.6433 246.514 20.6465V20.6465C246.324 20.0022 246.007 19.4022 245.582 18.8818C245.157 18.3615 244.632 17.9311 244.038 17.616L241.859 16.447C241.117 16.0502 240.288 15.8433 239.446 15.8446C239.302 15.8356 239.158 15.8356 239.014 15.8446C238.888 15.7636 238.762 15.6827 238.627 15.6107L236.439 14.4417C235.784 14.0871 235.058 13.8813 234.314 13.8393C234.077 13.1187 233.68 12.461 233.153 11.9149L231.433 10.1164C231.32 9.99851 231.199 9.88742 231.073 9.7837C230.887 8.82826 230.427 7.94732 229.749 7.24784L228.038 5.44937C227.573 4.96158 227.014 4.57123 226.396 4.30106C225.778 4.03089 225.112 3.8863 224.437 3.87571V3.87571C224.219 3.04973 223.791 2.29399 223.194 1.68157C222.727 1.19661 222.168 0.808709 221.55 0.540185C220.932 0.271662 220.267 0.127812 219.593 0.116905L217.117 0.0629463L217.027 0Z" fill="#A3DFF7"/>
<path d="M195.445 136.648L195.895 137.655L192.42 139.193L195.292 140.299L194.896 141.324L190.997 139.831L189.142 140.65L194.058 142.538L193.671 143.563L187.72 141.279L184.19 142.844L186.774 145.712L193.122 146.054L193.068 147.151L187.819 146.872L189.178 148.374L193.347 148.599L193.284 149.696L190.214 149.534L192.762 152.358L191.942 153.095L189.394 150.262L189.232 153.338L188.134 153.284L188.359 149.111L186.999 147.601L186.72 152.861L185.622 152.807L185.955 146.45L183.38 143.581L181.444 146.917L183.083 153.059L182.02 153.338L180.67 148.266L179.652 150.02L180.733 154.057L179.67 154.336L178.869 151.368L176.969 154.66L176.015 154.111L177.923 150.82L174.943 151.611L174.664 150.55L178.698 149.471L179.715 147.718L174.619 149.075L174.34 148.014L180.49 146.369L182.425 143.033L178.644 142.232L173.314 145.685L172.71 144.768L177.122 141.908L175.141 141.486L171.639 143.752L171.036 142.835L173.62 141.162L169.901 140.371L170.126 139.292L173.845 140.083L172.17 137.502L173.097 136.909L175.366 140.407L177.356 140.829L174.484 136.414L175.411 135.821L178.878 141.153L182.65 141.962L182.254 138.123L177.311 134.13L178.005 133.276L182.092 136.576L181.876 134.562L178.635 131.936L179.328 131.082L181.714 133.015L181.318 129.238L182.416 129.121L182.813 132.907L184.748 130.515L185.604 131.208L182.975 134.445L183.182 136.468L186.504 132.377L187.359 133.069L183.344 138.006L183.749 141.846L187.278 140.281L189.556 134.355L190.583 134.742L188.692 139.642L190.547 138.824L192.05 134.93L193.077 135.317L191.969 138.195L195.445 136.648Z" fill="white"/>
<path d="M272.67 283.125L272.589 284.617L267.412 284.321L270.203 287.45L269.087 288.439L265.296 284.195L262.541 284.042L267.313 289.392L266.196 290.39L260.416 283.916L255.167 283.61L256.499 288.7L263.982 293.061L263.225 294.356L257.04 290.741L257.742 293.412L262.658 296.28L261.902 297.575L258.282 295.462L259.597 300.471L258.147 300.849L256.833 295.84L254.717 299.455L253.42 298.708L256.292 293.799L255.59 291.119L251.971 297.315L250.674 296.559L255.059 289.078L253.717 283.997L249.296 286.829L247.451 295.282L245.983 294.968L247.514 287.98L245.182 289.464L243.975 295.021L242.508 294.707L243.399 290.615L239.041 293.412L238.231 292.153L242.589 289.356L238.492 288.457L238.816 287L244.371 288.205L246.703 286.722L239.689 285.193L240.005 283.727L248.486 285.571L252.907 282.738L248.837 279.411L240.221 280.265L240.077 278.781L247.199 278.071L245.056 276.317L239.392 276.884L239.248 275.391L243.417 274.978L239.41 271.695L240.356 270.544L244.371 273.817L243.948 269.654L245.443 269.501L246.01 275.157L248.153 276.911L247.433 269.771L248.927 269.627L249.792 278.251L253.861 281.578L255.77 276.686L252.286 268.764L253.663 268.161L256.535 274.708L257.544 272.136L255.257 266.929L256.625 266.327L258.318 270.167L260.2 265.347L261.596 265.886L259.714 270.706L263.549 269.025L264.153 270.391L258.939 272.684L257.94 275.256L264.513 272.37L265.116 273.746L257.166 277.226L255.257 282.117L260.506 282.423L266.971 276.668L267.97 277.783L262.622 282.54L265.386 282.702L269.636 278.925L270.635 280.04L267.502 282.828L272.67 283.125Z" fill="white"/>
<path d="M200.289 400.817L200.937 402.381L195.517 404.602L199.893 406.428L199.235 407.984L193.311 405.511L190.421 406.698L197.894 409.818L197.246 411.374L188.206 407.606L182.704 409.863L186.549 414.377L196.3 415.178L196.165 416.859L188.098 416.203L190.124 418.586L196.534 419.107L196.39 420.789L191.672 420.402L195.463 424.862L194.166 425.95L190.385 421.499L189.998 426.211L188.305 426.076L188.836 419.674L186.81 417.3L186.153 425.366L184.469 425.231L185.262 415.474L181.417 410.951L178.302 416.005L180.553 425.51L178.905 425.896L177.041 418.037L175.402 420.69L176.888 426.94L175.24 427.326L174.151 422.722L171.072 427.695L169.631 426.814L172.71 421.841L168.1 422.929L167.704 421.283L173.962 419.8L175.6 417.147L167.713 419.017L167.326 417.372L176.861 415.115L179.976 410.061L174.205 408.658L165.849 413.739L164.976 412.3L171.882 408.101L168.848 407.363L163.355 410.699L162.473 409.252L166.525 406.797L160.834 405.412L161.23 403.766L166.921 405.151L164.463 401.113L165.903 400.232L169.244 405.718L172.278 406.455L168.064 399.54L169.514 398.659L174.61 407.021L180.381 408.424L179.931 402.507L172.512 396.141L173.611 394.855L179.751 400.124L179.517 397.013L174.637 392.831L175.745 391.546L179.337 394.63L178.896 388.803L180.58 388.677L181.021 394.504L184.109 390.916L185.388 392.013L181.201 396.887L181.435 399.998L186.72 393.857L188.008 394.954L181.615 402.381L182.065 408.298L187.558 406.041L191.33 397.031L192.897 397.678L189.772 405.133L192.663 403.946L195.139 398.02L196.705 398.677L194.878 403.038L200.289 400.817Z" fill="white"/>
<path d="M285.834 524.642L286.329 525.838L282.196 527.528L285.528 528.922L285.032 530.109L280.504 528.221L278.298 529.129L284.006 531.512L283.511 532.699L276.605 529.821L272.409 531.548L275.344 535.001L282.79 535.603L282.682 536.889L276.524 536.386L278.072 538.202L282.962 538.607L282.862 539.893L279.252 539.596L282.142 542.995L281.161 543.831L278.271 540.432L277.973 544.029L276.686 543.921L277.082 539.038L275.542 537.222L275.038 543.382L273.751 543.283L274.363 535.828L271.428 532.375L269.042 536.233L270.761 543.49L269.51 543.786L268.087 537.789L266.836 539.812L267.961 544.587L266.71 544.884L265.872 541.368L263.522 545.162L262.424 544.488L264.774 540.684L261.253 541.52L260.956 540.261L265.728 539.137L266.989 537.105L260.965 538.535L260.659 537.276L267.943 535.558L270.329 531.701L265.917 530.631L259.534 534.506L258.867 533.409L264.144 530.199L261.821 529.632L257.634 532.186L256.959 531.08L260.047 529.201L255.707 528.149L256.013 526.899L260.353 527.951L258.48 524.867L259.579 524.192L262.127 528.383L264.45 528.949L261.226 523.662L262.334 522.996L266.224 529.381L270.635 530.451L270.284 525.928L264.621 521.072L265.467 520.092L270.149 524.111L269.969 521.737L266.251 518.536L267.088 517.565L269.834 519.912L269.492 515.47L270.779 515.371L271.122 519.822L273.481 517.079L274.462 517.924L271.257 521.638L271.437 524.012L275.47 519.327L276.452 520.164L271.581 525.829L271.923 530.352L276.119 528.625L278.991 521.746L280.188 522.241L277.802 527.933L280.008 527.034L281.899 522.511L283.097 523.005L281.701 526.341L285.834 524.642Z" fill="white"/>
<path d="M151.245 421.868L151.533 422.704L148.643 423.684L150.858 424.772L150.471 425.564L147.464 424.089L145.924 424.611L149.715 426.472L149.327 427.263L144.745 425.015L141.818 426.013L143.673 428.486L148.715 429.206L148.589 430.078L144.42 429.484L145.393 430.779L148.715 431.256L148.589 432.128L146.14 431.778L147.968 434.214L147.266 434.745L145.438 432.308L145.087 434.745L144.213 434.619L144.691 431.31L143.718 430.006L143.115 434.178L142.242 434.062L142.971 429.008L141.116 426.535L139.333 429.062L140.207 434.08L139.333 434.223L138.613 430.078L137.677 431.409L138.253 434.709L137.379 434.853L136.956 432.425L135.21 434.916L134.48 434.412L136.245 431.921L133.814 432.344L133.661 431.472L136.956 430.905L137.893 429.574L133.733 430.294L133.58 429.431L138.613 428.558L140.396 426.031L137.443 425.123L132.932 427.497L132.526 426.715L136.245 424.754L134.696 424.269L131.734 425.834L131.32 425.06L133.499 423.909L130.591 423.01L130.852 422.165L133.76 423.064L132.607 420.888L133.391 420.474L134.957 423.433L136.506 423.909L134.534 420.186L135.318 419.773L137.695 424.278L140.657 425.195L140.612 422.102L136.956 418.559L137.569 417.929L140.594 420.861L140.567 419.233L138.163 416.904L138.784 416.275L140.549 417.992L140.504 414.944L141.386 414.935L141.431 417.974L143.151 416.212L143.781 416.823L141.449 419.224L141.476 420.843L144.411 417.821L145.051 418.433L141.494 422.093L141.539 425.177L144.465 424.179L146.707 419.611L147.5 420.007L145.645 423.774L147.185 423.253L148.661 420.249L149.445 420.645L148.364 422.857L151.245 421.868Z" fill="white"/>
<path d="M173.521 535.918L173.052 536.862L169.757 535.28L170.738 538.076L169.739 538.418L168.415 534.632L166.66 533.787L168.325 538.562L167.326 538.913L165.309 533.139L161.96 531.53L161.465 535.199L165.165 540.064L164.328 540.702L161.266 536.682L160.996 538.616L163.436 541.808L162.59 542.447L160.798 540.1L160.303 543.714L159.259 543.571L159.754 539.956L157.395 541.745L156.756 540.9L159.952 538.472L160.213 536.539L156.179 539.605L155.54 538.769L160.42 535.064L160.915 531.386L157.26 532.042L153.775 537.069L152.911 536.467L155.792 532.312L153.865 532.663L151.578 535.963L150.714 535.361L152.398 532.924L148.796 533.58L148.607 532.537L152.209 531.89L149.778 530.208L150.381 529.336L153.676 531.62L155.603 531.269L151.434 528.391L152.038 527.519L157.071 531.008L160.726 530.343L158.971 527.079L153.109 525.325L153.415 524.309L158.259 525.766L157.332 524.048L153.487 522.888L153.793 521.881L156.63 522.735L154.892 519.516L155.828 519.012L157.557 522.232L158.412 519.399L159.421 519.705L158.268 523.545L159.187 525.262L160.645 520.415L161.663 520.721L159.898 526.584L161.654 529.848L164.22 527.169L164.085 521.063L165.147 521.036L165.255 526.089L166.606 524.678L166.516 520.667L167.578 520.64L167.641 523.599L170.171 520.955L170.937 521.683L168.406 524.327L171.369 524.264L171.387 525.316L167.371 525.406L166.02 526.818L171.09 526.701L171.117 527.762L164.985 527.897L162.419 530.577L165.768 532.186L171.54 530.172L171.891 531.17L167.119 532.834L168.875 533.679L172.665 532.357L173.016 533.355L170.216 534.326L173.521 535.918Z" fill="white"/>
<path d="M337.254 442.28L337.605 443.306L334.049 444.52L336.777 445.85L336.3 446.831L332.59 445.014L330.7 445.662L335.364 447.955L334.886 448.926L329.241 446.156L325.63 447.379L327.917 450.428L334.13 451.327L333.977 452.397L328.836 451.659L330.042 453.26L334.13 453.845L333.968 454.924L330.961 454.492L333.212 457.496L332.347 458.143L330.096 455.14L329.664 458.152L328.584 457.99L329.169 453.917L327.971 452.307L327.233 457.46L326.153 457.307L327.044 451.084L324.757 448.036L322.56 451.147L323.641 457.325L322.569 457.514L321.678 452.406L320.525 454.042L321.228 458.098L320.156 458.287L319.643 455.292L317.473 458.359L316.591 457.738L318.752 454.672L315.753 455.184L315.573 454.114L319.634 453.413L320.795 451.776L315.663 452.667L315.474 451.597L321.678 450.526L323.875 447.406L320.228 446.282L314.673 449.214L314.169 448.251L318.761 445.832L316.843 445.239L313.196 447.163L312.692 446.21L315.375 444.789L311.792 443.683L312.107 442.64L315.699 443.755L314.277 441.066L315.24 440.563L317.167 444.205L319.085 444.798L316.654 440.194L317.608 439.691L320.552 445.248L324.19 446.372L324.136 442.559L319.634 438.198L320.39 437.416L324.118 441.031L324.091 439.025L321.129 436.157L321.885 435.374L324.064 437.497L324.01 433.738L325.099 433.72L325.153 437.479L327.269 435.293L328.052 436.058L325.171 439.007L325.198 441.013L328.827 437.281L329.61 438.036L325.225 442.55L325.279 446.354L328.89 445.122L331.663 439.502L332.635 439.978L330.348 444.627L332.239 443.989L334.058 440.284L335.039 440.761L333.698 443.485L337.254 442.28Z" fill="white"/>
<ellipse cx="188.268" cy="109" rx="9.28571" ry="10" fill="url(#paint0_radial_801_410)"/>
<ellipse cx="188.268" cy="109" rx="2.32143" ry="3" fill="#FFF59B"/>
<ellipse cx="224.268" cy="131" rx="9.28571" ry="10" fill="url(#paint1_radial_801_410)"/>
<ellipse cx="224.268" cy="131" rx="2.32143" ry="3" fill="#FFF59B"/>
<ellipse cx="263.268" cy="131" rx="9.28571" ry="10" fill="url(#paint2_radial_801_410)"/>
<ellipse cx="263.268" cy="131" rx="2.32143" ry="3" fill="#FFF59B"/>
<ellipse cx="193.268" cy="218" rx="9.28571" ry="10" fill="url(#paint3_radial_801_410)"/>
<ellipse cx="193.268" cy="218" rx="2.32143" ry="3" fill="#FFF59B"/>
<ellipse cx="178.268" cy="445" rx="9.28571" ry="10" fill="url(#paint4_radial_801_410)"/>
<ellipse cx="178.268" cy="445" rx="2.32143" ry="3" fill="#FFF59B"/>
<ellipse cx="173.268" cy="300" rx="9.28571" ry="10" fill="url(#paint5_radial_801_410)"/>
<ellipse cx="173.268" cy="300" rx="2.32143" ry="3" fill="#FFF59B"/>
<ellipse cx="241.268" cy="205" rx="9.28571" ry="10" fill="url(#paint6_radial_801_410)"/>
<ellipse cx="241.268" cy="205" rx="2.32143" ry="3" fill="#FFF59B"/>
<ellipse cx="257.268" cy="252" rx="9.28571" ry="10" fill="url(#paint7_radial_801_410)"/>
<ellipse cx="257.268" cy="252" rx="2.32143" ry="3" fill="#FFF59B"/>
<ellipse cx="219.268" cy="82" rx="9.28571" ry="10" fill="url(#paint8_radial_801_410)"/>
<ellipse cx="219.268" cy="82" rx="2.32143" ry="3" fill="#FFF59B"/>
<ellipse cx="263.268" cy="187" rx="9.28571" ry="10" fill="url(#paint9_radial_801_410)"/>
<ellipse cx="263.268" cy="187" rx="2.32143" ry="3" fill="#FFF59B"/>
<defs>
<radialGradient id="paint0_radial_801_410" cx="0" cy="0" r="1" gradientUnits="userSpaceOnUse" gradientTransform="translate(188.268 109) rotate(90) scale(10 9.28571)">
<stop stop-color="#F39200"/>
<stop offset="0.947917" stop-color="#FFF59B" stop-opacity="0"/>
</radialGradient>
<radialGradient id="paint1_radial_801_410" cx="0" cy="0" r="1" gradientUnits="userSpaceOnUse" gradientTransform="translate(224.268 131) rotate(90) scale(10 9.28571)">
<stop stop-color="#F39200"/>
<stop offset="0.947917" stop-color="#FFF59B" stop-opacity="0"/>
</radialGradient>
<radialGradient id="paint2_radial_801_410" cx="0" cy="0" r="1" gradientUnits="userSpaceOnUse" gradientTransform="translate(263.268 131) rotate(90) scale(10 9.28571)">
<stop stop-color="#F39200"/>
<stop offset="0.947917" stop-color="#FFF59B" stop-opacity="0"/>
</radialGradient>
<radialGradient id="paint3_radial_801_410" cx="0" cy="0" r="1" gradientUnits="userSpaceOnUse" gradientTransform="translate(193.268 218) rotate(90) scale(10 9.28571)">
<stop stop-color="#F39200"/>
<stop offset="0.947917" stop-color="#FFF59B" stop-opacity="0"/>
</radialGradient>
<radialGradient id="paint4_radial_801_410" cx="0" cy="0" r="1" gradientUnits="userSpaceOnUse" gradientTransform="translate(178.268 445) rotate(90) scale(10 9.28571)">
<stop stop-color="#F39200"/>
<stop offset="0.947917" stop-color="#FFF59B" stop-opacity="0"/>
</radialGradient>
<radialGradient id="paint5_radial_801_410" cx="0" cy="0" r="1" gradientUnits="userSpaceOnUse" gradientTransform="translate(173.268 300) rotate(90) scale(10 9.28571)">
<stop stop-color="#F39200"/>
<stop offset="0.947917" stop-color="#FFF59B" stop-opacity="0"/>
</radialGradient>
<radialGradient id="paint6_radial_801_410" cx="0" cy="0" r="1" gradientUnits="userSpaceOnUse" gradientTransform="translate(241.268 205) rotate(90) scale(10 9.28571)">
<stop stop-color="#F39200"/>
<stop offset="0.947917" stop-color="#FFF59B" stop-opacity="0"/>
</radialGradient>
<radialGradient id="paint7_radial_801_410" cx="0" cy="0" r="1" gradientUnits="userSpaceOnUse" gradientTransform="translate(257.268 252) rotate(90) scale(10 9.28571)">
<stop stop-color="#F39200"/>
<stop offset="0.947917" stop-color="#FFF59B" stop-opacity="0"/>
</radialGradient>
<radialGradient id="paint8_radial_801_410" cx="0" cy="0" r="1" gradientUnits="userSpaceOnUse" gradientTransform="translate(219.268 82) rotate(90) scale(10 9.28571)">
<stop stop-color="#F39200"/>
<stop offset="0.947917" stop-color="#FFF59B" stop-opacity="0"/>
</radialGradient>
<radialGradient id="paint9_radial_801_410" cx="0" cy="0" r="1" gradientUnits="userSpaceOnUse" gradientTransform="translate(263.268 187) rotate(90) scale(10 9.28571)">
<stop stop-color="#F39200"/>
<stop offset="0.947917" stop-color="#FFF59B" stop-opacity="0"/>
</radialGradient>
</defs>
</svg>
