<svg width="22" height="22" viewBox="0 0 22 22" fill="none" xmlns="http://www.w3.org/2000/svg">
<path d="M21.5061 1.7071C21.8966 1.31661 21.8966 0.683429 21.5061 0.292889C21.1156 -0.0976512 20.4824 -0.097608 20.0919 0.292889L10.8995 9.48528L1.7071 0.292889C1.31656 -0.0976512 0.683386 -0.097608 0.292889 0.292889C-0.097608 0.683386 -0.0976512 1.31656 0.292889 1.7071L9.48528 10.8995L0.292889 20.0919C-0.097608 20.4824 -0.0976512 21.1156 0.292889 21.5061C0.683429 21.8966 1.31661 21.8966 1.7071 21.5061L10.8995 12.3137L20.0919 21.5061C20.4824 21.8966 21.1156 21.8966 21.5061 21.5061C21.8966 21.1156 21.8966 20.4824 21.5061 20.0919L12.3137 10.8995L21.5061 1.7071Z" fill="#007BC4"/>
</svg>
