<svg width="14" height="14" viewBox="0 0 14 14" fill="none" xmlns="http://www.w3.org/2000/svg">
<path fill-rule="evenodd" clip-rule="evenodd" d="M13.6217 0.378314C13.1173 -0.126106 12.2994 -0.126104 11.795 0.378316L7 5.17334L2.20498 0.378324C1.70056 -0.126096 0.882735 -0.126096 0.378314 0.378324C-0.126106 0.882744 -0.126104 1.70057 0.378316 2.20499L5.17333 7.00001L0.378355 11.795C-0.126065 12.2994 -0.126065 13.1172 0.378355 13.6216C0.882775 14.1261 1.7006 14.1261 2.20502 13.6216L7 8.82667L11.795 13.6217C12.2994 14.1261 13.1172 14.1261 13.6216 13.6217C14.1261 13.1172 14.1261 12.2994 13.6216 11.795L8.82666 7.00001L13.6217 2.20498C14.1261 1.70056 14.1261 0.882735 13.6217 0.378314Z" fill="#007BC4"/>
</svg>
