<svg width="843" height="51" viewBox="0 0 843 51" fill="none" xmlns="http://www.w3.org/2000/svg">
<path d="M268.759 19.7982L265.608 18.039C265.536 18.0005 265.455 17.9839 265.374 17.9912C265.292 17.9984 265.215 18.0292 265.151 18.0798L262.772 19.9796L261.663 20.0748L264.197 17.0686C264.26 17.0016 264.308 16.9221 264.338 16.8353C264.368 16.7486 264.379 16.6566 264.371 16.5654C264.361 16.4348 264.312 16.3101 264.23 16.2073C264.149 16.1045 264.038 16.0282 263.912 15.9883C263.787 15.9483 263.652 15.9465 263.525 15.9831C263.399 16.0197 263.286 16.0929 263.202 16.1935L259.808 20.2109L258.265 20.3424L259.082 19.3766C259.197 19.2416 259.253 19.0672 259.238 18.8914C259.227 18.7609 259.177 18.6367 259.095 18.5343C259.012 18.4319 258.902 18.356 258.776 18.3162C258.65 18.2764 258.516 18.2745 258.389 18.3107C258.262 18.3469 258.149 18.4196 258.064 18.5196L256.379 20.5192L253.995 20.7232L256.502 17.7533L258.219 17.9302C258.299 17.9363 258.378 17.92 258.448 17.883C258.519 17.8461 258.577 17.7901 258.617 17.7216L259.767 15.6948C259.799 15.6346 259.815 15.5677 259.815 15.4998C259.815 15.4319 259.799 15.365 259.767 15.3048C259.736 15.2438 259.69 15.1915 259.634 15.1527C259.577 15.1138 259.512 15.0898 259.443 15.0827L257.123 14.8469C257.044 14.8407 256.964 14.8571 256.894 14.894C256.824 14.9309 256.765 14.9869 256.726 15.0555L255.813 16.6515L252.036 16.9734L253.579 15.1597L256.164 14.9421C256.341 14.926 256.504 14.8411 256.618 14.706C256.731 14.5709 256.787 14.3966 256.772 14.2212C256.765 14.1343 256.742 14.0496 256.702 13.9719C256.662 13.8942 256.608 13.8251 256.541 13.7686C256.474 13.712 256.397 13.6692 256.314 13.6426C256.23 13.616 256.142 13.6061 256.055 13.6136L254.794 13.7224L255.794 12.539L261.032 12.0855C261.12 12.0781 261.205 12.0537 261.282 12.0137C261.36 11.9737 261.429 11.9188 261.486 11.8523C261.542 11.7858 261.585 11.7088 261.611 11.6259C261.637 11.543 261.647 11.4558 261.64 11.3691C261.629 11.1959 261.55 11.0338 261.421 10.9176C261.291 10.8014 261.12 10.7405 260.946 10.748L257.027 11.079L257.749 10.2401L260.676 9.41036C260.755 9.38767 260.825 9.34243 260.878 9.28031C260.93 9.2182 260.964 9.14198 260.973 9.06123L261.361 5.47013C261.368 5.40315 261.358 5.33559 261.332 5.27321C261.307 5.21084 261.267 5.1555 261.215 5.11193C261.164 5.0698 261.103 5.04043 261.038 5.02624C260.973 5.01205 260.905 5.01344 260.841 5.03031L257.37 6.01877C257.291 6.04036 257.22 6.08529 257.167 6.14761C257.114 6.20994 257.081 6.28674 257.073 6.36791L256.749 9.36502L256.018 10.2175L255.685 6.29989C255.679 6.21248 255.656 6.12707 255.616 6.04862C255.577 5.97017 255.523 5.90024 255.456 5.84288C255.389 5.78552 255.312 5.74187 255.228 5.71447C255.144 5.68707 255.056 5.67645 254.968 5.68324C254.791 5.69936 254.628 5.78424 254.514 5.91932C254.401 6.0544 254.345 6.22872 254.36 6.40418L254.817 11.6457L253.817 12.8246L253.698 11.5777C253.684 11.4028 253.601 11.2405 253.466 11.1266C253.332 11.0126 253.157 10.9564 252.981 10.9701C252.805 10.9863 252.642 11.0711 252.528 11.2062C252.414 11.3413 252.359 11.5156 252.374 11.6911L252.593 14.2756L251.05 16.0893L250.725 12.2851L252.095 11.147C252.158 11.0965 252.205 11.0288 252.229 10.9521C252.254 10.8755 252.255 10.7934 252.232 10.7162L251.611 8.47178C251.593 8.4064 251.559 8.34647 251.512 8.29739C251.465 8.24831 251.407 8.21163 251.342 8.19066C251.276 8.17063 251.206 8.16677 251.139 8.1794C251.071 8.19204 251.008 8.2208 250.954 8.26321L249.15 9.73683C249.088 9.78727 249.042 9.8543 249.018 9.9299C248.994 10.0055 248.992 10.0864 249.013 10.163L249.469 11.8724L247.017 14.8287L246.816 12.4392L248.488 10.4578C248.545 10.3913 248.588 10.3142 248.615 10.2308C248.642 10.1475 248.651 10.0597 248.643 9.97261C248.637 9.8854 248.613 9.80032 248.573 9.72243C248.533 9.64455 248.477 9.57543 248.41 9.51919C248.277 9.41313 248.107 9.3624 247.937 9.37761C247.767 9.39282 247.609 9.47279 247.497 9.6008L246.679 10.5621L246.551 9.02496L249.944 5.00311C250.058 4.86791 250.114 4.69364 250.1 4.51795C250.082 4.34204 249.997 4.17957 249.862 4.06453C249.729 3.95847 249.559 3.90774 249.389 3.92295C249.219 3.93816 249.061 4.01814 248.949 4.14614L246.414 7.14779L246.323 6.06865L247.762 3.41613C247.801 3.34532 247.818 3.26459 247.812 3.18397C247.805 3.10336 247.775 3.02642 247.725 2.96271L245.442 0.1515C245.4 0.0991906 245.347 0.0580522 245.285 0.0318959C245.224 0.00573966 245.157 -0.00458808 245.09 0.00187068C245.022 0.00594574 244.957 0.0272915 244.9 0.0638359C244.843 0.10038 244.797 0.150883 244.766 0.210445L243.008 3.38439C242.968 3.45521 242.951 3.53594 242.957 3.61655C242.964 3.69717 242.994 3.77411 243.044 3.83782L244.962 6.13666L245.058 7.25208L242.053 4.71745C241.918 4.60504 241.744 4.55006 241.569 4.5645C241.394 4.57894 241.231 4.66163 241.117 4.79453C241.002 4.93112 240.947 5.10707 240.962 5.28423C240.968 5.37144 240.992 5.45651 241.032 5.5344C241.072 5.61229 241.127 5.68141 241.195 5.73765L245.213 9.12924L245.346 10.6709L244.382 9.85472C244.315 9.79862 244.237 9.75623 244.154 9.72996C244.07 9.7037 243.982 9.69408 243.895 9.70167C243.807 9.70925 243.722 9.73388 243.645 9.77415C243.567 9.81442 243.498 9.86953 243.441 9.93633C243.385 10.003 243.342 10.0803 243.316 10.1637C243.29 10.247 243.282 10.3347 243.291 10.4215C243.297 10.5087 243.321 10.5938 243.361 10.6717C243.401 10.7496 243.456 10.8187 243.524 10.8749L245.506 12.548L245.707 14.9285L242.724 12.4301L242.679 12.3893L242.843 10.6709C242.852 10.5917 242.837 10.5118 242.801 10.4409C242.764 10.37 242.707 10.3112 242.638 10.2719L240.61 9.12471C240.55 9.09135 240.483 9.07383 240.414 9.07383C240.345 9.07383 240.277 9.09135 240.217 9.12471C240.157 9.15604 240.105 9.20189 240.067 9.2581C240.028 9.31431 240.005 9.37911 239.998 9.44664L239.765 11.7682C239.757 11.8473 239.771 11.9273 239.808 11.9982C239.844 12.0691 239.901 12.1278 239.971 12.1672L241.619 13.1012L241.939 16.8737L240.112 15.3275L239.893 12.743C239.887 12.6558 239.863 12.5707 239.823 12.4927C239.783 12.4147 239.729 12.3452 239.662 12.2884C239.595 12.2316 239.517 12.1884 239.433 12.1615C239.349 12.1346 239.261 12.1245 239.173 12.1317C239.086 12.1389 239 12.1633 238.922 12.2034C238.844 12.2436 238.774 12.2987 238.718 12.3657C238.661 12.4327 238.618 12.5101 238.592 12.5935C238.566 12.677 238.556 12.7648 238.564 12.8518L238.674 14.1123L237.491 13.1148L237.034 7.87327C237.019 7.69793 236.935 7.53565 236.8 7.42182C236.665 7.308 236.49 7.25187 236.313 7.26568C236.226 7.27365 236.141 7.29862 236.063 7.33918C235.986 7.37974 235.917 7.43508 235.861 7.50204C235.805 7.56901 235.763 7.64627 235.737 7.72942C235.711 7.81257 235.702 7.89997 235.71 7.98662L236.039 11.8996L235.217 11.2059L234.386 8.27681C234.363 8.19876 234.317 8.12914 234.255 8.07671C234.192 8.02428 234.115 7.99136 234.034 7.98209L230.445 7.59668C230.378 7.58794 230.31 7.59628 230.248 7.62088C230.186 7.64549 230.131 7.68555 230.088 7.73724C230.045 7.7888 230.015 7.84992 230.001 7.91543C229.987 7.98094 229.989 8.04891 230.006 8.11358L231.002 11.5777C231.024 11.6561 231.07 11.726 231.132 11.7785C231.195 11.831 231.272 11.8638 231.353 11.8724L234.349 12.1989L235.189 12.938L231.262 13.2599C231.085 13.2743 230.921 13.3579 230.807 13.4923C230.692 13.6266 230.636 13.8007 230.65 13.9763C230.665 14.1519 230.749 14.3145 230.884 14.4285C231.02 14.5424 231.195 14.5983 231.372 14.5839L236.614 14.1305L237.797 15.128L236.537 15.2368C236.37 15.2644 236.22 15.3532 236.117 15.4855C236.013 15.6179 235.964 15.7842 235.978 15.9512C235.992 16.1181 236.07 16.2736 236.194 16.3866C236.319 16.4996 236.482 16.5618 236.651 16.5608L239.236 16.3432L241.062 17.8848L237.213 18.2113L236.053 16.7921C236.003 16.7299 235.935 16.6838 235.859 16.6596C235.782 16.6354 235.7 16.6341 235.623 16.656L233.376 17.2772C233.314 17.2988 233.257 17.3349 233.21 17.3826C233.164 17.4303 233.13 17.4881 233.111 17.5515C233.092 17.6148 233.088 17.6818 233.1 17.7468C233.112 17.8119 233.14 17.8732 233.18 17.9256L234.655 19.7393C234.706 19.8006 234.773 19.846 234.85 19.8701C234.926 19.8942 235.007 19.896 235.084 19.8753L236.811 19.3947L239.784 21.9021L237.395 22.1062L235.413 20.433C235.28 20.3275 235.111 20.2767 234.941 20.291C234.771 20.3054 234.613 20.3838 234.5 20.5101C234.386 20.6454 234.331 20.8196 234.345 20.9952C234.36 21.1708 234.443 21.3337 234.578 21.4487L235.546 22.2649L234.002 22.4145L229.983 19.0229C229.85 18.9168 229.68 18.8661 229.51 18.8813C229.34 18.8965 229.182 18.9765 229.07 19.1045C228.956 19.2397 228.9 19.414 228.915 19.5897C228.921 19.677 228.944 19.7622 228.984 19.8402C229.024 19.9182 229.08 19.9872 229.148 20.0431L232.153 22.5777L231.066 22.6729L228.422 21.1948C228.35 21.1552 228.268 21.1379 228.187 21.1451C228.105 21.1524 228.028 21.1839 227.965 21.2356L225.156 23.5027C225.104 23.5446 225.062 23.5988 225.035 23.6604C225.008 23.722 224.996 23.7893 225.001 23.8564C225.008 23.9234 225.03 23.9879 225.067 24.0447C225.103 24.1014 225.153 24.1488 225.211 24.1828L228.362 25.9421C228.434 25.9805 228.516 25.9972 228.597 25.9899C228.678 25.9826 228.755 25.9518 228.819 25.9013L231.18 24.0015L232.262 23.9108L229.728 26.9124C229.671 26.9788 229.628 27.0556 229.601 27.1385C229.575 27.2214 229.564 27.3087 229.572 27.3954C229.579 27.4821 229.603 27.5666 229.643 27.644C229.683 27.7214 229.738 27.7902 229.805 27.8465C229.872 27.9027 229.95 27.9454 230.033 27.972C230.117 27.9985 230.204 28.0085 230.292 28.0014C230.379 27.9942 230.464 27.9701 230.542 27.9302C230.62 27.8904 230.689 27.8358 230.746 27.7694L234.139 23.7521L235.678 23.6206L234.865 24.5864C234.78 24.6423 234.708 24.717 234.657 24.8046C234.605 24.8923 234.574 24.9907 234.567 25.092C234.56 25.1934 234.576 25.2951 234.615 25.3892C234.653 25.4833 234.713 25.5673 234.79 25.6347C234.866 25.7021 234.958 25.7511 235.056 25.7778C235.155 25.8046 235.259 25.8085 235.359 25.7891C235.46 25.7697 235.554 25.7276 235.636 25.6661C235.717 25.6046 235.783 25.5252 235.829 25.4343L237.505 23.4528L239.884 23.2533L237.381 26.2187L237.354 26.255L235.61 26.0872C235.53 26.0786 235.449 26.0933 235.378 26.1295C235.307 26.1658 235.247 26.222 235.208 26.2912L234.061 28.318C234.029 28.3787 234.012 28.4464 234.012 28.5153C234.012 28.5841 234.029 28.6519 234.061 28.7125C234.093 28.7727 234.139 28.8241 234.196 28.8621C234.252 28.9001 234.318 28.9235 234.386 28.9302L236.706 29.1659C236.785 29.1736 236.864 29.1585 236.935 29.1223C237.005 29.0861 237.064 29.0304 237.103 28.9619L238.016 27.3386L241.857 27.0167L240.309 28.8304L237.724 29.0526C237.557 29.0801 237.408 29.1689 237.304 29.3013C237.201 29.4337 237.151 29.5999 237.165 29.7669C237.18 29.9339 237.257 30.0894 237.382 30.2023C237.506 30.3153 237.669 30.3775 237.838 30.3766L239.094 30.2723L238.112 31.4557L232.87 31.9091C232.703 31.9367 232.553 32.0255 232.45 32.1579C232.346 32.2902 232.297 32.4565 232.311 32.6235C232.325 32.7904 232.403 32.9459 232.527 33.0589C232.652 33.1719 232.815 33.2341 232.984 33.2331L236.879 32.8885L236.167 33.7364L233.271 34.5571C233.193 34.5793 233.122 34.6243 233.069 34.6866C233.016 34.7488 232.983 34.8253 232.975 34.9062L232.586 38.4973C232.576 38.5651 232.583 38.6343 232.607 38.6986C232.63 38.763 232.67 38.8204 232.722 38.8656C232.774 38.9107 232.836 38.9422 232.903 38.9571C232.971 38.972 233.041 38.9698 233.107 38.9508L236.578 37.9623C236.657 37.9407 236.728 37.8958 236.781 37.8335C236.834 37.7711 236.866 37.6943 236.875 37.6132L237.203 34.5888L237.898 33.7636L238.231 37.6767C238.237 37.7635 238.261 37.8482 238.3 37.9259C238.34 38.0036 238.395 38.0727 238.461 38.1293C238.528 38.1858 238.605 38.2286 238.689 38.2552C238.772 38.2818 238.86 38.2917 238.948 38.2842C239.124 38.2681 239.287 38.1832 239.401 38.0482C239.515 37.9131 239.57 37.7388 239.555 37.5633L239.099 32.3217L240.094 31.1428L240.199 32.4034C240.214 32.5783 240.299 32.7402 240.434 32.8533C240.569 32.9664 240.744 33.0214 240.921 33.0064C241.097 32.9914 241.26 32.9075 241.374 32.7731C241.488 32.6388 241.543 32.465 241.528 32.29L241.309 29.7146L242.852 27.9009L243.172 31.6915L241.706 32.8885C241.644 32.9386 241.598 33.0056 241.574 33.0813C241.549 33.157 241.548 33.2382 241.569 33.3147L242.19 35.5818C242.209 35.6482 242.243 35.709 242.291 35.7589C242.339 35.8087 242.398 35.846 242.464 35.8675C242.53 35.8877 242.599 35.8913 242.666 35.8778C242.733 35.8643 242.796 35.8343 242.848 35.7904L244.674 34.3168C244.738 34.2675 244.784 34.2005 244.809 34.1245C244.833 34.0486 244.834 33.9671 244.811 33.8906L244.355 32.222L244.4 32.1766L246.908 29.2022L247.113 31.5872L245.419 33.5142C245.304 33.6508 245.248 33.8268 245.264 34.0039C245.275 34.1344 245.324 34.2587 245.407 34.3611C245.489 34.4634 245.6 34.5393 245.725 34.5791C245.851 34.6189 245.986 34.6208 246.112 34.5846C246.239 34.5484 246.352 34.4757 246.437 34.3757L247.246 33.41L247.378 34.9516L243.985 38.9689C243.871 39.1041 243.816 39.2784 243.83 39.454C243.845 39.6296 243.928 39.7925 244.063 39.9075C244.198 40.0202 244.373 40.0753 244.549 40.0608C244.725 40.0464 244.888 39.9636 245.003 39.8304L247.538 36.8242L247.629 37.9396L246.163 40.5649C246.126 40.6365 246.11 40.7173 246.117 40.7976C246.124 40.878 246.154 40.9546 246.204 41.0184L248.488 43.8296C248.529 43.8819 248.583 43.923 248.644 43.9492C248.706 43.9753 248.773 43.9857 248.839 43.9792C248.907 43.9743 248.972 43.9526 249.028 43.9161C249.085 43.8797 249.131 43.8296 249.164 43.7706L250.922 40.5967C250.961 40.5259 250.979 40.4451 250.972 40.3645C250.966 40.2839 250.935 40.207 250.885 40.1433L248.972 37.7673L248.88 36.6882L251.876 39.2364C251.94 39.3055 252.019 39.3602 252.106 39.3969C252.193 39.4336 252.287 39.4514 252.382 39.4491C252.477 39.4468 252.57 39.4245 252.655 39.3837C252.741 39.3429 252.816 39.2845 252.877 39.2124C252.938 39.1403 252.983 39.0562 253.008 38.9656C253.034 38.875 253.039 38.7801 253.025 38.6871C253.011 38.5942 252.977 38.5053 252.925 38.4264C252.873 38.3476 252.805 38.2805 252.726 38.2298L248.707 34.8382L248.579 33.2966L249.529 34.1128C249.63 34.1966 249.754 34.2489 249.885 34.2628C250.016 34.2768 250.148 34.2519 250.265 34.1912C250.382 34.1306 250.478 34.0369 250.541 33.9221C250.604 33.8072 250.632 33.6763 250.62 33.546C250.615 33.4587 250.591 33.3734 250.551 33.2955C250.511 33.2175 250.455 33.1485 250.387 33.0926L248.405 31.4194L248.205 29.0344L251.159 31.5283L250.976 33.3057C250.968 33.3848 250.983 33.4645 251.02 33.5353C251.056 33.6061 251.113 33.6649 251.182 33.7047L253.21 34.8564C253.27 34.8878 253.338 34.9042 253.406 34.9042C253.474 34.9042 253.542 34.8878 253.602 34.8564C253.663 34.824 253.715 34.7773 253.753 34.7203C253.791 34.6634 253.815 34.598 253.822 34.5299L254.059 32.2129C254.067 32.1338 254.052 32.0541 254.016 31.9833C253.979 31.9125 253.923 31.8537 253.853 31.8139L252.283 30.9071L251.958 27.0621L253.785 28.6082L254.004 31.1927C254.005 31.2841 254.024 31.3743 254.062 31.4578C254.099 31.5413 254.154 31.6161 254.222 31.6777C254.29 31.7393 254.37 31.7862 254.457 31.8155C254.544 31.8448 254.637 31.8559 254.728 31.848C254.82 31.8402 254.909 31.8136 254.99 31.7699C255.071 31.7262 255.141 31.6664 255.198 31.5942C255.254 31.522 255.295 31.4389 255.317 31.3503C255.34 31.2618 255.344 31.1695 255.329 31.0794L255.223 29.8189L256.402 30.8164L256.858 36.0579C256.865 36.1448 256.888 36.2295 256.928 36.3072C256.968 36.3849 257.022 36.454 257.089 36.5105C257.156 36.5671 257.233 36.6099 257.316 36.6365C257.4 36.6631 257.488 36.673 257.575 36.6655C257.75 36.655 257.914 36.577 258.032 36.4482C258.149 36.3195 258.212 36.1501 258.206 35.9763L257.872 32.0633L258.731 32.7842L259.553 35.6861C259.576 35.7642 259.621 35.8338 259.684 35.8862C259.746 35.9387 259.823 35.9716 259.904 35.9809L263.494 36.3663C263.56 36.3741 263.628 36.3654 263.69 36.3409C263.752 36.3163 263.807 36.2767 263.85 36.2257C263.893 36.1741 263.923 36.113 263.937 36.0475C263.952 35.982 263.95 35.914 263.932 35.8494L262.946 32.3762C262.924 32.2975 262.879 32.2272 262.816 32.1746C262.753 32.122 262.676 32.0895 262.594 32.0814L259.576 31.755L258.735 31.0476L262.653 30.7166C262.831 30.7016 262.995 30.6172 263.11 30.482C263.225 30.3468 263.281 30.1719 263.265 29.9957C263.25 29.8195 263.165 29.6565 263.029 29.5426C262.893 29.4286 262.717 29.3731 262.539 29.3881L257.297 29.8415L256.119 28.844L257.374 28.7397C257.55 28.7234 257.713 28.6389 257.826 28.5044C257.94 28.37 257.996 28.1965 257.981 28.0217C257.967 27.8468 257.883 27.6846 257.749 27.5703C257.615 27.456 257.441 27.3988 257.265 27.4112L254.68 27.6288L252.853 26.0872L256.612 25.7698L257.785 27.2117C257.837 27.2721 257.904 27.3168 257.98 27.3409C258.056 27.3649 258.137 27.3673 258.215 27.3477L260.461 26.7265C260.528 26.708 260.588 26.6734 260.638 26.6259C260.688 26.5783 260.724 26.5193 260.745 26.4541C260.766 26.3889 260.77 26.3195 260.757 26.2523C260.744 26.1851 260.715 26.1221 260.672 26.0691L259.197 24.2554C259.146 24.1932 259.079 24.1471 259.003 24.1229C258.926 24.0987 258.844 24.0975 258.767 24.1194L257.123 24.5728L254.096 22.0472L256.488 21.8477L258.466 23.5208C258.603 23.6297 258.778 23.6819 258.953 23.6667C259.128 23.6515 259.29 23.5701 259.407 23.4392C259.521 23.3039 259.577 23.129 259.561 22.953C259.546 22.777 259.461 22.6143 259.324 22.5006L258.361 21.689L259.9 21.5575L263.923 24.9491C264.059 25.0622 264.234 25.1171 264.41 25.1018C264.587 25.0864 264.75 25.0022 264.864 24.8675C264.978 24.7328 265.033 24.5587 265.018 24.3836C265.002 24.2084 264.917 24.0465 264.782 23.9334L261.777 21.3988L262.886 21.3036L265.53 22.7818C265.602 22.8214 265.684 22.8387 265.765 22.8314C265.847 22.8241 265.924 22.7926 265.987 22.741L268.8 20.4738C268.852 20.4309 268.892 20.3765 268.918 20.315C268.945 20.2535 268.956 20.1868 268.951 20.1202C268.946 20.0556 268.926 19.993 268.893 19.9372C268.859 19.8814 268.814 19.8339 268.759 19.7982ZM246.031 18.9277C245.895 18.9696 245.763 19.0195 245.633 19.0773L245.387 19.1952C245.249 19.2718 245.117 19.3597 244.994 19.4582L243.378 18.0979L243.067 14.4705L245.853 16.8193L246.031 18.9277ZM245.433 24.8222C245.558 24.8907 245.688 24.9513 245.821 25.0035L246.099 25.0942C246.249 25.1361 246.402 25.1679 246.556 25.1894L246.734 27.2661L244.382 30.0546L244.072 26.4273L245.433 24.8222ZM247.035 23.879H246.812C246.433 23.8491 246.073 23.7051 245.78 23.4664C245.746 23.4434 245.715 23.416 245.688 23.3848C245.411 23.1403 245.215 22.8176 245.127 22.4598C245.106 22.352 245.092 22.243 245.085 22.1334C245.044 21.6931 245.166 21.2529 245.428 20.8955C245.586 20.6749 245.79 20.4912 246.027 20.3573C246.263 20.2233 246.526 20.1424 246.798 20.1202C246.976 20.103 247.156 20.1106 247.332 20.1428C247.637 20.2011 247.921 20.3353 248.159 20.5328L248.209 20.5736C248.442 20.7756 248.62 21.033 248.725 21.3217C248.777 21.4685 248.812 21.6206 248.83 21.7752V21.8522C248.864 22.2585 248.763 22.6647 248.542 23.0085C248.483 23.0933 248.419 23.1751 248.351 23.2533C248.046 23.5974 247.622 23.8145 247.163 23.8609C247.121 23.8722 247.079 23.8798 247.035 23.8836V23.879ZM248.474 19.1499C248.345 19.0838 248.212 19.0248 248.077 18.973L247.83 18.8959H247.762L247.561 18.8461L247.355 18.8189L247.177 16.715L249.529 13.9174L249.835 17.5447L248.474 19.1499ZM247.885 25.0806C248.024 25.0392 248.16 24.9876 248.291 24.9264L248.556 24.7904C248.691 24.7127 248.821 24.6264 248.944 24.532L250.538 25.8922L250.844 29.5196L248.063 27.1754L247.885 25.0806ZM250.036 21.0588C250.036 20.9953 249.999 20.9318 249.976 20.8729C249.958 20.8219 249.937 20.7719 249.912 20.7232L249.757 20.4013C249.68 20.2652 249.593 20.1349 249.497 20.0114L250.867 18.4062L254.52 18.0979L252.173 20.8819L250.036 21.0588ZM242.514 19.109L244.131 20.4693C244.064 20.5959 244.005 20.7261 243.953 20.8593L243.866 21.1268C243.821 21.2748 243.789 21.4265 243.77 21.5802L241.674 21.757L238.884 19.4083L242.514 19.109ZM241.765 23.0946L243.857 22.9132C243.9 23.0522 243.952 23.1885 244.012 23.3213L244.14 23.5707C244.218 23.7086 244.307 23.8405 244.405 23.9652L243.035 25.5658L239.382 25.8741L241.765 23.0946ZM251.387 24.8675L249.785 23.5072C249.852 23.3779 249.911 23.2447 249.963 23.1082L250.045 22.8362C250.086 22.6875 250.117 22.5359 250.136 22.3827L252.228 22.2059L255.013 24.5592L251.387 24.8675Z" fill="white"/>
<path d="M466.886 37.8082L465.167 36.8486C465.128 36.8276 465.084 36.8186 465.039 36.8225C464.995 36.8265 464.953 36.8433 464.918 36.8709L463.62 37.9071L463.015 37.9591L464.398 36.3193C464.432 36.2827 464.458 36.2394 464.474 36.1921C464.491 36.1448 464.497 36.0946 464.492 36.0448C464.487 35.9736 464.46 35.9056 464.416 35.8495C464.371 35.7934 464.311 35.7518 464.242 35.73C464.174 35.7082 464.1 35.7073 464.031 35.7272C463.962 35.7472 463.901 35.7871 463.855 35.842L462.004 38.0333L461.162 38.105L461.608 37.5782C461.67 37.5046 461.701 37.4094 461.692 37.3136C461.686 37.2424 461.659 37.1746 461.614 37.1188C461.57 37.0629 461.509 37.0215 461.441 36.9998C461.372 36.9781 461.299 36.9771 461.229 36.9968C461.16 37.0166 461.099 37.0562 461.052 37.1108L460.133 38.2014L458.833 38.3127L460.2 36.6928L461.137 36.7892C461.18 36.7926 461.224 36.7837 461.262 36.7635C461.3 36.7434 461.332 36.7129 461.354 36.6755L461.981 35.5699C461.999 35.5371 462.008 35.5006 462.008 35.4636C462.008 35.4266 461.999 35.3901 461.981 35.3573C461.964 35.324 461.939 35.2954 461.909 35.2742C461.878 35.2531 461.842 35.2399 461.804 35.2361L460.539 35.1075C460.496 35.1041 460.452 35.113 460.414 35.1332C460.376 35.1533 460.344 35.1838 460.322 35.2212L459.824 36.0918L457.764 36.2674L458.606 35.2781L460.016 35.1594C460.112 35.1506 460.201 35.1043 460.263 35.0306C460.325 34.9569 460.356 34.8619 460.347 34.7662C460.344 34.7188 460.331 34.6726 460.309 34.6302C460.288 34.5878 460.258 34.5501 460.222 34.5193C460.185 34.4884 460.143 34.4651 460.097 34.4506C460.052 34.4361 460.004 34.4307 459.956 34.4347L459.269 34.4941L459.814 33.8486L462.671 33.6013C462.719 33.5972 462.765 33.5839 462.808 33.5621C462.85 33.5402 462.888 33.5103 462.919 33.474C462.949 33.4377 462.973 33.3958 462.987 33.3506C463.001 33.3054 463.007 33.2578 463.003 33.2105C462.997 33.116 462.954 33.0276 462.883 32.9642C462.812 32.9008 462.719 32.8676 462.624 32.8717L460.487 33.0522L460.88 32.5947L462.477 32.1421C462.52 32.1297 462.558 32.105 462.587 32.0711C462.616 32.0373 462.634 31.9957 462.639 31.9516L462.851 29.9929C462.854 29.9563 462.849 29.9195 462.835 29.8855C462.821 29.8514 462.799 29.8212 462.771 29.7975C462.743 29.7745 462.71 29.7585 462.674 29.7507C462.639 29.743 462.602 29.7438 462.567 29.753L460.674 30.2921C460.63 30.3039 460.592 30.3284 460.563 30.3624C460.534 30.3964 460.516 30.4383 460.512 30.4826L460.335 32.1173L459.936 32.5823L459.754 30.4455C459.751 30.3978 459.739 30.3512 459.717 30.3084C459.696 30.2656 459.666 30.2275 459.63 30.1962C459.593 30.1649 459.551 30.1411 459.505 30.1261C459.46 30.1112 459.411 30.1054 459.363 30.1091C459.267 30.1179 459.178 30.1642 459.116 30.2379C459.054 30.3116 459.024 30.4066 459.032 30.5023L459.281 33.3614L458.736 34.0044L458.671 33.3243C458.663 33.2288 458.618 33.1403 458.544 33.0782C458.471 33.016 458.376 32.9854 458.28 32.9929C458.183 33.0017 458.095 33.048 458.032 33.1216C457.97 33.1953 457.94 33.2904 457.949 33.3861L458.068 34.7958L457.226 35.7851L457.049 33.7101L457.797 33.0893C457.831 33.0618 457.856 33.0248 457.87 32.983C457.883 32.9412 457.884 32.8965 457.871 32.8544L457.533 31.6301C457.523 31.5945 457.504 31.5618 457.479 31.535C457.453 31.5082 457.421 31.4882 457.386 31.4768C457.35 31.4659 457.312 31.4638 457.275 31.4706C457.238 31.4775 457.203 31.4932 457.174 31.5164L456.19 32.3202C456.156 32.3477 456.131 32.3842 456.118 32.4255C456.105 32.4667 456.104 32.5109 456.115 32.5526L456.364 33.485L455.027 35.0976L454.917 33.7942L455.829 32.7134C455.86 32.6772 455.884 32.6351 455.898 32.5896C455.913 32.5441 455.918 32.4963 455.913 32.4488C455.91 32.4012 455.897 32.3548 455.875 32.3123C455.853 32.2698 455.823 32.2321 455.786 32.2014C455.714 32.1436 455.621 32.1159 455.528 32.1242C455.435 32.1325 455.349 32.1761 455.288 32.246L454.842 32.7703L454.773 31.9319L456.623 29.7381C456.686 29.6644 456.716 29.5693 456.708 29.4735C456.699 29.3775 456.652 29.2889 456.579 29.2262C456.506 29.1683 456.413 29.1406 456.32 29.1489C456.228 29.1572 456.142 29.2009 456.08 29.2707L454.698 30.908L454.648 30.3193L455.433 28.8725C455.454 28.8339 455.464 28.7898 455.46 28.7459C455.457 28.7019 455.44 28.6599 455.413 28.6252L454.167 27.0918C454.145 27.0633 454.116 27.0408 454.082 27.0266C454.048 27.0123 454.012 27.0067 453.976 27.0102C453.939 27.0124 453.903 27.024 453.872 27.044C453.841 27.0639 453.816 27.0915 453.799 27.1239L452.84 28.8552C452.818 28.8938 452.809 28.9379 452.812 28.9818C452.816 29.0258 452.832 29.0678 452.86 29.1025L453.906 30.3564L453.958 30.9648L452.319 29.5823C452.246 29.521 452.151 29.491 452.055 29.4989C451.959 29.5068 451.871 29.5519 451.808 29.6244C451.746 29.6989 451.715 29.7948 451.724 29.8915C451.727 29.939 451.74 29.9854 451.762 30.0279C451.784 30.0704 451.814 30.1081 451.851 30.1388L454.043 31.9887L454.115 32.8296L453.589 32.3845C453.553 32.3539 453.511 32.3307 453.465 32.3164C453.419 32.3021 453.371 32.2968 453.324 32.301C453.276 32.3051 453.23 32.3185 453.187 32.3405C453.145 32.3625 453.107 32.3925 453.076 32.429C453.045 32.4653 453.022 32.5075 453.008 32.553C452.994 32.5984 452.989 32.6463 452.994 32.6936C452.998 32.7412 453.011 32.7876 453.032 32.8301C453.054 32.8725 453.084 32.9102 453.121 32.9409L454.202 33.8535L454.312 35.152L452.685 33.7892L452.66 33.767L452.75 32.8296C452.755 32.7865 452.747 32.7428 452.727 32.7042C452.707 32.6655 452.676 32.6335 452.638 32.612L451.532 31.9863C451.499 31.9681 451.462 31.9585 451.425 31.9585C451.387 31.9585 451.35 31.9681 451.318 31.9863C451.285 32.0034 451.256 32.0284 451.236 32.059C451.215 32.0897 451.202 32.125 451.198 32.1619L451.071 33.4281C451.066 33.4713 451.074 33.5149 451.094 33.5536C451.114 33.5923 451.145 33.6243 451.183 33.6458L452.082 34.1553L452.257 36.213L451.26 35.3696L451.141 33.9599C451.137 33.9123 451.124 33.8659 451.103 33.8234C451.081 33.7808 451.051 33.7429 451.015 33.7119C450.978 33.6809 450.936 33.6574 450.89 33.6427C450.844 33.6281 450.796 33.6225 450.748 33.6264C450.7 33.6304 450.654 33.6437 450.611 33.6656C450.568 33.6875 450.531 33.7176 450.5 33.7541C450.469 33.7906 450.445 33.8328 450.431 33.8784C450.417 33.9239 450.412 33.9717 450.416 34.0192L450.476 34.7068L449.831 34.1627L449.582 31.3037C449.573 31.208 449.527 31.1195 449.454 31.0574C449.38 30.9953 449.284 30.9647 449.188 30.9723C449.14 30.9766 449.094 30.9902 449.052 31.0123C449.009 31.0345 448.972 31.0647 448.941 31.1012C448.911 31.1377 448.888 31.1798 448.874 31.2252C448.86 31.2706 448.855 31.3182 448.859 31.3655L449.039 33.4999L448.59 33.1215L448.137 31.5238C448.124 31.4812 448.099 31.4432 448.065 31.4146C448.031 31.386 447.989 31.3681 447.945 31.363L445.987 31.1528C445.951 31.148 445.914 31.1526 445.88 31.166C445.846 31.1794 445.816 31.2013 445.793 31.2295C445.769 31.2576 445.753 31.2909 445.745 31.3267C445.737 31.3624 445.738 31.3995 445.748 31.4347L446.291 33.3243C446.303 33.367 446.328 33.4052 446.362 33.4338C446.396 33.4625 446.438 33.4803 446.483 33.485L448.117 33.6631L448.575 34.0662L446.433 34.2418C446.337 34.2497 446.247 34.2953 446.185 34.3686C446.122 34.4419 446.091 34.5368 446.099 34.6326C446.107 34.7284 446.153 34.8171 446.227 34.8792C446.301 34.9414 446.396 34.9719 446.493 34.964L449.352 34.7167L449.998 35.2608L449.31 35.3202C449.219 35.3352 449.137 35.3836 449.081 35.4558C449.025 35.528 448.998 35.6187 449.005 35.7098C449.013 35.8009 449.055 35.8857 449.123 35.9473C449.191 36.0089 449.28 36.0429 449.372 36.0423L450.782 35.9236L451.779 36.7645L449.679 36.9426L449.046 36.1685C449.019 36.1345 448.982 36.1094 448.94 36.0962C448.899 36.083 448.854 36.0823 448.812 36.0943L447.586 36.4331C447.552 36.4448 447.521 36.4645 447.496 36.4906C447.471 36.5166 447.452 36.5481 447.442 36.5827C447.431 36.6172 447.429 36.6538 447.436 36.6892C447.442 36.7247 447.457 36.7581 447.479 36.7868L448.284 37.776C448.311 37.8095 448.348 37.8342 448.39 37.8474C448.431 37.8605 448.476 37.8615 448.518 37.8502L449.46 37.5881L451.081 38.9558L449.778 39.0671L448.697 38.1544C448.625 38.0969 448.532 38.0692 448.44 38.077C448.347 38.0848 448.261 38.1276 448.199 38.1965C448.137 38.2703 448.107 38.3653 448.115 38.4611C448.123 38.5569 448.168 38.6457 448.241 38.7084L448.77 39.1536L447.928 39.2352L445.736 37.3853C445.663 37.3274 445.57 37.2998 445.477 37.3081C445.385 37.3164 445.299 37.36 445.237 37.4298C445.175 37.5035 445.145 37.5986 445.153 37.6944C445.156 37.7421 445.169 37.7886 445.191 37.8311C445.212 37.8736 445.243 37.9113 445.28 37.9418L446.919 39.3243L446.326 39.3762L444.884 38.5699C444.845 38.5483 444.8 38.5389 444.756 38.5429C444.711 38.5468 444.669 38.564 444.635 38.5922L443.103 39.8288C443.074 39.8517 443.051 39.8812 443.036 39.9148C443.021 39.9485 443.015 39.9851 443.018 40.0217C443.022 40.0583 443.034 40.0935 443.054 40.1244C443.074 40.1554 443.101 40.1812 443.133 40.1998L444.851 41.1594C444.89 41.1804 444.935 41.1894 444.979 41.1855C445.024 41.1815 445.066 41.1647 445.1 41.1371L446.388 40.1009L446.979 40.0514L445.596 41.6887C445.565 41.7249 445.542 41.7668 445.527 41.812C445.513 41.8572 445.507 41.9048 445.511 41.9521C445.515 41.9994 445.528 42.0455 445.55 42.0877C445.572 42.1299 445.602 42.1674 445.638 42.1981C445.675 42.2288 445.717 42.2521 445.763 42.2666C445.808 42.2811 445.856 42.2865 445.904 42.2826C445.951 42.2787 445.998 42.2655 446.04 42.2438C446.083 42.2221 446.121 42.1923 446.152 42.1561L448.002 39.9648L448.842 39.8931L448.398 40.4199C448.352 40.4504 448.313 40.4911 448.285 40.539C448.256 40.5868 448.24 40.6404 448.236 40.6957C448.232 40.751 448.241 40.8065 448.262 40.8578C448.283 40.9091 448.315 40.9549 448.357 40.9917C448.399 41.0285 448.449 41.0552 448.503 41.0698C448.556 41.0844 448.613 41.0865 448.668 41.0759C448.723 41.0654 448.774 41.0424 448.819 41.0088C448.863 40.9753 448.899 40.932 448.924 40.8824L449.838 39.8016L451.136 39.6928L449.771 41.3103L449.756 41.33L448.804 41.2385C448.761 41.2338 448.717 41.2419 448.678 41.2616C448.639 41.2814 448.607 41.3121 448.585 41.3498L447.96 42.4554C447.942 42.4884 447.933 42.5254 447.933 42.5629C447.933 42.6005 447.942 42.6374 447.96 42.6705C447.977 42.7033 448.002 42.7314 448.033 42.7521C448.064 42.7729 448.1 42.7856 448.137 42.7892L449.402 42.9178C449.445 42.9221 449.489 42.9138 449.527 42.894C449.566 42.8743 449.597 42.8439 449.619 42.8066L450.117 41.9211L452.212 41.7455L451.368 42.7348L449.958 42.856C449.867 42.871 449.785 42.9195 449.729 42.9917C449.672 43.0639 449.645 43.1546 449.653 43.2456C449.661 43.3367 449.703 43.4215 449.771 43.4832C449.839 43.5448 449.928 43.5787 450.02 43.5782L450.705 43.5213L450.169 44.1668L447.31 44.4141C447.219 44.4292 447.137 44.4776 447.081 44.5498C447.024 44.622 446.997 44.7127 447.005 44.8038C447.013 44.8949 447.055 44.9797 447.123 45.0413C447.191 45.1029 447.28 45.1368 447.372 45.1363L449.497 44.9483L449.108 45.4108L447.529 45.8585C447.486 45.8706 447.448 45.8952 447.419 45.9291C447.39 45.963 447.372 46.0048 447.367 46.0489L447.155 48.0077C447.15 48.0446 447.154 48.0824 447.166 48.1175C447.179 48.1526 447.201 48.1839 447.229 48.2085C447.257 48.2332 447.292 48.2504 447.328 48.2585C447.365 48.2666 447.403 48.2654 447.439 48.255L449.332 47.7159C449.376 47.7041 449.414 47.6796 449.443 47.6456C449.472 47.6116 449.49 47.5697 449.494 47.5254L449.674 45.8758L450.052 45.4257L450.234 47.5601C450.238 47.6074 450.251 47.6536 450.272 47.696C450.294 47.7384 450.324 47.7761 450.36 47.8069C450.396 47.8378 450.439 47.8611 450.484 47.8756C450.53 47.8901 450.578 47.8955 450.625 47.8915C450.722 47.8827 450.811 47.8364 450.873 47.7627C450.935 47.689 450.965 47.5939 450.957 47.4982L450.707 44.6392L451.25 43.9962L451.308 44.6837C451.316 44.7792 451.362 44.8674 451.436 44.9291C451.51 44.9908 451.605 45.0208 451.701 45.0127C451.797 45.0045 451.886 44.9587 451.948 44.8854C452.011 44.8121 452.041 44.7173 452.033 44.6219L451.913 43.2171L452.755 42.2278L452.929 44.2954L452.13 44.9483C452.096 44.9757 452.071 45.0122 452.057 45.0535C452.044 45.0948 452.043 45.1391 452.055 45.1808L452.394 46.4174C452.404 46.4536 452.423 46.4868 452.449 46.514C452.475 46.5412 452.507 46.5615 452.543 46.5732C452.579 46.5843 452.617 46.5862 452.653 46.5789C452.69 46.5715 452.724 46.5551 452.752 46.5312L453.749 45.7274C453.783 45.7005 453.809 45.664 453.822 45.6225C453.835 45.5811 453.836 45.5367 453.824 45.4949L453.574 44.5848L453.599 44.5601L454.967 42.9376L455.079 44.2385L454.155 45.2896C454.092 45.3642 454.062 45.4601 454.07 45.5568C454.076 45.6279 454.103 45.6957 454.148 45.7515C454.193 45.8074 454.254 45.8488 454.322 45.8705C454.391 45.8922 454.464 45.8932 454.533 45.8735C454.602 45.8538 454.664 45.8141 454.71 45.7596L455.151 45.2328L455.223 46.0737L453.373 48.2649C453.311 48.3387 453.28 48.4337 453.288 48.5295C453.296 48.6253 453.342 48.7141 453.415 48.7769C453.489 48.8383 453.584 48.8684 453.68 48.8605C453.776 48.8526 453.865 48.8075 453.928 48.7348L455.311 47.0951L455.36 47.7035L454.561 49.1355C454.54 49.1745 454.532 49.2186 454.536 49.2624C454.54 49.3062 454.556 49.348 454.583 49.3828L455.829 50.9162C455.851 50.9447 455.881 50.9672 455.914 50.9814C455.948 50.9957 455.984 51.0013 456.021 50.9978C456.057 50.9951 456.093 50.9833 456.124 50.9634C456.155 50.9435 456.18 50.9162 456.197 50.884L457.156 49.1528C457.178 49.1142 457.187 49.0701 457.184 49.0262C457.18 48.9822 457.164 48.9402 457.137 48.9055L456.093 47.6095L456.043 47.0209L457.677 48.4108C457.712 48.4485 457.755 48.4784 457.802 48.4984C457.85 48.5184 457.901 48.5281 457.953 48.5268C458.005 48.5256 458.055 48.5134 458.102 48.4912C458.149 48.4689 458.19 48.4371 458.223 48.3978C458.256 48.3584 458.281 48.3125 458.294 48.2631C458.308 48.2137 458.312 48.1619 458.304 48.1112C458.296 48.0605 458.277 48.012 458.249 47.969C458.221 47.926 458.184 47.8895 458.14 47.8618L455.948 46.0118L455.879 45.1709L456.397 45.6161C456.452 45.6619 456.52 45.6903 456.591 45.698C456.662 45.7056 456.735 45.692 456.798 45.6589C456.862 45.6258 456.914 45.5747 456.949 45.5121C456.983 45.4494 456.998 45.3781 456.992 45.307C456.989 45.2593 456.976 45.2128 456.954 45.1703C456.932 45.1278 456.902 45.0901 456.865 45.0596L455.784 44.147L455.674 42.8461L457.286 44.2064L457.186 45.1759C457.182 45.219 457.19 45.2625 457.21 45.3011C457.23 45.3397 457.261 45.3718 457.298 45.3935L458.404 46.0217C458.437 46.0388 458.474 46.0478 458.511 46.0478C458.549 46.0478 458.586 46.0388 458.619 46.0217C458.652 46.0041 458.68 45.9786 458.701 45.9475C458.722 45.9165 458.734 45.8808 458.738 45.8436L458.868 44.5798C458.872 44.5367 458.864 44.4932 458.844 44.4546C458.824 44.416 458.793 44.3839 458.756 44.3622L457.899 43.8676L457.722 41.7703L458.718 42.6136L458.838 44.0234C458.838 44.0732 458.849 44.1224 458.869 44.168C458.89 44.2135 458.919 44.2543 458.956 44.2879C458.994 44.3215 459.037 44.3471 459.085 44.3631C459.132 44.379 459.183 44.3851 459.233 44.3808C459.283 44.3765 459.331 44.362 459.375 44.3382C459.419 44.3144 459.458 44.2817 459.489 44.2423C459.52 44.2029 459.542 44.1577 459.554 44.1093C459.566 44.061 459.568 44.0107 459.56 43.9615L459.503 43.274L460.146 43.8181L460.395 46.6771C460.398 46.7245 460.411 46.7707 460.433 46.8131C460.454 46.8555 460.484 46.8932 460.52 46.924C460.557 46.9548 460.599 46.9782 460.645 46.9927C460.69 47.0072 460.738 47.0126 460.786 47.0085C460.881 47.0028 460.97 46.9603 461.035 46.89C461.099 46.8198 461.133 46.7274 461.129 46.6326L460.948 44.4982L461.416 44.8915L461.864 46.4743C461.877 46.5169 461.902 46.5549 461.936 46.5835C461.97 46.6121 462.012 46.63 462.056 46.6351L464.014 46.8453C464.05 46.8496 464.087 46.8448 464.121 46.8314C464.155 46.8181 464.185 46.7965 464.208 46.7686C464.232 46.7405 464.248 46.7072 464.256 46.6714C464.264 46.6357 464.263 46.5986 464.253 46.5634L463.715 44.6689C463.703 44.626 463.678 44.5876 463.644 44.5589C463.61 44.5303 463.568 44.5125 463.523 44.5081L461.877 44.33L461.418 43.9442L463.556 43.7637C463.652 43.7555 463.742 43.7094 463.805 43.6357C463.867 43.562 463.898 43.4665 463.889 43.3704C463.881 43.2743 463.835 43.1854 463.76 43.1233C463.686 43.0611 463.59 43.0308 463.493 43.039L460.634 43.2864L459.991 42.7422L460.676 42.6854C460.772 42.6765 460.861 42.6304 460.923 42.557C460.985 42.4837 461.015 42.3891 461.007 42.2937C460.999 42.1983 460.954 42.1098 460.881 42.0475C460.807 41.9852 460.712 41.954 460.616 41.9607L459.206 42.0794L458.21 41.2385L460.26 41.0654L460.9 41.8519C460.928 41.8848 460.965 41.9092 461.007 41.9224C461.048 41.9355 461.092 41.9368 461.134 41.9261L462.36 41.5873C462.396 41.5772 462.429 41.5583 462.456 41.5324C462.483 41.5064 462.503 41.4742 462.515 41.4386C462.526 41.4031 462.528 41.3653 462.521 41.3286C462.514 41.292 462.498 41.2576 462.475 41.2286L461.67 40.2394C461.643 40.2054 461.606 40.1803 461.564 40.1671C461.523 40.1539 461.478 40.1532 461.436 40.1652L460.539 40.4125L458.888 39.0349L460.193 38.9261L461.271 39.8387C461.346 39.8981 461.441 39.9265 461.537 39.9183C461.632 39.91 461.721 39.8656 461.785 39.7942C461.847 39.7204 461.877 39.625 461.869 39.529C461.86 39.433 461.814 39.3442 461.74 39.2822L461.214 38.8395L462.054 38.7678L464.248 40.6178C464.322 40.6794 464.418 40.7094 464.514 40.701C464.61 40.6927 464.699 40.6467 464.761 40.5732C464.823 40.4998 464.853 40.4048 464.845 40.3093C464.837 40.2137 464.79 40.1254 464.716 40.0638L463.077 38.6812L463.683 38.6293L465.125 39.4356C465.164 39.4572 465.208 39.4666 465.253 39.4626C465.297 39.4587 465.34 39.4415 465.374 39.4133L466.908 38.1767C466.936 38.1533 466.959 38.1236 466.973 38.0901C466.987 38.0565 466.993 38.0201 466.991 37.9838C466.988 37.9486 466.977 37.9144 466.959 37.884C466.941 37.8536 466.916 37.8276 466.886 37.8082ZM454.489 37.3333C454.415 37.3562 454.342 37.3835 454.272 37.415L454.137 37.4793C454.062 37.521 453.99 37.569 453.923 37.6227L453.041 36.8807L452.872 34.9022L454.392 36.1833L454.489 37.3333ZM454.162 40.5485C454.231 40.5859 454.301 40.619 454.374 40.6474L454.526 40.6969C454.608 40.7197 454.691 40.7371 454.775 40.7488L454.872 41.8816L453.589 43.4026L453.42 41.424L454.162 40.5485ZM455.037 40.0341H454.915C454.708 40.0177 454.512 39.9392 454.352 39.809C454.333 39.7965 454.316 39.7815 454.302 39.7645C454.15 39.6311 454.044 39.4551 453.995 39.26C453.984 39.2012 453.977 39.1417 453.973 39.0819C453.95 38.8418 454.017 38.6016 454.16 38.4067C454.246 38.2864 454.357 38.1862 454.486 38.1131C454.615 38.0401 454.759 37.9959 454.907 37.9838C455.004 37.9744 455.102 37.9786 455.199 37.9962C455.365 38.0279 455.52 38.1011 455.649 38.2089L455.677 38.2311C455.804 38.3413 455.901 38.4817 455.958 38.6392C455.987 38.7192 456.006 38.8022 456.016 38.8865V38.9286C456.034 39.1502 455.979 39.3717 455.859 39.5592C455.826 39.6055 455.791 39.6501 455.754 39.6928C455.588 39.8805 455.357 39.9989 455.106 40.0242C455.084 40.0304 455.06 40.0345 455.037 40.0366V40.0341ZM455.821 37.4545C455.751 37.4185 455.679 37.3863 455.605 37.3581L455.47 37.316H455.433L455.323 37.2888L455.211 37.274L455.114 36.1264L456.397 34.6004L456.564 36.579L455.821 37.4545ZM455.5 40.6895C455.576 40.6669 455.65 40.6388 455.722 40.6054L455.866 40.5312C455.94 40.4888 456.01 40.4417 456.078 40.3902L456.947 41.1322L457.114 43.1108L455.597 41.8321L455.5 40.6895ZM456.673 38.4957C456.673 38.4611 456.653 38.4265 456.641 38.3943C456.631 38.3665 456.619 38.3393 456.606 38.3127L456.521 38.1371C456.479 38.0629 456.432 37.9918 456.379 37.9244L457.127 37.0489L459.119 36.8807L457.839 38.3993L456.673 38.4957ZM452.571 37.4323L453.452 38.1742C453.416 38.2433 453.384 38.3143 453.355 38.3869L453.308 38.5328C453.283 38.6136 453.266 38.6964 453.256 38.7802L452.112 38.8766L450.59 37.5955L452.571 37.4323ZM452.162 39.6062L453.303 39.5073C453.327 39.5831 453.355 39.6574 453.388 39.7299L453.457 39.8659C453.5 39.9411 453.548 40.0131 453.602 40.0811L452.855 40.9541L450.862 41.1223L452.162 39.6062ZM457.411 40.5732L456.536 39.8313C456.573 39.7607 456.605 39.6881 456.633 39.6136L456.678 39.4652C456.701 39.3841 456.718 39.3015 456.728 39.2179L457.869 39.1215L459.388 40.4051L457.411 40.5732Z" fill="white"/>
<path d="M842.914 34.1061L841.625 33.3864C841.596 33.3707 841.563 33.3639 841.529 33.3669C841.496 33.3698 841.465 33.3824 841.439 33.4031L840.465 34.1803L840.011 34.2193L841.048 32.9895C841.074 32.962 841.093 32.9295 841.106 32.894C841.118 32.8585 841.123 32.8209 841.119 32.7836C841.115 32.7302 841.095 32.6791 841.062 32.6371C841.028 32.595 840.983 32.5638 840.932 32.5475C840.88 32.5311 840.825 32.5304 840.773 32.5454C840.722 32.5603 840.675 32.5903 840.641 32.6315L839.253 34.2749L838.621 34.3287L838.956 33.9336C839.003 33.8784 839.025 33.807 839.019 33.7351C839.015 33.6818 838.994 33.6309 838.961 33.589C838.927 33.5472 838.882 33.5161 838.83 33.4998C838.779 33.4836 838.724 33.4828 838.672 33.4976C838.62 33.5124 838.574 33.5421 838.539 33.583L837.85 34.401L836.875 34.4845L837.9 33.2696L838.603 33.3419C838.635 33.3444 838.668 33.3377 838.696 33.3226C838.725 33.3075 838.749 33.2846 838.765 33.2566L839.236 32.4274C839.249 32.4028 839.256 32.3754 839.256 32.3477C839.256 32.3199 839.249 32.2925 839.236 32.2679C839.223 32.2429 839.205 32.2215 839.181 32.2057C839.158 32.1898 839.131 32.1799 839.103 32.177L838.154 32.0806C838.122 32.078 838.089 32.0847 838.061 32.0998C838.032 32.1149 838.008 32.1378 837.992 32.1659L837.618 32.8188L836.073 32.9505L836.705 32.2085L837.762 32.1195C837.834 32.1129 837.901 32.0782 837.948 32.0229C837.994 31.9677 838.017 31.8964 838.01 31.8246C838.008 31.7891 837.998 31.7544 837.982 31.7226C837.966 31.6908 837.943 31.6626 837.916 31.6394C837.889 31.6163 837.857 31.5988 837.823 31.5879C837.789 31.577 837.753 31.573 837.717 31.576L837.202 31.6205L837.611 31.1364L839.753 30.9509C839.789 30.9479 839.824 30.9379 839.856 30.9215C839.888 30.9052 839.916 30.8827 839.939 30.8555C839.962 30.8283 839.979 30.7968 839.99 30.7629C840.001 30.729 840.005 30.6933 840.002 30.6578C839.998 30.587 839.965 30.5207 839.912 30.4731C839.859 30.4256 839.789 30.4007 839.718 30.4037L838.115 30.5391L838.41 30.196L839.608 29.8565C839.64 29.8472 839.669 29.8287 839.69 29.8033C839.712 29.7779 839.725 29.7467 839.729 29.7137L839.888 28.2446C839.891 28.2172 839.887 28.1896 839.876 28.1641C839.866 28.1385 839.849 28.1159 839.828 28.0981C839.807 28.0808 839.782 28.0688 839.756 28.063C839.729 28.0572 839.701 28.0578 839.675 28.0647L838.255 28.4691C838.223 28.4779 838.194 28.4963 838.172 28.5218C838.15 28.5473 838.137 28.5787 838.134 28.6119L838.001 29.838L837.702 30.1867L837.566 28.5841C837.563 28.5483 837.554 28.5134 837.538 28.4813C837.522 28.4492 837.5 28.4206 837.472 28.3971C837.445 28.3736 837.413 28.3558 837.379 28.3446C837.345 28.3334 837.309 28.329 837.273 28.3318C837.2 28.3384 837.134 28.3731 837.087 28.4284C837.04 28.4836 837.018 28.5549 837.024 28.6267L837.211 30.771L836.802 31.2533L836.753 30.7432C836.747 30.6716 836.713 30.6052 836.658 30.5586C836.603 30.512 836.532 30.489 836.46 30.4946C836.388 30.5012 836.321 30.5359 836.274 30.5912C836.228 30.6465 836.205 30.7178 836.211 30.7895L836.301 31.8468L835.67 32.5888L835.537 31.0325L836.097 30.567C836.123 30.5463 836.142 30.5186 836.152 30.4873C836.162 30.4559 836.163 30.4223 836.153 30.3907L835.899 29.4726C835.892 29.4458 835.878 29.4213 835.859 29.4012C835.84 29.3811 835.816 29.3661 835.789 29.3576C835.762 29.3494 835.734 29.3478 835.706 29.353C835.678 29.3581 835.652 29.3699 835.63 29.3872L834.892 29.9901C834.867 30.0107 834.849 30.0381 834.839 30.0691C834.829 30.1 834.828 30.1331 834.836 30.1644L835.023 30.8637L834.02 32.0731L833.938 31.0956L834.622 30.285C834.645 30.2578 834.663 30.2263 834.674 30.1922C834.685 30.1581 834.688 30.1222 834.685 30.0865C834.683 30.0509 834.673 30.0161 834.656 29.9842C834.64 29.9523 834.617 29.9241 834.59 29.901C834.535 29.8577 834.466 29.8369 834.396 29.8431C834.327 29.8494 834.262 29.8821 834.216 29.9344L833.882 30.3277L833.829 29.6989L835.218 28.0536C835.264 27.9983 835.287 27.927 835.281 27.8551C835.274 27.7831 835.239 27.7167 835.184 27.6696C835.129 27.6262 835.06 27.6055 834.99 27.6117C834.921 27.6179 834.856 27.6506 834.81 27.703L833.773 28.9309L833.736 28.4895L834.325 27.4043C834.341 27.3754 834.348 27.3423 834.345 27.3094C834.342 27.2764 834.33 27.2449 834.31 27.2189L833.375 26.0688C833.359 26.0474 833.337 26.0306 833.311 26.0199C833.286 26.0092 833.259 26.005 833.232 26.0076C833.204 26.0093 833.177 26.018 833.154 26.033C833.131 26.0479 833.112 26.0686 833.099 26.0929L832.38 27.3914C832.364 27.4203 832.357 27.4534 832.359 27.4863C832.362 27.5193 832.374 27.5508 832.395 27.5769L833.179 28.5173L833.219 28.9736L831.989 27.9367C831.934 27.8907 831.863 27.8682 831.791 27.8741C831.72 27.88 831.653 27.9139 831.606 27.9682C831.559 28.0241 831.537 28.0961 831.543 28.1686C831.545 28.2042 831.555 28.239 831.571 28.2709C831.588 28.3028 831.611 28.331 831.638 28.3541L833.282 29.7415L833.336 30.3722L832.942 30.0383C832.915 30.0154 832.883 29.998 832.849 29.9873C832.814 29.9765 832.778 29.9726 832.743 29.9757C832.707 29.9788 832.672 29.9889 832.64 30.0054C832.608 30.0218 832.58 30.0444 832.557 30.0717C832.534 30.099 832.517 30.1306 832.506 30.1647C832.495 30.1988 832.492 30.2347 832.496 30.2702C832.498 30.3059 832.508 30.3407 832.524 30.3725C832.541 30.4044 832.563 30.4327 832.591 30.4557L833.402 31.1401L833.484 32.1139L832.264 31.0919L832.245 31.0752L832.312 30.3722C832.316 30.3398 832.31 30.3071 832.295 30.2781C832.28 30.2491 832.257 30.2251 832.228 30.209L831.399 29.7397C831.374 29.726 831.347 29.7189 831.319 29.7189C831.29 29.7189 831.263 29.726 831.238 29.7397C831.213 29.7525 831.192 29.7712 831.177 29.7942C831.161 29.8172 831.151 29.8437 831.149 29.8714L831.053 30.8211C831.05 30.8535 831.056 30.8862 831.071 30.9152C831.086 30.9442 831.109 30.9682 831.137 30.9843L831.812 31.3664L831.943 32.9097L831.195 32.2772L831.106 31.2199C831.103 31.1842 831.093 31.1494 831.077 31.1175C831.061 31.0856 831.038 31.0572 831.011 31.0339C830.984 31.0107 830.952 30.993 830.918 30.982C830.883 30.971 830.847 30.9669 830.811 30.9698C830.775 30.9727 830.74 30.9827 830.708 30.9991C830.676 31.0156 830.648 31.0381 830.625 31.0655C830.602 31.0929 830.584 31.1246 830.573 31.1587C830.563 31.1929 830.559 31.2288 830.562 31.2644L830.607 31.7801L830.123 31.372L829.936 29.2277C829.93 29.156 829.895 29.0896 829.84 29.043C829.785 28.9965 829.713 28.9735 829.641 28.9792C829.605 28.9824 829.571 28.9926 829.539 29.0092C829.507 29.0258 829.479 29.0485 829.456 29.0759C829.433 29.1032 829.416 29.1349 829.405 29.1689C829.395 29.2029 829.391 29.2386 829.394 29.2741L829.529 30.8749L829.193 30.5911L828.853 29.3928C828.843 29.3609 828.825 29.3324 828.799 29.3109C828.773 29.2895 828.742 29.276 828.709 29.2722L827.24 29.1146C827.213 29.111 827.185 29.1144 827.16 29.1245C827.134 29.1345 827.112 29.1509 827.095 29.1721C827.077 29.1932 827.065 29.2182 827.059 29.245C827.053 29.2718 827.054 29.2996 827.061 29.326L827.468 30.7432C827.477 30.7752 827.496 30.8038 827.522 30.8253C827.547 30.8468 827.579 30.8602 827.612 30.8637L828.838 30.9973L829.181 31.2996L827.575 31.4313C827.502 31.4372 827.435 31.4714 827.388 31.5264C827.342 31.5814 827.318 31.6526 827.324 31.7244C827.33 31.7962 827.365 31.8628 827.42 31.9094C827.476 31.956 827.547 31.9789 827.62 31.973L829.764 31.7875L830.248 32.1956L829.733 32.2401C829.664 32.2513 829.603 32.2877 829.561 32.3418C829.518 32.396 829.498 32.464 829.504 32.5323C829.51 32.6006 829.542 32.6642 829.593 32.7104C829.644 32.7567 829.71 32.7821 829.779 32.7817L830.837 32.6927L831.584 33.3233L830.009 33.4569L829.535 32.8763C829.514 32.8509 829.486 32.832 829.455 32.8221C829.424 32.8122 829.39 32.8117 829.359 32.8207L828.44 33.0748C828.414 33.0836 828.391 33.0984 828.372 33.1179C828.353 33.1374 828.339 33.1611 828.331 33.187C828.323 33.2129 828.322 33.2403 828.327 33.2669C828.332 33.2935 828.343 33.3186 828.359 33.34L828.963 34.082C828.984 34.1071 829.011 34.1256 829.042 34.1355C829.074 34.1454 829.107 34.1461 829.138 34.1377L829.845 33.941L831.061 34.9668L830.084 35.0503L829.273 34.3658C829.218 34.3226 829.149 34.3018 829.08 34.3077C829.01 34.3136 828.946 34.3456 828.899 34.3973C828.853 34.4527 828.83 34.5239 828.836 34.5958C828.842 34.6676 828.876 34.7343 828.931 34.7813L829.327 35.1152L828.696 35.1764L827.052 33.7889C826.997 33.7455 826.928 33.7248 826.858 33.731C826.788 33.7372 826.724 33.77 826.678 33.8223C826.631 33.8776 826.609 33.9489 826.615 34.0208C826.617 34.0565 826.627 34.0914 826.643 34.1233C826.659 34.1552 826.682 34.1834 826.71 34.2063L827.939 35.2432L827.494 35.2821L826.413 34.6774C826.384 34.6612 826.35 34.6541 826.317 34.6571C826.283 34.6601 826.252 34.673 826.226 34.6941L825.077 35.6216C825.055 35.6387 825.038 35.6609 825.027 35.6861C825.016 35.7113 825.011 35.7388 825.013 35.7663C825.016 35.7937 825.025 35.8201 825.04 35.8433C825.055 35.8665 825.075 35.8859 825.099 35.8998L826.388 36.6195C826.418 36.6352 826.451 36.642 826.484 36.6391C826.518 36.6361 826.549 36.6235 826.575 36.6028L827.541 35.8256L827.984 35.7885L826.947 37.0165C826.924 37.0436 826.906 37.0751 826.895 37.109C826.884 37.1429 826.88 37.1786 826.883 37.2141C826.886 37.2495 826.896 37.2841 826.913 37.3158C826.929 37.3474 826.951 37.3756 826.979 37.3986C827.006 37.4216 827.038 37.439 827.072 37.4499C827.106 37.4608 827.142 37.4649 827.178 37.4619C827.214 37.459 827.248 37.4491 827.28 37.4328C827.312 37.4166 827.34 37.3942 827.364 37.367L828.752 35.7236L829.381 35.6698L829.049 36.0649C829.014 36.0878 828.985 36.1183 828.963 36.1542C828.942 36.1901 828.93 36.2303 828.927 36.2718C828.924 36.3132 828.93 36.3548 828.946 36.3933C828.962 36.4318 828.987 36.4662 829.018 36.4937C829.049 36.5213 829.087 36.5414 829.127 36.5523C829.167 36.5633 829.21 36.5648 829.251 36.5569C829.292 36.549 829.331 36.5318 829.364 36.5066C829.397 36.4814 829.424 36.449 829.443 36.4118L830.129 35.6012L831.102 35.5196L830.078 36.7327L830.067 36.7475L829.353 36.6789C829.321 36.6753 829.288 36.6814 829.259 36.6962C829.229 36.711 829.205 36.734 829.189 36.7623L828.72 37.5915C828.707 37.6163 828.7 37.644 828.7 37.6722C828.7 37.7003 828.707 37.7281 828.72 37.7529C828.733 37.7775 828.752 37.7985 828.775 37.8141C828.798 37.8296 828.825 37.8392 828.853 37.8419L829.802 37.9384C829.834 37.9415 829.867 37.9353 829.895 37.9205C829.924 37.9057 829.948 37.8829 829.964 37.8549L830.338 37.1908L831.909 37.0591L831.276 37.8011L830.218 37.892C830.15 37.9032 830.089 37.9396 830.046 37.9937C830.004 38.0479 829.984 38.1159 829.99 38.1842C829.996 38.2525 830.027 38.3161 830.078 38.3623C830.129 38.4086 830.196 38.434 830.265 38.4336L830.779 38.391L830.377 38.8751L828.232 39.0606C828.164 39.0718 828.103 39.1082 828.061 39.1623C828.018 39.2165 827.998 39.2845 828.004 39.3528C828.01 39.4211 828.041 39.4847 828.092 39.5309C828.143 39.5772 828.21 39.6026 828.279 39.6022L829.873 39.4612L829.581 39.8081L828.397 40.1438C828.365 40.1529 828.336 40.1713 828.314 40.1968C828.292 40.2222 828.279 40.2535 828.275 40.2867L828.117 41.7557C828.112 41.7835 828.115 41.8118 828.125 41.8381C828.134 41.8644 828.151 41.8879 828.172 41.9064C828.193 41.9249 828.219 41.9377 828.246 41.9438C828.274 41.9499 828.302 41.949 828.33 41.9412L829.749 41.5369C829.782 41.528 829.811 41.5097 829.832 41.4842C829.854 41.4587 829.867 41.4272 829.871 41.394L830.005 40.1568L830.289 39.8192L830.426 41.42C830.428 41.4555 830.438 41.4902 830.454 41.522C830.47 41.5538 830.493 41.582 830.52 41.6052C830.547 41.6283 830.579 41.6458 830.613 41.6567C830.647 41.6676 830.683 41.6716 830.719 41.6686C830.791 41.662 830.858 41.6272 830.904 41.572C830.951 41.5167 830.974 41.4454 830.967 41.3736L830.781 39.2294L831.188 38.7471L831.231 39.2628C831.237 39.3343 831.272 39.4005 831.327 39.4468C831.382 39.4931 831.454 39.5156 831.526 39.5095C831.598 39.5033 831.665 39.469 831.711 39.414C831.758 39.3591 831.781 39.288 831.774 39.2164L831.685 38.1628L832.316 37.4208L832.447 38.9715L831.847 39.4612C831.822 39.4817 831.803 39.5091 831.793 39.5401C831.783 39.5711 831.783 39.6043 831.791 39.6356L832.045 40.563C832.053 40.5902 832.067 40.6151 832.087 40.6355C832.106 40.6559 832.131 40.6711 832.157 40.6799C832.184 40.6882 832.213 40.6896 832.24 40.6841C832.267 40.6786 832.293 40.6663 832.314 40.6484L833.062 40.0455C833.087 40.0254 833.107 39.998 833.117 39.9669C833.127 39.9358 833.127 39.9025 833.118 39.8712L832.931 39.1886L832.95 39.17L833.975 37.9532L834.059 38.9289L833.366 39.7172C833.319 39.7731 833.296 39.8451 833.303 39.9175C833.307 39.9709 833.328 40.0217 833.361 40.0636C833.395 40.1055 833.44 40.1366 833.492 40.1528C833.543 40.1691 833.598 40.1699 833.65 40.1551C833.702 40.1403 833.748 40.1105 833.783 40.0696L834.113 39.6745L834.168 40.3052L832.78 41.9487C832.733 42.004 832.71 42.0753 832.716 42.1471C832.722 42.2189 832.756 42.2856 832.811 42.3326C832.867 42.3787 832.938 42.4013 833.01 42.3954C833.082 42.3895 833.149 42.3556 833.196 42.3011L834.233 41.0713L834.27 41.5276L833.671 42.6016C833.655 42.6309 833.649 42.6639 833.652 42.6968C833.655 42.7297 833.667 42.761 833.687 42.7871L834.622 43.9371C834.638 43.9585 834.66 43.9753 834.686 43.986C834.711 43.9967 834.738 44.001 834.765 43.9983C834.793 43.9963 834.82 43.9874 834.843 43.9725C834.866 43.9576 834.885 43.9371 834.898 43.913L835.617 42.6146C835.633 42.5856 835.641 42.5526 835.638 42.5196C835.635 42.4866 835.623 42.4551 835.602 42.4291L834.82 41.4571L834.782 41.0156L836.008 42.0581C836.034 42.0864 836.066 42.1087 836.102 42.1237C836.138 42.1387 836.176 42.146 836.215 42.1451C836.253 42.1442 836.292 42.1351 836.326 42.1184C836.361 42.1017 836.392 42.0778 836.417 42.0483C836.442 42.0188 836.46 41.9844 836.471 41.9473C836.481 41.9103 836.484 41.8714 836.478 41.8334C836.472 41.7954 836.458 41.759 836.437 41.7267C836.416 41.6945 836.388 41.6671 836.355 41.6463L834.711 40.2588L834.659 39.6282L835.048 39.9621C835.089 39.9964 835.14 40.0177 835.193 40.0234C835.247 40.0292 835.301 40.019 835.349 39.9941C835.397 39.9693 835.436 39.931 835.462 39.884C835.488 39.8371 835.499 39.7835 835.494 39.7302C835.492 39.6945 835.482 39.6596 835.466 39.6277C835.449 39.5958 835.426 39.5676 835.399 39.5447L834.588 38.8602L834.506 37.8846L835.714 38.9048L835.64 39.6319C835.636 39.6642 835.643 39.6969 835.658 39.7258C835.672 39.7548 835.695 39.7788 835.724 39.7951L836.553 40.2663C836.578 40.2791 836.606 40.2858 836.634 40.2858C836.662 40.2858 836.689 40.2791 836.714 40.2663C836.739 40.253 836.76 40.2339 836.776 40.2106C836.791 40.1873 836.801 40.1606 836.804 40.1327L836.901 39.1848C836.904 39.1525 836.898 39.1199 836.883 39.0909C836.868 39.062 836.845 39.0379 836.817 39.0216L836.174 38.6506L836.041 37.0777L836.789 37.7102L836.878 38.7675C836.879 38.8049 836.887 38.8418 836.902 38.8759C836.917 38.9101 836.94 38.9407 836.967 38.9659C836.995 38.9911 837.028 39.0103 837.064 39.0223C837.099 39.0343 837.137 39.0388 837.175 39.0356C837.212 39.0324 837.248 39.0215 837.282 39.0036C837.315 38.9857 837.344 38.9613 837.367 38.9317C837.39 38.9022 837.406 38.8682 837.416 38.832C837.425 38.7957 837.426 38.758 837.42 38.7211L837.377 38.2055L837.859 38.6135L838.046 40.7578C838.049 40.7933 838.058 40.828 838.074 40.8598C838.091 40.8916 838.113 40.9198 838.14 40.943C838.168 40.9661 838.199 40.9836 838.233 40.9945C838.268 41.0054 838.304 41.0094 838.339 41.0064C838.411 41.0021 838.478 40.9702 838.526 40.9175C838.574 40.8648 838.6 40.7955 838.597 40.7244L838.461 39.1236L838.812 39.4186L839.148 40.6057C839.158 40.6376 839.176 40.6661 839.202 40.6876C839.227 40.709 839.259 40.7225 839.292 40.7263L840.76 40.8839C840.788 40.8872 840.815 40.8836 840.841 40.8736C840.866 40.8635 840.889 40.8473 840.906 40.8264C840.924 40.8053 840.936 40.7803 840.942 40.7535C840.948 40.7267 840.947 40.6989 840.94 40.6725L840.536 39.2516C840.527 39.2194 840.509 39.1907 840.483 39.1692C840.457 39.1477 840.426 39.1344 840.392 39.1311L839.158 38.9975L838.814 38.7081L840.417 38.5727C840.489 38.5666 840.556 38.5321 840.603 38.4767C840.65 38.4214 840.673 38.3499 840.667 38.2778C840.661 38.2057 840.626 38.1391 840.57 38.0924C840.515 38.0458 840.443 38.0231 840.37 38.0292L838.225 38.2147L837.743 37.8067L838.257 37.764C838.329 37.7573 838.396 37.7227 838.442 37.6677C838.488 37.6128 838.511 37.5418 838.505 37.4702C838.499 37.3987 838.465 37.3323 838.41 37.2856C838.356 37.2388 838.284 37.2155 838.212 37.2205L837.155 37.3095L836.408 36.6789L837.945 36.549L838.425 37.1389C838.446 37.1636 838.474 37.1819 838.505 37.1917C838.536 37.2016 838.569 37.2025 838.601 37.1945L839.52 36.9404C839.547 36.9328 839.572 36.9187 839.592 36.8992C839.612 36.8798 839.628 36.8556 839.636 36.829C839.645 36.8023 839.646 36.7739 839.641 36.7464C839.636 36.7189 839.624 36.6932 839.606 36.6715L839.002 35.9295C838.982 35.904 838.954 35.8852 838.923 35.8753C838.892 35.8654 838.858 35.8649 838.827 35.8738L838.154 36.0593L836.916 35.0262L837.895 34.9445L838.704 35.629C838.76 35.6735 838.831 35.6949 838.903 35.6887C838.974 35.6825 839.041 35.6491 839.088 35.5956C839.135 35.5402 839.158 35.4687 839.152 35.3967C839.145 35.3247 839.111 35.2582 839.055 35.2116L838.661 34.8796L839.29 34.8258L840.936 36.2133C840.992 36.2595 841.063 36.282 841.135 36.2757C841.208 36.2695 841.274 36.235 841.321 36.1799C841.367 36.1248 841.39 36.0536 841.384 35.9819C841.377 35.9103 841.343 35.844 841.287 35.7978L840.058 34.7609L840.512 34.7219L841.594 35.3266C841.623 35.3429 841.656 35.3499 841.69 35.347C841.723 35.344 841.755 35.3311 841.78 35.31L842.931 34.3825C842.952 34.365 842.969 34.3427 842.98 34.3175C842.99 34.2924 842.995 34.2651 842.993 34.2378C842.991 34.2114 842.983 34.1858 842.969 34.163C842.955 34.1401 842.937 34.1207 842.914 34.1061ZM833.617 33.75C833.561 33.7671 833.507 33.7876 833.454 33.8112L833.353 33.8594C833.297 33.8907 833.243 33.9267 833.192 33.967L832.531 33.4105L832.404 31.9266L833.544 32.8874L833.617 33.75ZM833.372 36.1614C833.423 36.1894 833.476 36.2142 833.531 36.2355L833.645 36.2726C833.706 36.2898 833.768 36.3028 833.831 36.3116L833.904 37.1611L832.942 38.3019L832.815 36.818L833.372 36.1614ZM834.027 35.7755H833.936C833.781 35.7633 833.634 35.7044 833.514 35.6067C833.5 35.5973 833.487 35.5861 833.476 35.5733C833.363 35.4733 833.283 35.3413 833.247 35.1949C833.238 35.1508 833.232 35.1062 833.23 35.0614C833.213 34.8813 833.263 34.7012 833.37 34.555C833.434 34.4648 833.518 34.3896 833.615 34.3348C833.712 34.28 833.819 34.2469 833.93 34.2378C834.003 34.2308 834.077 34.2339 834.149 34.2471C834.273 34.2709 834.39 34.3258 834.487 34.4066L834.508 34.4233C834.603 34.5059 834.676 34.6112 834.719 34.7294C834.74 34.7894 834.754 34.8516 834.762 34.9149V34.9464C834.776 35.1126 834.734 35.2788 834.644 35.4194C834.62 35.4541 834.593 35.4875 834.566 35.5196C834.441 35.6603 834.268 35.7491 834.08 35.7681C834.063 35.7727 834.045 35.7758 834.027 35.7774V35.7755ZM834.616 33.8409C834.563 33.8138 834.509 33.7897 834.453 33.7685L834.353 33.737H834.325L834.242 33.7166L834.158 33.7055L834.085 32.8448L835.048 31.7003L835.173 33.1842L834.616 33.8409ZM834.375 36.2671C834.432 36.2501 834.487 36.2291 834.541 36.204L834.65 36.1484C834.705 36.1166 834.758 36.0813 834.808 36.0426L835.46 36.5991L835.586 38.083L834.448 37.124L834.375 36.2671ZM835.255 34.6218C835.255 34.5958 835.24 34.5698 835.231 34.5457C835.223 34.5249 835.214 34.5044 835.204 34.4845L835.141 34.3528C835.109 34.2972 835.074 34.2438 835.034 34.1933L835.595 33.5367L837.089 33.4105L836.129 34.5494L835.255 34.6218ZM832.178 33.8242L832.839 34.3806C832.812 34.4324 832.788 34.4857 832.766 34.5402L832.731 34.6496C832.712 34.7102 832.699 34.7722 832.692 34.8351L831.834 34.9074L830.693 33.9466L832.178 33.8242ZM831.872 35.4546L832.727 35.3804C832.745 35.4373 832.766 35.493 832.791 35.5474L832.843 35.6494C832.875 35.7058 832.911 35.7598 832.951 35.8108L832.391 36.4656L830.896 36.5917L831.872 35.4546ZM835.808 36.1799L835.152 35.6234C835.18 35.5705 835.204 35.516 835.225 35.4602L835.259 35.3489C835.276 35.2881 835.288 35.2261 835.296 35.1634L836.152 35.0911L837.291 36.0538L835.808 36.1799Z" fill="white"/>
<path d="M17.9145 21.1061L16.6255 20.3864C16.5961 20.3707 16.5628 20.3639 16.5295 20.3669C16.4963 20.3698 16.4647 20.3824 16.4387 20.4031L15.4653 21.1803L15.0114 21.2193L16.0482 19.9895C16.0739 19.962 16.0936 19.9295 16.1058 19.894C16.118 19.8585 16.1226 19.8209 16.1192 19.7836C16.1152 19.7302 16.0952 19.6791 16.0618 19.6371C16.0284 19.595 15.9831 19.5638 15.9317 19.5475C15.8803 19.5311 15.8252 19.5304 15.7734 19.5454C15.7216 19.5603 15.6755 19.5903 15.6409 19.6315L14.2529 21.2749L13.6214 21.3287L13.9558 20.9336C14.0026 20.8784 14.0255 20.807 14.0194 20.7351C14.0148 20.6818 13.9945 20.6309 13.9609 20.589C13.9272 20.5472 13.8819 20.5161 13.8305 20.4998C13.7791 20.4836 13.724 20.4828 13.6721 20.4976C13.6203 20.5124 13.5741 20.5421 13.5392 20.583L12.8499 21.401L11.8747 21.4845L12.9003 20.2696L13.6028 20.3419C13.6352 20.3444 13.6677 20.3377 13.6965 20.3226C13.7253 20.3075 13.7491 20.2846 13.7653 20.2566L14.2361 19.4274C14.249 19.4028 14.2558 19.3754 14.2558 19.3477C14.2558 19.3199 14.249 19.2925 14.2361 19.2679C14.2234 19.2429 14.2046 19.2215 14.1814 19.2057C14.1583 19.1898 14.1314 19.1799 14.1034 19.177L13.1544 19.0806C13.1219 19.078 13.0894 19.0847 13.0607 19.0998C13.0319 19.1149 13.008 19.1378 12.9919 19.1659L12.6182 19.8188L11.0732 19.9505L11.7047 19.2085L12.7621 19.1195C12.8343 19.1129 12.901 19.0782 12.9476 19.0229C12.9941 18.9677 13.0168 18.8964 13.0105 18.8246C13.0079 18.7891 12.9983 18.7544 12.9821 18.7226C12.9659 18.6908 12.9435 18.6626 12.9162 18.6394C12.8889 18.6163 12.8573 18.5988 12.8231 18.5879C12.789 18.577 12.753 18.573 12.7172 18.576L12.2016 18.6205L12.6107 18.1364L14.7536 17.9509C14.7893 17.9479 14.824 17.9379 14.8558 17.9215C14.8876 17.9052 14.9159 17.8827 14.939 17.8555C14.962 17.8283 14.9795 17.7968 14.9903 17.7629C15.0011 17.729 15.0051 17.6933 15.002 17.6578C14.9977 17.587 14.9655 17.5207 14.9124 17.4731C14.8593 17.4256 14.7895 17.4007 14.7181 17.4037L13.1152 17.5391L13.4103 17.196L14.6078 16.8565C14.64 16.8472 14.6687 16.8287 14.6903 16.8033C14.7119 16.7779 14.7255 16.7467 14.7293 16.7137L14.8881 15.2446C14.8907 15.2172 14.8867 15.1896 14.8763 15.1641C14.8659 15.1385 14.8494 15.1159 14.8283 15.0981C14.8073 15.0808 14.7824 15.0688 14.7557 15.063C14.7291 15.0572 14.7015 15.0578 14.6751 15.0647L13.2553 15.4691C13.2229 15.4779 13.1939 15.4963 13.1722 15.5218C13.1506 15.5473 13.1372 15.5787 13.1338 15.6119L13.0012 16.838L12.7023 17.1867L12.5659 15.5841C12.5635 15.5483 12.5541 15.5134 12.538 15.4813C12.5219 15.4492 12.4996 15.4206 12.4723 15.3971C12.445 15.3736 12.4133 15.3558 12.3791 15.3446C12.3448 15.3334 12.3086 15.329 12.2726 15.3318C12.2003 15.3384 12.1337 15.3731 12.0871 15.4284C12.0405 15.4836 12.0179 15.5549 12.0241 15.6267L12.211 17.771L11.8018 18.2533L11.7532 17.7432C11.7475 17.6716 11.7134 17.6052 11.6584 17.5586C11.6034 17.512 11.532 17.489 11.4599 17.4946C11.3877 17.5012 11.321 17.5359 11.2744 17.5912C11.2279 17.6465 11.2052 17.7178 11.2115 17.7895L11.3011 18.8468L10.6697 19.5888L10.5371 18.0325L11.0975 17.567C11.1233 17.5463 11.1424 17.5186 11.1523 17.4873C11.1623 17.4559 11.1627 17.4223 11.1536 17.3907L10.8995 16.4726C10.8922 16.4458 10.8783 16.4213 10.859 16.4012C10.8398 16.3811 10.8158 16.3661 10.7893 16.3576C10.7623 16.3494 10.7338 16.3478 10.7062 16.353C10.6785 16.3581 10.6525 16.3699 10.6305 16.3872L9.89253 16.9901C9.86729 17.0107 9.84858 17.0381 9.83864 17.0691C9.8287 17.1 9.82795 17.1331 9.83648 17.1644L10.0233 17.8637L9.02009 19.0731L8.93789 18.0956L9.62164 17.285C9.64507 17.2578 9.66278 17.2263 9.67369 17.1922C9.6846 17.1581 9.6885 17.1222 9.68516 17.0865C9.6826 17.0509 9.67284 17.0161 9.65647 16.9842C9.64011 16.9523 9.61746 16.9241 9.58988 16.901C9.5353 16.8577 9.46594 16.8369 9.3963 16.8431C9.32666 16.8494 9.26215 16.8821 9.21624 16.9344L8.88184 17.3277L8.82953 16.6989L10.2176 15.0536C10.2642 14.9983 10.287 14.927 10.2811 14.8551C10.2741 14.7831 10.2392 14.7167 10.184 14.6696C10.1294 14.6262 10.06 14.6055 9.99038 14.6117C9.92075 14.6179 9.85623 14.6506 9.81033 14.703L8.77349 15.9309L8.73612 15.4895L9.3246 14.4043C9.34069 14.3754 9.34785 14.3423 9.3452 14.3094C9.34254 14.2764 9.33018 14.2449 9.30965 14.2189L8.37556 13.0688C8.35871 13.0474 8.33669 13.0306 8.31155 13.0199C8.2864 13.0092 8.25895 13.005 8.23172 13.0076C8.20408 13.0093 8.17733 13.018 8.15409 13.033C8.13085 13.0479 8.1119 13.0686 8.09907 13.0929L7.37981 14.3914C7.36372 14.4203 7.35656 14.4534 7.35922 14.4863C7.36188 14.5193 7.37424 14.5508 7.39476 14.5769L8.1794 15.5173L8.21864 15.9736L6.98937 14.9367C6.93426 14.8907 6.86308 14.8682 6.79134 14.8741C6.7196 14.88 6.65312 14.9139 6.60639 14.9682C6.55949 15.0241 6.53667 15.0961 6.54287 15.1686C6.54543 15.2042 6.55519 15.239 6.57156 15.2709C6.58792 15.3028 6.61057 15.331 6.63815 15.3541L8.28215 16.7415L8.33634 17.3722L7.94214 17.0383C7.91468 17.0154 7.88295 16.998 7.84873 16.9873C7.81451 16.9765 7.77849 16.9726 7.74274 16.9757C7.70699 16.9788 7.6722 16.9889 7.64038 17.0054C7.60856 17.0218 7.58032 17.0444 7.55729 17.0717C7.5341 17.099 7.51669 17.1306 7.50609 17.1647C7.4955 17.1988 7.49195 17.2347 7.49565 17.2702C7.49821 17.3059 7.50796 17.3407 7.52433 17.3725C7.54069 17.4044 7.56334 17.4327 7.59092 17.4557L8.40172 18.1401L8.48392 19.1139L7.26399 18.0919L7.24531 18.0752L7.31256 17.3722C7.31612 17.3398 7.31005 17.3071 7.29511 17.2781C7.28018 17.2491 7.25701 17.2251 7.22849 17.209L6.39901 16.7397C6.37447 16.726 6.34681 16.7189 6.31868 16.7189C6.29055 16.7189 6.26289 16.726 6.23835 16.7397C6.21356 16.7525 6.19238 16.7712 6.17672 16.7942C6.16106 16.8172 6.15142 16.8437 6.14868 16.8714L6.0534 17.8211C6.04985 17.8535 6.05591 17.8862 6.07085 17.9152C6.08579 17.9442 6.10895 17.9682 6.13747 17.9843L6.81189 18.3664L6.94266 19.9097L6.19539 19.2772L6.10572 18.2199C6.10308 18.1842 6.09335 18.1494 6.0771 18.1175C6.06084 18.0856 6.03837 18.0572 6.011 18.0339C5.98362 18.0107 5.95187 17.993 5.91759 17.982C5.88331 17.971 5.84717 17.9669 5.81127 17.9698C5.77536 17.9727 5.7404 17.9827 5.7084 17.9991C5.67639 18.0156 5.648 18.0381 5.62483 18.0655C5.60166 18.0929 5.58418 18.1246 5.57341 18.1587C5.56264 18.1929 5.55878 18.2288 5.56207 18.2644L5.6069 18.7801L5.12305 18.372L4.93623 16.2277C4.93004 16.156 4.89553 16.0896 4.84023 16.043C4.78493 15.9965 4.71334 15.9735 4.64105 15.9792C4.60534 15.9824 4.57063 15.9926 4.53891 16.0092C4.50718 16.0258 4.47906 16.0485 4.45616 16.0759C4.43326 16.1032 4.41602 16.1349 4.40543 16.1689C4.39484 16.2029 4.39111 16.2386 4.39445 16.2741L4.52896 17.8749L4.19268 17.5911L3.85268 16.3928C3.84333 16.3609 3.82468 16.3324 3.79909 16.3109C3.7735 16.2895 3.7421 16.276 3.70883 16.2722L2.24043 16.1146C2.21322 16.111 2.18553 16.1144 2.16002 16.1245C2.13451 16.1345 2.11203 16.1509 2.09471 16.1721C2.07706 16.1932 2.06478 16.2182 2.05893 16.245C2.05307 16.2718 2.05382 16.2996 2.06108 16.326L2.46835 17.7432C2.47747 17.7752 2.49605 17.8038 2.52169 17.8253C2.54732 17.8468 2.57885 17.8602 2.6122 17.8637L3.83773 17.9973L4.18147 18.2996L2.57484 18.4313C2.5025 18.4372 2.43548 18.4714 2.38853 18.5264C2.34158 18.5814 2.31855 18.6526 2.32449 18.7244C2.33044 18.7962 2.36488 18.8628 2.42024 18.9094C2.4756 18.956 2.54733 18.9789 2.61967 18.973L4.76435 18.7875L5.24821 19.1956L4.73259 19.2401C4.66448 19.2513 4.60314 19.2877 4.56079 19.3418C4.51844 19.396 4.49819 19.464 4.50408 19.5323C4.50997 19.6006 4.54158 19.6642 4.59258 19.7104C4.64358 19.7567 4.71024 19.7821 4.7793 19.7817L5.8367 19.6927L6.58397 20.3233L5.00909 20.4569L4.53456 19.8763C4.51408 19.8509 4.48648 19.832 4.45524 19.8221C4.42399 19.8122 4.39049 19.8117 4.35895 19.8207L3.43981 20.0748C3.41405 20.0836 3.39076 20.0984 3.37188 20.1179C3.353 20.1374 3.33907 20.1611 3.33122 20.187C3.32337 20.2129 3.32184 20.2403 3.32675 20.2669C3.33167 20.2935 3.34288 20.3186 3.35948 20.34L3.9629 21.082C3.98368 21.1071 4.01131 21.1256 4.04245 21.1355C4.0736 21.1454 4.10695 21.1461 4.13851 21.1377L4.84469 20.941L6.06087 21.9668L5.08381 22.0503L4.27302 21.3658C4.21849 21.3226 4.14937 21.3018 4.07988 21.3077C4.01038 21.3136 3.9458 21.3456 3.89939 21.3973C3.85285 21.4527 3.83009 21.5239 3.83603 21.5958C3.84198 21.6676 3.87614 21.7343 3.93114 21.7813L4.3272 22.1152L3.69575 22.1764L2.05174 20.7889C1.99716 20.7455 1.9278 20.7248 1.85816 20.731C1.78853 20.7372 1.72401 20.77 1.67811 20.8223C1.6315 20.8776 1.60868 20.9489 1.61458 21.0208C1.61694 21.0565 1.62659 21.0914 1.64298 21.1233C1.65936 21.1552 1.68212 21.1834 1.70986 21.2063L2.93913 22.2432L2.4945 22.2821L1.41283 21.6774C1.38361 21.6612 1.35015 21.6541 1.31682 21.6571C1.28349 21.6601 1.25184 21.673 1.22601 21.6941L0.077068 22.6216C0.0554084 22.6387 0.038298 22.6609 0.0272275 22.6861C0.0161571 22.7113 0.0114571 22.7388 0.0135445 22.7663C0.0162246 22.7937 0.0254143 22.8201 0.0403518 22.8433C0.0552894 22.8665 0.0755538 22.8859 0.0994853 22.8998L1.38854 23.6195C1.4179 23.6352 1.45125 23.642 1.48447 23.6391C1.51769 23.6361 1.5493 23.6235 1.57536 23.6028L2.54121 22.8256L2.98397 22.7885L1.94713 24.0165C1.92394 24.0436 1.90637 24.0751 1.89542 24.109C1.88447 24.1429 1.88035 24.1786 1.8833 24.2141C1.88624 24.2495 1.89621 24.2841 1.91261 24.3158C1.92901 24.3474 1.95153 24.3756 1.97888 24.3986C2.00624 24.4216 2.0379 24.439 2.07204 24.4499C2.10619 24.4608 2.14214 24.4649 2.17788 24.4619C2.21362 24.459 2.24842 24.4491 2.28031 24.4328C2.3122 24.4166 2.34055 24.3942 2.36373 24.367L3.75179 22.7236L4.38137 22.6698L4.04884 23.0649C4.01387 23.0878 3.98467 23.1183 3.9635 23.1542C3.94234 23.1901 3.92977 23.2303 3.92679 23.2718C3.9238 23.3132 3.93048 23.3548 3.94628 23.3933C3.96209 23.4318 3.98661 23.4662 4.01795 23.4937C4.04929 23.5213 4.08659 23.5414 4.12698 23.5523C4.16737 23.5633 4.20975 23.5648 4.25086 23.5569C4.29196 23.549 4.33068 23.5318 4.364 23.5066C4.39733 23.4814 4.42436 23.449 4.44302 23.4118L5.12865 22.6012L6.10198 22.5196L5.07821 23.7327L5.067 23.7475L4.35335 23.6789C4.32074 23.6753 4.28779 23.6814 4.25858 23.6962C4.22936 23.711 4.20516 23.734 4.18895 23.7623L3.72004 24.5915C3.70663 24.6163 3.69961 24.644 3.69961 24.6722C3.69961 24.7003 3.70663 24.7281 3.72004 24.7529C3.73295 24.7775 3.75184 24.7985 3.775 24.8141C3.79816 24.8296 3.82486 24.8392 3.85268 24.8419L4.80171 24.9384C4.83403 24.9415 4.86658 24.9353 4.89542 24.9205C4.92426 24.9057 4.94816 24.8829 4.96424 24.8549L5.33788 24.1908L6.90904 24.0591L6.27572 24.8011L5.21833 24.892C5.15021 24.9032 5.08887 24.9396 5.04653 24.9937C5.00418 25.0479 4.98393 25.1159 4.98982 25.1842C4.99571 25.2525 5.0273 25.3161 5.0783 25.3623C5.12931 25.4086 5.19598 25.434 5.26503 25.4336L5.77878 25.391L5.37712 25.8751L3.23244 26.0606C3.16433 26.0718 3.10299 26.1082 3.06064 26.1623C3.01829 26.2165 2.99804 26.2845 3.00393 26.3528C3.00983 26.4211 3.04142 26.4847 3.09242 26.5309C3.14342 26.5772 3.21009 26.6026 3.27915 26.6022L4.87271 26.4612L4.58127 26.8081L3.39684 27.1438C3.36456 27.1529 3.33575 27.1713 3.31411 27.1968C3.29247 27.2222 3.27899 27.2535 3.27541 27.2867L3.11661 28.7557C3.11237 28.7835 3.11521 28.8118 3.12488 28.8381C3.13455 28.8644 3.15073 28.8879 3.17195 28.9064C3.19317 28.9249 3.21873 28.9377 3.24627 28.9438C3.27382 28.9499 3.30247 28.949 3.32958 28.9412L4.74941 28.5369C4.78182 28.528 4.81077 28.5097 4.83244 28.4842C4.85412 28.4587 4.8675 28.4272 4.87084 28.394L5.00535 27.1568L5.28932 26.8192L5.42569 28.42C5.42828 28.4555 5.43795 28.4902 5.45414 28.522C5.47033 28.5538 5.49273 28.582 5.52001 28.6052C5.5473 28.6283 5.57895 28.6458 5.61311 28.6567C5.64726 28.6676 5.68326 28.6716 5.719 28.6686C5.79126 28.662 5.85794 28.6272 5.9045 28.572C5.95105 28.5167 5.97369 28.4454 5.96746 28.3736L5.78064 26.2294L6.18792 25.7471L6.23088 26.2628C6.23708 26.3343 6.27165 26.4005 6.32701 26.4468C6.38236 26.4931 6.45397 26.5156 6.52606 26.5095C6.59815 26.5033 6.66482 26.469 6.71142 26.414C6.75802 26.3591 6.78071 26.288 6.77452 26.2164L6.68485 25.1628L7.3163 24.4208L7.44708 25.9715L6.84738 26.4612C6.82195 26.4817 6.80311 26.5091 6.79315 26.5401C6.7832 26.5711 6.78257 26.6043 6.79134 26.6356L7.04541 27.563C7.05293 27.5902 7.06711 27.6151 7.08666 27.6355C7.10622 27.6559 7.13056 27.6711 7.15751 27.6799C7.18422 27.6882 7.21261 27.6896 7.24004 27.6841C7.26747 27.6786 7.29306 27.6663 7.31443 27.6484L8.06171 27.0455C8.08753 27.0254 8.10666 26.998 8.11665 26.9669C8.12664 26.9358 8.12703 26.9025 8.11775 26.8712L7.93093 26.1886L7.94962 26.17L8.97525 24.9532L9.05932 25.9289L8.36622 26.7172C8.31932 26.7731 8.2965 26.8451 8.3027 26.9175C8.30722 26.9709 8.32758 27.0217 8.3612 27.0636C8.39482 27.1055 8.4402 27.1366 8.49159 27.1528C8.54298 27.1691 8.59808 27.1699 8.64992 27.1551C8.70176 27.1403 8.74801 27.1105 8.78282 27.0696L9.1135 26.6745L9.16767 27.3052L7.77961 28.9487C7.73307 29.004 7.71032 29.0753 7.71627 29.1471C7.72221 29.2189 7.75637 29.2856 7.81137 29.3326C7.86679 29.3787 7.93827 29.4013 8.01031 29.3954C8.08236 29.3895 8.14917 29.3556 8.19622 29.3011L9.23306 28.0713L9.27043 28.5276L8.67074 29.6016C8.65537 29.6309 8.64878 29.6639 8.65176 29.6968C8.65474 29.7297 8.66716 29.761 8.68754 29.7871L9.62164 30.9371C9.63849 30.9585 9.66052 30.9753 9.68566 30.986C9.71081 30.9967 9.73826 31.001 9.76549 30.9983C9.79304 30.9963 9.81964 30.9874 9.84282 30.9725C9.86601 30.9576 9.88503 30.9371 9.89814 30.913L10.6174 29.6146C10.6335 29.5856 10.6406 29.5526 10.638 29.5196C10.6353 29.4866 10.623 29.4551 10.6024 29.4291L9.81968 28.4571L9.78231 28.0156L11.0078 29.0581C11.0341 29.0864 11.0662 29.1087 11.1019 29.1237C11.1376 29.1387 11.1761 29.146 11.2148 29.1451C11.2535 29.1442 11.2916 29.1351 11.3266 29.1184C11.3615 29.1017 11.3924 29.0778 11.4173 29.0483C11.4422 29.0188 11.4604 28.9844 11.4709 28.9473C11.4813 28.9103 11.4837 28.8714 11.4778 28.8334C11.472 28.7954 11.458 28.759 11.4369 28.7267C11.4158 28.6945 11.388 28.6671 11.3553 28.6463L9.71132 27.2588L9.659 26.6282L10.0476 26.9621C10.089 26.9964 10.1397 27.0177 10.1933 27.0234C10.2469 27.0292 10.301 27.019 10.3488 26.9941C10.3966 26.9693 10.4359 26.931 10.4618 26.884C10.4876 26.8371 10.4989 26.7835 10.4941 26.7302C10.4917 26.6945 10.4821 26.6596 10.4657 26.6277C10.4493 26.5958 10.4266 26.5676 10.3988 26.5447L9.58801 25.8602L9.50581 24.8846L10.7145 25.9048L10.6398 26.6319C10.6365 26.6642 10.6427 26.6969 10.6576 26.7258C10.6725 26.7548 10.6955 26.7788 10.7239 26.7951L11.5534 27.2663C11.5782 27.2791 11.6057 27.2858 11.6337 27.2858C11.6617 27.2858 11.6892 27.2791 11.714 27.2663C11.7388 27.253 11.76 27.2339 11.7757 27.2106C11.7913 27.1873 11.8009 27.1606 11.8037 27.1327L11.9008 26.1848C11.9041 26.1525 11.898 26.1199 11.8831 26.0909C11.8682 26.062 11.8451 26.0379 11.8168 26.0216L11.1741 25.6506L11.0415 24.0777L11.7887 24.7102L11.8784 25.7675C11.8787 25.8049 11.8867 25.8418 11.902 25.8759C11.9173 25.9101 11.9396 25.9407 11.9674 25.9659C11.9952 25.9911 12.028 26.0103 12.0637 26.0223C12.0993 26.0343 12.1371 26.0388 12.1746 26.0356C12.2121 26.0324 12.2485 26.0215 12.2816 26.0036C12.3147 25.9857 12.3436 25.9613 12.3667 25.9317C12.3898 25.9022 12.4064 25.8682 12.4156 25.832C12.4248 25.7957 12.4264 25.758 12.4202 25.7211L12.3772 25.2055L12.8592 25.6135L13.046 27.7578C13.0486 27.7933 13.0583 27.828 13.0745 27.8598C13.0907 27.8916 13.1131 27.9198 13.1404 27.943C13.1676 27.9661 13.1993 27.9836 13.2334 27.9945C13.2676 28.0054 13.3036 28.0094 13.3393 28.0064C13.4109 28.0021 13.4779 27.9702 13.526 27.9175C13.5742 27.8648 13.5997 27.7955 13.5971 27.7244L13.4608 26.1236L13.812 26.4186L14.1483 27.6057C14.1576 27.6376 14.1763 27.6661 14.2018 27.6876C14.2274 27.709 14.2588 27.7225 14.2921 27.7263L15.7605 27.8839C15.7877 27.8872 15.8153 27.8836 15.8407 27.8736C15.8662 27.8635 15.8887 27.8473 15.9062 27.8264C15.9239 27.8053 15.9362 27.7803 15.942 27.7535C15.9479 27.7267 15.9471 27.6989 15.9399 27.6725L15.5363 26.2516C15.5274 26.2194 15.5089 26.1907 15.4832 26.1692C15.4576 26.1477 15.4259 26.1344 15.3925 26.1311L14.1576 25.9975L13.8139 25.7081L15.4168 25.5727C15.4894 25.5666 15.5565 25.5321 15.6035 25.4767C15.6504 25.4214 15.6733 25.3499 15.6671 25.2778C15.6609 25.2057 15.6261 25.1391 15.5704 25.0924C15.5147 25.0458 15.4426 25.0231 15.3701 25.0292L13.2254 25.2147L12.7434 24.8067L13.2571 24.764C13.3291 24.7573 13.3956 24.7227 13.442 24.6677C13.4885 24.6128 13.5112 24.5418 13.5053 24.4702C13.4994 24.3987 13.4654 24.3323 13.4105 24.2856C13.3556 24.2388 13.2844 24.2155 13.2123 24.2205L12.1549 24.3095L11.4076 23.6789L12.9452 23.549L13.4253 24.1389C13.4463 24.1636 13.474 24.1819 13.505 24.1917C13.5361 24.2016 13.5693 24.2025 13.6009 24.1945L14.52 23.9404C14.5472 23.9328 14.572 23.9187 14.5922 23.8992C14.6125 23.8798 14.6276 23.8556 14.6361 23.829C14.6446 23.8023 14.6463 23.7739 14.6411 23.7464C14.6358 23.7189 14.6238 23.6932 14.606 23.6715L14.0025 22.9295C13.9821 22.904 13.9545 22.8852 13.9232 22.8753C13.892 22.8654 13.8585 22.8649 13.8269 22.8738L13.1544 23.0593L11.9158 22.0262L12.8947 21.9445L13.7036 22.629C13.7599 22.6735 13.8311 22.6949 13.9028 22.6887C13.9744 22.6825 14.0409 22.6491 14.0885 22.5956C14.1353 22.5402 14.158 22.4687 14.1517 22.3967C14.1454 22.3247 14.1106 22.2582 14.0549 22.2116L13.6607 21.8796L14.2903 21.8258L15.9361 23.2133C15.9916 23.2595 16.0633 23.282 16.1355 23.2757C16.2077 23.2695 16.2744 23.235 16.321 23.1799C16.3675 23.1248 16.3902 23.0536 16.3839 22.9819C16.3776 22.9103 16.3428 22.844 16.2873 22.7978L15.0581 21.7609L15.512 21.7219L16.5937 22.3266C16.6229 22.3429 16.6564 22.3499 16.6897 22.347C16.7231 22.344 16.7547 22.3311 16.7805 22.31L17.9314 21.3825C17.9524 21.365 17.969 21.3427 17.9797 21.3175C17.9904 21.2924 17.995 21.2651 17.993 21.2378C17.9909 21.2114 17.9827 21.1858 17.9691 21.163C17.9555 21.1401 17.9368 21.1207 17.9145 21.1061ZM8.61656 20.75C8.5612 20.7671 8.50691 20.7876 8.45402 20.8112L8.35314 20.8594C8.29664 20.8907 8.2429 20.9267 8.19248 20.967L7.53115 20.4105L7.4041 18.9266L8.5437 19.8874L8.61656 20.75ZM8.37183 23.1614C8.42312 23.1894 8.47616 23.2142 8.53062 23.2355L8.64458 23.2726C8.7059 23.2898 8.76832 23.3028 8.8314 23.3116L8.90426 24.1611L7.94214 25.3019L7.8151 23.818L8.37183 23.1614ZM9.02756 22.7755H8.93602C8.78125 22.7633 8.63394 22.7044 8.5138 22.6067C8.49989 22.5973 8.48733 22.5861 8.47645 22.5733C8.36293 22.4733 8.28277 22.3413 8.24665 22.1949C8.23816 22.1508 8.23255 22.1062 8.22985 22.0614C8.21281 21.8813 8.26264 21.7012 8.36996 21.555C8.43443 21.4648 8.518 21.3896 8.61482 21.3348C8.71164 21.28 8.81936 21.2469 8.93042 21.2378C9.00336 21.2308 9.07692 21.2339 9.14899 21.2471C9.27351 21.2709 9.38988 21.3258 9.48713 21.4066L9.50768 21.4233C9.60301 21.5059 9.67565 21.6112 9.71879 21.7294C9.74009 21.7894 9.7545 21.8516 9.76175 21.9149V21.9464C9.77569 22.1126 9.73435 22.2788 9.64407 22.4194C9.61968 22.4541 9.59348 22.4875 9.56559 22.5196C9.4411 22.6603 9.26758 22.7491 9.07987 22.7681C9.06275 22.7727 9.04523 22.7758 9.02756 22.7774V22.7755ZM9.61604 20.8409C9.56322 20.8138 9.50897 20.7897 9.45351 20.7685L9.35263 20.737H9.3246L9.2424 20.7166L9.15833 20.7055L9.08547 19.8448L10.0476 18.7003L10.1728 20.1842L9.61604 20.8409ZM9.37505 23.2671C9.43195 23.2501 9.48752 23.2291 9.54131 23.204L9.64967 23.1484C9.70485 23.1166 9.75789 23.0813 9.80846 23.0426L10.4605 23.5991L10.5856 25.083L9.4479 24.124L9.37505 23.2671ZM10.255 21.6218C10.255 21.5958 10.24 21.5698 10.2307 21.5457C10.2231 21.5249 10.2144 21.5044 10.2045 21.4845L10.141 21.3528C10.1094 21.2972 10.0738 21.2438 10.0345 21.1933L10.595 20.5367L12.0895 20.4105L11.1293 21.5494L10.255 21.6218ZM7.17806 20.8242L7.83939 21.3806C7.81217 21.4324 7.78784 21.4857 7.76653 21.5402L7.73103 21.6496C7.71246 21.7102 7.69933 21.7722 7.69181 21.8351L6.8343 21.9074L5.69284 20.9466L7.17806 20.8242ZM6.87167 22.4546L7.7273 22.3804C7.74508 22.4373 7.76629 22.493 7.79082 22.5474L7.84313 22.6494C7.8751 22.7058 7.91133 22.7598 7.95149 22.8108L7.39103 23.4656L5.89648 23.5917L6.87167 22.4546ZM10.8079 23.1799L10.1522 22.6234C10.1798 22.5705 10.2041 22.516 10.2251 22.4602L10.2587 22.3489C10.2757 22.2881 10.2882 22.2261 10.2961 22.1634L11.1517 22.0911L12.2913 23.0538L10.8079 23.1799Z" fill="white"/>
</svg>
