<svg width="48" height="118" viewBox="0 0 48 118" fill="none" xmlns="http://www.w3.org/2000/svg">
<g clip-path="url(#clip0_925_469)">
<path fill-rule="evenodd" clip-rule="evenodd" d="M28.0208 9.35196C24.3136 4.85034 24.123 -0.00158691 24.123 -0.00158691L24.2124 10.243C24.2124 10.243 26.4817 20.3503 31.2283 23.4186C36.8261 27.0363 40.7499 20.4035 38.4085 16.2776C35.9523 11.9497 31.2716 13.2994 28.0208 9.35196Z" fill="#61B9E9"/>
<path fill-rule="evenodd" clip-rule="evenodd" d="M28.4456 24.1259C24.3341 19.289 24.123 14.0773 24.123 14.0773L24.2223 25.0852C24.2223 25.0852 26.7386 35.9439 32.0028 39.2398C38.2105 43.1277 42.5624 36.0002 39.9659 31.5672C37.2417 26.9172 32.0508 28.3672 28.4456 24.1259Z" fill="#61B9E9"/>
<path fill-rule="evenodd" clip-rule="evenodd" d="M28.9268 41.5095C24.3579 36.2815 24.123 30.6484 24.123 30.6484L24.2329 42.5466C24.2329 42.5466 27.0296 54.2836 32.8796 57.8466C39.7789 62.0479 44.615 54.3447 41.7293 49.5531C38.7024 44.527 32.9335 46.0945 28.9268 41.5095Z" fill="#61B9E9"/>
<path fill-rule="evenodd" clip-rule="evenodd" d="M29.5734 60.2931C24.3895 54.662 24.123 48.5969 24.123 48.5969L24.2483 61.4111C24.2483 61.4111 27.4211 74.0523 34.0591 77.8898C41.8869 82.4148 47.3743 74.1181 44.0997 68.9576C40.6648 63.5427 34.1196 65.2308 29.5734 60.2931Z" fill="#61B9E9"/>
<path fill-rule="evenodd" clip-rule="evenodd" d="M30.3362 80.8248C24.4257 74.2789 24.1219 67.2224 24.1219 67.2224L24.2648 82.1237C24.2648 82.1237 27.8826 96.8231 35.4508 101.285C44.3757 106.547 50.6325 96.8993 46.8989 90.8988C42.9839 84.6036 35.5205 86.5666 30.3362 80.8248Z" fill="#61B9E9"/>
<path fill-rule="evenodd" clip-rule="evenodd" d="M19.9792 9.35196C23.6864 4.85034 23.877 -0.00158691 23.877 -0.00158691L23.7872 10.243C23.7872 10.243 21.5183 20.3491 16.7717 23.417C11.1739 27.0347 7.24973 20.4019 9.59154 16.276C12.0477 11.9497 16.7284 13.2994 19.9792 9.35196Z" fill="#61B9E9"/>
<path fill-rule="evenodd" clip-rule="evenodd" d="M19.5544 24.1259C23.6652 19.289 23.877 14.0773 23.877 14.0773L23.7777 25.0852C23.7777 25.0852 21.2614 35.9439 15.9972 39.2398C9.78913 43.1277 5.43759 36.0002 8.03415 31.5672C10.7583 26.9172 15.9492 28.3672 19.5544 24.1259Z" fill="#61B9E9"/>
<path fill-rule="evenodd" clip-rule="evenodd" d="M19.0732 41.5095C23.6421 36.2815 23.877 30.6484 23.877 30.6484L23.7671 42.5466C23.7671 42.5466 20.9707 54.2836 15.1204 57.8466C8.22144 62.0479 3.38534 54.3447 6.27109 49.5531C9.29686 44.527 15.0665 46.0945 19.0732 41.5095Z" fill="#61B9E9"/>
<path fill-rule="evenodd" clip-rule="evenodd" d="M18.4266 60.2931C23.6106 54.662 23.877 48.5969 23.877 48.5969L23.7517 61.4111C23.7517 61.4111 20.5785 74.0511 13.9409 77.8886C6.11313 82.4137 0.625684 74.117 3.89997 68.9564C7.3348 63.5427 13.8804 65.2308 18.4266 60.2931Z" fill="#61B9E9"/>
<path fill-rule="evenodd" clip-rule="evenodd" d="M17.6623 80.8248C23.5731 74.2789 23.877 67.2224 23.877 67.2224L23.734 82.1237C23.734 82.1237 20.1163 96.8231 12.548 101.285C3.62284 106.547 -2.6336 96.8993 1.09996 90.8988C5.01605 84.6036 12.4791 86.5666 17.6623 80.8248Z" fill="#61B9E9"/>
<path d="M13.1089 20.065C16.7871 18.7927 19.5966 16.0815 21.4604 12.0064C22.9577 8.73224 23.4104 5.51601 23.6036 4.14295C23.6252 3.98942 23.6435 3.86008 23.6593 3.75732C23.6688 3.69626 23.7003 3.64179 23.7469 3.60586C23.7935 3.56993 23.8514 3.55549 23.9078 3.5657C23.9642 3.576 24.0146 3.61011 24.0478 3.66055C24.0809 3.71098 24.0943 3.77362 24.0848 3.83469C24.0691 3.93546 24.0511 4.06241 24.0302 4.21317C23.8338 5.60805 23.3741 8.87386 21.8471 12.2135C19.9298 16.4064 17.0338 19.1958 13.2401 20.5093C13.2189 20.517 13.1968 20.5209 13.1745 20.5209C13.1287 20.5208 13.0842 20.5051 13.0473 20.4758C13.0104 20.4466 12.9831 20.4054 12.9692 20.3582C12.9605 20.329 12.9573 20.2983 12.9596 20.2677C12.962 20.2372 12.9698 20.2075 12.9828 20.1803C12.9958 20.153 13.0136 20.1288 13.0352 20.109C13.0569 20.0893 13.0819 20.0743 13.1089 20.065Z" fill="#39A6E2"/>
<path d="M13.1089 34.8831C16.7871 33.6108 19.5966 30.8996 21.4604 26.8245C22.9577 23.5503 23.4104 20.3341 23.6036 18.961C23.6252 18.8075 23.6435 18.6782 23.6593 18.5754C23.664 18.5452 23.6741 18.5162 23.6891 18.4902C23.7041 18.4642 23.7238 18.4417 23.7469 18.4239C23.7699 18.4062 23.796 18.3935 23.8237 18.3867C23.8513 18.3799 23.8799 18.379 23.9078 18.3842C23.9357 18.3892 23.9625 18.4001 23.9865 18.4163C24.0106 18.4325 24.0314 18.4538 24.0479 18.4787C24.0643 18.5037 24.076 18.5319 24.0824 18.5618C24.0887 18.5916 24.0896 18.6226 24.0848 18.6528C24.0691 18.7535 24.0511 18.8805 24.0302 19.0313C23.8338 20.4261 23.3741 23.6924 21.8471 27.0316C19.9298 31.2245 17.0338 34.0139 13.2401 35.3279C13.2189 35.3352 13.1967 35.3389 13.1745 35.339C13.1287 35.3389 13.0842 35.3232 13.0473 35.2939C13.0104 35.2647 12.9831 35.2235 12.9692 35.1763C12.9605 35.1471 12.9573 35.1164 12.9596 35.0859C12.962 35.0553 12.9698 35.0256 12.9828 34.9983C12.9958 34.9711 13.0136 34.9469 13.0352 34.9271C13.0569 34.9074 13.0819 34.8924 13.1089 34.8831Z" fill="#39A6E2"/>
<path d="M13.1088 52.268C16.7871 50.9961 19.5966 48.2848 21.4604 44.2097C22.9577 40.9351 23.4104 37.7193 23.6036 36.3458C23.6252 36.1923 23.6435 36.063 23.6593 35.9606C23.664 35.9304 23.6741 35.9014 23.6891 35.8754C23.7041 35.8494 23.7237 35.8268 23.7468 35.809C23.7699 35.7912 23.796 35.7785 23.8236 35.7717C23.8513 35.7648 23.8799 35.7639 23.9078 35.769C23.9357 35.7741 23.9625 35.785 23.9865 35.8013C24.0105 35.8175 24.0313 35.8387 24.0477 35.8636C24.0642 35.8885 24.0759 35.9168 24.0823 35.9466C24.0886 35.9765 24.0895 36.0074 24.0848 36.0376C24.0691 36.1384 24.0511 36.2657 24.0302 36.4165C23.8338 37.8109 23.3741 41.0772 21.8471 44.4168C19.9294 48.6094 17.0337 51.3991 13.2401 52.7127C13.2189 52.72 13.1967 52.7238 13.1745 52.7238C13.1288 52.7238 13.0842 52.7082 13.0473 52.679C13.0104 52.6498 12.983 52.6087 12.9692 52.5615C12.9605 52.5323 12.9573 52.5016 12.9596 52.471C12.9619 52.4404 12.9698 52.4107 12.9828 52.3834C12.9957 52.3561 13.0136 52.3319 13.0352 52.3121C13.0568 52.2923 13.0818 52.2773 13.1088 52.268Z" fill="#39A6E2"/>
<path d="M13.1089 70.7032C16.7871 69.4309 19.5966 66.7197 21.4604 62.6446C22.9577 59.37 23.4104 56.1542 23.6036 54.7811C23.6252 54.6276 23.6435 54.4983 23.6593 54.3955C23.6688 54.3344 23.7003 54.28 23.7469 54.244C23.7935 54.2081 23.8514 54.1937 23.9078 54.2039C23.9358 54.2089 23.9625 54.2199 23.9866 54.2362C24.0106 54.2524 24.0314 54.2736 24.0479 54.2986C24.0643 54.3236 24.0761 54.3519 24.0824 54.3818C24.0887 54.4117 24.0896 54.4426 24.0849 54.4729C24.0691 54.5736 24.0511 54.7006 24.0302 54.8513C23.8338 56.2458 23.3741 59.5121 21.8471 62.8517C19.9298 67.0443 17.0338 69.834 13.2401 71.1476C13.2189 71.1549 13.1967 71.1586 13.1745 71.1587C13.1288 71.1587 13.0842 71.143 13.0473 71.1139C13.0104 71.0847 12.9831 71.0436 12.9692 70.9964C12.9605 70.9672 12.9573 70.9365 12.9596 70.906C12.962 70.8754 12.9698 70.8457 12.9828 70.8185C12.9958 70.7912 13.0136 70.767 13.0352 70.7472C13.0569 70.7275 13.0819 70.7125 13.1089 70.7032Z" fill="#39A6E2"/>
<path d="M13.1089 91.1218C16.7871 89.8495 19.5966 87.1383 21.4604 83.0632C22.9577 79.7886 23.4104 76.5728 23.6036 75.1997C23.6252 75.0462 23.6435 74.9168 23.6593 74.8141C23.6688 74.753 23.7003 74.6985 23.7469 74.6626C23.7935 74.6267 23.8514 74.6122 23.9078 74.6225C23.9358 74.6275 23.9625 74.6385 23.9866 74.6547C24.0106 74.671 24.0314 74.6922 24.0479 74.7172C24.0643 74.7422 24.0761 74.7704 24.0824 74.8003C24.0887 74.8302 24.0896 74.8612 24.0849 74.8914C24.0691 74.9922 24.0511 75.1192 24.0302 75.2699C23.8338 76.6644 23.3741 79.9306 21.8471 83.2702C19.9298 87.4628 17.0338 90.2526 13.2401 91.5661C13.2189 91.5735 13.1967 91.5772 13.1745 91.5772C13.1288 91.5773 13.0842 91.5616 13.0473 91.5324C13.0104 91.5032 12.9831 91.4621 12.9692 91.415C12.9605 91.3858 12.9573 91.3551 12.9596 91.3245C12.962 91.294 12.9698 91.2642 12.9828 91.237C12.9958 91.2098 13.0136 91.1856 13.0352 91.1658C13.0569 91.146 13.0819 91.1311 13.1089 91.1218Z" fill="#39A6E2"/>
<path d="M28.0207 9.35199C26.4401 7.43837 25.2727 5.16809 24.6031 2.70569C25.1012 5.36691 26.0007 8.28877 27.6245 10.2601C30.8753 14.2079 34.6862 13.8334 37.1428 18.1612C38.3432 20.2765 37.9678 22.5847 36.5633 23.8451C38.8838 22.4284 39.8749 18.8614 38.4084 16.2776C35.9522 11.9497 31.2715 13.2994 28.0207 9.35199Z" fill="white"/>
<path d="M28.4456 24.126C27.164 22.6236 26.1202 20.9028 25.356 19.0328C25.959 21.3287 26.967 23.8594 28.653 25.8426C32.2583 30.0839 35.9757 28.8009 38.6998 33.4509C39.6847 35.1319 39.6693 37.2 38.9333 38.9083C40.7521 37.0956 41.3583 33.9445 39.9659 31.5689C37.2418 26.9173 32.0508 28.3673 28.4456 24.126Z" fill="white"/>
<path d="M28.9268 41.5096C26.8907 39.1805 25.7177 36.7712 25.0385 34.8149C25.5011 37.5876 26.4636 40.6468 28.4155 42.8807C32.4221 47.4652 37.4363 46.4116 40.4636 51.4368C41.5632 53.2618 41.5408 55.5056 40.7139 57.3564C42.6316 55.3787 43.243 52.0661 41.7296 49.5532C38.7024 44.5271 32.9334 46.0946 28.9268 41.5096Z" fill="white"/>
<path d="M29.5734 60.2932C27.074 57.5768 25.7178 54.7593 24.9825 52.5702C25.6643 55.4195 26.8977 58.6091 29.1277 61.0315C33.6728 65.9691 39.3992 65.4264 42.834 70.8397C44.0685 72.7856 44.0572 75.177 43.1445 77.1591C45.1637 75.0112 45.7641 71.5792 44.0997 68.9564C40.6649 63.5427 34.1196 65.2308 29.5734 60.2932Z" fill="white"/>
<path d="M30.3362 80.8249C24.4257 74.2789 24.1219 67.2224 24.1219 67.2224L24.1237 67.424C24.5573 71.4551 25.8464 77.9331 29.6804 82.1789C34.8636 87.9207 41.7168 86.4873 45.6333 92.7821C47.0884 95.1228 47.0261 98.0153 45.8785 100.364C48.1265 97.8618 48.7778 93.9183 46.8989 90.8989C42.9839 84.6037 35.5205 86.5666 30.3362 80.8249Z" fill="white"/>
<path fill-rule="evenodd" clip-rule="evenodd" d="M24.2656 7.9245V0.179272C24.2656 0.139043 24.2508 0.100459 24.2246 0.0719751C24.1983 0.0434913 24.1627 0.0274488 24.1255 0.0273438C24.0883 0.0273438 24.0526 0.0433443 24.0263 0.0718395C23.9999 0.100335 23.9852 0.138974 23.9852 0.179272V7.9245C23.0523 30.8115 20.0665 103.45 19.2477 115.857C18.273 130.623 16.8516 148 16.8516 148L24.1255 147.633L31.3991 148C31.3991 148 29.9777 130.624 29.0031 115.857C28.1842 103.45 25.1984 30.8115 24.2656 7.9245Z" fill="#39A6E2"/>
<path d="M34.8911 20.0651C31.2129 18.7928 28.4034 16.0816 26.5395 12.0065C25.0419 8.7323 24.5896 5.51606 24.396 4.143C24.3744 3.98947 24.3564 3.86013 24.3403 3.75738C24.3357 3.72714 24.3256 3.69817 24.3106 3.67216C24.2956 3.64615 24.2761 3.6236 24.253 3.6058C24.2299 3.588 24.2039 3.5753 24.1763 3.56843C24.1487 3.56156 24.1201 3.56065 24.0922 3.56576C24.0358 3.57605 23.9854 3.61017 23.9522 3.6606C23.919 3.71103 23.9057 3.77367 23.9151 3.83475C23.9309 3.93551 23.9485 4.06247 23.9697 4.21322C24.1662 5.6081 24.6258 8.87392 26.1528 12.2135C28.0702 16.4065 30.9662 19.1959 34.7599 20.5094C34.781 20.5171 34.8032 20.521 34.8255 20.5209C34.8712 20.5208 34.9157 20.505 34.9526 20.4758C34.9895 20.4466 35.0169 20.4054 35.0308 20.3583C35.0394 20.3291 35.0427 20.2984 35.0404 20.2678C35.038 20.2373 35.0301 20.2076 35.0172 20.1803C35.0042 20.1531 34.9864 20.1289 34.9647 20.1091C34.9431 20.0893 34.9181 20.0744 34.8911 20.0651Z" fill="#39A6E2"/>
<path d="M34.8911 34.8831C31.2129 33.6108 28.4034 30.8996 26.5396 26.8245C25.0419 23.5503 24.5896 20.3341 24.396 18.961C24.3744 18.8075 24.3565 18.6782 24.3403 18.5754C24.3357 18.5452 24.3256 18.5162 24.3106 18.4902C24.2956 18.4643 24.2761 18.4417 24.253 18.424C24.2299 18.4062 24.2039 18.3935 24.1763 18.3867C24.1487 18.3799 24.1201 18.379 24.0922 18.3842C24.0642 18.3892 24.0375 18.4001 24.0135 18.4163C23.9894 18.4325 23.9686 18.4537 23.9521 18.4787C23.9357 18.5037 23.924 18.5319 23.9176 18.5617C23.9113 18.5916 23.9104 18.6225 23.9152 18.6528C23.9309 18.7535 23.9485 18.8805 23.9698 19.0312C24.1662 20.4261 24.6259 23.6923 26.1529 27.0316C28.0702 31.2245 30.9662 34.0139 34.7599 35.3278C34.7811 35.3352 34.8032 35.339 34.8255 35.339C34.8712 35.3389 34.9157 35.323 34.9526 35.2938C34.9895 35.2646 35.0169 35.2234 35.0308 35.1763C35.0394 35.1471 35.0427 35.1164 35.0404 35.0858C35.038 35.0553 35.0301 35.0256 35.0172 34.9983C35.0042 34.9711 34.9864 34.9469 34.9648 34.9271C34.9431 34.9074 34.9181 34.8924 34.8911 34.8831Z" fill="#39A6E2"/>
<path d="M34.8911 52.2679C31.2129 50.996 28.4034 48.2848 26.5395 44.2097C25.0419 40.9351 24.5896 37.7193 24.396 36.3458C24.3744 36.1923 24.3564 36.063 24.3403 35.9606C24.3357 35.9304 24.3256 35.9014 24.3106 35.8754C24.2956 35.8494 24.2761 35.8269 24.253 35.8091C24.2299 35.7913 24.2039 35.7785 24.1763 35.7717C24.1487 35.7648 24.1201 35.7639 24.0922 35.769C24.0642 35.7741 24.0375 35.785 24.0135 35.8012C23.9895 35.8175 23.9687 35.8387 23.9522 35.8636C23.9358 35.8885 23.9241 35.9167 23.9177 35.9466C23.9113 35.9765 23.9105 36.0074 23.9151 36.0376C23.9309 36.1384 23.9485 36.2657 23.9697 36.4165C24.1662 37.8109 24.6258 41.0772 26.1528 44.4168C28.0702 48.6093 30.9662 51.3991 34.7599 52.7126C34.7811 52.72 34.8032 52.7237 34.8255 52.7237C34.8712 52.7237 34.9157 52.708 34.9526 52.6789C34.9895 52.6497 35.0169 52.6086 35.0308 52.5615C35.0394 52.5323 35.0427 52.5015 35.0404 52.471C35.038 52.4404 35.0302 52.4106 35.0172 52.3834C35.0042 52.3561 34.9864 52.3319 34.9648 52.312C34.9431 52.2922 34.9181 52.2772 34.8911 52.2679Z" fill="#39A6E2"/>
<path d="M34.8911 70.7033C31.2129 69.431 28.4034 66.7198 26.5396 62.6446C25.0419 59.3701 24.5896 56.1542 24.3961 54.7812C24.3744 54.6276 24.3565 54.4983 24.3403 54.3956C24.3357 54.3653 24.3256 54.3364 24.3106 54.3104C24.2957 54.2843 24.2761 54.2618 24.253 54.244C24.23 54.2262 24.2039 54.2135 24.1763 54.2066C24.1487 54.1997 24.1201 54.1988 24.0922 54.2039C24.0642 54.209 24.0375 54.22 24.0134 54.2362C23.9894 54.2525 23.9686 54.2737 23.9521 54.2987C23.9357 54.3237 23.924 54.3519 23.9176 54.3818C23.9113 54.4117 23.9104 54.4427 23.9152 54.4729C23.9309 54.5737 23.9485 54.7006 23.9698 54.8514C24.1662 56.2459 24.6259 59.5121 26.1529 62.8517C28.0702 67.0443 30.9662 69.834 34.7599 71.1476C34.7811 71.155 34.8032 71.1587 34.8255 71.1587C34.8712 71.1587 34.9157 71.143 34.9526 71.1138C34.9895 71.0846 35.0169 71.0435 35.0308 70.9964C35.0394 70.9673 35.0427 70.9365 35.0404 70.906C35.038 70.8755 35.0301 70.8457 35.0172 70.8185C35.0042 70.7912 34.9864 70.767 34.9648 70.7473C34.9431 70.7275 34.9181 70.7125 34.8911 70.7033Z" fill="#39A6E2"/>
<path d="M34.8911 91.1218C31.2129 89.8495 28.4034 87.1383 26.5396 83.0632C25.0419 79.7886 24.5896 76.5728 24.3961 75.1998C24.3744 75.0462 24.3565 74.9169 24.3403 74.8141C24.3357 74.7839 24.3256 74.7549 24.3106 74.7289C24.2957 74.7029 24.2761 74.6804 24.253 74.6626C24.23 74.6448 24.2039 74.6321 24.1763 74.6252C24.1487 74.6183 24.1201 74.6174 24.0922 74.6225C24.0642 74.6276 24.0375 74.6385 24.0134 74.6548C23.9894 74.6711 23.9686 74.6923 23.9521 74.7173C23.9357 74.7423 23.924 74.7705 23.9176 74.8004C23.9113 74.8303 23.9104 74.8613 23.9152 74.8915C23.9309 74.9923 23.9485 75.1192 23.9698 75.27C24.1662 76.6644 24.6259 79.9307 26.1529 83.2702C28.0702 87.4628 30.9662 90.2525 34.7599 91.5661C34.7811 91.5734 34.8032 91.5772 34.8255 91.5772C34.8712 91.5772 34.9157 91.5615 34.9526 91.5323C34.9895 91.5031 35.0169 91.462 35.0308 91.4149C35.0394 91.3858 35.0427 91.355 35.0404 91.3245C35.038 91.2939 35.0301 91.2642 35.0172 91.237C35.0042 91.2097 34.9864 91.1855 34.9648 91.1658C34.9431 91.146 34.9181 91.131 34.8911 91.1218Z" fill="#39A6E2"/>
<path d="M10.8 34.4989C16.1143 33.1189 27.6686 27.4611 31.3714 15.8695M9.77142 47.091C14.5714 50.4258 26.5714 54.9222 36.1714 46.2285M12.3429 64.8579C13.2571 71.0677 20.5371 82.1073 42.3428 76.5875" stroke="#FFF99B" stroke-width="0.5"/>
<ellipse cx="9.69796" cy="46.9184" rx="3.18367" ry="3.44988" fill="url(#paint0_radial_925_469)"/>
<ellipse cx="9.69796" cy="46.9184" rx="0.795918" ry="1.03497" fill="#FFF59B"/>
<ellipse cx="17.9265" cy="50.3683" rx="3.18368" ry="3.44989" fill="url(#paint1_radial_925_469)"/>
<ellipse cx="17.9265" cy="50.3683" rx="0.795918" ry="1.03496" fill="#FFF59B"/>
<ellipse cx="28.5551" cy="50.3683" rx="3.18367" ry="3.44989" fill="url(#paint2_radial_925_469)"/>
<ellipse cx="28.5551" cy="50.3683" rx="0.795919" ry="1.03496" fill="#FFF59B"/>
<ellipse cx="36.0979" cy="46.2284" rx="3.18367" ry="3.44988" fill="url(#paint3_radial_925_469)"/>
<ellipse cx="36.0979" cy="46.2284" rx="0.795916" ry="1.03497" fill="#FFF59B"/>
<ellipse cx="10.7265" cy="34.4988" rx="3.18367" ry="3.44988" fill="url(#paint4_radial_925_469)"/>
<ellipse cx="10.7265" cy="34.4988" rx="0.795918" ry="1.03497" fill="#FFF59B"/>
<ellipse cx="24.0979" cy="26.9091" rx="3.18367" ry="3.44988" fill="url(#paint5_radial_925_469)"/>
<ellipse cx="24.0979" cy="26.9091" rx="0.795916" ry="1.03497" fill="#FFF59B"/>
<ellipse cx="31.298" cy="15.5245" rx="3.18368" ry="3.44988" fill="url(#paint6_radial_925_469)"/>
<ellipse cx="31.298" cy="15.5245" rx="0.795918" ry="1.03496" fill="#FFF59B"/>
<ellipse cx="12.0979" cy="64.8578" rx="3.18367" ry="3.44988" fill="url(#paint7_radial_925_469)"/>
<ellipse cx="12.0979" cy="64.8578" rx="0.795918" ry="1.03497" fill="#FFF59B"/>
<ellipse cx="18.6122" cy="74.1725" rx="3.18367" ry="3.44988" fill="url(#paint8_radial_925_469)"/>
<ellipse cx="18.6122" cy="74.1725" rx="0.795918" ry="1.03496" fill="#FFF59B"/>
<ellipse cx="29.5837" cy="77.9673" rx="3.18368" ry="3.44988" fill="url(#paint9_radial_925_469)"/>
<ellipse cx="29.5837" cy="77.9673" rx="0.795918" ry="1.03497" fill="#FFF59B"/>
<ellipse cx="42.2694" cy="76.5875" rx="3.18367" ry="3.44988" fill="url(#paint10_radial_925_469)"/>
<ellipse cx="42.2694" cy="76.5874" rx="0.795918" ry="1.03496" fill="#FFF59B"/>
</g>
<defs>
<radialGradient id="paint0_radial_925_469" cx="0" cy="0" r="1" gradientUnits="userSpaceOnUse" gradientTransform="translate(9.69796 46.9184) rotate(90) scale(3.44988 3.18367)">
<stop stop-color="#F39200"/>
<stop offset="0.947917" stop-color="#FFF59B" stop-opacity="0"/>
</radialGradient>
<radialGradient id="paint1_radial_925_469" cx="0" cy="0" r="1" gradientUnits="userSpaceOnUse" gradientTransform="translate(17.9265 50.3683) rotate(90) scale(3.44989 3.18368)">
<stop stop-color="#F39200"/>
<stop offset="0.947917" stop-color="#FFF59B" stop-opacity="0"/>
</radialGradient>
<radialGradient id="paint2_radial_925_469" cx="0" cy="0" r="1" gradientUnits="userSpaceOnUse" gradientTransform="translate(28.5551 50.3683) rotate(90) scale(3.44989 3.18367)">
<stop stop-color="#F39200"/>
<stop offset="0.947917" stop-color="#FFF59B" stop-opacity="0"/>
</radialGradient>
<radialGradient id="paint3_radial_925_469" cx="0" cy="0" r="1" gradientUnits="userSpaceOnUse" gradientTransform="translate(36.0979 46.2284) rotate(90) scale(3.44988 3.18367)">
<stop stop-color="#F39200"/>
<stop offset="0.947917" stop-color="#FFF59B" stop-opacity="0"/>
</radialGradient>
<radialGradient id="paint4_radial_925_469" cx="0" cy="0" r="1" gradientUnits="userSpaceOnUse" gradientTransform="translate(10.7265 34.4988) rotate(90) scale(3.44988 3.18367)">
<stop stop-color="#F39200"/>
<stop offset="0.947917" stop-color="#FFF59B" stop-opacity="0"/>
</radialGradient>
<radialGradient id="paint5_radial_925_469" cx="0" cy="0" r="1" gradientUnits="userSpaceOnUse" gradientTransform="translate(24.0979 26.9091) rotate(90) scale(3.44988 3.18367)">
<stop stop-color="#F39200"/>
<stop offset="0.947917" stop-color="#FFF59B" stop-opacity="0"/>
</radialGradient>
<radialGradient id="paint6_radial_925_469" cx="0" cy="0" r="1" gradientUnits="userSpaceOnUse" gradientTransform="translate(31.298 15.5245) rotate(90) scale(3.44988 3.18368)">
<stop stop-color="#F39200"/>
<stop offset="0.947917" stop-color="#FFF59B" stop-opacity="0"/>
</radialGradient>
<radialGradient id="paint7_radial_925_469" cx="0" cy="0" r="1" gradientUnits="userSpaceOnUse" gradientTransform="translate(12.098 64.8578) rotate(90) scale(3.44988 3.18367)">
<stop stop-color="#F39200"/>
<stop offset="0.947917" stop-color="#FFF59B" stop-opacity="0"/>
</radialGradient>
<radialGradient id="paint8_radial_925_469" cx="0" cy="0" r="1" gradientUnits="userSpaceOnUse" gradientTransform="translate(18.6122 74.1725) rotate(90) scale(3.44988 3.18367)">
<stop stop-color="#F39200"/>
<stop offset="0.947917" stop-color="#FFF59B" stop-opacity="0"/>
</radialGradient>
<radialGradient id="paint9_radial_925_469" cx="0" cy="0" r="1" gradientUnits="userSpaceOnUse" gradientTransform="translate(29.5837 77.9673) rotate(90) scale(3.44988 3.18368)">
<stop stop-color="#F39200"/>
<stop offset="0.947917" stop-color="#FFF59B" stop-opacity="0"/>
</radialGradient>
<radialGradient id="paint10_radial_925_469" cx="0" cy="0" r="1" gradientUnits="userSpaceOnUse" gradientTransform="translate(42.2694 76.5875) rotate(90) scale(3.44988 3.18367)">
<stop stop-color="#F39200"/>
<stop offset="0.947917" stop-color="#FFF59B" stop-opacity="0"/>
</radialGradient>
<clipPath id="clip0_925_469">
<rect width="48" height="148" fill="white"/>
</clipPath>
</defs>
</svg>
