<svg width="274" height="52" viewBox="0 0 274 52" fill="none" xmlns="http://www.w3.org/2000/svg">
<path d="M273.876 37.7086L272.014 36.669C271.972 36.6463 271.923 36.6365 271.875 36.6408C271.827 36.6451 271.782 36.6633 271.744 36.6931L270.338 37.8158L269.683 37.872L271.18 36.0957C271.217 36.056 271.246 36.009 271.263 35.9578C271.281 35.9066 271.288 35.8522 271.283 35.7983C271.277 35.7211 271.248 35.6474 271.2 35.5867C271.152 35.5259 271.086 35.4808 271.012 35.4572C270.938 35.4336 270.858 35.4326 270.783 35.4542C270.708 35.4758 270.642 35.5191 270.592 35.5786L268.587 37.9524L267.675 38.0301L268.158 37.4594C268.225 37.3797 268.258 37.2766 268.25 37.1727C268.243 37.0957 268.214 37.0222 268.165 36.9617C268.117 36.9012 268.051 36.8564 267.977 36.8329C267.903 36.8093 267.823 36.8082 267.748 36.8296C267.673 36.851 267.606 36.894 267.556 36.953L266.56 38.1346L265.152 38.2552L266.633 36.5002L267.648 36.6047C267.695 36.6084 267.742 36.5987 267.783 36.5769C267.825 36.5551 267.859 36.522 267.883 36.4815L268.563 35.2838C268.581 35.2483 268.591 35.2087 268.591 35.1686C268.591 35.1285 268.581 35.089 268.563 35.0534C268.544 35.0174 268.517 34.9864 268.484 34.9635C268.45 34.9406 268.412 34.9263 268.371 34.9221L267 34.7828C266.953 34.7792 266.906 34.7888 266.865 34.8106C266.823 34.8325 266.789 34.8655 266.765 34.9061L266.226 35.8492L263.994 36.0394L264.906 34.9677L266.434 34.8391C266.538 34.8295 266.634 34.7794 266.701 34.6996C266.769 34.6197 266.801 34.5167 266.792 34.4131C266.789 34.3617 266.775 34.3117 266.751 34.2658C266.728 34.2199 266.696 34.179 266.656 34.1456C266.617 34.1122 266.571 34.0869 266.522 34.0712C266.472 34.0555 266.42 34.0496 266.369 34.054L265.624 34.1183L266.215 33.419L269.31 33.1511C269.362 33.1467 269.412 33.1323 269.458 33.1086C269.504 33.085 269.545 33.0526 269.578 33.0133C269.611 32.974 269.636 32.9285 269.652 32.8795C269.668 32.8305 269.673 32.779 269.669 32.7278C269.663 32.6254 269.616 32.5296 269.54 32.461C269.463 32.3923 269.362 32.3563 269.259 32.3607L266.944 32.5563L267.37 32.0606L269.1 31.5703C269.146 31.5569 269.188 31.5302 269.219 31.4935C269.25 31.4568 269.27 31.4117 269.275 31.364L269.504 29.242C269.508 29.2024 269.502 29.1625 269.487 29.1256C269.472 29.0888 269.449 29.0561 269.418 29.0303C269.388 29.0054 269.352 28.9881 269.313 28.9797C269.275 28.9713 269.235 28.9721 269.197 28.9821L267.146 29.5662C267.099 29.5789 267.057 29.6055 267.026 29.6423C266.995 29.6792 266.975 29.7245 266.971 29.7725L266.779 31.5435L266.347 32.0472L266.15 29.7323C266.147 29.6807 266.133 29.6302 266.11 29.5838C266.087 29.5375 266.054 29.4961 266.015 29.4623C265.976 29.4284 265.93 29.4026 265.88 29.3864C265.831 29.3702 265.779 29.3639 265.727 29.3679C265.622 29.3774 265.526 29.4276 265.459 29.5074C265.391 29.5872 265.359 29.6902 265.368 29.7939L265.637 32.8912L265.047 33.5878L264.976 32.851C264.968 32.7476 264.919 32.6518 264.839 32.5844C264.76 32.5171 264.657 32.4839 264.553 32.492C264.448 32.5015 264.352 32.5517 264.285 32.6315C264.217 32.7113 264.185 32.8143 264.194 32.918L264.323 34.4452L263.411 35.5169L263.22 33.269L264.029 32.5965C264.066 32.5667 264.094 32.5266 264.108 32.4814C264.123 32.4361 264.123 32.3876 264.11 32.342L263.743 31.0157C263.733 30.9771 263.713 30.9416 263.685 30.9126C263.657 30.8836 263.622 30.862 263.584 30.8496C263.545 30.8377 263.504 30.8355 263.464 30.8429C263.424 30.8504 263.386 30.8674 263.355 30.8924L262.289 31.7632C262.252 31.793 262.225 31.8326 262.211 31.8773C262.196 31.922 262.195 31.9698 262.208 32.0151L262.478 33.0252L261.028 34.7721L260.91 33.3601L261.897 32.1892C261.931 32.15 261.957 32.1044 261.973 32.0551C261.988 32.0059 261.994 31.954 261.989 31.9025C261.985 31.851 261.971 31.8007 261.948 31.7547C261.924 31.7087 261.891 31.6679 261.851 31.6346C261.773 31.5719 261.672 31.542 261.572 31.551C261.471 31.5599 261.378 31.6072 261.312 31.6828L260.829 32.2509L260.753 31.3426L262.758 28.966C262.826 28.8861 262.858 28.7832 262.85 28.6793C262.84 28.5754 262.789 28.4794 262.71 28.4114C262.631 28.3487 262.531 28.3188 262.43 28.3278C262.329 28.3367 262.236 28.384 262.17 28.4596L260.672 30.2333L260.618 29.5957L261.468 28.0283C261.492 27.9864 261.502 27.9387 261.498 27.8911C261.494 27.8434 261.476 27.798 261.447 27.7603L260.097 26.0992C260.073 26.0683 260.041 26.0439 260.005 26.0285C259.969 26.013 259.929 26.0069 259.89 26.0107C259.85 26.0132 259.811 26.0258 259.778 26.0474C259.744 26.069 259.717 26.0988 259.698 26.134L258.659 28.0095C258.636 28.0514 258.626 28.0991 258.629 28.1467C258.633 28.1943 258.651 28.2398 258.681 28.2774L259.814 29.6359L259.871 30.295L258.095 28.7972C258.016 28.7308 257.913 28.6983 257.809 28.7068C257.706 28.7154 257.609 28.7642 257.542 28.8428C257.474 28.9235 257.441 29.0275 257.45 29.1321C257.454 29.1837 257.468 29.2339 257.492 29.28C257.515 29.326 257.548 29.3668 257.588 29.4001L259.963 31.4042L260.041 32.3152L259.471 31.8329C259.432 31.7997 259.386 31.7747 259.336 31.7592C259.287 31.7436 259.235 31.738 259.183 31.7424C259.132 31.7469 259.082 31.7615 259.036 31.7853C258.99 31.8091 258.949 31.8416 258.916 31.8811C258.882 31.9205 258.857 31.9662 258.842 32.0154C258.826 32.0647 258.821 32.1165 258.826 32.1678C258.83 32.2193 258.844 32.2696 258.868 32.3156C258.892 32.3617 258.924 32.4025 258.964 32.4357L260.135 33.4244L260.254 34.831L258.492 33.3547L258.465 33.3306L258.562 32.3152C258.567 32.2684 258.558 32.2211 258.537 32.1792C258.515 32.1373 258.482 32.1026 258.441 32.0794L257.242 31.4015C257.207 31.3818 257.167 31.3715 257.126 31.3715C257.086 31.3715 257.046 31.3818 257.01 31.4015C256.975 31.42 256.944 31.4471 256.921 31.4803C256.899 31.5136 256.885 31.5518 256.881 31.5917L256.743 32.9636C256.738 33.0103 256.747 33.0576 256.768 33.0995C256.79 33.1414 256.823 33.1761 256.865 33.1993L257.839 33.7513L258.028 35.9805L256.948 35.0668L256.819 33.5396C256.815 33.4881 256.801 33.4378 256.777 33.3917C256.754 33.3456 256.722 33.3046 256.682 33.271C256.642 33.2374 256.597 33.2119 256.547 33.196C256.498 33.1801 256.445 33.1741 256.393 33.1784C256.342 33.1826 256.291 33.197 256.245 33.2208C256.199 33.2445 256.158 33.2771 256.124 33.3166C256.091 33.3562 256.065 33.402 256.05 33.4513C256.034 33.5006 256.029 33.5525 256.034 33.6039L256.098 34.3488L255.399 33.7593L255.13 30.662C255.121 30.5584 255.071 30.4625 254.991 30.3953C254.911 30.328 254.808 30.2948 254.703 30.303C254.652 30.3077 254.601 30.3225 254.556 30.3464C254.51 30.3704 254.469 30.4031 254.436 30.4427C254.403 30.4822 254.378 30.5279 254.363 30.577C254.348 30.6262 254.342 30.6778 254.347 30.729L254.541 33.0413L254.056 32.6313L253.564 30.9005C253.551 30.8544 253.524 30.8132 253.487 30.7822C253.45 30.7513 253.405 30.7318 253.357 30.7263L251.236 30.4986C251.196 30.4934 251.156 30.4984 251.119 30.5129C251.083 30.5274 251.05 30.5511 251.025 30.5816C251 30.6121 250.982 30.6482 250.973 30.6869C250.965 30.7257 250.966 30.7658 250.977 30.804L251.565 32.851C251.578 32.8973 251.605 32.9386 251.642 32.9697C251.679 33.0007 251.724 33.02 251.773 33.0252L253.543 33.2181L254.039 33.6548L251.719 33.845C251.614 33.8536 251.517 33.903 251.45 33.9824C251.382 34.0617 251.348 34.1646 251.357 34.2684C251.366 34.3721 251.415 34.4682 251.495 34.5356C251.575 34.6029 251.679 34.6359 251.783 34.6274L254.881 34.3595L255.58 34.9489L254.835 35.0132C254.737 35.0295 254.648 35.082 254.587 35.1602C254.526 35.2384 254.497 35.3367 254.505 35.4353C254.514 35.534 254.559 35.6259 254.633 35.6926C254.707 35.7594 254.803 35.7962 254.903 35.7956L256.43 35.667L257.51 36.5779L255.235 36.7708L254.549 35.9322C254.52 35.8955 254.48 35.8682 254.435 35.8539C254.39 35.8396 254.341 35.8389 254.296 35.8518L252.968 36.2189C252.931 36.2316 252.897 36.253 252.87 36.2812C252.843 36.3093 252.823 36.3435 252.811 36.381C252.8 36.4184 252.798 36.458 252.805 36.4964C252.812 36.5348 252.828 36.5711 252.852 36.6021L253.724 37.6738C253.754 37.71 253.794 37.7368 253.839 37.7511C253.884 37.7653 253.932 37.7664 253.977 37.7542L254.997 37.4701L256.754 38.9518L255.343 39.0724L254.172 38.0837C254.093 38.0214 253.993 37.9913 253.893 37.9998C253.792 38.0083 253.699 38.0546 253.632 38.1293C253.565 38.2092 253.532 38.3121 253.54 38.4159C253.549 38.5197 253.598 38.6159 253.678 38.6839L254.25 39.1661L253.338 39.2546L250.963 37.2504C250.884 37.1878 250.784 37.1578 250.683 37.1668C250.583 37.1758 250.49 37.223 250.423 37.2987C250.356 37.3786 250.323 37.4815 250.332 37.5854C250.335 37.637 250.349 37.6873 250.373 37.7334C250.396 37.7795 250.429 37.8203 250.469 37.8533L252.245 39.351L251.603 39.4073L250.04 38.5338C249.998 38.5104 249.95 38.5002 249.902 38.5045C249.853 38.5088 249.808 38.5274 249.77 38.5579L248.111 39.8976C248.079 39.9224 248.055 39.9544 248.039 39.9908C248.023 40.0272 248.016 40.067 248.019 40.1066C248.023 40.1462 248.036 40.1843 248.058 40.2179C248.079 40.2514 248.109 40.2794 248.143 40.2995L250.005 41.3391C250.048 41.3618 250.096 41.3716 250.144 41.3673C250.192 41.363 250.237 41.3448 250.275 41.315L251.67 40.1923L252.31 40.1387L250.812 41.9124C250.778 41.9517 250.753 41.9971 250.737 42.046C250.721 42.095 250.715 42.1466 250.72 42.1978C250.724 42.2491 250.738 42.299 250.762 42.3447C250.786 42.3905 250.818 42.4311 250.858 42.4644C250.897 42.4976 250.943 42.5228 250.992 42.5385C251.042 42.5542 251.094 42.5601 251.145 42.5559C251.197 42.5517 251.247 42.5374 251.293 42.5139C251.339 42.4904 251.38 42.4581 251.414 42.4188L253.419 40.045L254.328 39.9673L253.848 40.538C253.797 40.571 253.755 40.6151 253.725 40.6669C253.694 40.7187 253.676 40.7768 253.671 40.8367C253.667 40.8966 253.677 40.9567 253.7 41.0123C253.722 41.0679 253.758 41.1176 253.803 41.1574C253.848 41.1972 253.902 41.2262 253.961 41.242C254.019 41.2578 254.08 41.2601 254.14 41.2487C254.199 41.2372 254.255 41.2123 254.303 41.176C254.351 41.1396 254.39 41.0927 254.417 41.039L255.407 39.8681L256.813 39.7502L255.335 41.5025L255.318 41.5239L254.288 41.4248C254.241 41.4197 254.193 41.4284 254.151 41.4498C254.109 41.4713 254.074 41.5045 254.05 41.5454L253.373 42.743C253.353 42.7789 253.343 42.8189 253.343 42.8596C253.343 42.9002 253.353 42.9403 253.373 42.9761C253.391 43.0117 253.419 43.0421 253.452 43.0645C253.486 43.087 253.524 43.1008 253.564 43.1047L254.935 43.2441C254.982 43.2486 255.029 43.2397 255.071 43.2183C255.112 43.1969 255.147 43.1639 255.17 43.1235L255.71 42.1643L257.979 41.9741L257.064 43.0458L255.537 43.1771C255.439 43.1933 255.35 43.2458 255.289 43.324C255.228 43.4023 255.198 43.5005 255.207 43.5992C255.215 43.6978 255.261 43.7897 255.335 43.8565C255.408 43.9232 255.505 43.96 255.604 43.9594L256.347 43.8978L255.766 44.5971L252.669 44.865C252.57 44.8813 252.482 44.9338 252.42 45.012C252.359 45.0902 252.33 45.1885 252.338 45.2871C252.347 45.3858 252.393 45.4777 252.466 45.5444C252.54 45.6112 252.636 45.648 252.736 45.6474L255.038 45.4438L254.617 45.9448L252.906 46.4298C252.859 46.4428 252.818 46.4695 252.786 46.5062C252.755 46.543 252.736 46.5882 252.731 46.6361L252.501 48.7581C252.495 48.7981 252.499 48.839 252.513 48.877C252.527 48.915 252.551 48.949 252.581 48.9756C252.612 49.0023 252.649 49.0209 252.689 49.0297C252.728 49.0385 252.77 49.0373 252.809 49.026L254.86 48.4419C254.907 48.4292 254.948 48.4026 254.98 48.3658C255.011 48.329 255.03 48.2836 255.035 48.2356L255.229 46.4485L255.64 45.9609L255.837 48.2731C255.84 48.3244 255.854 48.3745 255.878 48.4204C255.901 48.4663 255.933 48.5072 255.973 48.5406C256.012 48.574 256.058 48.5993 256.107 48.615C256.157 48.6307 256.209 48.6365 256.26 48.6321C256.365 48.6226 256.461 48.5725 256.528 48.4926C256.595 48.4128 256.628 48.3098 256.619 48.2061L256.349 45.1089L256.938 44.4122L257 45.1571C257.009 45.2605 257.058 45.3561 257.138 45.4229C257.218 45.4898 257.322 45.5223 257.426 45.5134C257.53 45.5045 257.626 45.455 257.694 45.3756C257.761 45.2962 257.794 45.1935 257.785 45.0901L257.655 43.5683L258.567 42.4965L258.756 44.7364L257.89 45.4438C257.853 45.4734 257.826 45.513 257.812 45.5577C257.797 45.6024 257.796 45.6504 257.809 45.6956L258.176 47.0353C258.187 47.0745 258.207 47.1104 258.236 47.1399C258.264 47.1693 258.299 47.1914 258.338 47.2041C258.377 47.216 258.418 47.2181 258.457 47.2102C258.497 47.2022 258.534 47.1844 258.565 47.1585L259.644 46.2877C259.681 46.2586 259.709 46.219 259.723 46.1741C259.738 46.1293 259.738 46.0811 259.725 46.0359L259.455 45.0499L259.482 45.0231L260.964 43.2655L261.085 44.6748L260.084 45.8135C260.016 45.8942 259.983 45.9982 259.992 46.1029C259.999 46.18 260.028 46.2534 260.077 46.3139C260.125 46.3744 260.191 46.4192 260.265 46.4428C260.339 46.4663 260.419 46.4674 260.494 46.446C260.569 46.4246 260.635 46.3817 260.686 46.3226L261.163 45.7519L261.242 46.6629L259.237 49.0367C259.169 49.1166 259.137 49.2196 259.145 49.3234C259.154 49.4271 259.203 49.5234 259.283 49.5913C259.363 49.6579 259.466 49.6905 259.57 49.6819C259.674 49.6734 259.77 49.6245 259.838 49.5458L261.336 47.7694L261.39 48.4285L260.524 49.9798C260.502 50.0221 260.492 50.0698 260.496 50.1173C260.501 50.1648 260.519 50.2101 260.548 50.2478L261.897 51.9089C261.922 51.9398 261.954 51.9642 261.99 51.9796C262.026 51.9951 262.066 52.0012 262.105 51.9974C262.145 51.9944 262.183 51.9816 262.217 51.9601C262.25 51.9385 262.278 51.909 262.297 51.8741L263.336 49.9986C263.359 49.9567 263.369 49.909 263.365 49.8614C263.362 49.8138 263.344 49.7683 263.314 49.7307L262.183 48.3267L262.129 47.689L263.9 49.1948C263.938 49.2356 263.984 49.268 264.035 49.2896C264.087 49.3113 264.143 49.3218 264.199 49.3205C264.255 49.3191 264.31 49.306 264.36 49.2818C264.41 49.2577 264.455 49.2232 264.491 49.1806C264.527 49.138 264.553 49.0883 264.569 49.0348C264.584 48.9813 264.587 48.9252 264.579 48.8702C264.57 48.8153 264.55 48.7628 264.519 48.7162C264.489 48.6696 264.449 48.63 264.402 48.6L262.027 46.5959L261.951 45.6849L262.513 46.1672C262.572 46.2167 262.646 46.2476 262.723 46.2559C262.801 46.2641 262.879 46.2494 262.948 46.2135C263.017 46.1777 263.074 46.1224 263.111 46.0545C263.148 45.9866 263.164 45.9093 263.158 45.8323C263.154 45.7807 263.14 45.7303 263.117 45.6842C263.093 45.6382 263.06 45.5974 263.02 45.5643L261.849 44.5757L261.73 43.1664L263.476 44.64L263.368 45.6903C263.363 45.737 263.372 45.7841 263.394 45.8259C263.415 45.8678 263.449 45.9025 263.489 45.926L264.688 46.6066C264.723 46.6251 264.763 46.6348 264.804 46.6348C264.844 46.6348 264.884 46.6251 264.92 46.6066C264.956 46.5874 264.986 46.5598 265.009 46.5262C265.031 46.4926 265.045 46.4539 265.049 46.4137L265.19 45.0445C265.194 44.9978 265.185 44.9507 265.164 44.9089C265.142 44.867 265.109 44.8323 265.068 44.8088L264.14 44.2729L263.948 42.0009L265.028 42.9145L265.157 44.4417C265.157 44.4957 265.169 44.549 265.191 44.5984C265.213 44.6477 265.246 44.6919 265.286 44.7283C265.326 44.7647 265.373 44.7924 265.425 44.8097C265.476 44.827 265.531 44.8336 265.585 44.8289C265.639 44.8243 265.692 44.8086 265.74 44.7828C265.787 44.7569 265.829 44.7216 265.862 44.6789C265.896 44.6363 265.92 44.5872 265.933 44.5348C265.946 44.4825 265.949 44.428 265.94 44.3747L265.878 43.6299L266.574 44.2193L266.844 47.3166C266.847 47.3679 266.861 47.418 266.885 47.4639C266.908 47.5098 266.941 47.5506 266.98 47.584C267.019 47.6175 267.065 47.6427 267.114 47.6585C267.164 47.6742 267.216 47.68 267.267 47.6756C267.371 47.6694 267.467 47.6233 267.537 47.5472C267.607 47.4712 267.643 47.3711 267.64 47.2684L267.443 44.9561L267.95 45.3821L268.436 47.0969C268.449 47.143 268.476 47.1842 268.513 47.2151C268.55 47.2461 268.596 47.2656 268.644 47.2711L270.765 47.4988C270.804 47.5035 270.844 47.4983 270.88 47.4838C270.917 47.4693 270.95 47.4459 270.975 47.4157C271.001 47.3853 271.018 47.3492 271.027 47.3104C271.035 47.2717 271.034 47.2316 271.024 47.1934L270.441 45.141C270.428 45.0945 270.401 45.053 270.364 45.0219C270.327 44.9908 270.281 44.9716 270.233 44.9669L268.449 44.7739L267.953 44.356L270.268 44.1604C270.373 44.1515 270.47 44.1016 270.538 44.0217C270.606 43.9418 270.639 43.8385 270.63 43.7344C270.621 43.6303 270.571 43.534 270.49 43.4666C270.41 43.3993 270.305 43.3665 270.201 43.3753L267.103 43.6433L266.407 43.0538L267.149 42.9922C267.253 42.9826 267.349 42.9326 267.416 42.8532C267.483 42.7737 267.516 42.6712 267.507 42.5679C267.499 42.4645 267.449 42.3687 267.37 42.3012C267.291 42.2336 267.188 42.1999 267.084 42.2072L265.557 42.3358L264.477 41.4248L266.698 41.2373L267.392 42.0893C267.422 42.1249 267.462 42.1514 267.507 42.1656C267.552 42.1798 267.6 42.1812 267.645 42.1697L268.973 41.8026C269.012 41.7917 269.048 41.7712 269.077 41.7431C269.106 41.715 269.128 41.6801 269.14 41.6416C269.153 41.6031 269.155 41.5621 269.148 41.5224C269.14 41.4827 269.123 41.4455 269.097 41.4141L268.225 40.3424C268.196 40.3056 268.156 40.2784 268.111 40.2641C268.066 40.2498 268.017 40.249 267.972 40.262L267 40.5299L265.211 39.0375L266.625 38.9197L267.794 39.9083C267.875 39.9726 267.978 40.0035 268.081 39.9945C268.185 39.9855 268.281 39.9374 268.349 39.8601C268.417 39.7801 268.45 39.6768 268.441 39.5728C268.432 39.4688 268.381 39.3727 268.301 39.3055L267.732 38.8259L268.641 38.7482L271.018 40.7523C271.098 40.8191 271.202 40.8515 271.306 40.8425C271.411 40.8335 271.507 40.7837 271.574 40.7041C271.641 40.6245 271.674 40.5216 271.665 40.4181C271.656 40.3146 271.606 40.2189 271.526 40.1521L269.75 38.6544L270.406 38.5981L271.968 39.4716C272.01 39.495 272.059 39.5052 272.107 39.5009C272.155 39.4966 272.201 39.478 272.238 39.4475L273.9 38.1078C273.931 38.0825 273.955 38.0503 273.97 38.014C273.986 37.9776 273.992 37.9382 273.989 37.8988C273.986 37.8607 273.974 37.8237 273.955 37.7907C273.935 37.7578 273.908 37.7297 273.876 37.7086ZM260.446 37.1942C260.366 37.2189 260.287 37.2485 260.211 37.2826L260.065 37.3523C259.983 37.3975 259.906 37.4495 259.833 37.5077L258.878 36.7039L258.694 34.5604L260.34 35.9483L260.446 37.1942ZM260.092 40.6773C260.166 40.7178 260.243 40.7536 260.321 40.7845L260.486 40.838C260.575 40.8628 260.665 40.8816 260.756 40.8943L260.861 42.1214L259.471 43.7692L259.288 41.6258L260.092 40.6773ZM261.039 40.12H260.907C260.683 40.1023 260.471 40.0172 260.297 39.8762C260.277 39.8626 260.259 39.8464 260.243 39.8279C260.079 39.6834 259.963 39.4928 259.911 39.2814C259.899 39.2176 259.891 39.1532 259.887 39.0884C259.862 38.8283 259.934 38.5682 260.089 38.357C260.183 38.2266 260.303 38.1181 260.443 38.0389C260.583 37.9598 260.739 37.912 260.899 37.8988C261.004 37.8887 261.111 37.8932 261.215 37.9122C261.395 37.9466 261.563 38.0259 261.703 38.1427L261.733 38.1668C261.87 38.2861 261.975 38.4382 262.038 38.6089C262.068 38.6956 262.089 38.7854 262.1 38.8768V38.9223C262.12 39.1624 262.06 39.4024 261.93 39.6056C261.895 39.6557 261.857 39.704 261.816 39.7502C261.637 39.9536 261.386 40.0818 261.115 40.1093C261.09 40.1159 261.065 40.1204 261.039 40.1227V40.12ZM261.889 37.3255C261.813 37.2864 261.735 37.2515 261.655 37.221L261.509 37.1754H261.468L261.35 37.146L261.228 37.1299L261.123 35.8867L262.513 34.2335L262.693 36.377L261.889 37.3255ZM261.541 40.83C261.623 40.8055 261.704 40.7751 261.781 40.7389L261.938 40.6585C262.018 40.6126 262.094 40.5616 262.167 40.5058L263.109 41.3096L263.29 43.453L261.646 42.0678L261.541 40.83ZM262.812 38.4535C262.812 38.4159 262.791 38.3784 262.777 38.3436C262.766 38.3135 262.754 38.2839 262.739 38.2552L262.648 38.065C262.602 37.9846 262.551 37.9075 262.494 37.8345L263.303 36.8861L265.462 36.7039L264.075 38.349L262.812 38.4535ZM258.368 37.3014L259.323 38.1051C259.284 38.18 259.249 38.2569 259.218 38.3356L259.166 38.4936C259.14 38.5811 259.121 38.6708 259.11 38.7616L257.871 38.8661L256.222 37.4782L258.368 37.3014ZM257.925 39.6565L259.161 39.5493C259.187 39.6314 259.217 39.7119 259.253 39.7904L259.328 39.9378C259.375 40.0193 259.427 40.0972 259.485 40.1709L258.675 41.1167L256.517 41.2989L257.925 39.6565ZM263.611 40.7041L262.664 39.9003C262.704 39.8239 262.739 39.7451 262.769 39.6645L262.818 39.5037C262.842 39.4159 262.86 39.3263 262.872 39.2358L264.107 39.1313L265.754 40.5219L263.611 40.7041Z" fill="white"/>
<path d="M16.9189 7.65567L15.7015 6.97595C15.6738 6.9611 15.6422 6.95468 15.6109 6.95749C15.5795 6.96029 15.5496 6.97219 15.525 6.99172L14.6058 7.72574L14.177 7.76253L15.1563 6.60105C15.1806 6.57513 15.1991 6.54441 15.2106 6.51091C15.2222 6.47741 15.2265 6.44187 15.2233 6.4066C15.2195 6.35615 15.2006 6.30797 15.1691 6.26825C15.1375 6.22853 15.0948 6.19906 15.0462 6.18363C14.9977 6.1682 14.9457 6.1675 14.8967 6.18163C14.8478 6.19576 14.8042 6.22408 14.7716 6.26294L13.4607 7.81509L12.8643 7.86589L13.1801 7.49275C13.2243 7.44061 13.2459 7.3732 13.2401 7.3053C13.2359 7.25489 13.2166 7.20688 13.1849 7.16732C13.1531 7.12776 13.1103 7.09844 13.0617 7.08307C13.0132 7.06769 12.9612 7.06695 12.9122 7.08094C12.8632 7.09492 12.8196 7.12301 12.7867 7.16165L12.1356 7.93421L11.2146 8.01305L12.1833 6.86558L12.8467 6.93391C12.8773 6.93628 12.908 6.92997 12.9352 6.9157C12.9624 6.90144 12.9849 6.8798 13.0002 6.85332L13.4448 6.07024C13.457 6.04698 13.4634 6.02114 13.4634 5.99491C13.4634 5.96868 13.457 5.94284 13.4448 5.91958C13.4328 5.896 13.4151 5.87579 13.3932 5.86079C13.3713 5.84579 13.346 5.83649 13.3195 5.83374L12.4232 5.74264C12.3926 5.74027 12.3619 5.74658 12.3347 5.76084C12.3075 5.77511 12.285 5.79674 12.2697 5.82323L11.9168 6.43988L10.4577 6.56426L11.054 5.86352L12.0527 5.77943C12.1209 5.7732 12.1839 5.74041 12.2279 5.68822C12.2719 5.63603 12.2932 5.56868 12.2874 5.50089C12.2849 5.46734 12.2758 5.4346 12.2605 5.40458C12.2452 5.37456 12.224 5.34786 12.1983 5.32602C12.1725 5.30418 12.1426 5.28764 12.1104 5.27736C12.0781 5.26708 12.0441 5.26327 12.0103 5.26614L11.5234 5.30818L11.9098 4.85095L13.9335 4.67576C13.9673 4.6729 14.0001 4.66346 14.0301 4.648C14.0602 4.63253 14.0868 4.61134 14.1086 4.58564C14.1304 4.55994 14.1469 4.53022 14.1571 4.49819C14.1673 4.46616 14.1711 4.43245 14.1682 4.39897C14.1641 4.33205 14.1337 4.2694 14.0835 4.22451C14.0334 4.17963 13.9675 4.15609 13.9 4.15897L12.3862 4.28685L12.6649 3.96276L13.7959 3.64217C13.8263 3.6334 13.8534 3.61592 13.8738 3.59192C13.8942 3.56792 13.907 3.53848 13.9106 3.50728L14.0606 2.11981C14.0631 2.09393 14.0593 2.06782 14.0495 2.04373C14.0396 2.01963 14.0241 1.99825 14.0041 1.98141C13.9843 1.96514 13.9608 1.95379 13.9356 1.9483C13.9105 1.94282 13.8843 1.94336 13.8594 1.94988L12.5185 2.33178C12.4879 2.34012 12.4605 2.35748 12.4401 2.38156C12.4196 2.40564 12.407 2.43532 12.4038 2.46668L12.2785 3.62465L11.9962 3.954L11.8674 2.4404C11.8652 2.40662 11.8562 2.37362 11.8411 2.34331C11.8259 2.313 11.8048 2.28598 11.779 2.26382C11.7533 2.24166 11.7233 2.2248 11.691 2.21421C11.6586 2.20362 11.6244 2.19952 11.5904 2.20214C11.5222 2.20837 11.4592 2.24117 11.4152 2.29336C11.3713 2.34555 11.3499 2.4129 11.3558 2.48069L11.5322 4.50583L11.1458 4.96132L11.0999 4.47956C11.0945 4.41196 11.0623 4.34926 11.0104 4.30524C10.9584 4.26123 10.891 4.23949 10.8229 4.24481C10.7547 4.25104 10.6917 4.28383 10.6477 4.33602C10.6037 4.38821 10.5824 4.45556 10.5882 4.52335L10.6729 5.52191L10.0766 6.22265L9.95129 4.75285L10.4806 4.31313C10.505 4.29365 10.523 4.26746 10.5324 4.23785C10.5418 4.20825 10.5422 4.17654 10.5335 4.1467L10.2936 3.27954C10.2867 3.25427 10.2736 3.23112 10.2554 3.21216C10.2372 3.19319 10.2145 3.17902 10.1895 3.17092C10.1641 3.16318 10.1371 3.16169 10.111 3.16657C10.0849 3.17145 10.0604 3.18257 10.0395 3.19895L9.34257 3.7683C9.31873 3.78779 9.30106 3.81369 9.29168 3.8429C9.28229 3.87211 9.28158 3.90338 9.28964 3.93298L9.46608 4.59343L8.5186 5.73564L8.44096 4.81241L9.08673 4.04685C9.10886 4.02118 9.12559 3.99137 9.13589 3.95917C9.1462 3.92697 9.14988 3.89304 9.14672 3.8594C9.1443 3.8257 9.13509 3.79284 9.11963 3.76274C9.10417 3.73265 9.08279 3.70595 9.05674 3.68421C9.00519 3.64324 8.93968 3.62364 8.87391 3.62951C8.80814 3.63539 8.74721 3.66629 8.70386 3.71575L8.38803 4.08714L8.33863 3.49326L9.64957 1.93937C9.69359 1.88713 9.71514 1.8198 9.70957 1.75192C9.70291 1.68395 9.67003 1.62118 9.61782 1.57673C9.56627 1.53576 9.50076 1.51616 9.43499 1.52203C9.36922 1.52791 9.30829 1.55881 9.26494 1.60827L8.2857 2.76799L8.25041 2.35105L8.8062 1.32622C8.82139 1.29886 8.82815 1.26766 8.82565 1.23652C8.82314 1.20537 8.81146 1.17565 8.79208 1.15103L7.90988 0.0648816C7.89396 0.0446713 7.87317 0.0287769 7.84942 0.0186711C7.82567 0.00856525 7.79974 0.00457499 7.77403 0.00707042C7.74792 0.00864487 7.72266 0.0168921 7.70071 0.0310115C7.67876 0.045131 7.66087 0.0646434 7.64875 0.0876559L6.96945 1.31395C6.95425 1.34132 6.94749 1.37251 6.95 1.40365C6.95251 1.4348 6.96418 1.46453 6.98357 1.48914L7.72462 2.37733L7.76167 2.80829L6.6007 1.829C6.54865 1.78557 6.48142 1.76433 6.41367 1.7699C6.34591 1.77548 6.28313 1.80743 6.239 1.85878C6.1947 1.91155 6.17314 1.97953 6.179 2.04798C6.18142 2.08168 6.19064 2.11455 6.2061 2.14464C6.22155 2.17473 6.24294 2.20144 6.26899 2.22317L7.82166 3.53355L7.87283 4.12919L7.50054 3.81385C7.47461 3.79218 7.44463 3.7758 7.41232 3.76565C7.38 3.7555 7.34598 3.75179 7.31222 3.75472C7.27845 3.75765 7.2456 3.76716 7.21554 3.78272C7.18549 3.79828 7.15882 3.81958 7.13707 3.84539C7.11516 3.87113 7.09872 3.90101 7.08872 3.93322C7.07871 3.96542 7.07536 3.99931 7.07885 4.03283C7.08127 4.06653 7.09048 4.0994 7.10594 4.12949C7.12139 4.15958 7.14278 4.18629 7.16883 4.20802L7.93458 4.85445L8.01222 5.77418L6.86006 4.80891L6.84242 4.79314L6.90593 4.12919C6.90929 4.0986 6.90357 4.06771 6.88946 4.04031C6.87535 4.01292 6.85347 3.99022 6.82653 3.97502L6.04314 3.5318C6.01996 3.51891 5.99384 3.51215 5.96727 3.51215C5.9407 3.51215 5.91458 3.51891 5.8914 3.5318C5.86799 3.54391 5.84798 3.56162 5.8332 3.58334C5.81841 3.60506 5.8093 3.6301 5.80672 3.65618L5.71673 4.55313C5.71337 4.58372 5.7191 4.61461 5.73321 4.64201C5.74731 4.6694 5.76919 4.6921 5.79613 4.7073L6.43308 5.06818L6.55659 6.52572L5.85083 5.92834L5.76614 4.92978C5.76365 4.89609 5.75446 4.86322 5.73911 4.83307C5.72375 4.80293 5.70254 4.7761 5.67668 4.75414C5.65082 4.73218 5.62083 4.71552 5.58846 4.70513C5.55608 4.69473 5.52196 4.69081 5.48805 4.69359C5.45414 4.69637 5.42111 4.70579 5.39089 4.7213C5.36067 4.73682 5.33385 4.75813 5.31196 4.784C5.29008 4.80987 5.27358 4.83979 5.26341 4.87203C5.25323 4.90427 5.24959 4.93819 5.25269 4.97183L5.29503 5.45884L4.83806 5.07344L4.66162 3.04829C4.65578 2.98055 4.62318 2.91785 4.57096 2.87387C4.51873 2.82989 4.45111 2.80821 4.38284 2.81354C4.34912 2.81662 4.31634 2.82627 4.28637 2.84194C4.25641 2.85761 4.22985 2.87899 4.20822 2.90486C4.18659 2.93074 4.17031 2.96059 4.16031 2.99271C4.15031 3.02484 4.14678 3.05861 4.14994 3.09209L4.27698 4.60394L3.95938 4.3359L3.63827 3.20421C3.62944 3.17405 3.61183 3.14715 3.58766 3.1269C3.56349 3.10664 3.53383 3.09392 3.50241 3.09034L2.11559 2.94143C2.08989 2.93805 2.06374 2.94127 2.03965 2.95078C2.01556 2.96029 1.99432 2.97576 1.97796 2.99574C1.96129 3.01565 1.9497 3.03927 1.94417 3.06458C1.93864 3.08989 1.93934 3.11615 1.94621 3.14114L2.33084 4.47956C2.33946 4.50983 2.35701 4.53685 2.38122 4.55714C2.40543 4.57743 2.4352 4.59007 2.46671 4.59343L3.62415 4.71956L3.9488 5.00511L2.43142 5.12949C2.3631 5.13507 2.2998 5.16736 2.25546 5.21927C2.21112 5.27118 2.18937 5.33845 2.19498 5.40629C2.2006 5.47412 2.23313 5.53696 2.28541 5.58099C2.33769 5.62501 2.40544 5.64661 2.47376 5.64104L4.49929 5.46585L4.95627 5.85126L4.4693 5.8933C4.40497 5.90394 4.34703 5.93825 4.30704 5.9894C4.26705 6.04055 4.24792 6.10478 4.25348 6.16929C4.25905 6.23381 4.28889 6.29388 4.33706 6.33753C4.38523 6.38119 4.44819 6.40522 4.51341 6.40485L5.51206 6.32076L6.21782 6.91639L4.73044 7.04252L4.28227 6.49419C4.26293 6.47016 4.23686 6.45235 4.20735 6.443C4.17784 6.43365 4.1462 6.43317 4.11642 6.44163L3.24833 6.68164C3.224 6.68996 3.20201 6.70391 3.18418 6.72234C3.16635 6.74076 3.15319 6.76313 3.14578 6.7876C3.13837 6.81207 3.13692 6.83794 3.14156 6.86307C3.1462 6.88821 3.1568 6.91188 3.17247 6.93215L3.74236 7.6329C3.76199 7.65656 3.78808 7.67411 3.8175 7.68343C3.84692 7.69275 3.87841 7.69345 3.90822 7.68545L4.57517 7.49975L5.72378 8.46853L4.801 8.54736L4.03526 7.90093C3.98376 7.86016 3.91848 7.84052 3.85284 7.84606C3.78721 7.8516 3.72621 7.88189 3.68238 7.93071C3.63843 7.98296 3.61694 8.05028 3.62255 8.11813C3.62816 8.18598 3.66043 8.24891 3.71237 8.29334L4.08642 8.60868L3.49006 8.66649L1.93739 7.3561C1.88584 7.31513 1.82033 7.29553 1.75456 7.3014C1.68879 7.30728 1.62786 7.33818 1.58451 7.38764C1.54049 7.43987 1.51894 7.5072 1.52451 7.57508C1.52673 7.60882 1.53586 7.64176 1.55133 7.67188C1.5668 7.702 1.5883 7.72867 1.6145 7.75027L2.77548 8.72956L2.35555 8.76635L1.33396 8.19524C1.30637 8.17993 1.27477 8.17325 1.24329 8.17606C1.21181 8.17887 1.18192 8.19105 1.15752 8.21101L0.0724134 9.08694C0.0519572 9.10313 0.0357973 9.12405 0.0253419 9.14787C0.0148865 9.17168 0.0104476 9.19767 0.0124191 9.22358C0.0149503 9.24948 0.0236294 9.27441 0.0377371 9.29633C0.0518448 9.31826 0.0709834 9.33655 0.0935854 9.34971L1.31103 10.0294C1.33875 10.0443 1.37025 10.0507 1.40163 10.0479C1.433 10.0451 1.46286 10.0332 1.48747 10.0137L2.39966 9.27964L2.81782 9.2446L1.83858 10.4043C1.81668 10.43 1.80009 10.4597 1.78974 10.4917C1.7794 10.5237 1.77551 10.5574 1.7783 10.5909C1.78108 10.6244 1.79049 10.6571 1.80598 10.687C1.82147 10.7169 1.84274 10.7435 1.86857 10.7652C1.89441 10.787 1.92431 10.8034 1.95656 10.8137C1.9888 10.824 2.02276 10.8278 2.05651 10.8251C2.09026 10.8223 2.12314 10.813 2.15325 10.7976C2.18337 10.7822 2.21014 10.7611 2.23204 10.7354L3.54299 9.18329L4.13759 9.13248L3.82353 9.50563C3.7905 9.52722 3.76292 9.55608 3.74294 9.58996C3.72295 9.62384 3.71108 9.66183 3.70826 9.70099C3.70544 9.74016 3.71175 9.77944 3.72667 9.8158C3.7416 9.85215 3.76476 9.88461 3.79436 9.91065C3.82395 9.9367 3.85918 9.95562 3.89733 9.96597C3.93548 9.97632 3.97551 9.9778 4.01433 9.97032C4.05314 9.96283 4.08972 9.94657 4.12119 9.9228C4.15266 9.89902 4.17819 9.86837 4.19582 9.83323L4.84335 9.06767L5.76261 8.99058L4.79572 10.1363L4.78513 10.1503L4.11113 10.0855C4.08032 10.0822 4.04921 10.0878 4.02162 10.1019C3.99403 10.1159 3.97117 10.1376 3.95586 10.1643L3.51299 10.9474C3.50033 10.9708 3.49371 10.997 3.49371 11.0236C3.49371 11.0502 3.50033 11.0764 3.51299 11.0998C3.52519 11.1231 3.54303 11.1429 3.5649 11.1576C3.58677 11.1723 3.612 11.1813 3.63827 11.1839L4.53458 11.275C4.5651 11.278 4.59584 11.2721 4.62308 11.2581C4.65032 11.2441 4.67289 11.2226 4.68808 11.1962L5.04096 10.569L6.52483 10.4446L5.92669 11.1454L4.92805 11.2312C4.86372 11.2418 4.80578 11.2762 4.76579 11.3273C4.7258 11.3785 4.70667 11.4427 4.71224 11.5072C4.7178 11.5717 4.74763 11.6318 4.7958 11.6754C4.84397 11.7191 4.90694 11.7431 4.97216 11.7427L5.45737 11.7025L5.07802 12.1597L3.05249 12.3349C2.98816 12.3455 2.93023 12.3798 2.89023 12.431C2.85024 12.4821 2.83111 12.5463 2.83668 12.6109C2.84224 12.6754 2.87208 12.7354 2.92024 12.7791C2.96841 12.8228 3.03138 12.8468 3.0966 12.8464L4.60163 12.7133L4.32638 13.0409L3.20776 13.358C3.17727 13.3665 3.15005 13.3839 3.12962 13.408C3.10918 13.432 3.09645 13.4616 3.09307 13.4929L2.9431 14.8803C2.93908 14.9065 2.94177 14.9332 2.9509 14.9581C2.96004 14.983 2.97532 15.0051 2.99536 15.0226C3.0154 15.04 3.03953 15.0522 3.06555 15.058C3.09157 15.0637 3.11863 15.0629 3.14423 15.0555L4.48518 14.6736C4.51579 14.6653 4.54313 14.6479 4.5636 14.6238C4.58407 14.5997 4.59671 14.5701 4.59986 14.5387L4.7269 13.3702L4.9951 13.0514L5.12389 14.5632C5.12634 14.5968 5.13547 14.6295 5.15076 14.6595C5.16605 14.6896 5.1872 14.7163 5.21297 14.7381C5.23875 14.7599 5.26863 14.7765 5.30089 14.7868C5.33315 14.797 5.36715 14.8009 5.40091 14.798C5.46915 14.7918 5.53213 14.759 5.5761 14.7068C5.62007 14.6546 5.64144 14.5872 5.63556 14.5194L5.45912 12.4943L5.84377 12.0388L5.88435 12.5258C5.8902 12.5934 5.92285 12.656 5.97513 12.6997C6.02741 12.7433 6.09504 12.7646 6.16313 12.7588C6.23121 12.753 6.29418 12.7206 6.33819 12.6687C6.3822 12.6168 6.40363 12.5496 6.39779 12.482L6.3131 11.487L6.90947 10.7862L7.03298 12.2508L6.4666 12.7133C6.44258 12.7326 6.42479 12.7585 6.41538 12.7878C6.40598 12.817 6.40538 12.8484 6.41367 12.8779L6.65363 13.7539C6.66073 13.7795 6.67412 13.803 6.69259 13.8223C6.71106 13.8415 6.73405 13.8559 6.7595 13.8642C6.78473 13.8721 6.81153 13.8734 6.83744 13.8682C6.86335 13.863 6.88752 13.8514 6.9077 13.8345L7.61346 13.2651C7.63785 13.2461 7.65592 13.2202 7.66536 13.1908C7.67479 13.1615 7.67515 13.13 7.66639 13.1004L7.48995 12.4558L7.5076 12.4382L8.47625 11.289L8.55565 12.2105L7.90106 12.955C7.85677 13.0078 7.83521 13.0758 7.84106 13.1442C7.84533 13.1946 7.86457 13.2427 7.89632 13.2822C7.92807 13.3218 7.97093 13.3511 8.01946 13.3665C8.068 13.3818 8.12003 13.3826 8.16899 13.3686C8.21795 13.3546 8.26163 13.3265 8.29452 13.2879L8.60682 12.9147L8.65798 13.5104L7.34703 15.0625C7.30308 15.1148 7.2816 15.1821 7.28721 15.2499C7.29282 15.3178 7.32509 15.3807 7.37704 15.4251C7.42937 15.4687 7.49688 15.49 7.56492 15.4844C7.63297 15.4788 7.69606 15.4468 7.7405 15.3954L8.71974 14.2339L8.75503 14.6648L8.18866 15.6792C8.17414 15.7068 8.16792 15.738 8.17074 15.7691C8.17355 15.8001 8.18528 15.8297 8.20453 15.8544L9.08673 16.9405C9.10264 16.9607 9.12345 16.9766 9.1472 16.9867C9.17095 16.9968 9.19688 17.0008 9.22259 16.9983C9.24861 16.9964 9.27373 16.988 9.29563 16.9739C9.31752 16.9599 9.33549 16.9405 9.34787 16.9177L10.0272 15.6914C10.0424 15.6641 10.0491 15.6329 10.0466 15.6017C10.0441 15.5706 10.0324 15.5409 10.013 15.5162L9.27377 14.5983L9.23848 14.1813L10.3959 15.1659C10.4208 15.1926 10.451 15.2137 10.4847 15.2279C10.5184 15.242 10.5548 15.2489 10.5914 15.248C10.628 15.2472 10.664 15.2386 10.6969 15.2228C10.7299 15.207 10.7591 15.1845 10.7826 15.1566C10.8061 15.1288 10.8234 15.0962 10.8332 15.0612C10.8431 15.0262 10.8453 14.9896 10.8398 14.9536C10.8343 14.9177 10.8211 14.8834 10.8011 14.8529C10.7812 14.8225 10.7549 14.7966 10.7241 14.777L9.17143 13.4666L9.12202 12.8709L9.48902 13.1863C9.52811 13.2187 9.576 13.2389 9.62664 13.2443C9.67727 13.2496 9.72838 13.24 9.7735 13.2166C9.81863 13.1932 9.85575 13.157 9.88017 13.1126C9.90459 13.0682 9.91522 13.0177 9.91071 12.9673C9.90849 12.9336 9.89937 12.9006 9.8839 12.8705C9.86843 12.8404 9.84693 12.8137 9.82073 12.7921L9.05497 12.1457L8.97734 11.2242L10.1189 12.1877L10.0483 12.8744C10.0452 12.905 10.051 12.9358 10.0651 12.9632C10.0792 12.9905 10.1009 13.0132 10.1277 13.0286L10.9111 13.4736C10.9345 13.4857 10.9606 13.492 10.987 13.492C11.0134 13.492 11.0394 13.4857 11.0629 13.4736C11.0863 13.4611 11.1063 13.443 11.1211 13.421C11.1358 13.399 11.1449 13.3738 11.1476 13.3474L11.2393 12.4522C11.2424 12.4217 11.2366 12.3909 11.2225 12.3635C11.2084 12.3362 11.1867 12.3135 11.1599 12.2981L10.553 11.9477L10.4277 10.4621L11.1334 11.0595L11.2181 12.0581C11.2184 12.0934 11.2259 12.1283 11.2404 12.1605C11.2549 12.1928 11.2759 12.2217 11.3022 12.2455C11.3285 12.2692 11.3594 12.2874 11.3931 12.2987C11.4268 12.31 11.4624 12.3143 11.4979 12.3113C11.5333 12.3082 11.5677 12.298 11.5989 12.2811C11.6301 12.2642 11.6575 12.2411 11.6793 12.2132C11.7011 12.1853 11.7168 12.1532 11.7255 12.119C11.7342 12.0848 11.7357 12.0491 11.7298 12.0143L11.6892 11.5273L12.1444 11.9127L12.3209 13.9378C12.3233 13.9714 12.3325 14.0041 12.3478 14.0341C12.3631 14.0641 12.3842 14.0909 12.41 14.1127C12.4357 14.1345 12.4656 14.1511 12.4979 14.1613C12.5301 14.1716 12.5641 14.1754 12.5979 14.1726C12.6654 14.1685 12.7287 14.1384 12.7742 14.0886C12.8197 14.0389 12.8438 13.9734 12.8414 13.9063L12.7126 12.3944L13.0443 12.673L13.3619 13.7942C13.3707 13.8243 13.3883 13.8512 13.4125 13.8715C13.4367 13.8917 13.4663 13.9045 13.4977 13.908L14.8846 14.0569C14.9102 14.06 14.9363 14.0566 14.9603 14.0471C14.9843 14.0377 15.0056 14.0224 15.0222 14.0026C15.0388 13.9827 15.0504 13.9591 15.056 13.9338C15.0615 13.9085 15.0608 13.8822 15.0539 13.8572L14.6728 12.5153C14.6644 12.4849 14.6469 12.4578 14.6227 12.4375C14.5984 12.4171 14.5685 12.4046 14.537 12.4014L13.3707 12.2753L13.046 12.002L14.5599 11.8741C14.6285 11.8683 14.6919 11.8357 14.7362 11.7835C14.7806 11.7312 14.8022 11.6637 14.7963 11.5956C14.7905 11.5275 14.7576 11.4646 14.705 11.4205C14.6524 11.3765 14.5843 11.355 14.5158 11.3608L12.4903 11.536L12.035 11.1506L12.5203 11.1103C12.5882 11.104 12.651 11.0714 12.6949 11.0194C12.7388 10.9675 12.7602 10.9005 12.7547 10.8329C12.7491 10.7653 12.7169 10.7027 12.6651 10.6585C12.6133 10.6144 12.546 10.5923 12.4779 10.597L11.4793 10.6811L10.7735 10.0855L12.2256 9.96286L12.6791 10.52C12.699 10.5433 12.7251 10.5606 12.7544 10.5699C12.7837 10.5792 12.8151 10.5801 12.8449 10.5725L13.713 10.3325C13.7386 10.3254 13.7621 10.312 13.7812 10.2936C13.8003 10.2752 13.8146 10.2524 13.8226 10.2272C13.8307 10.202 13.8323 10.1753 13.8273 10.1493C13.8223 10.1233 13.8109 10.099 13.7942 10.0785L13.2243 9.37774C13.2049 9.35372 13.1788 9.33591 13.1493 9.32656C13.1198 9.3172 13.0882 9.31673 13.0584 9.32519L12.4232 9.50037L11.2534 8.52459L12.178 8.44751L12.942 9.09394C12.995 9.13599 13.0624 9.15617 13.13 9.1503C13.1977 9.14443 13.2605 9.11296 13.3054 9.06241C13.3496 9.01013 13.3711 8.94256 13.3651 8.87457C13.3592 8.80657 13.3263 8.7437 13.2737 8.69977L12.9014 8.38619L13.496 8.33539L15.0504 9.64578C15.1028 9.68945 15.1706 9.71066 15.2387 9.70475C15.3069 9.69884 15.3699 9.66628 15.4139 9.61424C15.4579 9.56221 15.4792 9.49495 15.4733 9.42727C15.4673 9.35959 15.4345 9.29704 15.3821 9.25336L14.2211 8.27407L14.6499 8.23729L15.6715 8.80839C15.6991 8.8237 15.7307 8.83038 15.7621 8.82757C15.7936 8.82476 15.8235 8.81258 15.8479 8.79262L16.9348 7.9167C16.9547 7.90012 16.9704 7.87909 16.9805 7.85534C16.9906 7.83158 16.9949 7.80578 16.993 7.78005C16.991 7.75509 16.9833 7.73091 16.9704 7.70936C16.9576 7.6878 16.94 7.66944 16.9189 7.65567ZM8.13749 7.31931C8.0852 7.3355 8.03393 7.35481 7.98398 7.37712L7.88871 7.42267C7.83534 7.45225 7.78459 7.48624 7.73697 7.52428L7.11238 6.99872L6.99239 5.59724L8.06868 6.5047L8.13749 7.31931ZM7.90636 9.59672C7.9548 9.62322 8.00489 9.64663 8.05633 9.6668L8.16395 9.70184C8.22187 9.71801 8.28082 9.7303 8.34039 9.73863L8.40921 10.541L7.50054 11.6184L7.38056 10.2169L7.90636 9.59672ZM8.52565 9.23234H8.4392C8.29303 9.22076 8.15391 9.16514 8.04044 9.07292C8.0273 9.06404 8.01544 9.05343 8.00516 9.04139C7.89795 8.94691 7.82224 8.82225 7.78813 8.68401C7.78011 8.64235 7.77481 8.60022 7.77226 8.55788C7.75617 8.38777 7.80323 8.21769 7.90459 8.07962C7.96548 7.99438 8.04441 7.9234 8.13585 7.87165C8.22728 7.8199 8.32902 7.78864 8.43391 7.78005C8.5028 7.77341 8.57228 7.77636 8.64034 7.78881C8.75795 7.81131 8.86785 7.86316 8.9597 7.93947L8.9791 7.95524C9.06914 8.03327 9.13775 8.13273 9.17848 8.24429C9.1986 8.30099 9.21221 8.35975 9.21906 8.41948V8.44926C9.23222 8.60623 9.19318 8.76316 9.10791 8.89598C9.08488 8.92877 9.06013 8.96035 9.0338 8.99058C8.91622 9.12353 8.75234 9.20739 8.57506 9.22533C8.55889 9.2297 8.54235 9.23263 8.52565 9.23409V9.23234ZM9.08144 7.40515C9.03156 7.37963 8.98032 7.35682 8.92794 7.33683L8.83267 7.30705H8.8062L8.72856 7.28778L8.64916 7.27727L8.58035 6.46441L9.48902 5.38351L9.60723 6.785L9.08144 7.40515ZM8.85384 9.69658C8.90758 9.68057 8.96006 9.66067 9.01086 9.63702L9.1132 9.58446C9.16532 9.55444 9.21541 9.52108 9.26317 9.48461L9.87895 10.0102L9.99717 11.4116L8.92264 10.5059L8.85384 9.69658ZM9.68486 8.14268C9.68486 8.11816 9.67075 8.09363 9.66193 8.07086C9.65476 8.05116 9.64653 8.03186 9.63723 8.01305L9.57724 7.88867C9.54743 7.8361 9.51382 7.78575 9.47667 7.73801L10.006 7.11785L11.4175 6.99872L10.5106 8.07436L9.68486 8.14268ZM6.7789 7.38939L7.4035 7.91494C7.37778 7.96387 7.35481 8.01416 7.33468 8.0656L7.30116 8.16896C7.28361 8.22616 7.27122 8.28478 7.26411 8.34415L6.45425 8.41247L5.3762 7.50501L6.7789 7.38939ZM6.48954 8.92927L7.29764 8.85919C7.31443 8.9129 7.33446 8.96555 7.35762 9.01686L7.40703 9.11321C7.43723 9.1665 7.47144 9.21745 7.50937 9.26562L6.98005 9.88403L5.56853 10.0032L6.48954 8.92927ZM10.2071 9.61424L9.58782 9.08869C9.61386 9.03872 9.63684 8.98724 9.65664 8.93452L9.6884 8.82941C9.70447 8.77196 9.71627 8.7134 9.72369 8.65423L10.5318 8.58591L11.6081 9.49512L10.2071 9.61424Z" fill="white"/>
<path d="M73.9189 40.6557L72.7015 39.9759C72.6738 39.9611 72.6422 39.9547 72.6109 39.9575C72.5795 39.9603 72.5496 39.9722 72.525 39.9917L71.6058 40.7257L71.177 40.7625L72.1563 39.6011C72.1806 39.5751 72.1991 39.5444 72.2106 39.5109C72.2222 39.4774 72.2265 39.4419 72.2233 39.4066C72.2195 39.3561 72.2006 39.308 72.1691 39.2683C72.1375 39.2285 72.0948 39.1991 72.0462 39.1836C71.9977 39.1682 71.9457 39.1675 71.8967 39.1816C71.8478 39.1958 71.8042 39.2241 71.7716 39.2629L70.4607 40.8151L69.8643 40.8659L70.1801 40.4927C70.2243 40.4406 70.2459 40.3732 70.2401 40.3053C70.2359 40.2549 70.2166 40.2069 70.1849 40.1673C70.1531 40.1278 70.1103 40.0984 70.0617 40.0831C70.0132 40.0677 69.9612 40.067 69.9122 40.0809C69.8632 40.0949 69.8196 40.123 69.7867 40.1616L69.1356 40.9342L68.2146 41.013L69.1833 39.8656L69.8467 39.9339C69.8773 39.9363 69.908 39.93 69.9352 39.9157C69.9624 39.9014 69.9849 39.8798 70.0002 39.8533L70.4448 39.0702C70.457 39.047 70.4634 39.0211 70.4634 38.9949C70.4634 38.9687 70.457 38.9428 70.4448 38.9196C70.4328 38.896 70.4151 38.8758 70.3932 38.8608C70.3713 38.8458 70.346 38.8365 70.3195 38.8337L69.4232 38.7426C69.3926 38.7403 69.3619 38.7466 69.3347 38.7608C69.3075 38.7751 69.285 38.7967 69.2697 38.8232L68.9168 39.4399L67.4577 39.5643L68.054 38.8635L69.0527 38.7794C69.1209 38.7732 69.1839 38.7404 69.2279 38.6882C69.2719 38.636 69.2932 38.5687 69.2874 38.5009C69.2849 38.4673 69.2758 38.4346 69.2605 38.4046C69.2452 38.3746 69.224 38.3479 69.1983 38.326C69.1725 38.3042 69.1426 38.2876 69.1104 38.2774C69.0781 38.2671 69.0441 38.2633 69.0103 38.2661L68.5234 38.3082L68.9098 37.8509L70.9335 37.6758C70.9673 37.6729 71.0001 37.6635 71.0301 37.648C71.0602 37.6325 71.0868 37.6113 71.1086 37.5856C71.1304 37.5599 71.1469 37.5302 71.1571 37.4982C71.1673 37.4662 71.1711 37.4324 71.1682 37.399C71.1641 37.332 71.1337 37.2694 71.0835 37.2245C71.0334 37.1796 70.9675 37.1561 70.9 37.159L69.3862 37.2869L69.6649 36.9628L70.7959 36.6422C70.8263 36.6334 70.8534 36.6159 70.8738 36.5919C70.8942 36.5679 70.907 36.5385 70.9106 36.5073L71.0606 35.1198C71.0631 35.0939 71.0593 35.0678 71.0495 35.0437C71.0396 35.0196 71.0241 34.9982 71.0041 34.9814C70.9843 34.9651 70.9608 34.9538 70.9356 34.9483C70.9105 34.9428 70.8843 34.9434 70.8594 34.9499L69.5185 35.3318C69.4879 35.3401 69.4605 35.3575 69.4401 35.3816C69.4196 35.4056 69.407 35.4353 69.4038 35.4667L69.2785 36.6247L68.9962 36.954L68.8674 35.4404C68.8652 35.4066 68.8562 35.3736 68.8411 35.3433C68.8259 35.313 68.8048 35.286 68.779 35.2638C68.7533 35.2417 68.7233 35.2248 68.691 35.2142C68.6586 35.2036 68.6244 35.1995 68.5904 35.2021C68.5222 35.2084 68.4592 35.2412 68.4152 35.2934C68.3713 35.3455 68.3499 35.4129 68.3558 35.4807L68.5322 37.5058L68.1458 37.9613L68.0999 37.4796C68.0945 37.412 68.0623 37.3493 68.0104 37.3052C67.9584 37.2612 67.891 37.2395 67.8229 37.2448C67.7547 37.251 67.6917 37.2838 67.6477 37.336C67.6037 37.3882 67.5824 37.4556 67.5882 37.5234L67.6729 38.5219L67.0766 39.2227L66.9513 37.7528L67.4806 37.3131C67.505 37.2936 67.523 37.2675 67.5324 37.2379C67.5418 37.2082 67.5422 37.1765 67.5335 37.1467L67.2936 36.2795C67.2867 36.2543 67.2736 36.2311 67.2554 36.2122C67.2372 36.1932 67.2145 36.179 67.1895 36.1709C67.1641 36.1632 67.1371 36.1617 67.111 36.1666C67.0849 36.1715 67.0604 36.1826 67.0395 36.199L66.3426 36.7683C66.3187 36.7878 66.3011 36.8137 66.2917 36.8429C66.2823 36.8721 66.2816 36.9034 66.2896 36.933L66.4661 37.5934L65.5186 38.7356L65.441 37.8124L66.0867 37.0468C66.1089 37.0212 66.1256 36.9914 66.1359 36.9592C66.1462 36.927 66.1499 36.893 66.1467 36.8594C66.1443 36.8257 66.1351 36.7928 66.1196 36.7627C66.1042 36.7326 66.0828 36.7059 66.0567 36.6842C66.0052 36.6432 65.9397 36.6236 65.8739 36.6295C65.8081 36.6354 65.7472 36.6663 65.7039 36.7157L65.388 37.0871L65.3386 36.4933L66.6496 34.9394C66.6936 34.8871 66.7151 34.8198 66.7096 34.7519C66.7029 34.684 66.67 34.6212 66.6178 34.5767C66.5663 34.5358 66.5008 34.5162 66.435 34.522C66.3692 34.5279 66.3083 34.5588 66.2649 34.6083L65.2857 35.768L65.2504 35.3511L65.8062 34.3262C65.8214 34.2989 65.8282 34.2677 65.8256 34.2365C65.8231 34.2054 65.8115 34.1756 65.7921 34.151L64.9099 33.0649C64.894 33.0447 64.8732 33.0288 64.8494 33.0187C64.8257 33.0086 64.7997 33.0046 64.774 33.0071C64.7479 33.0086 64.7227 33.0169 64.7007 33.031C64.6788 33.0451 64.6609 33.0646 64.6488 33.0877L63.9694 34.314C63.9543 34.3413 63.9475 34.3725 63.95 34.4037C63.9525 34.4348 63.9642 34.4645 63.9836 34.4891L64.7246 35.3773L64.7617 35.8083L63.6007 34.829C63.5486 34.7856 63.4814 34.7643 63.4137 34.7699C63.3459 34.7755 63.2831 34.8074 63.239 34.8588C63.1947 34.9116 63.1731 34.9795 63.179 35.048C63.1814 35.0817 63.1906 35.1145 63.2061 35.1446C63.2216 35.1747 63.2429 35.2014 63.269 35.2232L64.8217 36.5336L64.8728 37.1292L64.5005 36.8139C64.4746 36.7922 64.4446 36.7758 64.4123 36.7657C64.38 36.7555 64.346 36.7518 64.3122 36.7547C64.2785 36.7576 64.2456 36.7672 64.2155 36.7827C64.1855 36.7983 64.1588 36.8196 64.1371 36.8454C64.1152 36.8711 64.0987 36.901 64.0887 36.9332C64.0787 36.9654 64.0754 36.9993 64.0789 37.0328C64.0813 37.0665 64.0905 37.0994 64.1059 37.1295C64.1214 37.1596 64.1428 37.1863 64.1688 37.208L64.9346 37.8545L65.0122 38.7742L63.8601 37.8089L63.8424 37.7931L63.9059 37.1292C63.9093 37.0986 63.9036 37.0677 63.8895 37.0403C63.8753 37.0129 63.8535 36.9902 63.8265 36.975L63.0431 36.5318C63.02 36.5189 62.9938 36.5121 62.9673 36.5121C62.9407 36.5121 62.9146 36.5189 62.8914 36.5318C62.868 36.5439 62.848 36.5616 62.8332 36.5833C62.8184 36.6051 62.8093 36.6301 62.8067 36.6562L62.7167 37.5531C62.7134 37.5837 62.7191 37.6146 62.7332 37.642C62.7473 37.6694 62.7692 37.6921 62.7961 37.7073L63.4331 38.0682L63.5566 39.5257L62.8508 38.9283L62.7661 37.9298C62.7636 37.8961 62.7545 37.8632 62.7391 37.8331C62.7238 37.8029 62.7025 37.7761 62.6767 37.7541C62.6508 37.7322 62.6208 37.7155 62.5885 37.7051C62.5561 37.6947 62.522 37.6908 62.488 37.6936C62.4541 37.6964 62.4211 37.7058 62.3909 37.7213C62.3607 37.7368 62.3338 37.7581 62.312 37.784C62.2901 37.8099 62.2736 37.8398 62.2634 37.872C62.2532 37.9043 62.2496 37.9382 62.2527 37.9718L62.295 38.4588L61.8381 38.0734L61.6616 36.0483C61.6558 35.9805 61.6232 35.9178 61.571 35.8739C61.5187 35.8299 61.4511 35.8082 61.3828 35.8135C61.3491 35.8166 61.3163 35.8263 61.2864 35.8419C61.2564 35.8576 61.2299 35.879 61.2082 35.9049C61.1866 35.9307 61.1703 35.9606 61.1603 35.9927C61.1503 36.0248 61.1468 36.0586 61.1499 36.0921L61.277 37.6039L60.9594 37.3359L60.6383 36.2042C60.6294 36.174 60.6118 36.1472 60.5877 36.1269C60.5635 36.1066 60.5338 36.0939 60.5024 36.0903L59.1156 35.9414C59.0899 35.9381 59.0637 35.9413 59.0396 35.9508C59.0156 35.9603 58.9943 35.9758 58.978 35.9957C58.9613 36.0157 58.9497 36.0393 58.9442 36.0646C58.9386 36.0899 58.9393 36.1162 58.9462 36.1411L59.3308 37.4796C59.3395 37.5098 59.357 37.5368 59.3812 37.5571C59.4054 37.5774 59.4352 37.5901 59.4667 37.5934L60.6242 37.7196L60.9488 38.0051L59.4314 38.1295C59.3631 38.1351 59.2998 38.1674 59.2555 38.2193C59.2111 38.2712 59.1894 38.3385 59.195 38.4063C59.2006 38.4741 59.2331 38.537 59.2854 38.581C59.3377 38.625 59.4054 38.6466 59.4738 38.641L61.4993 38.4659L61.9563 38.8513L61.4693 38.8933C61.405 38.9039 61.347 38.9383 61.307 38.9894C61.267 39.0405 61.2479 39.1048 61.2535 39.1693C61.259 39.2338 61.2889 39.2939 61.3371 39.3375C61.3852 39.3812 61.4482 39.4052 61.5134 39.4048L62.5121 39.3208L63.2178 39.9164L61.7304 40.0425L61.2823 39.4942C61.2629 39.4702 61.2369 39.4524 61.2074 39.443C61.1778 39.4337 61.1462 39.4332 61.1164 39.4416L60.2483 39.6816C60.224 39.69 60.202 39.7039 60.1842 39.7223C60.1664 39.7408 60.1532 39.7631 60.1458 39.7876C60.1384 39.8121 60.1369 39.8379 60.1416 39.8631C60.1462 39.8882 60.1568 39.9119 60.1725 39.9322L60.7424 40.6329C60.762 40.6566 60.7881 40.6741 60.8175 40.6834C60.8469 40.6928 60.8784 40.6935 60.9082 40.6855L61.5752 40.4998L62.7238 41.4685L61.801 41.5474L61.0353 40.9009C60.9838 40.8602 60.9185 40.8405 60.8528 40.8461C60.7872 40.8516 60.7262 40.8819 60.6824 40.9307C60.6384 40.983 60.6169 41.0503 60.6225 41.1181C60.6282 41.186 60.6604 41.2489 60.7124 41.2933L61.0864 41.6087L60.4901 41.6665L58.9374 40.3561C58.8858 40.3151 58.8203 40.2955 58.7546 40.3014C58.6888 40.3073 58.6279 40.3382 58.5845 40.3876C58.5405 40.4399 58.5189 40.5072 58.5245 40.5751C58.5267 40.6088 58.5359 40.6418 58.5513 40.6719C58.5668 40.702 58.5883 40.7287 58.6145 40.7503L59.7755 41.7296L59.3555 41.7663L58.334 41.1952C58.3064 41.1799 58.2748 41.1732 58.2433 41.1761C58.2118 41.1789 58.1819 41.1911 58.1575 41.211L57.0724 42.0869C57.052 42.1031 57.0358 42.1241 57.0253 42.1479C57.0149 42.1717 57.0104 42.1977 57.0124 42.2236C57.015 42.2495 57.0236 42.2744 57.0377 42.2963C57.0518 42.3183 57.071 42.3365 57.0936 42.3497L58.311 43.0294C58.3388 43.0443 58.3703 43.0507 58.4016 43.0479C58.433 43.0451 58.4629 43.0332 58.4875 43.0137L59.3997 42.2796L59.8178 42.2446L58.8386 43.4043C58.8167 43.43 58.8001 43.4597 58.7897 43.4917C58.7794 43.5237 58.7755 43.5574 58.7783 43.5909C58.7811 43.6244 58.7905 43.6571 58.806 43.687C58.8215 43.7169 58.8427 43.7435 58.8686 43.7652C58.8944 43.787 58.9243 43.8034 58.9566 43.8137C58.9888 43.824 59.0228 43.8278 59.0565 43.8251C59.0903 43.8223 59.1231 43.813 59.1533 43.7976C59.1834 43.7822 59.2101 43.7611 59.232 43.7354L60.543 42.1833L61.1376 42.1325L60.8235 42.5056C60.7905 42.5272 60.7629 42.5561 60.7429 42.59C60.7229 42.6238 60.7111 42.6618 60.7083 42.701C60.7054 42.7402 60.7117 42.7794 60.7267 42.8158C60.7416 42.8522 60.7648 42.8846 60.7944 42.9107C60.824 42.9367 60.8592 42.9556 60.8973 42.966C60.9355 42.9763 60.9755 42.9778 61.0143 42.9703C61.0531 42.9628 61.0897 42.9466 61.1212 42.9228C61.1527 42.899 61.1782 42.8684 61.1958 42.8332L61.8433 42.0677L62.7626 41.9906L61.7957 43.1363L61.7851 43.1503L61.1111 43.0855C61.0803 43.0822 61.0492 43.0878 61.0216 43.1019C60.994 43.1159 60.9712 43.1376 60.9559 43.1643L60.513 43.9474C60.5003 43.9708 60.4937 43.997 60.4937 44.0236C60.4937 44.0502 60.5003 44.0764 60.513 44.0998C60.5252 44.1231 60.543 44.1429 60.5649 44.1576C60.5868 44.1723 60.612 44.1813 60.6383 44.1839L61.5346 44.275C61.5651 44.278 61.5958 44.2721 61.6231 44.2581C61.6503 44.2441 61.6729 44.2226 61.6881 44.1962L62.041 43.569L63.5248 43.4446L62.9267 44.1454L61.928 44.2312C61.8637 44.2418 61.8058 44.2762 61.7658 44.3273C61.7258 44.3785 61.7067 44.4427 61.7122 44.5072C61.7178 44.5717 61.7476 44.6318 61.7958 44.6754C61.844 44.7191 61.9069 44.7431 61.9722 44.7427L62.4574 44.7025L62.078 45.1597L60.0525 45.3349C59.9882 45.3455 59.9302 45.3798 59.8902 45.431C59.8502 45.4821 59.8311 45.5463 59.8367 45.6109C59.8422 45.6754 59.8721 45.7354 59.9202 45.7791C59.9684 45.8228 60.0314 45.8468 60.0966 45.8464L61.6016 45.7133L61.3264 46.0409L60.2078 46.358C60.1773 46.3665 60.1501 46.3839 60.1296 46.408C60.1092 46.432 60.0964 46.4616 60.0931 46.4929L59.9431 47.8803C59.9391 47.9065 59.9418 47.9332 59.9509 47.9581C59.96 47.983 59.9753 48.0051 59.9954 48.0226C60.0154 48.04 60.0395 48.0522 60.0656 48.058C60.0916 48.0637 60.1186 48.0629 60.1442 48.0555L61.4852 47.6736C61.5158 47.6653 61.5431 47.6479 61.5636 47.6238C61.5841 47.5997 61.5967 47.5701 61.5999 47.5387L61.7269 46.3702L61.9951 46.0514L62.1239 47.5632C62.1263 47.5968 62.1355 47.6295 62.1508 47.6595C62.1661 47.6896 62.1872 47.7163 62.213 47.7381C62.2387 47.7599 62.2686 47.7765 62.3009 47.7868C62.3332 47.797 62.3671 47.8009 62.4009 47.798C62.4691 47.7918 62.5321 47.759 62.5761 47.7068C62.6201 47.6546 62.6414 47.5872 62.6356 47.5194L62.4591 45.4943L62.8438 45.0388L62.8843 45.5258C62.8902 45.5934 62.9229 45.656 62.9751 45.6997C63.0274 45.7433 63.095 45.7646 63.1631 45.7588C63.2312 45.753 63.2942 45.7206 63.3382 45.6687C63.3822 45.6168 63.4036 45.5496 63.3978 45.482L63.3131 44.487L63.9095 43.7862L64.033 45.2508L63.4666 45.7133C63.4426 45.7326 63.4248 45.7585 63.4154 45.7878C63.406 45.817 63.4054 45.8484 63.4137 45.8779L63.6536 46.7539C63.6607 46.7795 63.6741 46.803 63.6926 46.8223C63.7111 46.8415 63.734 46.8559 63.7595 46.8642C63.7847 46.8721 63.8115 46.8734 63.8374 46.8682C63.8634 46.863 63.8875 46.8514 63.9077 46.8345L64.6135 46.2651C64.6378 46.2461 64.6559 46.2202 64.6654 46.1908C64.6748 46.1615 64.6752 46.13 64.6664 46.1004L64.4899 45.4558L64.5076 45.4382L65.4763 44.289L65.5557 45.2105L64.9011 45.955C64.8568 46.0078 64.8352 46.0758 64.8411 46.1442C64.8453 46.1946 64.8646 46.2427 64.8963 46.2822C64.9281 46.3218 64.9709 46.3511 65.0195 46.3665C65.068 46.3818 65.12 46.3826 65.169 46.3686C65.218 46.3546 65.2616 46.3265 65.2945 46.2879L65.6068 45.9147L65.658 46.5104L64.347 48.0625C64.3031 48.1148 64.2816 48.1821 64.2872 48.2499C64.2928 48.3178 64.3251 48.3807 64.377 48.4251C64.4294 48.4687 64.4969 48.49 64.5649 48.4844C64.633 48.4788 64.6961 48.4468 64.7405 48.3954L65.7197 47.2339L65.755 47.6648L65.1887 48.6792C65.1741 48.7068 65.1679 48.738 65.1707 48.7691C65.1736 48.8001 65.1853 48.8297 65.2045 48.8544L66.0867 49.9405C66.1026 49.9607 66.1234 49.9766 66.1472 49.9867C66.1709 49.9968 66.1969 50.0008 66.2226 49.9983C66.2486 49.9964 66.2737 49.988 66.2956 49.9739C66.3175 49.9599 66.3355 49.9405 66.3479 49.9177L67.0272 48.6914C67.0424 48.6641 67.0491 48.6329 67.0466 48.6017C67.0441 48.5706 67.0324 48.5409 67.013 48.5162L66.2738 47.5983L66.2385 47.1813L67.3959 48.1659C67.4208 48.1926 67.451 48.2137 67.4847 48.2279C67.5184 48.242 67.5548 48.2489 67.5914 48.248C67.628 48.2472 67.664 48.2386 67.6969 48.2228C67.7299 48.207 67.7591 48.1845 67.7826 48.1566C67.8061 48.1288 67.8234 48.0962 67.8332 48.0612C67.8431 48.0262 67.8453 47.9896 67.8398 47.9536C67.8343 47.9177 67.8211 47.8834 67.8011 47.8529C67.7812 47.8225 67.7549 47.7966 67.7241 47.777L66.1714 46.4666L66.122 45.8709L66.489 46.1863C66.5281 46.2187 66.576 46.2389 66.6266 46.2443C66.6773 46.2496 66.7284 46.24 66.7735 46.2166C66.8186 46.1932 66.8558 46.157 66.8802 46.1126C66.9046 46.0682 66.9152 46.0177 66.9107 45.9673C66.9085 45.9336 66.8994 45.9006 66.8839 45.8705C66.8684 45.8404 66.8469 45.8137 66.8207 45.7921L66.055 45.1457L65.9773 44.2242L67.1189 45.1877L67.0483 45.8744C67.0452 45.905 67.051 45.9358 67.0651 45.9632C67.0792 45.9905 67.1009 46.0132 67.1277 46.0286L67.9111 46.4736C67.9345 46.4857 67.9606 46.492 67.987 46.492C68.0134 46.492 68.0394 46.4857 68.0629 46.4736C68.0863 46.4611 68.1063 46.443 68.1211 46.421C68.1358 46.399 68.1449 46.3738 68.1476 46.3474L68.2393 45.4522C68.2424 45.4217 68.2366 45.3909 68.2225 45.3635C68.2084 45.3362 68.1867 45.3135 68.1599 45.2981L67.553 44.9477L67.4277 43.4621L68.1334 44.0595L68.2181 45.0581C68.2184 45.0934 68.2259 45.1283 68.2404 45.1605C68.2549 45.1928 68.2759 45.2217 68.3022 45.2455C68.3285 45.2692 68.3594 45.2874 68.3931 45.2987C68.4268 45.31 68.4624 45.3143 68.4979 45.3113C68.5333 45.3082 68.5677 45.298 68.5989 45.2811C68.6301 45.2642 68.6575 45.2411 68.6793 45.2132C68.7011 45.1853 68.7168 45.1532 68.7255 45.119C68.7342 45.0848 68.7357 45.0491 68.7298 45.0143L68.6892 44.5273L69.1444 44.9127L69.3209 46.9378C69.3233 46.9714 69.3325 47.0041 69.3478 47.0341C69.3631 47.0641 69.3842 47.0909 69.41 47.1127C69.4357 47.1345 69.4656 47.1511 69.4979 47.1613C69.5301 47.1716 69.5641 47.1754 69.5979 47.1726C69.6654 47.1685 69.7287 47.1384 69.7742 47.0886C69.8197 47.0389 69.8438 46.9734 69.8414 46.9063L69.7126 45.3944L70.0443 45.673L70.3619 46.7942C70.3707 46.8243 70.3883 46.8512 70.4125 46.8715C70.4367 46.8917 70.4663 46.9045 70.4977 46.908L71.8846 47.0569C71.9102 47.06 71.9363 47.0566 71.9603 47.0471C71.9843 47.0377 72.0056 47.0224 72.0222 47.0026C72.0388 46.9827 72.0504 46.9591 72.056 46.9338C72.0615 46.9085 72.0608 46.8822 72.0539 46.8572L71.6728 45.5153C71.6644 45.4849 71.6469 45.4578 71.6227 45.4375C71.5984 45.4171 71.5685 45.4046 71.537 45.4014L70.3707 45.2753L70.046 45.002L71.5599 44.8741C71.6285 44.8683 71.6919 44.8357 71.7362 44.7835C71.7806 44.7312 71.8022 44.6637 71.7963 44.5956C71.7905 44.5275 71.7576 44.4646 71.705 44.4205C71.6524 44.3765 71.5843 44.355 71.5158 44.3608L69.4903 44.536L69.035 44.1506L69.5203 44.1103C69.5882 44.104 69.651 44.0714 69.6949 44.0194C69.7388 43.9675 69.7602 43.9005 69.7547 43.8329C69.7491 43.7653 69.7169 43.7027 69.6651 43.6585C69.6133 43.6144 69.546 43.5923 69.4779 43.597L68.4793 43.6811L67.7735 43.0855L69.2256 42.9629L69.6791 43.52C69.699 43.5433 69.7251 43.5606 69.7544 43.5699C69.7837 43.5792 69.8151 43.5801 69.8449 43.5725L70.713 43.3325C70.7386 43.3254 70.7621 43.312 70.7812 43.2936C70.8003 43.2752 70.8146 43.2524 70.8226 43.2272C70.8307 43.202 70.8323 43.1753 70.8273 43.1493C70.8223 43.1233 70.8109 43.099 70.7942 43.0785L70.2243 42.3777C70.2049 42.3537 70.1788 42.3359 70.1493 42.3266C70.1198 42.3172 70.0882 42.3167 70.0584 42.3252L69.4232 42.5004L68.2534 41.5246L69.178 41.4475L69.942 42.0939C69.995 42.136 70.0624 42.1562 70.13 42.1503C70.1977 42.1444 70.2605 42.113 70.3054 42.0624C70.3496 42.0101 70.3711 41.9426 70.3651 41.8746C70.3592 41.8066 70.3263 41.7437 70.2737 41.6998L69.9014 41.3862L70.496 41.3354L72.0504 42.6458C72.1028 42.6895 72.1706 42.7107 72.2387 42.7048C72.3069 42.6988 72.3699 42.6663 72.4139 42.6142C72.4579 42.5622 72.4792 42.495 72.4733 42.4273C72.4673 42.3596 72.4345 42.297 72.3821 42.2534L71.2211 41.2741L71.6499 41.2373L72.6715 41.8084C72.6991 41.8237 72.7307 41.8304 72.7621 41.8276C72.7936 41.8248 72.8235 41.8126 72.8479 41.7926L73.9348 40.9167C73.9547 40.9001 73.9704 40.8791 73.9805 40.8553C73.9906 40.8316 73.9949 40.8058 73.993 40.7801C73.991 40.7551 73.9833 40.7309 73.9704 40.7094C73.9576 40.6878 73.94 40.6694 73.9189 40.6557ZM65.1375 40.3193C65.0852 40.3355 65.0339 40.3548 64.984 40.3771L64.8887 40.4227C64.8353 40.4523 64.7846 40.4862 64.737 40.5243L64.1124 39.9987L63.9924 38.5972L65.0687 39.5047L65.1375 40.3193ZM64.9064 42.5967C64.9548 42.6232 65.0049 42.6466 65.0563 42.6668L65.164 42.7018C65.2219 42.718 65.2808 42.7303 65.3404 42.7386L65.4092 43.541L64.5005 44.6184L64.3806 43.2169L64.9064 42.5967ZM65.5257 42.2323H65.4392C65.293 42.2208 65.1539 42.1651 65.0404 42.0729C65.0273 42.064 65.0154 42.0534 65.0052 42.0414C64.8979 41.9469 64.8222 41.8223 64.7881 41.684C64.7801 41.6423 64.7748 41.6002 64.7723 41.5579C64.7562 41.3878 64.8032 41.2177 64.9046 41.0796C64.9655 40.9944 65.0444 40.9234 65.1358 40.8717C65.2273 40.8199 65.329 40.7886 65.4339 40.7801C65.5028 40.7734 65.5723 40.7764 65.6403 40.7888C65.7579 40.8113 65.8678 40.8632 65.9597 40.9395L65.9791 40.9552C66.0691 41.0333 66.1377 41.1327 66.1785 41.2443C66.1986 41.301 66.2122 41.3598 66.2191 41.4195V41.4493C66.2322 41.6062 66.1932 41.7632 66.1079 41.896C66.0849 41.9288 66.0601 41.9603 66.0338 41.9906C65.9162 42.1235 65.7523 42.2074 65.5751 42.2253C65.5589 42.2297 65.5423 42.2326 65.5257 42.2341V42.2323ZM66.0814 40.4052C66.0316 40.3796 65.9803 40.3568 65.9279 40.3368L65.8327 40.3071H65.8062L65.7286 40.2878L65.6492 40.2773L65.5803 39.4644L66.489 38.3835L66.6072 39.785L66.0814 40.4052ZM65.8538 42.6966C65.9076 42.6806 65.9601 42.6607 66.0109 42.637L66.1132 42.5845C66.1653 42.5544 66.2154 42.5211 66.2632 42.4846L66.879 43.0102L66.9972 44.4116L65.9226 43.5059L65.8538 42.6966ZM66.6849 41.1427C66.6849 41.1182 66.6707 41.0936 66.6619 41.0709C66.6548 41.0512 66.6465 41.0319 66.6372 41.013L66.5772 40.8887C66.5474 40.8361 66.5138 40.7857 66.4767 40.738L67.006 40.1179L68.4175 39.9987L67.5106 41.0744L66.6849 41.1427ZM63.7789 40.3894L64.4035 40.9149C64.3778 40.9639 64.3548 41.0142 64.3347 41.0656L64.3012 41.169C64.2836 41.2262 64.2712 41.2848 64.2641 41.3441L63.4542 41.4125L62.3762 40.505L63.7789 40.3894ZM63.4895 41.9293L64.2976 41.8592C64.3144 41.9129 64.3345 41.9655 64.3576 42.0169L64.407 42.1132C64.4372 42.1665 64.4714 42.2175 64.5094 42.2656L63.98 42.884L62.5685 43.0032L63.4895 41.9293ZM67.2071 42.6142L66.5878 42.0887C66.6139 42.0387 66.6368 41.9872 66.6566 41.9345L66.6884 41.8294C66.7045 41.772 66.7163 41.7134 66.7237 41.6542L67.5318 41.5859L68.6081 42.4951L67.2071 42.6142Z" fill="white"/>
</svg>
