<svg width="66" height="42" viewBox="0 0 66 42" fill="none" xmlns="http://www.w3.org/2000/svg">
<path d="M33.6455 0.0529865C32.652 -0.00470961 31.6538 9.81063e-05 30.6555 9.81063e-05C24.5294 9.81063e-05 18.5303 4.46193 16.7834 10.3373C16.5075 11.2677 16.0635 11.4912 15.0509 11.4359C13.1672 11.3326 11.1612 11.1763 9.39745 11.6932C5.39971 12.8543 2.68576 15.6982 0.938848 19.4413C-0.500914 22.5472 -0.390532 25.5931 2.01147 28.1221C5.74525 32.0527 10.0669 35.3341 15.1277 37.3102C19.8957 39.1781 24.7861 40.7503 29.9165 41.5172C33.2063 41.998 35.3204 40.873 36.2154 37.642C37.3288 33.6153 38.5142 29.6078 39.7428 25.622C41.0818 21.2755 42.5168 16.9675 42.6224 12.2749C42.2792 10.2868 42.092 8.25784 41.5617 6.32262C40.4747 2.37285 37.7368 0.281367 33.6455 0.0529865ZM8.56959 24.2084C7.05064 23.4704 7.01704 22.4439 8.56959 21.3236V24.2084ZM18.5351 21.2034H18.5063C18.2424 24.0161 17.9928 26.8288 17.6929 29.6342C17.6665 29.8963 17.3185 30.115 17.1194 30.3554C16.6395 29.8915 15.9388 29.4996 15.7732 28.9467C15.586 28.3192 15.9796 27.5428 15.958 26.8336C15.8884 24.7301 15.7636 22.6266 15.6124 20.5255C15.5188 19.2441 17.009 18.107 18.1824 18.6696C18.4224 18.785 18.6095 19.2249 18.6335 19.5302C18.6428 20.0896 18.61 20.6489 18.5351 21.2034ZM28.9782 33.7475C29.3454 31.9637 29.6717 30.3819 30.0532 28.5212C30.9003 29.8698 30.2308 32.8316 28.9782 33.7475Z" fill="#007BC4"/>
<path d="M65.9924 25.9128C65.9756 24.4704 65.1646 23.581 64.0152 23.4463C62.8657 23.3117 61.9635 23.9776 61.4956 25.3695C61.3372 25.8503 61.1716 26.3095 60.9221 27.0379C60.4422 26.5235 60.0918 26.2326 59.847 25.8648C57.6874 22.6025 54.5271 20.5327 51.2085 18.6696C50.0447 18.0181 48.7729 18.3162 48.089 19.2465C47.4363 20.1264 47.5035 21.3837 48.4129 22.3044C49.0464 22.9463 49.8527 23.4247 50.5726 23.9656C51.7556 24.8407 52.9866 25.6484 54.112 26.5956C54.7191 27.1052 55.151 27.824 55.6621 28.4467L55.463 28.7303L54.3495 28.5404C52.9842 28.3169 51.9619 28.7808 51.554 29.8097C51.1461 30.8386 51.5324 31.9733 52.5738 32.7402C52.9126 33.0195 53.2932 33.2434 53.7017 33.4037C56.6532 34.3461 59.5927 35.3437 62.5802 36.1395C64.2599 36.5866 65.7549 35.4183 65.8413 33.685C65.978 31.1031 66.0188 28.4995 65.9924 25.9128Z" fill="#007BC4"/>
</svg>
