<svg width="310" height="44" viewBox="0 0 310 44" fill="none" xmlns="http://www.w3.org/2000/svg">
<path d="M310 44L310 40.4569C298.136 21.6447 276.778 9.09335 252.401 9.09334C243.148 9.09334 234.33 10.902 226.3 14.1751C214.786 5.30051 200.219 1.71056e-05 184.378 1.57207e-05C164.558 1.39879e-05 146.733 8.2982 134.384 21.5129C125.983 17.8671 116.675 15.84 106.878 15.84C100.037 15.84 93.4331 16.8287 87.2103 18.667C78.1128 14.2306 67.84 11.7333 56.9667 11.7333C33.017 11.7333 11.9807 23.8491 1.64825e-07 42.1146L0 44L310 44Z" fill="#D4EDFD"/>
</svg>
