<svg width="310" height="44" viewBox="0 0 310 44" fill="none" xmlns="http://www.w3.org/2000/svg">
<path d="M310 0L310 3.54314C298.136 22.3553 276.778 34.9067 252.401 34.9067C243.148 34.9067 234.33 33.098 226.3 29.8249C214.786 38.6995 200.219 44 184.378 44C164.558 44 146.733 35.7018 134.384 22.4871C125.983 26.1329 116.675 28.16 106.878 28.16C100.037 28.16 93.4331 27.1713 87.2103 25.333C78.1128 29.7694 67.84 32.2667 56.9667 32.2667C33.017 32.2667 11.9807 20.1509 1.64825e-07 1.88541L0 2.71011e-05L310 0Z" fill="#D4EDFD"/>
</svg>
