<svg width="140" height="429" viewBox="0 0 140 429" fill="none" xmlns="http://www.w3.org/2000/svg">
<g clip-path="url(#clip0_641_566)">
<path fill-rule="evenodd" clip-rule="evenodd" d="M81.7272 27.1081C70.9146 14.0595 70.3587 -0.0045166 70.3587 -0.0045166L70.6195 29.6909C70.6195 29.6909 77.2381 58.9885 91.0826 67.8823C107.409 78.3688 118.854 59.1426 112.025 47.183C104.861 34.6381 91.2087 38.5502 81.7272 27.1081Z" fill="#61B9E9"/>
<path fill-rule="evenodd" clip-rule="evenodd" d="M82.9662 69.9327C70.9745 55.9123 70.3587 40.8053 70.3587 40.8053L70.6484 72.7133C70.6484 72.7133 77.9875 104.189 93.3415 113.743C111.447 125.012 124.14 104.352 116.567 91.5025C108.622 78.0238 93.4816 82.2269 82.9662 69.9327Z" fill="#61B9E9"/>
<path fill-rule="evenodd" clip-rule="evenodd" d="M84.3699 120.322C71.0439 105.168 70.3587 88.8392 70.3587 88.8392L70.6794 123.328C70.6794 123.328 78.8364 157.349 95.8988 167.677C116.022 179.855 130.127 157.526 121.71 143.637C112.882 129.068 96.0559 133.612 84.3699 120.322Z" fill="#61B9E9"/>
<path fill-rule="evenodd" clip-rule="evenodd" d="M86.2557 174.769C71.1359 158.446 70.3587 140.866 70.3587 140.866L70.7243 178.009C70.7243 178.009 79.9782 214.652 99.339 225.775C122.17 238.892 138.175 214.843 128.624 199.884C118.606 184.188 99.5154 189.081 86.2557 174.769Z" fill="#61B9E9"/>
<path fill-rule="evenodd" clip-rule="evenodd" d="M88.4805 234.283C71.2418 215.308 70.3555 194.854 70.3555 194.854L70.7725 238.048C70.7725 238.048 81.3242 280.656 103.398 293.591C129.429 308.843 147.678 280.877 136.789 263.484C125.37 245.236 103.601 250.926 88.4805 234.283Z" fill="#61B9E9"/>
<path fill-rule="evenodd" clip-rule="evenodd" d="M58.2728 27.1081C69.0854 14.0595 69.6413 -0.0045166 69.6413 -0.0045166L69.3794 29.6909C69.3794 29.6909 62.7618 58.9851 48.9174 67.8777C32.5906 78.3642 21.1451 59.138 27.9754 47.1784C35.1392 34.638 48.7912 38.5502 58.2728 27.1081Z" fill="#61B9E9"/>
<path fill-rule="evenodd" clip-rule="evenodd" d="M57.0338 69.9327C69.0234 55.9123 69.6413 40.8053 69.6413 40.8053L69.3516 72.7133C69.3516 72.7133 62.0124 104.189 46.6584 113.743C28.5516 125.012 15.8596 104.352 23.4329 91.5025C31.3782 78.0238 46.5184 82.2269 57.0338 69.9327Z" fill="#61B9E9"/>
<path fill-rule="evenodd" clip-rule="evenodd" d="M55.6301 120.322C68.956 105.168 69.6413 88.8392 69.6413 88.8392L69.3206 123.328C69.3206 123.328 61.1646 157.349 44.1012 167.677C23.9792 179.855 9.8739 157.526 18.2907 143.637C27.1158 129.068 43.9441 133.612 55.6301 120.322Z" fill="#61B9E9"/>
<path fill-rule="evenodd" clip-rule="evenodd" d="M53.7443 174.769C68.8641 158.446 69.6413 140.866 69.6413 140.866L69.2757 178.009C69.2757 178.009 60.0208 214.648 40.661 225.772C17.8299 238.888 1.8249 214.839 11.3749 199.881C21.3931 184.188 40.4846 189.081 53.7443 174.769Z" fill="#61B9E9"/>
<path fill-rule="evenodd" clip-rule="evenodd" d="M51.5152 234.283C68.755 215.308 69.6413 194.854 69.6413 194.854L69.2244 238.048C69.2244 238.048 58.6726 280.656 36.5985 293.591C10.5667 308.843 -7.68128 280.877 3.20826 263.484C14.6302 245.236 36.3975 250.926 51.5152 234.283Z" fill="#61B9E9"/>
<path d="M38.2342 58.1617C48.9623 54.4738 57.1567 46.615 62.5929 34.8026C66.9601 25.3119 68.2804 15.9892 68.8438 12.0092C68.9069 11.5641 68.9603 11.1892 69.0063 10.8914C69.034 10.7144 69.126 10.5565 69.2619 10.4523C69.3978 10.3482 69.5665 10.3063 69.7311 10.3359C69.8957 10.3658 70.0425 10.4647 70.1393 10.6109C70.2361 10.757 70.275 10.9386 70.2475 11.1157C70.2015 11.4077 70.1491 11.7757 70.0882 12.2127C69.5152 16.256 68.1746 25.7224 63.7208 35.4028C58.1285 47.5567 49.6818 55.6421 38.6169 59.4496C38.5552 59.4718 38.4906 59.4831 38.4256 59.483C38.2922 59.4829 38.1623 59.4372 38.0546 59.3524C37.947 59.2677 37.8673 59.1483 37.8269 59.0115C37.8016 58.927 37.7921 58.8378 37.7989 58.7493C37.8057 58.6608 37.8287 58.5746 37.8665 58.4957C37.9044 58.4167 37.9563 58.3466 38.0194 58.2893C38.0825 58.232 38.1555 58.1886 38.2342 58.1617Z" fill="#39A6E2"/>
<path d="M38.2342 101.114C48.9623 97.4259 57.1567 89.5671 62.5929 77.7547C66.9601 68.264 68.2804 58.9413 68.8438 54.9613C68.9069 54.5162 68.9603 54.1413 69.0063 53.8435C69.0199 53.7558 69.0494 53.6719 69.0933 53.5966C69.1371 53.5212 69.1943 53.4559 69.2617 53.4044C69.329 53.3529 69.4052 53.3162 69.4857 53.2965C69.5663 53.2767 69.6497 53.2742 69.7311 53.2892C69.8126 53.3037 69.8906 53.3354 69.9607 53.3824C70.0308 53.4294 70.0916 53.4908 70.1396 53.5632C70.1875 53.6355 70.2218 53.7173 70.2403 53.8039C70.2588 53.8905 70.2613 53.9801 70.2475 54.0677C70.2015 54.3598 70.1491 54.7278 70.0882 55.1648C69.5152 59.2081 68.1746 68.6757 63.7208 78.3549C58.1285 90.5089 49.6818 98.5943 38.6169 102.403C38.555 102.424 38.4905 102.435 38.4256 102.435C38.2922 102.435 38.1623 102.389 38.0546 102.305C37.947 102.22 37.8673 102.1 37.8269 101.964C37.8016 101.879 37.7921 101.79 37.7989 101.701C37.8057 101.613 37.8287 101.527 37.8665 101.448C37.9044 101.369 37.9563 101.299 38.0194 101.241C38.0825 101.184 38.1555 101.141 38.2342 101.114Z" fill="#39A6E2"/>
<path d="M38.2342 151.506C48.9623 147.82 57.1567 139.961 62.593 128.148C66.9601 118.657 68.2804 109.335 68.8438 105.354C68.9069 104.909 68.9603 104.534 69.0063 104.237C69.0199 104.149 69.0495 104.065 69.0933 103.99C69.1371 103.915 69.1943 103.849 69.2616 103.798C69.329 103.746 69.4051 103.709 69.4856 103.689C69.5662 103.67 69.6496 103.667 69.7311 103.682C69.8126 103.696 69.8905 103.728 69.9605 103.775C70.0306 103.822 70.0913 103.884 70.1392 103.956C70.1872 104.028 70.2214 104.11 70.24 104.196C70.2586 104.283 70.2611 104.373 70.2475 104.46C70.2015 104.752 70.1492 105.121 70.0882 105.558C69.5152 109.601 68.1746 119.068 63.7208 128.749C58.1274 140.901 49.6818 148.988 38.6169 152.795C38.555 152.817 38.4905 152.828 38.4255 152.828C38.2922 152.828 38.1624 152.782 38.0547 152.698C37.9471 152.613 37.8673 152.494 37.8268 152.357C37.8016 152.273 37.7921 152.183 37.7989 152.095C37.8056 152.006 37.8286 151.92 37.8664 151.841C37.9043 151.762 37.9562 151.692 38.0193 151.634C38.0824 151.577 38.1554 151.533 38.2342 151.506Z" fill="#39A6E2"/>
<path d="M38.2342 204.944C48.9623 201.256 57.1567 193.397 62.593 181.585C66.9601 172.093 68.2804 162.771 68.8438 158.791C68.9069 158.346 68.9603 157.971 69.0063 157.673C69.0341 157.496 69.126 157.339 69.2619 157.234C69.3978 157.13 69.5666 157.088 69.7311 157.118C69.8127 157.133 69.8907 157.164 69.9608 157.212C70.0309 157.259 70.0917 157.32 70.1397 157.393C70.1876 157.465 70.2218 157.547 70.2404 157.634C70.2589 157.72 70.2613 157.81 70.2475 157.898C70.2015 158.19 70.1492 158.558 70.0882 158.995C69.5152 163.037 68.1746 172.505 63.7208 182.185C58.1285 194.338 49.6818 202.424 38.6169 206.232C38.555 206.253 38.4905 206.264 38.4256 206.264C38.2923 206.264 38.1624 206.219 38.0547 206.134C37.9471 206.05 37.8673 205.93 37.8269 205.794C37.8016 205.709 37.7921 205.62 37.7989 205.532C37.8057 205.443 37.8287 205.357 37.8665 205.278C37.9044 205.199 37.9563 205.129 38.0194 205.071C38.0825 205.014 38.1555 204.971 38.2342 204.944Z" fill="#39A6E2"/>
<path d="M38.2342 264.13C48.9623 260.442 57.1567 252.583 62.593 240.771C66.9601 231.279 68.2804 221.957 68.8438 217.977C68.9069 217.532 68.9603 217.158 69.0063 216.86C69.0341 216.683 69.126 216.525 69.2619 216.421C69.3978 216.317 69.5666 216.275 69.7311 216.304C69.8127 216.319 69.8907 216.351 69.9608 216.398C70.0309 216.445 70.0917 216.506 70.1397 216.579C70.1876 216.651 70.2218 216.733 70.2404 216.82C70.2589 216.907 70.2613 216.996 70.2475 217.084C70.2015 217.376 70.1492 217.744 70.0882 218.181C69.5152 222.223 68.1746 231.691 63.7208 241.371C58.1285 253.524 49.6818 261.61 38.6169 265.418C38.555 265.439 38.4905 265.45 38.4256 265.45C38.2923 265.45 38.1624 265.405 38.0547 265.32C37.9471 265.236 37.8673 265.116 37.8269 264.98C37.8016 264.895 37.7921 264.806 37.7989 264.718C37.8057 264.629 37.8287 264.543 37.8665 264.464C37.9044 264.385 37.9563 264.315 38.0194 264.258C38.0825 264.2 38.1555 264.157 38.2342 264.13Z" fill="#39A6E2"/>
<path d="M81.7271 27.1081C77.117 21.5612 73.7121 14.9804 71.7591 7.84277C73.212 15.5567 75.8355 24.0262 80.5714 29.7403C90.053 41.1836 101.168 40.098 108.333 52.6429C111.834 58.7745 110.74 65.465 106.643 69.1185C113.411 65.0119 116.302 54.6726 112.025 47.1829C104.861 34.638 91.2087 38.5502 81.7271 27.1081Z" fill="white"/>
<path d="M82.9662 69.9326C79.2284 65.5778 76.1839 60.5899 73.955 55.1694C75.7136 61.8243 78.6536 69.1598 83.5713 74.9085C94.0867 87.2027 104.929 83.4838 112.875 96.9625C115.747 101.835 115.702 107.83 113.556 112.781C118.86 107.527 120.628 98.393 116.567 91.507C108.622 78.0238 93.4816 82.2268 82.9662 69.9326Z" fill="white"/>
<path d="M84.3698 120.322C78.4312 113.57 75.0101 106.586 73.0291 100.916C74.3783 108.953 77.1857 117.82 82.8785 124.296C94.5645 137.585 109.189 134.531 118.019 149.097C121.226 154.387 121.161 160.891 118.749 166.256C124.342 160.523 126.126 150.921 121.711 143.637C112.882 129.068 96.0558 133.612 84.3698 120.322Z" fill="white"/>
<path d="M86.2558 174.769C78.9658 166.895 75.0102 158.728 72.8657 152.383C74.8542 160.642 78.4516 169.887 84.9558 176.909C98.2123 191.221 114.914 189.648 124.933 205.339C128.533 210.98 128.5 217.912 125.838 223.657C131.728 217.431 133.479 207.483 128.624 199.88C118.606 184.188 99.5155 189.081 86.2558 174.769Z" fill="white"/>
<path d="M88.4805 234.283C71.2418 215.308 70.3555 194.854 70.3555 194.854L70.3609 195.438C71.6256 207.123 75.3855 225.901 86.568 238.208C101.686 254.851 121.674 250.696 133.097 268.943C137.341 275.727 137.16 284.112 133.812 290.92C140.369 283.667 142.269 272.236 136.789 263.484C125.37 245.236 103.601 250.926 88.4805 234.283Z" fill="white"/>
<path fill-rule="evenodd" clip-rule="evenodd" d="M70.7745 22.9693V0.518635C70.7745 0.402023 70.7316 0.290182 70.655 0.207618C70.5784 0.125053 70.4746 0.0785515 70.3662 0.0782471C70.2576 0.0782471 70.1534 0.124627 70.0766 0.207225C69.9998 0.289822 69.9567 0.401824 69.9567 0.518635V22.9693C67.2359 89.3106 58.5273 299.864 56.139 335.829C53.2963 378.631 49.1505 429 49.1505 429L70.3662 427.936L91.5808 429C91.5808 429 87.4349 378.632 84.5923 335.829C82.204 299.864 73.4953 89.3106 70.7745 22.9693Z" fill="#39A6E2"/>
<path d="M101.766 58.1616C91.0377 54.4737 82.8433 46.6149 77.407 34.8025C73.0388 25.3118 71.7196 15.9891 71.1551 12.0091C71.092 11.5641 71.0397 11.1891 70.9926 10.8913C70.9791 10.8036 70.9497 10.7197 70.906 10.6443C70.8623 10.5689 70.8052 10.5035 70.738 10.4519C70.6707 10.4003 70.5947 10.3635 70.5142 10.3436C70.4337 10.3237 70.3503 10.321 70.2689 10.3359C70.1043 10.3657 69.9575 10.4646 69.8607 10.6108C69.7639 10.757 69.725 10.9385 69.7525 11.1156C69.7985 11.4077 69.8498 11.7756 69.9118 12.2126C70.4848 16.2559 71.8254 25.7223 76.2792 35.4027C81.8715 47.5567 90.3182 55.642 101.383 59.4496C101.445 59.4718 101.509 59.4831 101.574 59.4829C101.708 59.4826 101.838 59.4369 101.945 59.3521C102.053 59.2674 102.133 59.1481 102.173 59.0115C102.198 58.9269 102.208 58.8378 102.201 58.7493C102.194 58.6607 102.171 58.5746 102.133 58.4956C102.096 58.4167 102.044 58.3465 101.981 58.2892C101.917 58.2319 101.844 58.1886 101.766 58.1616Z" fill="#39A6E2"/>
<path d="M101.766 101.114C91.0377 97.4259 82.8432 89.567 77.407 77.7546C73.0388 68.264 71.7196 58.9413 71.1551 54.9612C71.092 54.5162 71.0397 54.1413 70.9926 53.8434C70.9791 53.7558 70.9497 53.672 70.906 53.5966C70.8623 53.5213 70.8051 53.456 70.7379 53.4045C70.6706 53.353 70.5946 53.3163 70.5141 53.2965C70.4336 53.2767 70.3502 53.2742 70.2689 53.2892C70.1874 53.3037 70.1093 53.3353 70.0392 53.3823C69.9691 53.4293 69.9084 53.4908 69.8604 53.5631C69.8124 53.6355 69.7782 53.7173 69.7597 53.8039C69.7412 53.8905 69.7387 53.9801 69.7525 54.0677C69.7985 54.3598 69.8498 54.7278 69.9118 55.1648C70.4848 59.208 71.8254 68.6757 76.2792 78.3549C81.8715 90.5088 90.3182 98.5942 101.383 102.403C101.445 102.424 101.509 102.435 101.574 102.435C101.708 102.435 101.838 102.389 101.945 102.304C102.053 102.22 102.133 102.1 102.173 101.964C102.198 101.879 102.208 101.79 102.201 101.701C102.194 101.613 102.171 101.527 102.133 101.448C102.096 101.369 102.044 101.299 101.981 101.241C101.917 101.184 101.844 101.141 101.766 101.114Z" fill="#39A6E2"/>
<path d="M101.766 151.506C91.0377 147.819 82.8433 139.961 77.4071 128.148C73.0388 118.656 71.7196 109.335 71.1551 105.354C71.0921 104.909 71.0397 104.534 70.9926 104.237C70.9792 104.149 70.9497 104.066 70.906 103.99C70.8623 103.915 70.8052 103.849 70.738 103.798C70.6707 103.746 70.5947 103.709 70.5142 103.689C70.4337 103.67 70.3503 103.667 70.2689 103.682C70.1874 103.696 70.1095 103.728 70.0395 103.775C69.9694 103.822 69.9087 103.884 69.8608 103.956C69.8128 104.028 69.7786 104.11 69.76 104.196C69.7414 104.283 69.7389 104.373 69.7525 104.46C69.7985 104.752 69.8498 105.121 69.9118 105.558C70.4848 109.601 71.8254 119.068 76.2792 128.749C81.8715 140.901 90.3182 148.988 101.383 152.795C101.445 152.817 101.51 152.828 101.574 152.828C101.708 152.827 101.838 152.782 101.945 152.697C102.053 152.613 102.133 152.494 102.173 152.357C102.198 152.273 102.208 152.183 102.201 152.095C102.194 152.006 102.171 151.92 102.134 151.841C102.096 151.762 102.044 151.692 101.981 151.634C101.918 151.577 101.845 151.533 101.766 151.506Z" fill="#39A6E2"/>
<path d="M101.766 204.944C91.0377 201.256 82.8433 193.397 77.407 181.585C73.0388 172.093 71.7196 162.771 71.1551 158.791C71.0921 158.346 71.0397 157.971 70.9926 157.674C70.9792 157.586 70.9497 157.502 70.906 157.427C70.8623 157.351 70.8052 157.286 70.738 157.234C70.6707 157.183 70.5947 157.146 70.5142 157.126C70.4337 157.106 70.3503 157.103 70.2689 157.118C70.1873 157.133 70.1093 157.165 70.0392 157.212C69.9691 157.259 69.9083 157.32 69.8603 157.393C69.8124 157.465 69.7782 157.547 69.7597 157.634C69.7412 157.72 69.7387 157.81 69.7525 157.898C69.7985 158.19 69.8498 158.558 69.9118 158.995C70.4848 163.037 71.8254 172.505 76.2792 182.185C81.8715 194.338 90.3182 202.424 101.383 206.232C101.445 206.253 101.509 206.264 101.574 206.264C101.708 206.264 101.837 206.218 101.945 206.134C102.053 206.049 102.133 205.93 102.173 205.794C102.198 205.709 102.208 205.62 102.201 205.531C102.194 205.443 102.171 205.357 102.133 205.278C102.096 205.199 102.044 205.129 101.981 205.071C101.917 205.014 101.844 204.971 101.766 204.944Z" fill="#39A6E2"/>
<path d="M101.766 264.13C91.0377 260.442 82.8433 252.583 77.407 240.771C73.0388 231.279 71.7196 221.958 71.1551 217.978C71.0921 217.533 71.0397 217.158 70.9926 216.86C70.9792 216.772 70.9497 216.688 70.906 216.613C70.8623 216.537 70.8052 216.472 70.738 216.42C70.6707 216.369 70.5947 216.332 70.5142 216.312C70.4337 216.292 70.3503 216.29 70.2689 216.304C70.1873 216.319 70.1093 216.351 70.0392 216.398C69.9691 216.445 69.9083 216.507 69.8603 216.579C69.8124 216.651 69.7782 216.733 69.7597 216.82C69.7412 216.907 69.7387 216.996 69.7525 217.084C69.7985 217.376 69.8498 217.744 69.9118 218.181C70.4848 222.223 71.8254 231.691 76.2792 241.371C81.8715 253.524 90.3182 261.61 101.383 265.418C101.445 265.439 101.509 265.45 101.574 265.45C101.708 265.45 101.837 265.404 101.945 265.32C102.053 265.235 102.133 265.116 102.173 264.98C102.198 264.895 102.208 264.806 102.201 264.718C102.194 264.629 102.171 264.543 102.133 264.464C102.096 264.385 102.044 264.315 101.981 264.257C101.917 264.2 101.844 264.157 101.766 264.13Z" fill="#39A6E2"/>
<path d="M31.5 100C47 96 80.7 79.6 91.5 46M28.5 136.5C42.5 146.167 77.5 159.2 105.5 134M36 188C38.6667 206 59.9 238 123.5 222" stroke="#FFF99B" stroke-width="0.5"/>
<ellipse cx="28.2857" cy="136" rx="9.28571" ry="10" fill="url(#paint0_radial_641_566)"/>
<ellipse cx="28.2857" cy="136" rx="2.32143" ry="3" fill="#FFF59B"/>
<ellipse cx="52.2857" cy="146" rx="9.28571" ry="10" fill="url(#paint1_radial_641_566)"/>
<ellipse cx="52.2857" cy="146" rx="2.32143" ry="3" fill="#FFF59B"/>
<ellipse cx="83.2857" cy="146" rx="9.28571" ry="10" fill="url(#paint2_radial_641_566)"/>
<ellipse cx="83.2857" cy="146" rx="2.32143" ry="3" fill="#FFF59B"/>
<ellipse cx="105.286" cy="134" rx="9.28571" ry="10" fill="url(#paint3_radial_641_566)"/>
<ellipse cx="105.286" cy="134" rx="2.32143" ry="3" fill="#FFF59B"/>
<ellipse cx="31.2857" cy="100" rx="9.28571" ry="10" fill="url(#paint4_radial_641_566)"/>
<ellipse cx="31.2857" cy="100" rx="2.32143" ry="3" fill="#FFF59B"/>
<ellipse cx="70.2857" cy="78" rx="9.28571" ry="10" fill="url(#paint5_radial_641_566)"/>
<ellipse cx="70.2857" cy="78" rx="2.32143" ry="3" fill="#FFF59B"/>
<ellipse cx="91.2857" cy="45" rx="9.28571" ry="10" fill="url(#paint6_radial_641_566)"/>
<ellipse cx="91.2857" cy="45" rx="2.32143" ry="3" fill="#FFF59B"/>
<ellipse cx="35.2857" cy="188" rx="9.28571" ry="10" fill="url(#paint7_radial_641_566)"/>
<ellipse cx="35.2857" cy="188" rx="2.32143" ry="3" fill="#FFF59B"/>
<ellipse cx="54.2857" cy="215" rx="9.28571" ry="10" fill="url(#paint8_radial_641_566)"/>
<ellipse cx="54.2857" cy="215" rx="2.32143" ry="3" fill="#FFF59B"/>
<ellipse cx="86.2857" cy="226" rx="9.28571" ry="10" fill="url(#paint9_radial_641_566)"/>
<ellipse cx="86.2857" cy="226" rx="2.32143" ry="3" fill="#FFF59B"/>
<ellipse cx="123.286" cy="222" rx="9.28571" ry="10" fill="url(#paint10_radial_641_566)"/>
<ellipse cx="123.286" cy="222" rx="2.32143" ry="3" fill="#FFF59B"/>
</g>
<defs>
<radialGradient id="paint0_radial_641_566" cx="0" cy="0" r="1" gradientUnits="userSpaceOnUse" gradientTransform="translate(28.2857 136) rotate(90) scale(10 9.28571)">
<stop stop-color="#F39200"/>
<stop offset="0.947917" stop-color="#FFF59B" stop-opacity="0"/>
</radialGradient>
<radialGradient id="paint1_radial_641_566" cx="0" cy="0" r="1" gradientUnits="userSpaceOnUse" gradientTransform="translate(52.2857 146) rotate(90) scale(10 9.28571)">
<stop stop-color="#F39200"/>
<stop offset="0.947917" stop-color="#FFF59B" stop-opacity="0"/>
</radialGradient>
<radialGradient id="paint2_radial_641_566" cx="0" cy="0" r="1" gradientUnits="userSpaceOnUse" gradientTransform="translate(83.2857 146) rotate(90) scale(10 9.28571)">
<stop stop-color="#F39200"/>
<stop offset="0.947917" stop-color="#FFF59B" stop-opacity="0"/>
</radialGradient>
<radialGradient id="paint3_radial_641_566" cx="0" cy="0" r="1" gradientUnits="userSpaceOnUse" gradientTransform="translate(105.286 134) rotate(90) scale(10 9.28571)">
<stop stop-color="#F39200"/>
<stop offset="0.947917" stop-color="#FFF59B" stop-opacity="0"/>
</radialGradient>
<radialGradient id="paint4_radial_641_566" cx="0" cy="0" r="1" gradientUnits="userSpaceOnUse" gradientTransform="translate(31.2857 100) rotate(90) scale(10 9.28571)">
<stop stop-color="#F39200"/>
<stop offset="0.947917" stop-color="#FFF59B" stop-opacity="0"/>
</radialGradient>
<radialGradient id="paint5_radial_641_566" cx="0" cy="0" r="1" gradientUnits="userSpaceOnUse" gradientTransform="translate(70.2857 78) rotate(90) scale(10 9.28571)">
<stop stop-color="#F39200"/>
<stop offset="0.947917" stop-color="#FFF59B" stop-opacity="0"/>
</radialGradient>
<radialGradient id="paint6_radial_641_566" cx="0" cy="0" r="1" gradientUnits="userSpaceOnUse" gradientTransform="translate(91.2857 45) rotate(90) scale(10 9.28571)">
<stop stop-color="#F39200"/>
<stop offset="0.947917" stop-color="#FFF59B" stop-opacity="0"/>
</radialGradient>
<radialGradient id="paint7_radial_641_566" cx="0" cy="0" r="1" gradientUnits="userSpaceOnUse" gradientTransform="translate(35.2857 188) rotate(90) scale(10 9.28571)">
<stop stop-color="#F39200"/>
<stop offset="0.947917" stop-color="#FFF59B" stop-opacity="0"/>
</radialGradient>
<radialGradient id="paint8_radial_641_566" cx="0" cy="0" r="1" gradientUnits="userSpaceOnUse" gradientTransform="translate(54.2857 215) rotate(90) scale(10 9.28571)">
<stop stop-color="#F39200"/>
<stop offset="0.947917" stop-color="#FFF59B" stop-opacity="0"/>
</radialGradient>
<radialGradient id="paint9_radial_641_566" cx="0" cy="0" r="1" gradientUnits="userSpaceOnUse" gradientTransform="translate(86.2857 226) rotate(90) scale(10 9.28571)">
<stop stop-color="#F39200"/>
<stop offset="0.947917" stop-color="#FFF59B" stop-opacity="0"/>
</radialGradient>
<radialGradient id="paint10_radial_641_566" cx="0" cy="0" r="1" gradientUnits="userSpaceOnUse" gradientTransform="translate(123.286 222) rotate(90) scale(10 9.28571)">
<stop stop-color="#F39200"/>
<stop offset="0.947917" stop-color="#FFF59B" stop-opacity="0"/>
</radialGradient>
<clipPath id="clip0_641_566">
<rect width="140" height="429" fill="white"/>
</clipPath>
</defs>
</svg>
