<svg width="400" height="434" viewBox="0 0 400 434" fill="none" xmlns="http://www.w3.org/2000/svg">
<g clip-path="url(#clip0_397_2318)">
<path d="M93.4149 161.558C93.6237 159.192 93.6125 159.822 93.5909 158.658C93.5757 157.456 93.473 156.256 93.2836 155.069C93.285 155.033 92.8986 153.471 92.9394 153.571L92.8204 153.065L92.6559 152.581C91.8449 150.434 92.9781 153.04 91.5163 149.683C90.8345 148.007 88.6601 145.136 88.8808 145.444L88.0249 144.445C85.8474 142.024 83.1763 140.098 80.1913 138.795C78.0602 137.905 75.8149 137.318 73.5208 137.05L73.3117 137.02L71.1869 136.887L69.3632 136.955C65.5203 137.211 61.7936 138.377 58.4912 140.358C54.9955 142.792 52.804 144.254 49.658 149.533C48.8999 150.932 48.2606 152.392 47.7468 153.898C46.8765 156.82 47.1626 156.138 47.0557 156.585C47.0543 156.621 46.6085 159.327 46.633 159.158L46.6246 159.372L46.5732 160.117C44.8478 185.041 62.579 205.699 86.2629 209.366C88.9865 209.773 91.7393 209.954 94.4929 209.906C96.5871 209.903 99.7927 209.514 99.7568 209.517C122.654 206.061 138.117 188.904 141.201 168.849C147.133 127.973 111.673 89.4694 67.7496 94.7561C67.7139 94.7547 33.0579 97.5147 16.3018 130.473C12.8604 137.104 10.5797 144.274 9.55821 151.673C9.56902 151.396 9.2625 154.89 9.2639 154.854C9.25954 154.966 9.02707 157.595 9.03746 157.443C9.03554 157.493 8.97935 158.13 8.98074 158.094C7.6719 179.457 16.2442 205.714 34.8154 223.883C59.7164 248.51 88.0601 248.58 88.9184 248.945C88.9184 248.945 93.0213 249.181 93.0079 249.18C93.9014 249.215 96.9308 249.213 96.8949 249.216L97.8794 249.214C98.2055 249.227 98.5113 249.19 98.8295 249.175C139.775 247.139 170.583 219.313 180.163 183.799C181.776 177.748 182.778 171.551 183.154 165.3C183.202 164.082 183.321 157.705 183.319 157.763L183.327 157.545C183.325 157.607 183.294 156.229 183.306 156.708C183.095 151.36 183.066 151.404 183.065 151.44C181.767 137.111 178.681 124.036 171.955 110.761C171.647 110.405 158.938 81.8987 129.112 65.3826C122.331 61.3034 112.992 57.2004 100.818 54.0687C94.6736 52.5945 92.7923 52.4138 87.7145 51.7056C83.8828 51.1714 76.337 50.9839 76.3727 50.9853L74.4163 51.0117L71.815 51.0532C26.5771 52.197 -14.0666 83.2652 -25.7513 126.031C-28.3591 136.661 -29.5897 142.39 -29.2581 156.81C-29.2491 157.062 -29.1465 157.301 -28.9703 157.481C-28.7941 157.661 -28.5571 157.768 -28.3056 157.783C-28.0542 157.797 -27.8065 157.717 -27.611 157.558C-27.4155 157.4 -27.2864 157.174 -27.249 156.925C-21.6789 117.426 2.963 87.4049 36.6765 75.097L39.6897 74.0208C45.2425 72.306 47.4078 71.8584 47.3806 71.8663C56.3702 69.5703 66.8061 69.3117 66.2187 69.3424C68.5078 69.1636 74.5679 69.4674 74.1749 69.4476C74.2107 69.4489 76.2435 69.5284 76.0916 69.5224L76.4848 69.5378C84.2323 70.2876 88.2021 71.1805 88.1666 71.1746C97.3572 72.8975 110.043 77.7036 118.468 83.2198C133.382 92.0345 143.557 106.017 143.591 106.049C147.724 111.129 153.964 121.949 156.435 128.909C156.434 128.945 157.786 132.579 157.77 132.538C157.945 133.091 160.52 141.048 161.107 145.265C161.969 150.356 162.022 151.302 162.019 151.266C162.017 151.301 162.265 153.198 162.253 153.064L162.345 154.355C162.637 157.304 162.626 159.768 162.689 164.564C162.715 163.907 162.692 164.488 162.696 164.394C162.541 169.294 161.913 174.168 160.821 178.947C153.71 210.109 126.017 231.881 96.9475 234.582L94.7026 234.776L93.5755 234.88C93.5129 234.878 89.427 235.009 89.4629 235.006C89.177 234.994 86.614 234.97 86.6497 234.972C81.4036 234.677 82.8215 234.92 75.5479 233.836C60.3267 231.144 46.3439 223.719 35.5919 212.62C24.8398 201.522 17.8672 187.315 15.6674 172.025L15.4277 170.374C14.5742 161.867 15.0361 161.496 14.9508 158.64C14.9522 158.605 15.4883 152.786 15.4867 152.826C15.5494 152.251 15.9632 149.907 16.2032 148.919C21.8206 124.245 42.0379 108.293 65.3526 106.521C65.877 106.497 66.3984 106.437 66.922 106.435L68.4937 106.407C68.7528 106.417 69.0225 106.387 69.2728 106.392L70.0145 106.421C72.503 106.519 73.239 106.579 73.2033 106.577C73.1675 106.576 74.5422 106.665 74.5413 106.688L76.2867 106.908C100.129 109.95 120.24 129.248 123.263 154.738C123.558 157.437 123.67 160.152 123.599 162.867C123.573 163.518 123.624 162.219 123.616 162.42L123.546 163.285L123.412 165.015L123.342 165.879L123.334 166.094C123.422 165.328 123.338 165.978 123.343 165.848L123.295 166.182C121.556 178.844 112.121 190.142 97.2363 193.169L95.8854 193.389C95.0122 193.52 92.9345 193.672 92.9704 193.669C91.3989 193.72 89.8257 193.678 88.2592 193.543C83.5429 193.085 78.9779 191.63 74.8671 189.274C70.7562 186.919 67.1935 183.717 64.4153 179.881C60.2862 174.154 57.9817 167.316 57.8032 160.261C57.7968 160.426 57.8296 159.586 57.7642 160.572C57.9019 158.078 57.8479 156.596 58.8849 154.105C60.0848 151.191 62.1338 148.705 64.7658 146.97C66.9168 145.628 67.508 145.499 69.8998 144.752L71.253 144.474L72.6668 144.363L73.1157 144.327C72.7806 144.314 73.0308 144.324 72.9593 144.321L73.138 144.328L74.1134 144.331C75.4245 144.373 76.7279 144.549 78.0038 144.854L79.5291 145.325L81.0127 145.946C86.9443 148.74 89.4994 154.349 89.4779 154.326L90.1719 155.918C90.842 157.738 91.26 159.641 91.4142 161.574C91.4475 161.819 91.5693 162.043 91.7568 162.205C91.9443 162.367 92.1845 162.455 92.4322 162.452C92.6798 162.449 92.9178 162.355 93.1014 162.189C93.2849 162.023 93.4014 161.795 93.4287 161.549L93.4149 161.558Z" fill="#0071B8"/>
<circle cx="240" cy="147" r="17" fill="#0071B8"/>
<circle cx="206" cy="100" r="7" fill="#0071B8"/>
<circle cx="166" cy="380" r="7" fill="#0071B8"/>
<path d="M310.079 400.842C307.869 400.507 308.46 400.554 307.366 400.506C306.236 400.45 305.104 400.475 303.978 400.584C303.944 400.58 302.455 400.851 302.551 400.819L302.069 400.901L301.604 401.027C299.541 401.662 302.055 400.751 298.817 401.926C297.202 402.468 294.378 404.341 294.681 404.152L293.692 404.897C291.291 406.799 289.325 409.194 287.926 411.921C286.965 413.87 286.282 415.943 285.895 418.082L285.854 418.277L285.605 420.264L285.561 421.98C285.576 425.604 286.452 429.172 288.117 432.39C290.198 435.816 291.442 437.959 296.214 441.224C297.483 442.018 298.817 442.704 300.201 443.275C302.893 444.264 302.27 443.956 302.683 444.082C302.717 444.086 305.232 444.664 305.074 444.631L305.275 444.651L305.971 444.743C329.275 447.829 349.716 432.394 354.552 410.369C355.094 407.836 355.426 405.261 355.543 402.673C355.664 400.706 355.487 397.673 355.487 397.707C353.588 376.002 338.387 360.473 319.735 356.398C281.701 348.423 243.459 379.458 245.84 421.014C245.837 421.048 246.391 453.753 276.354 471.426C282.378 475.047 288.977 477.611 295.865 479.005C295.606 478.979 298.869 479.472 298.835 479.468C298.94 479.479 301.395 479.852 301.253 479.833C301.299 479.838 301.895 479.928 301.861 479.925C321.845 482.41 347.005 475.905 365.158 459.534C389.749 437.599 391.481 410.988 391.874 410.203C391.874 410.203 392.337 406.364 392.336 406.377C392.421 405.54 392.597 402.695 392.598 402.729L392.654 401.804C392.685 401.499 392.668 401.209 392.673 400.91C393.169 362.34 368.851 331.775 336.065 320.69C330.478 318.819 324.718 317.514 318.87 316.794C317.729 316.677 311.748 316.19 311.803 316.196L311.598 316.175C311.656 316.181 310.36 316.129 310.81 316.145C305.777 316.03 305.816 316.059 305.849 316.062C292.318 316.438 279.859 318.568 266.998 324.103C266.645 324.371 239.129 334.629 221.866 361.666C217.637 367.793 213.235 376.322 209.578 387.569C207.832 393.252 207.552 395.008 206.588 399.735C205.861 403.302 205.242 410.376 205.245 410.343L205.155 412.181L205.041 414.627C203.455 457.174 230.239 497.167 269.71 510.654C279.539 513.728 284.846 515.22 298.407 515.757C298.644 515.763 298.874 515.681 299.054 515.526C299.233 515.371 299.348 515.155 299.376 514.92C299.404 514.685 299.344 514.447 299.206 514.254C299.069 514.061 298.864 513.927 298.632 513.877C261.869 506.324 235.127 481.419 225.552 449.037L224.719 446.144C223.435 440.829 223.142 438.769 223.148 438.795C221.521 430.219 221.892 420.404 221.886 420.957C221.853 418.797 222.494 413.124 222.453 413.492C222.456 413.459 222.65 411.555 222.636 411.697L222.673 411.329C223.833 404.097 224.905 400.422 224.897 400.455C227.055 391.926 232.315 380.297 237.99 372.71C247.144 359.223 260.872 350.491 260.905 350.46C265.919 346.878 276.445 341.655 283.126 339.744C283.16 339.747 286.652 338.691 286.613 338.704C287.142 338.571 294.765 336.621 298.76 336.318C303.591 335.808 304.482 335.815 304.449 335.815C304.482 335.819 306.278 335.697 306.15 335.701L307.369 335.69C310.155 335.589 312.468 335.745 316.975 335.967C316.36 335.905 316.904 335.96 316.816 335.951C321.409 336.385 325.948 337.261 330.372 338.568C359.216 347.077 378.033 374.363 378.859 401.819L378.91 403.938L378.941 405.003C378.935 405.061 378.817 408.906 378.817 408.872C378.789 409.14 378.616 411.545 378.619 411.512C378.034 416.421 378.346 415.104 376.9 421.87C373.477 436.005 365.682 448.699 354.628 458.143C343.574 467.586 329.823 473.299 315.336 474.465L313.772 474.593C305.733 474.894 305.412 474.439 302.725 474.351C302.692 474.347 297.259 473.502 297.297 473.506C296.761 473.413 294.583 472.887 293.67 472.603C270.831 465.877 257.04 445.954 256.747 423.957C256.755 423.463 256.729 422.97 256.758 422.478L256.824 421.001C256.849 420.758 256.837 420.503 256.857 420.268L256.928 419.573C257.165 417.242 257.265 416.555 257.262 416.588C257.258 416.622 257.423 415.336 257.444 415.338L257.753 413.712C262.012 391.502 281.316 373.752 305.43 372.412C307.982 372.294 310.538 372.349 313.083 372.575C313.693 372.637 312.476 372.513 312.665 372.533L313.473 372.649L315.089 372.877L315.897 372.993L316.098 373.014C315.384 372.886 315.989 373.003 315.868 372.99L316.178 373.056C327.966 375.433 338.02 384.957 339.988 399.112L340.115 400.394C340.187 401.222 340.207 403.181 340.206 403.147C340.161 404.626 340.029 406.101 339.811 407.564C339.103 411.966 337.469 416.167 335.015 419.889C332.561 423.611 329.345 426.768 325.58 429.151C319.959 432.692 313.403 434.454 306.767 434.206C306.921 434.222 306.135 434.142 307.057 434.261C304.723 433.985 303.328 433.949 301.05 432.829C298.384 431.53 296.17 429.46 294.696 426.887C293.562 424.788 293.476 424.225 292.915 421.935L292.733 420.648L292.713 419.314L292.705 418.89C292.673 419.204 292.697 418.97 292.69 419.037L292.707 418.869L292.767 417.954C292.884 416.725 293.125 415.511 293.487 414.331L294.019 412.927L294.69 411.57C297.662 406.164 303.079 404.095 303.056 404.113L304.592 403.555C306.34 403.033 308.152 402.753 309.976 402.721C310.208 402.705 310.426 402.603 310.589 402.437C310.752 402.27 310.849 402.05 310.86 401.817C310.872 401.584 310.798 401.355 310.653 401.173C310.508 400.991 310.301 400.869 310.072 400.828L310.079 400.842Z" fill="#0071B8"/>
</g>
<defs>
<clipPath id="clip0_397_2318">
<rect width="400" height="434" fill="white"/>
</clipPath>
</defs>
</svg>
