<svg width="400" height="515" viewBox="0 0 400 515" fill="none" xmlns="http://www.w3.org/2000/svg">
<path d="M162.152 199.513C161.453 200.856 160.693 201.68 159.596 205.245C159.339 206.1 158.991 207.884 159.001 207.845L158.826 209.443C158.698 210.885 158.714 212.337 158.876 213.776C159.191 219.543 163.22 225.099 163.194 225.064L164.615 226.835C166.219 228.615 168.061 230.165 170.088 231.442L170.279 231.542L172.265 232.629L173.969 233.356C181.031 236.244 189.911 235.617 197.053 231.006C197.727 230.473 199.628 229.706 203.497 225.198C203.517 225.158 205.333 222.547 205.311 222.58L205.445 222.385C205.463 222.35 206.059 221.29 206.018 221.358C217.186 201.803 213.356 176.939 197.346 161.089C174.037 138.036 135.385 141.748 116.217 168.786C116.001 169.01 114.776 170.984 114.798 170.952C114.78 170.987 113.173 173.524 113.272 173.366C113.254 173.401 111.43 176.824 111.547 176.598C111.24 177.189 110.607 178.533 109.575 180.773C96.6174 210.395 103.581 245.523 127.498 268.532C133.434 274.162 140.176 278.877 147.501 282.523C161.032 289.559 181.975 293.312 200.48 288.829C203.524 288.155 206.526 287.309 209.474 286.295L211.666 285.487C237.513 275.923 250.133 255.053 250.199 254.927C249.868 255.467 250.837 253.923 250.781 254.009C250.806 253.961 251.424 252.931 251.393 252.992C251.411 252.957 253.45 249.556 253.346 249.734C253.366 249.695 254.125 248.439 254.082 248.51C278.027 204.8 267.366 149.1 227.138 117.327L225.345 115.953C224.746 115.503 224.17 115.027 223.535 114.603L219.82 112.042C218.555 111.235 217.268 110.45 215.994 109.66C215.66 109.486 215.356 109.262 215.028 109.075L214.042 108.529L212.08 107.503L211.08 106.984L210.585 106.726L209.98 106.412L209.772 106.303L208.058 105.478L206.347 104.649L206.138 104.541C206.064 104.502 206.003 104.471 205.903 104.419L205.348 104.18L204.23 103.697L201.997 102.746L200.876 102.279C200.503 102.124 200.166 102.009 199.808 101.878C153.989 85.1901 107.817 101.155 82.1883 133.672C77.7449 139.274 73.8696 145.303 70.6196 151.672C70.0818 152.706 70.0795 152.71 67.0247 159.53C67.0767 159.43 66.2881 161.223 66.5789 160.568C64.467 166.094 64.5139 166.036 64.5276 165.999C60.9349 176.773 62.5022 172.294 59.8436 182.886L59.4705 185.005C57.9064 194.278 57.8305 197.833 57.8312 197.789C57.4904 203.276 57.3148 209.401 57.7579 214.92C58.1435 220.89 59.4606 230.452 60.9814 235.991C69.7927 270.23 90.2447 298.002 124.622 315.625L126.004 316.344L126.669 316.689L130.153 318.22C169.312 335.695 220.233 329.277 253 298.291C256.851 294.773 260.439 290.978 263.736 286.937C271.345 278.03 277.016 266.211 277.234 265.844C280.415 258.665 279.335 261.145 279.576 260.608C269.98 274.941 266.306 277.844 258.245 285.594C253.707 289.456 250.227 291.964 250.265 291.934C245.672 295.458 237.53 299.858 237.784 299.72C198.526 321.407 159.632 308.606 158.87 308.563L158.035 308.3C152.716 306.688 151.383 306.045 149.774 305.495C144.92 303.882 134.819 298.298 135.476 298.65L135.263 298.54C135.645 298.738 135.263 298.54 135.297 298.558L134.186 297.88L131.252 296.09L128.397 294.147C124.18 291.189 120.171 287.946 116.398 284.44C95.9826 265.857 81.9492 233.877 86.0274 200.549C86.0455 200.514 86.3493 197.922 86.3314 198.084L87.0265 194.029C87.7517 190.15 88.9593 185.969 88.9456 186.006C90.3964 180.859 92.0166 176.915 91.9985 176.95L92.129 176.593L92.3133 176.164C95.6648 168.317 93.6386 172.989 93.9154 172.393C93.9357 172.354 94.6801 170.869 94.662 170.904C98.1646 163.892 96.9496 166.324 97.2098 165.803L98.577 163.45C114.068 137.514 143.658 123.746 173.052 128.547C177.125 129.196 181.135 130.191 185.038 131.524L187.938 132.606C188.173 132.695 188.437 132.783 188.648 132.876L189.277 133.153L190.541 133.695L191.17 133.961L191.488 134.094C191.554 134.122 191.618 134.155 191.679 134.193L191.888 134.301L193.593 135.144L195.297 135.986L196.344 136.574L197.697 137.328L198.388 137.687C198.614 137.805 198.827 137.959 199.044 138.094L201.669 139.736L204.207 141.503C204.641 141.783 205.028 142.123 205.441 142.431L206.662 143.375C218.04 152.43 226.436 164.693 230.76 178.574C235.084 192.455 235.138 207.315 230.914 221.225C229.659 225.31 228.069 229.284 226.16 233.107C226.372 232.699 225.529 234.32 226.612 232.238C226.587 232.286 225.76 233.727 225.789 233.682C225.762 233.734 223.818 237.123 223.903 236.98C223.844 237.093 223.29 238.052 223.311 238.013C223.189 238.248 224.046 236.822 223.632 237.49C221.329 240.56 218.878 244.955 211.696 250.451C207.222 253.816 202.248 256.458 196.955 258.282C196.907 258.301 195.251 258.82 193.442 259.315C187.888 260.937 180.564 261.004 181.092 260.987L178.902 260.952C171.483 260.704 164.201 258.882 157.539 255.606L157.669 255.674L155.496 254.544C152.436 252.852 149.543 250.874 146.855 248.637C132.087 236.685 123.713 214.559 130.038 192.414C130.828 189.697 131.828 187.046 133.03 184.485L133.138 184.276C133.509 183.564 132.756 185.011 132.874 184.785C134.576 181.585 136.55 177.206 142.228 172.573C162.418 155.899 193.884 167.183 199.523 194.291C200.409 198.596 200.538 203.021 199.906 207.37C199.418 210.875 198.447 214.296 197.022 217.536C197.081 217.423 196.738 218.083 197.152 217.349C194.544 222.684 192.489 223.758 192.121 224.168C190.379 225.634 188.377 226.757 186.218 227.48C184.285 228.156 182.247 228.479 180.199 228.436C176.348 228.642 171.945 226.512 172.754 226.91L172.654 226.858L172.35 226.7C170.112 225.459 170.09 225.928 166.29 222.478L165.039 221.06C163.802 219.482 162.783 217.745 162.009 215.896L161.766 215.217C160.919 212.768 160.605 211.301 160.452 207.953C160.47 207.919 160.548 205.9 160.543 205.941C160.717 204.42 161.022 202.916 161.455 201.447L162.152 199.513Z" fill="#0071B8"/>
<circle r="10" transform="matrix(-1 0 0 1 177 63)" fill="#0071B8"/>
<circle r="7" transform="matrix(-1 0 0 1 202 80)" fill="#0071B8"/>
<circle r="7" transform="matrix(-1 0 0 1 234 380)" fill="#0071B8"/>
<path d="M381.679 431.153C380.697 429.145 380.92 429.694 380.546 428.665C380.154 427.604 379.84 426.516 379.606 425.409C379.593 425.378 379.405 423.875 379.403 423.977L379.337 423.493L379.318 423.012C379.307 420.852 379.19 423.524 379.342 420.082C379.376 418.38 380.317 415.125 380.228 415.47L380.642 414.304C381.739 411.443 383.435 408.85 385.618 406.7C387.19 405.199 388.964 403.926 390.889 402.917L391.062 402.82L392.884 401.987L394.509 401.432C397.97 400.361 401.637 400.129 405.206 400.755C409.097 401.714 411.515 402.259 416.058 405.835C417.196 406.808 418.25 407.875 419.209 409.025C420.959 411.298 420.478 410.795 420.723 411.152C420.736 411.183 422.04 413.41 421.961 413.27L422.041 413.455L422.337 414.092C432.257 435.403 423.649 459.527 404.082 470.734C401.827 472.011 399.47 473.098 397.035 473.984C395.195 474.688 392.248 475.427 392.281 475.418C371.003 480.103 351.635 470.247 342.164 453.671C323.169 419.767 341.332 373.989 381.696 363.821C381.727 363.808 413.098 354.546 438.93 377.845C444.189 382.509 448.61 388.038 452.003 394.193C451.9 393.953 453.347 396.919 453.334 396.888C453.375 396.985 454.466 399.216 454.406 399.086C454.424 399.128 454.688 399.669 454.675 399.638C463.029 417.962 464.353 443.915 454.168 466.137C440.6 496.166 415.727 505.785 415.096 506.395C415.096 506.395 411.572 507.986 411.583 507.981C410.81 508.313 408.149 509.332 408.181 509.323L407.316 509.653C407.034 509.774 406.753 509.845 406.468 509.939C369.816 521.958 333.373 507.905 312.982 479.941C309.524 475.17 306.554 470.065 304.116 464.701C303.664 463.647 301.409 458.086 301.43 458.136L301.349 457.947C301.372 458.001 300.935 456.78 301.085 457.205C299.468 452.437 299.508 452.465 299.521 452.496C295.829 439.473 294.131 426.948 295.562 413.019C295.713 412.602 297.263 383.278 317.892 358.713C322.473 352.843 329.293 346.09 338.93 339.234C343.829 335.867 345.421 335.074 349.642 332.74C352.828 330.978 359.393 328.269 359.362 328.282L361.089 327.646L363.388 326.805C403.509 312.555 449.686 326.139 474.371 359.763C480.246 368.22 483.259 372.838 487.83 385.616C487.907 385.84 487.898 386.085 487.804 386.302C487.709 386.52 487.538 386.694 487.321 386.791C487.105 386.889 486.861 386.902 486.636 386.828C486.41 386.755 486.221 386.6 486.104 386.394C467.892 353.578 436.124 335.518 402.36 336.075L399.351 336.146C393.895 336.512 391.842 336.849 391.869 336.847C383.198 337.862 373.945 341.154 374.471 340.983C372.4 341.597 367.179 343.908 367.518 343.758C367.487 343.771 365.728 344.526 365.86 344.47L365.519 344.616C358.967 347.887 355.781 350.01 355.81 349.993C348.319 354.606 338.797 363.105 333.256 370.791C323.129 383.563 318.907 399.275 318.887 399.316C316.97 405.172 315.137 416.779 315.314 423.726C315.327 423.757 315.365 427.406 315.365 427.364C315.398 427.908 315.819 435.766 316.725 439.668C317.685 444.431 317.958 445.279 317.949 445.247C317.962 445.277 318.384 447.027 318.349 446.905L318.703 448.07C319.441 450.759 320.282 452.919 321.844 457.153C321.6 456.585 321.815 457.087 321.781 457.006C323.569 461.258 325.764 465.328 328.335 469.157C345.089 494.131 376.756 503.917 403.2 496.487L405.238 495.9L406.263 495.611C406.317 495.588 409.95 494.325 409.917 494.335C410.165 494.228 412.408 493.343 412.377 493.356C416.886 491.329 415.722 492.02 421.746 488.615C434.207 481.117 443.986 469.881 449.688 456.506C455.389 443.132 456.723 428.302 453.499 414.129L453.153 412.599C451.034 404.839 450.504 404.669 449.615 402.131C449.602 402.1 447.169 397.17 447.184 397.205C446.935 396.721 445.781 394.801 445.237 394.014C431.983 374.236 408.845 367.042 387.769 373.347C387.3 373.503 386.822 373.626 386.361 373.801L384.971 374.306C384.747 374.402 384.5 374.467 384.282 374.556L383.64 374.832C381.487 375.756 380.861 376.057 380.892 376.044C380.923 376.031 379.746 376.573 379.754 376.592L378.295 377.374C358.378 388.086 347.221 411.819 353.161 435.227C353.812 437.697 354.63 440.121 355.608 442.481C355.85 443.045 355.367 441.921 355.442 442.094L355.794 442.831L356.496 444.304L356.849 445.041L356.928 445.226C356.593 444.583 356.885 445.126 356.837 445.014L356.992 445.29C362.79 455.826 374.887 462.568 388.982 460.208L390.243 459.946C391.054 459.767 392.93 459.199 392.897 459.208C394.295 458.723 395.662 458.156 396.993 457.509C400.981 455.516 404.5 452.699 407.317 449.244C410.133 445.789 412.183 441.775 413.33 437.468C415.026 431.046 414.744 424.263 412.521 418.005C412.583 418.148 412.271 417.421 412.661 418.265C411.699 416.121 411.246 414.801 409.496 412.963C407.459 410.808 404.821 409.315 401.924 408.679C399.582 408.225 399.019 408.311 396.666 408.461L395.384 408.673L394.105 409.053L393.699 409.173C393.988 409.049 393.772 409.141 393.834 409.115L393.679 409.181L392.823 409.512C391.686 409.992 390.6 410.585 389.583 411.284L388.402 412.212L387.308 413.258C383.04 417.712 382.687 423.5 382.698 423.473L382.625 425.105C382.65 426.93 382.925 428.742 383.441 430.492C383.495 430.719 383.464 430.957 383.353 431.162C383.243 431.368 383.062 431.526 382.843 431.607C382.625 431.687 382.384 431.686 382.167 431.602C381.95 431.518 381.771 431.357 381.664 431.15L381.679 431.153Z" fill="#0071B8"/>
<path d="M298.954 66.4195C299.85 66.1333 300.794 66.0352 301.727 66.1314C302.999 66.3349 303.668 64.2216 306.668 63.8123C309.35 63.5512 312.05 63.9377 314.545 64.9399C315.885 65.5532 317.77 63.8233 318.777 61.2344C319.783 58.6454 320.166 56.8263 323.251 53.7281C326.336 50.63 334.345 43.4664 338.065 40.7622C341.784 38.0581 345.309 37.2318 345.037 38.6965C344.765 40.1612 344.25 40.5815 346.154 40.5981C348.058 40.6146 348.363 40.9067 347.906 42.3365C347.449 43.7662 349.109 44.0686 349.789 44.8706C350.468 45.6725 349.921 46.2694 349.585 47.3311C349.249 48.3928 349.492 48.846 349.679 50.0701C349.865 51.2942 349.449 55.0294 346.841 59.0593C344.234 63.0891 342.479 66.206 341.614 71.3625C341.186 74.1761 340.386 76.9216 339.234 79.5251C339.06 80.0338 341.456 81.5784 344.732 85.1304C348.007 88.6825 348.383 89.9602 352.572 91.864C356.761 93.7677 359.824 94.3525 360.423 96.0765C361.023 97.8005 359.924 97.6623 357.376 98.4086C354.828 99.155 354.191 98.18 351.224 96.0871C348.257 93.9943 346.08 92.3319 342.132 91.4775C338.184 90.6232 333.493 89.7242 327.694 88.0925C321.895 86.4608 318.227 84.7245 314.246 80.9531C310.265 77.1818 310.014 74.9516 307.505 73.2094C304.996 71.4671 302.849 69.195 301.954 68.5296C301.059 67.8641 298.954 66.4195 298.954 66.4195Z" fill="#0071B8"/>
</svg>
