<svg width="242" height="549" viewBox="0 0 242 549" fill="none" xmlns="http://www.w3.org/2000/svg">
<g clip-path="url(#clip0_641_627)">
<path fill-rule="evenodd" clip-rule="evenodd" d="M47.6177 30.5304C35.3593 41.6061 14.7947 47.9338 21.3213 62.2537C26.0725 72.6779 45.8656 64.1972 52.4049 53.4367C66.0857 30.9238 68.772 13.9075 68.772 13.9075L68.5163 0C68.5163 0 67.6371 12.4419 47.6177 30.5304Z" fill="#61B9E9"/>
<path fill-rule="evenodd" clip-rule="evenodd" d="M42.0549 70.819C28.15 79.7333 9.80887 88.7956 16.3354 103.118C21.0866 113.542 41.3765 106.605 52.2125 92.7673C65.346 75.9963 68.5459 55.9683 68.5459 55.9683L68.9052 35.7543C68.9052 35.7543 63.9933 56.7593 42.0549 70.819Z" fill="#61B9E9"/>
<path fill-rule="evenodd" clip-rule="evenodd" d="M37.7857 115.5C23.5003 123.792 5.25001 133.003 12.3367 147.054C17.9354 158.155 39.4342 154.64 53.7618 139.085C66.1999 125.582 68.8228 97.5531 68.8228 97.5531L69.0341 80.3442C69.0341 80.3442 54.9242 105.552 37.7857 115.5Z" fill="#61B9E9"/>
<path fill-rule="evenodd" clip-rule="evenodd" d="M35.7926 166.72C18.3581 173.86 -1.77326 186.6 7.95319 204.642C15.3505 218.374 37.0269 213.798 52.9248 197.058C66.7262 182.525 68.8608 148.298 68.8608 148.298L68.7277 133.732C68.7277 133.732 55.9873 158.462 35.7926 166.72Z" fill="#61B9E9"/>
<path fill-rule="evenodd" clip-rule="evenodd" d="M33.9496 230.215C14.465 238.495 -8.03352 253.268 2.83634 274.192C11.1066 290.115 35.3318 284.809 53.0981 265.396C68.5269 248.543 69.3025 210.517 69.3025 210.517L69.9577 192.296C69.9577 192.296 56.522 220.624 33.9496 230.215Z" fill="#61B9E9"/>
<path fill-rule="evenodd" clip-rule="evenodd" d="M91.2452 30.5304C71.2259 12.4419 70.3445 0 70.3445 0L70.0909 13.9075C70.0909 13.9075 72.7793 30.9238 86.458 53.4367C92.9973 64.1972 112.793 72.6822 117.542 62.2537C124.068 47.9338 103.502 41.6061 91.2452 30.5304Z" fill="#61B9E9"/>
<path fill-rule="evenodd" clip-rule="evenodd" d="M96.8058 70.8188C74.8675 56.7591 69.9641 35.752 69.9641 35.752L70.3234 55.966C70.3234 55.966 73.5233 75.996 86.6546 92.7649C97.4907 106.603 117.783 113.539 122.532 103.115C129.058 88.7974 110.713 79.733 96.8058 70.8188Z" fill="#61B9E9"/>
<path fill-rule="evenodd" clip-rule="evenodd" d="M101.077 115.5C83.9387 105.56 69.8288 80.3485 69.8288 80.3485L70.0402 97.5573C70.0402 97.5573 72.6609 125.582 85.1012 139.085C99.4288 154.64 120.928 158.155 126.526 147.054C133.611 133.003 115.363 123.792 101.077 115.5Z" fill="#61B9E9"/>
<path fill-rule="evenodd" clip-rule="evenodd" d="M103.062 166.72C82.8671 158.451 70.1247 133.728 70.1247 133.728L69.9937 148.293C69.9937 148.293 72.1262 182.521 85.9296 197.054C101.825 213.794 123.502 218.37 130.901 204.638C140.636 186.59 120.505 173.86 103.062 166.72Z" fill="#61B9E9"/>
<path fill-rule="evenodd" clip-rule="evenodd" d="M104.909 230.215C82.3493 220.624 68.903 192.3 68.903 192.3L69.5582 210.522C69.5582 210.522 70.3381 248.547 85.7626 265.401C103.529 284.813 127.754 290.119 136.024 274.196C146.894 253.261 124.396 238.495 104.909 230.215Z" fill="#61B9E9"/>
<path d="M91.2452 30.5305C85.767 25.5817 81.7343 21.0558 78.7395 17.0925C82.5039 23.5563 87.0866 29.5067 92.3738 34.7962C101.705 44.2117 116.544 50.8693 118.269 60.3376C122.202 47.3438 102.941 41.0986 91.2452 30.5305Z" fill="#CEEFFF"/>
<path d="M96.8058 70.8189C88.2234 65.3429 81.041 57.9328 75.8333 49.1815C79.7222 58.1084 85.9571 68.2916 95.7005 75.3299C107.921 84.1469 123.81 93.2958 120.963 105.414C121.609 104.743 122.135 103.966 122.519 103.117C129.058 88.7975 110.713 79.7331 96.8058 70.8189Z" fill="#CEEFFF"/>
<path d="M69.9578 35.752L69.9831 37.2324V35.8387C69.9641 35.7816 69.9578 35.752 69.9578 35.752Z" fill="white"/>
<path d="M101.077 115.5C88.8358 108.394 78.1392 93.5052 73.0266 85.5786C77.7439 96.153 86.5531 112.985 97.5118 120.178C110.867 128.951 127.879 138.789 121.868 151.764C123.873 150.72 125.5 149.073 126.518 147.054C133.611 133.003 115.363 123.792 101.077 115.5Z" fill="#CEEFFF"/>
<path d="M103.062 166.72C91.6214 162.036 82.5755 152.075 76.8795 144.317C81.7153 154.295 89.0281 165.466 98.913 170.174C115.929 178.263 133.085 193.345 122.373 210.83C122.107 211.262 121.825 211.674 121.528 212.065C123.52 211.553 125.383 210.627 126.995 209.348C128.607 208.069 129.933 206.466 130.886 204.642C140.636 186.59 120.505 173.86 103.062 166.72Z" fill="white"/>
<path d="M104.909 230.216C91.222 224.4 80.8932 211.689 74.8844 202.589C79.1368 215.21 86.5447 228.739 99.3781 235.213C118.281 244.747 135.669 260.257 123.662 280.554C123.044 281.605 122.322 282.592 121.509 283.5C127.765 283.039 132.977 280.057 136.024 274.194C146.894 253.261 124.396 238.495 104.909 230.216Z" fill="white"/>
<path fill-rule="evenodd" clip-rule="evenodd" d="M68.4233 0.067749L60.8526 548.725L79.3502 549L70.5748 0.230595L68.4233 0.067749Z" fill="#61B9E9"/>
<path fill-rule="evenodd" clip-rule="evenodd" d="M138.259 258.653C137.923 257.33 137.463 256.041 136.883 254.806C136.761 254.545 136.636 254.287 136.503 254.029C136.241 253.516 135.958 253.008 135.657 252.505C135.505 252.255 135.351 252.005 135.19 251.758C134.979 251.439 134.768 251.124 134.556 250.808C134.36 250.529 134.159 250.252 133.95 249.977C133.466 249.332 132.953 248.697 132.409 248.074C132.027 247.634 131.631 247.2 131.219 246.773C131.008 246.547 130.784 246.321 130.56 246.099C130.219 245.76 129.871 245.425 129.516 245.094C129.194 244.792 128.866 244.493 128.531 244.195L128.357 244.043C128.036 243.762 127.709 243.485 127.377 243.197C125.832 241.911 124.183 240.682 122.459 239.513L121.78 239.058C120.935 238.494 120.069 237.945 119.183 237.411C118.832 237.199 118.479 236.988 118.126 236.776C113.87 234.302 109.459 232.105 104.92 230.199C104.527 230.033 104.137 229.859 103.75 229.679L103.378 229.503C103.111 229.378 102.847 229.251 102.583 229.122L102.16 228.911C101.911 228.784 101.661 228.655 101.414 228.524L101.008 228.312C100.736 228.167 100.467 228.016 100.201 227.864L99.886 227.686C99.5162 227.475 99.1505 227.263 98.787 227.035L98.5757 226.906C98.2798 226.724 97.9881 226.54 97.6964 226.354L97.3287 226.113C97.092 225.956 96.8552 225.8 96.6207 225.641C96.4896 225.553 96.3586 225.464 96.2296 225.373C95.9971 225.214 95.7668 225.051 95.5385 224.888L95.1771 224.63C94.9087 224.436 94.6424 224.237 94.3761 224.038L94.1521 223.873C93.8153 223.617 93.4821 223.358 93.1524 223.097C93.0615 223.027 92.9748 222.955 92.8861 222.886C92.643 222.693 92.3999 222.497 92.1611 222.3L91.8145 222.012C91.6031 221.835 91.3918 221.655 91.1804 221.473L90.8338 221.175C90.6224 220.986 90.4111 220.796 90.185 220.604L89.8848 220.337C89.5889 220.073 89.2952 219.804 89.0056 219.536L88.9633 219.495C88.6576 219.214 88.3539 218.926 88.0524 218.633L87.7882 218.375C87.5769 218.163 87.3655 217.952 87.1542 217.755L86.8519 217.453C86.6554 217.256 86.4588 217.055 86.2644 216.856L85.9748 216.558C85.7634 216.346 85.5521 216.116 85.3407 215.896L85.1294 215.672C84.8483 215.371 84.5693 215.069 84.284 214.769L84.2227 214.699C83.9705 214.417 83.7225 214.14 83.4788 213.868L83.2526 213.612C83.0624 213.4 82.8722 213.176 82.6841 212.956L82.4389 212.671C82.2529 212.459 82.0711 212.248 81.8894 212.019L81.678 211.763C81.4582 211.5 81.2419 211.237 81.0292 210.975L80.9425 210.867C80.691 210.558 80.4416 210.249 80.1986 209.94L80.1203 209.841C79.909 209.575 79.6976 209.308 79.4863 209.042L79.3193 208.83C79.1418 208.602 78.9685 208.373 78.7952 208.145C78.7381 208.067 78.6789 207.991 78.6219 207.914C78.4429 207.676 78.2654 207.437 78.0893 207.197L77.9688 207.035C77.527 206.432 77.098 205.838 76.688 205.254L76.6436 205.19C76.4576 204.924 76.2737 204.662 76.0941 204.399L75.9884 204.247C75.8235 204.008 75.6629 203.769 75.5044 203.534L75.4114 203.399C75.2317 203.131 75.0521 202.864 74.8788 202.6C74.4927 202.015 74.1243 201.445 73.7734 200.891L73.2683 169.379C75.5932 179.247 79.4947 190.297 85.9283 197.071C97.2885 209.033 111.597 214.781 121.541 212.087C122.512 211.825 123.455 211.471 124.359 211.03L124.426 210.996C124.619 210.901 124.809 210.801 124.995 210.698L125.107 210.636C125.28 210.539 125.451 210.44 125.62 210.334L125.741 210.26C125.91 210.154 126.077 210.048 126.24 209.93C126.276 209.907 126.311 209.883 126.345 209.858C126.527 209.731 126.705 209.6 126.88 209.465L126.924 209.429C127.311 209.127 127.683 208.805 128.036 208.464L128.142 208.361C128.277 208.227 128.41 208.092 128.541 207.952L128.7 207.779C128.81 207.658 128.911 207.536 129.027 207.409L129.199 207.197C129.298 207.077 129.397 206.954 129.492 206.827C129.549 206.753 129.609 206.677 129.664 206.601C129.759 206.474 129.849 206.345 129.94 206.214C129.995 206.136 130.048 206.06 130.101 205.979C130.196 205.838 130.289 205.692 130.382 205.544C130.424 205.472 130.471 205.404 130.513 205.332C130.644 205.121 130.773 204.89 130.896 204.662C131.75 203.102 132.412 201.444 132.87 199.726C133.336 197.965 133.514 196.141 133.398 194.324C133.366 193.827 133.309 193.336 133.233 192.844C132.652 189.202 130.849 185.865 128.245 182.806C126.204 180.478 123.903 178.391 121.387 176.587C121.15 176.411 120.909 176.24 120.668 176.068C119.946 175.555 119.202 175.053 118.445 174.565C118.191 174.402 117.938 174.239 117.682 174.078C115.892 172.957 114.021 171.9 112.119 170.906C111.847 170.764 111.574 170.623 111.301 170.483C108.571 169.096 105.781 167.844 103.058 166.727H103.046C102.712 166.586 102.38 166.445 102.05 166.304L101.714 166.152C101.503 166.052 101.273 165.94 101.055 165.847L100.668 165.661C100.467 165.562 100.266 165.464 100.068 165.363L99.6683 165.151L99.0913 164.845L98.694 164.633C98.5017 164.528 98.3115 164.422 98.1213 164.312L97.7387 164.1C97.54 163.986 97.3414 163.868 97.1448 163.749L96.8003 163.538C96.5699 163.396 96.3417 163.252 96.1134 163.115L95.8746 162.965C95.5702 162.77 95.268 162.571 94.9679 162.368L94.7396 162.214C94.5156 162.062 94.2936 161.907 94.0717 161.753L93.742 161.518C93.556 161.385 93.37 161.252 93.1862 161.116L92.8353 160.856C92.6599 160.727 92.4866 160.596 92.3133 160.465L91.9603 160.192L91.4467 159.792L91.1064 159.52C90.931 159.38 90.7577 159.238 90.5844 159.097L90.2716 158.839L89.7031 158.361L89.4516 158.149C88.9091 157.681 88.3751 157.207 87.8495 156.726L87.6382 156.514L87.076 155.99L86.8139 155.74L86.3087 155.254C86.2179 155.167 86.1291 155.078 86.0403 154.989L85.5542 154.509L85.3091 154.232L84.825 153.737L84.5841 153.49C84.4094 153.308 84.2361 153.126 84.0642 152.944L83.8782 152.746C83.6612 152.516 83.4498 152.284 83.2441 152.052L83.1976 152.001C82.7263 151.487 82.2698 150.975 81.8217 150.461C81.7837 150.417 81.7435 150.373 81.7055 150.326C81.5258 150.115 81.3483 149.903 81.1707 149.706L81.0186 149.527L80.5325 148.949L80.3782 148.763L79.9026 148.184L79.7632 148.015L79.2686 147.399L79.1735 147.279C78.3703 146.27 77.6158 145.278 76.9141 144.318C75.2508 142.051 73.8707 139.974 72.8033 138.269L72.3679 110.945C74.4815 120.039 78.3408 131.719 85.1231 139.073C96.7707 151.72 113.159 156.415 121.898 151.752C122.192 151.595 122.475 151.424 122.744 151.246C122.837 151.187 122.926 151.123 123.016 151.062C123.211 150.929 123.401 150.789 123.585 150.639C123.672 150.571 123.758 150.504 123.841 150.428C124.08 150.229 124.31 150.024 124.53 149.806L124.58 149.759C124.813 149.527 125.033 149.277 125.244 149.021C125.308 148.945 125.369 148.863 125.43 148.784C125.582 148.588 125.728 148.387 125.868 148.18L126.037 147.926C126.218 147.636 126.392 147.34 126.548 147.027C127.763 144.618 128.239 142.353 128.108 140.211C128.085 139.815 128.041 139.421 127.977 139.031C127.913 138.648 127.832 138.27 127.734 137.895C125.299 128.708 112.039 121.822 101.103 115.477C100.763 115.28 100.425 115.075 100.087 114.866L99.8121 114.692C99.5303 114.515 99.2485 114.333 98.9667 114.147L98.7849 114.028C98.4538 113.807 98.1241 113.58 97.7958 113.347L97.5442 113.17C97.2822 112.981 97.018 112.789 96.7559 112.594C96.6735 112.533 96.5911 112.474 96.5086 112.41C96.186 112.169 95.864 111.923 95.5427 111.67L95.3568 111.522C95.0905 111.311 94.8242 111.099 94.5578 110.888C94.4691 110.812 94.3782 110.738 94.2873 110.664C93.9745 110.403 93.6631 110.14 93.3531 109.875L93.3214 109.847C93.0107 109.581 92.7043 109.308 92.3978 109.033L92.1315 108.796L91.3685 108.096L91.1889 107.931C90.8874 107.649 90.5872 107.364 90.2885 107.075L90.0518 106.844L89.3438 106.148L89.1134 105.916C88.8217 105.624 88.53 105.33 88.2426 105.032L88.0693 104.85C87.8298 104.603 87.5931 104.355 87.3592 104.105L87.1119 103.843L86.2897 102.955C86.2749 102.936 86.258 102.919 86.2432 102.902C85.9706 102.602 85.7001 102.303 85.4338 102.003L85.1949 101.732C84.9709 101.479 84.7476 101.224 84.5249 100.969L84.3707 100.789C84.1044 100.483 83.8423 100.177 83.5844 99.8692L83.3731 99.6218L82.7601 98.8858L82.5636 98.6489C82.3121 98.3423 82.0606 98.0335 81.8133 97.7268L81.678 97.5598L81.0566 96.7773L80.8601 96.5298C80.374 95.9095 79.8998 95.2954 79.4377 94.6878L79.2643 94.4615C79.0657 94.1971 78.8692 93.937 78.6768 93.6769L78.5796 93.5457C78.3555 93.2433 78.1336 92.943 77.9181 92.6469L77.7912 92.4735C77.6052 92.2176 77.4235 91.9659 77.2439 91.7142L77.1297 91.5577C76.9184 91.2617 76.707 90.9698 76.4957 90.6822L76.4428 90.606L75.8933 89.8214L75.7855 89.6649C75.3924 89.0981 75.0162 88.5461 74.659 88.0153C74.6337 87.9794 74.6104 87.9434 74.5871 87.9074C74.2215 87.366 73.8749 86.85 73.5494 86.3424L73.524 86.3065L73.0506 85.5747C72.6406 84.9389 72.2665 84.3502 71.9283 83.8088L71.5711 61.4735C73.4522 68.5965 77.7891 81.419 86.6659 92.7548C97.2547 106.273 116.862 113.204 122.188 103.794C122.205 103.767 122.22 103.739 122.234 103.712C122.342 103.517 122.446 103.319 122.543 103.109C123.56 100.88 123.974 98.7758 123.894 96.7815C123.894 96.7498 123.894 96.7202 123.894 96.6884C123.877 96.3543 123.847 96.0244 123.805 95.6987C123.183 90.9486 119.779 86.8162 115.173 83.0242C114.983 82.8677 114.791 82.7112 114.596 82.5568C113.235 81.4676 111.781 80.4081 110.27 79.3675C109.623 78.9213 108.964 78.4793 108.3 78.0415C107.412 77.4578 106.514 76.879 105.605 76.3052L104.925 75.8822C102.198 74.1671 99.4295 72.4984 96.8278 70.8192C96.2078 70.4216 95.6026 70.0191 95.0122 69.6116L94.8939 69.5312C94.3275 69.14 93.7758 68.7445 93.2327 68.3448L93.053 68.2115C92.5267 67.8224 92.0153 67.429 91.5123 67.0314L91.3009 66.8686C90.8064 66.4773 90.3266 66.0818 89.8531 65.6842L89.6418 65.5045C89.174 65.1083 88.7168 64.7093 88.2701 64.3075L88.0566 64.1383C87.6107 63.7343 87.1753 63.3262 86.7484 62.918L86.5814 62.7572C86.1587 62.3343 85.736 61.924 85.3133 61.5052L85.1928 61.3805C84.7701 60.9575 84.358 60.5155 83.9585 60.084L83.9036 60.0227C83.0582 59.1091 82.2628 58.1926 81.5174 57.2734L81.5005 57.2543C81.1327 56.806 80.7776 56.3597 80.4289 55.9156C80.4125 55.8921 80.3948 55.8696 80.3761 55.8479C80.0379 55.4123 79.7096 54.978 79.3912 54.5452L79.3256 54.4563C79.0114 54.0334 78.7064 53.6104 78.4105 53.1874L78.3471 53.0965C78.0512 52.6735 77.7652 52.2505 77.489 51.8275L77.4383 51.7514C77.1593 51.3284 76.8887 50.9054 76.6288 50.493L76.5992 50.4444C76.3329 50.0214 76.0757 49.5984 75.8278 49.1755C74.0087 46.1305 72.46 42.9318 71.1991 39.6162L70.8441 17.4353C72.3531 23.5473 76.4851 37.0276 86.4503 53.4306C92.9896 64.1911 112.785 72.6761 117.534 62.2476C117.826 61.6265 118.075 60.9864 118.28 60.3315C118.329 60.1729 118.371 60.0142 118.413 59.8556C118.424 59.8091 118.439 59.7605 118.451 59.7161C118.487 59.5722 118.517 59.4284 118.546 59.2931C118.559 59.2339 118.574 59.1746 118.587 59.1154C118.612 58.9801 118.635 58.8468 118.656 58.7136C118.667 58.648 118.68 58.5825 118.688 58.5169C118.707 58.3879 118.72 58.261 118.734 58.1341C118.734 58.0664 118.749 57.9988 118.756 57.9226C118.768 57.7978 118.775 57.6752 118.781 57.5525C118.781 57.4827 118.781 57.4129 118.781 57.341C118.781 57.2205 118.781 57.102 118.781 56.9815V56.77C118.781 56.6537 118.781 56.5353 118.766 56.4189C118.766 56.3492 118.766 56.2794 118.753 56.2075C118.745 56.0933 118.734 55.9791 118.722 55.8648C118.722 55.7951 118.707 55.7253 118.696 55.6534C118.682 55.5392 118.665 55.4271 118.648 55.3129C118.635 55.2452 118.625 55.1775 118.612 55.1014C118.591 54.9893 118.568 54.8772 118.544 54.7672C118.529 54.6995 118.515 54.634 118.498 54.5684C118.47 54.4563 118.443 54.3569 118.413 54.2364L118.356 54.0418C118.324 53.9318 118.291 53.8303 118.253 53.7119C118.234 53.6485 118.21 53.5871 118.189 53.5258C118.149 53.4137 118.111 53.3037 118.069 53.1937L117.997 53.0161C117.95 52.9061 117.904 52.8046 117.855 52.6841C117.832 52.6291 117.804 52.572 117.779 52.517C117.726 52.4049 117.674 52.2928 117.619 52.1807C117.593 52.13 117.566 52.0792 117.54 52.0263C117.479 51.9121 117.42 51.7979 117.356 51.6837C117.333 51.6393 117.306 51.5949 117.28 51.5505C117.213 51.4299 117.145 51.3115 117.069 51.1931C117.05 51.1592 117.027 51.1254 117.006 51.0916C116.927 50.9625 116.845 50.8335 116.76 50.7066L116.741 50.677C116.212 49.8914 115.624 49.147 114.983 48.4501L114.936 48.3993C114.827 48.2766 114.71 48.1561 114.596 48.0355C114.567 48.0038 114.537 47.9742 114.51 47.9425L114.178 47.6062L114.061 47.4899L113.732 47.1706L113.597 47.0415L113.267 46.7349L113.119 46.5974L112.781 46.295L112.624 46.1575L112.28 45.8593L112.115 45.7197L111.762 45.4237L111.595 45.2862L111.231 44.9901L111.06 44.8548C110.936 44.7554 110.813 44.6581 110.686 44.5608L110.515 44.4254L110.128 44.1294L109.959 44.0004C109.828 43.901 109.695 43.7994 109.56 43.7L109.397 43.5795C109.26 43.4759 109.12 43.368 108.974 43.2728L108.822 43.1629L108.385 42.8456L108.247 42.7483L107.784 42.4184L107.683 42.3486L107.176 41.9933L107.129 41.9595C105.1 40.551 102.951 39.1446 100.801 37.7001L100.679 37.6176L100.171 37.275L99.96 37.1354L99.5246 36.8394L99.2837 36.6744L98.899 36.4333L98.6412 36.2556L98.2565 35.9892L97.9796 35.7946L97.6182 35.5408L97.335 35.3293L96.9757 35.0734L96.6904 34.8619L96.3395 34.606L96.0564 34.3945L95.7097 34.1387L95.4244 33.9272L95.0862 33.6713L94.8009 33.4598L94.4712 33.206L94.1837 32.9818C94.0738 32.8972 93.9724 32.8105 93.8583 32.7238L93.5772 32.5123L93.2454 32.2437C93.1566 32.1718 93.0678 32.0999 92.9812 32.0322L92.6409 31.7488L92.3894 31.5373L92.0216 31.2222L91.8103 31.0403C91.6412 30.8944 91.4742 30.7443 91.3093 30.5941L91.2439 30.537C90.9141 30.2381 90.59 29.942 90.2716 29.6488L89.9884 29.3844L89.3269 28.7668L89.0035 28.4602L88.4138 27.8976L88.0799 27.574L87.5261 27.0326L87.2112 26.7048C87.0274 26.5251 86.8477 26.3432 86.668 26.1634L86.3658 25.8589C86.1819 25.6728 86.0002 25.4888 85.8226 25.3027L85.5542 25.0256C85.3654 24.831 85.1794 24.6365 84.9963 24.4419L84.7722 24.2072L84.172 23.5621L84.0198 23.3972C83.7831 23.1391 83.5506 22.8832 83.3224 22.6295L83.2927 22.5977C81.5533 20.6626 80.0464 18.8227 78.7402 17.099C72.9829 9.45374 71.1611 3.89793 70.5947 1.42986L70.5757 0.234961L70.3643 0.220155C70.3453 0.0784581 70.3389 0.00866699 70.3389 0.00866699V0.220155L68.515 0.0826827V0.00866699V0.0826827H68.4283V0.72772C67.9084 3.61031 64.8353 14.9905 47.6312 30.5476C35.3728 41.6232 14.8082 47.951 21.3347 62.2708C26.0859 72.6951 45.8791 64.2144 52.4183 53.4539C62.819 36.3381 66.8643 22.4032 68.2085 16.7036L67.8999 39.0156C65.575 45.4575 58.7399 60.1517 42.0684 70.8361C28.1635 79.7504 9.82233 88.8126 16.3489 103.135C21.1001 113.559 41.39 106.622 52.226 92.7844C61.5826 80.8353 65.8963 67.2345 67.604 60.3992L67.2891 83.316C62.9987 90.2613 51.3468 107.654 37.7991 115.517C23.5138 123.81 5.26347 133.02 12.3501 147.071C17.9489 158.172 39.4476 154.657 53.7752 139.102C61.012 131.246 64.9241 118.478 66.9319 109.173L66.5388 137.571C62.0772 144.838 51.072 160.486 35.806 166.738C18.3716 173.877 -1.75978 186.617 7.96667 204.66C15.364 218.392 37.0403 213.815 52.9383 197.076C59.8939 189.752 63.8842 177.426 66.133 167.002L65.6786 199.969C60.0334 209.063 49.0367 223.829 33.9757 230.233C14.4911 238.513 -8.00737 253.285 2.8625 274.21C11.1327 290.133 35.358 284.826 53.1243 265.414C58.9935 258.999 62.7408 249.518 65.1333 240.234L60.8767 548.74L79.3721 549.015L74.4772 242.823C76.8824 251.253 80.4606 259.596 85.7867 265.414C97.0074 277.68 110.804 284.306 121.533 283.517C122.301 283.463 123.066 283.366 123.824 283.227C124.557 283.095 125.282 282.918 125.994 282.699H126.02C126.711 282.486 127.389 282.23 128.049 281.933L128.095 281.912C128.402 281.772 128.704 281.622 129 281.466L129.065 281.432C129.373 281.27 129.673 281.096 129.968 280.912L130.031 280.872C130.3 280.702 130.563 280.526 130.82 280.343L130.936 280.26C131.208 280.049 131.477 279.854 131.739 279.626L131.811 279.565C132.046 279.369 132.275 279.164 132.498 278.951L132.644 278.816C132.885 278.581 133.121 278.34 133.352 278.088C133.375 278.065 133.396 278.04 133.417 278.014C133.629 277.786 133.823 277.551 134.019 277.308L134.172 277.118C134.383 276.849 134.594 276.572 134.791 276.286L134.833 276.223C135.018 275.955 135.196 275.679 135.368 275.394C135.417 275.316 135.463 275.237 135.51 275.159C135.693 274.85 135.871 274.525 136.042 274.21C136.213 273.895 136.372 273.556 136.526 273.233C136.835 272.583 137.111 271.94 137.355 271.306C137.71 270.385 138.008 269.442 138.249 268.485C138.624 267.006 138.837 265.49 138.883 263.965C138.883 263.671 138.883 263.379 138.883 263.087C138.859 261.94 138.736 260.797 138.513 259.672C138.422 259.319 138.344 258.985 138.259 258.653Z" fill="#61B9E9"/>
<path fill-rule="evenodd" clip-rule="evenodd" d="M108.557 211.562C118.138 214.28 126.761 212.334 130.908 204.642C135.297 196.496 133.602 189.432 128.82 183.477C120.23 196.434 112.207 204.9 108.557 211.562Z" fill="#39A6E2"/>
<path fill-rule="evenodd" clip-rule="evenodd" d="M125.226 241.513C119.786 246.635 115.559 249.074 112.729 251.876C102.071 262.467 101.625 275.709 110.54 281.58C111.099 281.947 111.685 282.271 112.294 282.548C114.654 283.174 117.081 283.511 119.522 283.553C125.396 282.817 131.214 278.9 135.283 275.478C135.543 275.055 135.791 274.623 136.024 274.182C143.024 260.714 136.185 249.793 125.226 241.513Z" fill="#39A6E2"/>
<path fill-rule="evenodd" clip-rule="evenodd" d="M246 318.77C235.242 313.54 205.568 300.229 193.318 274.046C180.964 247.642 173.085 245.495 173.085 245.495V245.555C172.952 245.593 165.105 247.925 152.857 274.106C140.609 300.286 110.933 313.599 100.175 318.831C78.4055 329.406 87.3711 356.423 102.322 362.093C123.802 370.244 144.863 348.114 144.863 348.114C144.863 348.114 144.758 361.116 154.089 371.551C161.332 379.651 173.089 379.006 173.089 379.006V378.949C173.157 378.949 184.864 379.569 192.086 371.494C201.417 361.059 201.311 348.055 201.311 348.055C201.311 348.055 222.373 370.185 243.855 362.036C258.804 356.356 267.763 329.344 246 318.77Z" fill="#61B9E9"/>
<path fill-rule="evenodd" clip-rule="evenodd" d="M246 318.77C235.242 313.54 205.568 300.229 193.318 274.046C180.964 247.642 173.085 245.495 173.085 245.495V245.555C172.952 245.593 165.105 247.925 152.857 274.106C140.609 300.286 110.933 313.599 100.175 318.831C78.4055 329.406 87.3711 356.423 102.322 362.093C123.802 370.244 144.863 348.114 144.863 348.114C144.863 348.114 144.758 361.116 154.089 371.551C161.332 379.651 173.089 379.006 173.089 379.006V378.949C173.157 378.949 184.864 379.569 192.086 371.494C201.417 361.059 201.311 348.055 201.311 348.055C201.311 348.055 222.373 370.185 243.855 362.036C258.804 356.356 267.763 329.344 246 318.77Z" fill="#61B9E9"/>
<path fill-rule="evenodd" clip-rule="evenodd" d="M193.309 274.04C180.956 247.636 173.077 245.489 173.077 245.489V245.548C172.944 245.586 165.096 247.919 152.848 274.099C148.663 283.041 142.447 290.481 135.646 296.612C144.878 293.417 152.977 284.185 152.977 284.185C152.977 284.185 152.901 294.791 159.546 303.304C164.701 309.909 173.072 309.384 173.072 309.384V309.325C173.14 309.325 181.461 309.824 186.599 303.245C193.242 294.732 193.166 284.128 193.166 284.128C193.166 284.128 201.273 293.36 210.497 296.553C203.719 290.43 197.503 282.982 193.309 274.04Z" fill="#39A6E2"/>
<path fill-rule="evenodd" clip-rule="evenodd" d="M190.953 214.942C179.267 195.295 173.085 183.136 173.085 183.136V183.202C173.02 183.333 166.844 195.468 155.224 214.999C140.852 239.144 130.314 243.154 124.895 248.539C114.236 259.13 113.79 272.371 122.705 278.242C135.553 286.702 152.994 266.841 152.994 266.841C152.994 266.841 152.918 277.445 159.563 285.957C164.718 292.564 173.089 292.038 173.089 292.038V291.978C173.157 291.978 181.478 292.477 186.616 285.898C193.259 277.388 193.183 266.782 193.183 266.782C193.183 266.782 210.623 286.645 223.472 278.185C232.386 272.314 231.941 259.071 221.284 248.482C215.861 243.095 205.314 239.087 190.953 214.942Z" fill="#61B9E9"/>
<path fill-rule="evenodd" clip-rule="evenodd" d="M190.953 214.942C179.267 195.295 173.085 183.136 173.085 183.136V183.202C173.02 183.333 166.844 195.468 155.224 214.999C146.226 230.127 138.726 237.351 133.044 241.959C143.553 239.735 152.994 224.239 152.994 224.239C152.994 224.239 152.918 237.302 159.563 247.786C164.718 255.922 173.089 255.275 173.089 255.275V255.216C173.157 255.216 181.478 255.831 186.616 247.727C193.259 237.243 193.183 224.18 193.183 224.18C193.183 224.18 202.624 239.678 213.132 241.902C207.449 237.292 199.95 230.07 190.953 214.942Z" fill="#39A6E2"/>
<path fill-rule="evenodd" clip-rule="evenodd" d="M118.136 273.3C119.223 275.303 120.794 277.003 122.705 278.244C134.429 285.964 149.969 270.106 152.605 267.27C153.177 265.101 153.883 262.969 154.719 260.888C154.719 260.888 131.696 276.199 118.136 273.3Z" fill="white"/>
<path fill-rule="evenodd" clip-rule="evenodd" d="M196.873 224.122C203.52 238.504 211.184 246.483 214.493 250.77C223.408 262.283 222.491 275.023 213.69 280.048C217.011 280.626 220.373 280.235 223.47 278.196C232.384 272.325 231.938 259.081 221.282 248.492C216.637 243.865 208.225 240.259 196.873 224.122Z" fill="white"/>
<path fill-rule="evenodd" clip-rule="evenodd" d="M178.206 282.182C172.269 287.653 161.683 287.77 161.114 287.668C166.239 292.477 173.089 292.048 173.089 292.048V291.989C173.157 291.989 181.478 292.488 186.616 285.909C193.05 277.661 193.181 267.461 193.183 266.824C191.559 263.659 190.156 260.385 188.985 257.026C188.985 257.026 188.706 272.496 178.206 282.182Z" fill="white"/>
<path fill-rule="evenodd" clip-rule="evenodd" d="M168.524 361.537C170.701 407.017 168.552 446.5 166.926 466.938C164.168 501.639 161.805 531.231 161.805 531.231L183.501 532.02L178.333 358.25C178.333 358.25 167.653 343.302 168.524 361.537Z" fill="#61B9E9"/>
<path fill-rule="evenodd" clip-rule="evenodd" d="M173.085 104.72V104.794C172.952 105.399 165.774 137.486 146.926 170.5C128.984 201.925 109.728 211.389 123.151 222.864C136.743 234.496 152.994 207.808 152.994 207.808C152.994 207.808 152.918 220.87 159.563 231.353C164.718 239.491 173.089 238.844 173.089 238.844V238.785C173.157 238.785 181.478 239.398 186.616 231.296C193.259 220.813 193.183 207.749 193.183 207.749C193.183 207.749 209.436 234.43 223.026 222.805C236.44 211.33 217.194 201.868 199.251 170.443C180.22 137.112 173.085 104.72 173.085 104.72Z" fill="#61B9E9"/>
<path fill-rule="evenodd" clip-rule="evenodd" d="M173.085 104.72V104.794C172.952 105.399 165.774 137.486 146.926 170.5C128.984 201.925 109.728 211.389 123.151 222.864C136.743 234.496 152.994 207.808 152.994 207.808C152.994 207.808 152.918 220.87 159.563 231.353C164.718 239.491 173.089 238.844 173.089 238.844V238.785C173.157 238.785 181.478 239.398 186.616 231.296C193.259 220.813 193.183 207.749 193.183 207.749C193.183 207.749 209.436 234.43 223.026 222.805C236.44 211.33 217.194 201.868 199.251 170.443C180.22 137.112 173.085 104.72 173.085 104.72Z" fill="white"/>
<path fill-rule="evenodd" clip-rule="evenodd" d="M172.405 93.63L165.622 103.686C165.487 104.291 158.309 136.378 139.461 169.391C121.519 200.819 102.263 210.281 115.686 221.756C129.278 233.388 153.609 200.341 153.609 200.341C153.609 200.341 150.147 220.472 152.504 225.508C156.593 234.229 165.624 237.747 165.624 237.747V237.687C165.692 237.687 176.936 235.547 182.07 227.443C188.715 216.959 190.913 203.39 190.913 203.39C190.913 203.39 201.975 233.329 215.563 221.697C228.979 210.221 209.731 200.759 191.788 169.334C172.76 136.006 172.405 93.63 172.405 93.63Z" fill="#61B9E9"/>
<path fill-rule="evenodd" clip-rule="evenodd" d="M90.6132 349.351C90.1504 349.091 89.6981 348.812 89.2584 348.505C91.8581 354.723 96.6558 359.926 102.322 362.081C119.628 368.647 136.659 355.562 142.625 350.237C143.807 348.167 117.622 364.521 90.6132 349.351Z" fill="white"/>
<path fill-rule="evenodd" clip-rule="evenodd" d="M180.113 370.275C170.469 378.206 159.751 375.212 158.888 375.448C165.597 379.403 173.089 378.997 173.089 378.997V378.94C173.157 378.94 184.864 379.56 192.086 371.485C201.417 361.05 201.311 348.046 201.311 348.046C201.311 348.046 201.466 348.209 201.755 348.494C200.045 345.574 198.547 342.535 197.272 339.4C197.272 339.4 190.925 361.384 180.113 370.275Z" fill="white"/>
<path fill-rule="evenodd" clip-rule="evenodd" d="M246 318.77C236.772 314.282 213.629 303.851 199.502 284.449C210.6 306.097 232.416 319.979 241.008 325.812C256.09 336.044 252.596 353.001 243.288 362.237C243.476 362.169 243.666 362.106 243.857 362.025C258.803 356.355 267.763 329.344 246 318.77Z" fill="white"/>
<path d="M33.5 93C65 95 90.5 74.5 93.5 39M24.5 138.5C40 153 96 156 112 122M24.5 180C40 207.5 86 212.5 114 204" stroke="#FFF99B" stroke-width="0.5"/>
<ellipse cx="33.2857" cy="93" rx="9.28571" ry="10" fill="url(#paint0_radial_641_627)"/>
<ellipse cx="33.2857" cy="93" rx="2.32143" ry="3" fill="#FFF59B"/>
<ellipse cx="85.2857" cy="67" rx="9.28571" ry="10" fill="url(#paint1_radial_641_627)"/>
<ellipse cx="85.2857" cy="67" rx="2.32143" ry="3" fill="#FFF59B"/>
<ellipse cx="61.2857" cy="87" rx="9.28571" ry="10" fill="url(#paint2_radial_641_627)"/>
<ellipse cx="61.2857" cy="87" rx="2.32143" ry="3" fill="#FFF59B"/>
<ellipse cx="24.2857" cy="138" rx="9.28571" ry="10" fill="url(#paint3_radial_641_627)"/>
<ellipse cx="24.2857" cy="138" rx="2.32143" ry="3" fill="#FFF59B"/>
<ellipse cx="51.2857" cy="148" rx="9.28571" ry="10" fill="url(#paint4_radial_641_627)"/>
<ellipse cx="51.2857" cy="148" rx="2.32143" ry="3" fill="#FFF59B"/>
<ellipse cx="85.2857" cy="145" rx="9.28571" ry="10" fill="url(#paint5_radial_641_627)"/>
<ellipse cx="85.2857" cy="145" rx="2.32143" ry="3" fill="#FFF59B"/>
<ellipse cx="112.286" cy="122" rx="9.28571" ry="10" fill="url(#paint6_radial_641_627)"/>
<ellipse cx="112.286" cy="122" rx="2.32143" ry="3" fill="#FFF59B"/>
<ellipse cx="136.286" cy="173" rx="9.28571" ry="10" fill="url(#paint7_radial_641_627)"/>
<ellipse cx="136.286" cy="173" rx="2.32143" ry="3" fill="#FFF59B"/>
<ellipse cx="170.286" cy="193" rx="9.28571" ry="10" fill="url(#paint8_radial_641_627)"/>
<ellipse cx="170.286" cy="193" rx="2.32143" ry="3" fill="#FFF59B"/>
<path d="M137.5 173.5C145.333 183.167 170.8 201.2 210 196" stroke="#FFF99B" stroke-width="0.5"/>
<ellipse cx="210.286" cy="196" rx="9.28571" ry="10" fill="url(#paint9_radial_641_627)"/>
<ellipse cx="210.286" cy="196" rx="2.32143" ry="3" fill="#FFF59B"/>
<ellipse cx="25.2857" cy="182" rx="9.28571" ry="10" fill="url(#paint10_radial_641_627)"/>
<ellipse cx="25.2857" cy="182" rx="2.32143" ry="3" fill="#FFF59B"/>
<ellipse cx="57.2857" cy="203" rx="9.28571" ry="10" fill="url(#paint11_radial_641_627)"/>
<ellipse cx="57.2857" cy="203" rx="2.32143" ry="3" fill="#FFF59B"/>
<ellipse cx="97.2857" cy="208" rx="9.28571" ry="10" fill="url(#paint12_radial_641_627)"/>
<ellipse cx="97.2857" cy="208" rx="2.32143" ry="3" fill="#FFF59B"/>
<ellipse cx="93.2857" cy="38" rx="9.28571" ry="10" fill="url(#paint13_radial_641_627)"/>
<ellipse cx="93.2857" cy="38" rx="2.32143" ry="3" fill="#FFF59B"/>
</g>
<defs>
<radialGradient id="paint0_radial_641_627" cx="0" cy="0" r="1" gradientUnits="userSpaceOnUse" gradientTransform="translate(33.2857 93) rotate(90) scale(10 9.28571)">
<stop stop-color="#F39200"/>
<stop offset="0.947917" stop-color="#FFF59B" stop-opacity="0"/>
</radialGradient>
<radialGradient id="paint1_radial_641_627" cx="0" cy="0" r="1" gradientUnits="userSpaceOnUse" gradientTransform="translate(85.2857 67) rotate(90) scale(10 9.28571)">
<stop stop-color="#F39200"/>
<stop offset="0.947917" stop-color="#FFF59B" stop-opacity="0"/>
</radialGradient>
<radialGradient id="paint2_radial_641_627" cx="0" cy="0" r="1" gradientUnits="userSpaceOnUse" gradientTransform="translate(61.2857 87) rotate(90) scale(10 9.28571)">
<stop stop-color="#F39200"/>
<stop offset="0.947917" stop-color="#FFF59B" stop-opacity="0"/>
</radialGradient>
<radialGradient id="paint3_radial_641_627" cx="0" cy="0" r="1" gradientUnits="userSpaceOnUse" gradientTransform="translate(24.2857 138) rotate(90) scale(10 9.28571)">
<stop stop-color="#F39200"/>
<stop offset="0.947917" stop-color="#FFF59B" stop-opacity="0"/>
</radialGradient>
<radialGradient id="paint4_radial_641_627" cx="0" cy="0" r="1" gradientUnits="userSpaceOnUse" gradientTransform="translate(51.2857 148) rotate(90) scale(10 9.28571)">
<stop stop-color="#F39200"/>
<stop offset="0.947917" stop-color="#FFF59B" stop-opacity="0"/>
</radialGradient>
<radialGradient id="paint5_radial_641_627" cx="0" cy="0" r="1" gradientUnits="userSpaceOnUse" gradientTransform="translate(85.2857 145) rotate(90) scale(10 9.28571)">
<stop stop-color="#F39200"/>
<stop offset="0.947917" stop-color="#FFF59B" stop-opacity="0"/>
</radialGradient>
<radialGradient id="paint6_radial_641_627" cx="0" cy="0" r="1" gradientUnits="userSpaceOnUse" gradientTransform="translate(112.286 122) rotate(90) scale(10 9.28571)">
<stop stop-color="#F39200"/>
<stop offset="0.947917" stop-color="#FFF59B" stop-opacity="0"/>
</radialGradient>
<radialGradient id="paint7_radial_641_627" cx="0" cy="0" r="1" gradientUnits="userSpaceOnUse" gradientTransform="translate(136.286 173) rotate(90) scale(10 9.28571)">
<stop stop-color="#F39200"/>
<stop offset="0.947917" stop-color="#FFF59B" stop-opacity="0"/>
</radialGradient>
<radialGradient id="paint8_radial_641_627" cx="0" cy="0" r="1" gradientUnits="userSpaceOnUse" gradientTransform="translate(170.286 193) rotate(90) scale(10 9.28571)">
<stop stop-color="#F39200"/>
<stop offset="0.947917" stop-color="#FFF59B" stop-opacity="0"/>
</radialGradient>
<radialGradient id="paint9_radial_641_627" cx="0" cy="0" r="1" gradientUnits="userSpaceOnUse" gradientTransform="translate(210.286 196) rotate(90) scale(10 9.28571)">
<stop stop-color="#F39200"/>
<stop offset="0.947917" stop-color="#FFF59B" stop-opacity="0"/>
</radialGradient>
<radialGradient id="paint10_radial_641_627" cx="0" cy="0" r="1" gradientUnits="userSpaceOnUse" gradientTransform="translate(25.2857 182) rotate(90) scale(10 9.28571)">
<stop stop-color="#F39200"/>
<stop offset="0.947917" stop-color="#FFF59B" stop-opacity="0"/>
</radialGradient>
<radialGradient id="paint11_radial_641_627" cx="0" cy="0" r="1" gradientUnits="userSpaceOnUse" gradientTransform="translate(57.2857 203) rotate(90) scale(10 9.28571)">
<stop stop-color="#F39200"/>
<stop offset="0.947917" stop-color="#FFF59B" stop-opacity="0"/>
</radialGradient>
<radialGradient id="paint12_radial_641_627" cx="0" cy="0" r="1" gradientUnits="userSpaceOnUse" gradientTransform="translate(97.2857 208) rotate(90) scale(10 9.28571)">
<stop stop-color="#F39200"/>
<stop offset="0.947917" stop-color="#FFF59B" stop-opacity="0"/>
</radialGradient>
<radialGradient id="paint13_radial_641_627" cx="0" cy="0" r="1" gradientUnits="userSpaceOnUse" gradientTransform="translate(93.2857 38) rotate(90) scale(10 9.28571)">
<stop stop-color="#F39200"/>
<stop offset="0.947917" stop-color="#FFF59B" stop-opacity="0"/>
</radialGradient>
<clipPath id="clip0_641_627">
<rect width="259" height="549" fill="white"/>
</clipPath>
</defs>
</svg>
