<svg width="49" height="53" viewBox="0 0 49 53" fill="none" xmlns="http://www.w3.org/2000/svg">
<path d="M37.4841 11.667L31.5806 12.6849C32.7565 11.8034 33.6826 11.0172 34.1518 10.362C36.2419 7.44342 35.7124 3.61902 32.9711 1.74222C30.2908 -0.0928649 26.3825 0.737589 24.2833 3.60555C23.3449 4.91594 22.4336 8.15339 21.7478 11.4564C19.9479 8.58195 17.9592 5.84448 16.619 4.92694C13.6341 2.88331 9.72277 3.40103 7.80332 6.08137C5.93565 8.75279 6.77585 12.5236 9.76078 14.5672C10.4309 15.026 11.6371 15.4968 12.9895 15.8901L7.13772 16.899C2.73594 17.6579 -0.207222 21.7678 0.568931 26.0717L1.76512 32.7049C1.92035 33.5657 2.77319 34.1496 3.65354 33.9978L5.82854 33.6228L8.29397 47.2942C8.94228 50.8893 12.4145 53.2666 16.0913 52.6327L41.6217 48.231C45.2984 47.5971 47.7297 44.202 47.0814 40.6069L44.616 26.9355L46.791 26.5605C47.6714 26.4088 48.2685 25.5749 48.1133 24.7141L46.9171 18.0809C46.0892 13.7859 41.8859 10.9081 37.4841 11.667ZM27.0246 5.48234C27.6217 4.64846 28.4382 4.14224 29.2667 3.99938C29.9399 3.88331 30.5979 3.97872 31.1461 4.35407C32.3645 5.18821 32.547 7.08848 31.5233 8.518C30.9261 9.35188 28.3153 11.1594 24.7998 13.2796C25.5832 9.33328 26.4274 6.31623 27.0246 5.48234ZM10.5354 7.90753C10.9193 7.37147 11.5042 7.06179 12.1775 6.94572C13.006 6.80287 14.0021 6.9966 14.8031 7.58942C15.4732 8.04819 17.1178 10.0618 19.673 14.1635C15.6369 13.3975 12.4904 12.5304 11.6376 11.9465C10.1756 10.9455 9.69149 9.14943 10.5354 7.90753ZM11.5047 46.7407L9.03925 33.0693L19.5 31.2657L22.5589 48.2284L15.5161 49.4427C13.6091 49.8237 11.8334 48.5635 11.5047 46.7407ZM27.6912 29.9057L30.7502 46.8684L25.7788 47.7255L22.7198 30.7628L27.6912 29.9057ZM43.8189 41.1694C44.1477 42.9923 42.868 44.7792 41.0037 45.1006L33.9609 46.3148L30.9019 29.3522L41.3626 27.5486L43.8189 41.1694ZM44.5677 23.7069L4.69276 30.5817L3.77964 25.5182C3.31395 22.9358 5.06278 20.4937 7.70385 20.0384L16.5074 18.5206C14.2591 20.2656 11.9285 22.4426 10.8255 24.6167C10.4355 25.4148 10.7643 26.3501 11.5806 26.7315C11.9279 26.8804 12.2569 26.9281 12.5676 26.8746C13.0854 26.7853 13.515 26.5024 13.7435 25.9931C15.2701 22.9106 20.6561 19.3193 22.9775 17.9794C25.6276 18.4622 31.9542 20.0863 34.4578 22.4218C34.8415 22.7733 35.405 22.9372 35.8711 22.8568C36.1818 22.8033 36.5261 22.6395 36.7485 22.3923C37.3822 21.761 37.3549 20.7215 36.7183 20.1525C34.9122 18.4278 31.9089 17.1704 29.2467 16.3242L38.0503 14.8064C40.6913 14.351 43.1889 16.061 43.6546 18.6434L44.5677 23.7069Z" fill="#90CDF1"/>
</svg>
