<svg width="1407" height="436" viewBox="0 0 1407 436" fill="none" xmlns="http://www.w3.org/2000/svg">
<path d="M115.829 103.212L113.251 101.773C113.192 101.742 113.125 101.728 113.059 101.734C112.993 101.74 112.929 101.765 112.877 101.806L110.931 103.361L110.023 103.439L112.096 100.979C112.148 100.924 112.187 100.859 112.211 100.788C112.236 100.717 112.245 100.642 112.238 100.567C112.23 100.46 112.19 100.358 112.123 100.274C112.057 100.19 111.966 100.128 111.863 100.095C111.761 100.062 111.65 100.061 111.547 100.091C111.443 100.121 111.351 100.181 111.282 100.263L108.506 103.55L107.243 103.658L107.912 102.867C108.005 102.757 108.051 102.614 108.039 102.47C108.03 102.364 107.989 102.262 107.922 102.178C107.854 102.094 107.764 102.032 107.661 102C107.558 101.967 107.448 101.966 107.344 101.995C107.24 102.025 107.148 102.084 107.078 102.166L105.7 103.802L103.749 103.969L105.801 101.539L107.205 101.684C107.27 101.689 107.335 101.676 107.393 101.645C107.45 101.615 107.498 101.569 107.53 101.513L108.472 99.855C108.498 99.8057 108.511 99.751 108.511 99.6955C108.511 99.6399 108.498 99.5852 108.472 99.5359C108.447 99.486 108.409 99.4432 108.363 99.4114C108.316 99.3797 108.263 99.36 108.207 99.3542L106.309 99.1612C106.244 99.1562 106.179 99.1696 106.121 99.1998C106.064 99.23 106.016 99.2758 105.984 99.3319L105.236 100.638L102.146 100.901L103.409 99.4172L105.524 99.2392C105.669 99.226 105.802 99.1565 105.895 99.046C105.988 98.9355 106.033 98.7929 106.021 98.6493C106.016 98.5782 105.996 98.5089 105.964 98.4453C105.932 98.3818 105.887 98.3252 105.832 98.279C105.778 98.2327 105.714 98.1977 105.646 98.1759C105.578 98.1542 105.506 98.1461 105.434 98.1522L104.403 98.2412L105.221 97.273L109.507 96.902C109.578 96.8959 109.648 96.8759 109.712 96.8432C109.775 96.8104 109.832 96.7656 109.878 96.7111C109.924 96.6567 109.959 96.5938 109.98 96.5259C110.002 96.4581 110.01 96.3867 110.004 96.3158C109.995 96.1741 109.931 96.0414 109.825 95.9464C109.718 95.8513 109.579 95.8015 109.436 95.8076L106.23 96.0784L106.821 95.3921L109.216 94.7132C109.28 94.6946 109.337 94.6576 109.38 94.6068C109.424 94.556 109.451 94.4936 109.458 94.4275L109.776 91.4894C109.781 91.4346 109.773 91.3793 109.752 91.3282C109.732 91.2772 109.699 91.2319 109.656 91.1963C109.614 91.1618 109.565 91.1378 109.511 91.1262C109.458 91.1146 109.403 91.1157 109.35 91.1295L106.51 91.9382C106.446 91.9559 106.388 91.9927 106.344 92.0437C106.301 92.0947 106.274 92.1575 106.268 92.2239L106.002 94.6761L105.404 95.3735L105.132 92.1683C105.127 92.0967 105.108 92.0268 105.076 91.9627C105.044 91.8985 104.999 91.8413 104.945 91.7943C104.89 91.7474 104.827 91.7117 104.758 91.6893C104.689 91.6668 104.617 91.6582 104.545 91.6637C104.401 91.6769 104.267 91.7464 104.174 91.8569C104.081 91.9674 104.036 92.11 104.048 92.2536L104.422 96.5421L103.604 97.5067L103.506 96.4865C103.495 96.3433 103.427 96.2106 103.317 96.1173C103.207 96.0241 103.064 95.9781 102.92 95.9894C102.775 96.0025 102.642 96.072 102.549 96.1825C102.456 96.293 102.41 96.4357 102.423 96.5792L102.602 98.6938L101.339 100.178L101.074 97.0652L102.195 96.134C102.246 96.0928 102.285 96.0373 102.305 95.9746C102.324 95.9119 102.325 95.8448 102.307 95.7816L101.799 93.9453C101.784 93.8918 101.756 93.8427 101.718 93.8026C101.679 93.7624 101.631 93.7324 101.578 93.7152C101.525 93.6989 101.468 93.6957 101.412 93.706C101.357 93.7164 101.305 93.7399 101.261 93.7746L99.7849 94.9803C99.7345 95.0216 99.697 95.0764 99.6772 95.1383C99.6573 95.2001 99.6558 95.2663 99.6728 95.329L100.046 96.7276L98.0401 99.1464L97.8756 97.1913L99.2432 95.5701C99.29 95.5158 99.3254 95.4527 99.3473 95.3845C99.3691 95.3163 99.3769 95.2444 99.3702 95.1732C99.3651 95.1018 99.3456 95.0322 99.3128 94.9685C99.2801 94.9048 99.2348 94.8482 99.1796 94.8022C99.0705 94.7154 98.9318 94.6739 98.7925 94.6864C98.6532 94.6988 98.5242 94.7643 98.4324 94.869L97.7636 95.6555L97.6589 94.3978L100.435 91.1072C100.528 90.9966 100.574 90.854 100.562 90.7103C100.548 90.5664 100.478 90.4334 100.368 90.3393C100.259 90.2525 100.12 90.211 99.9806 90.2235C99.8414 90.2359 99.7123 90.3014 99.6205 90.4061L97.5468 92.862L97.4721 91.9791L98.6491 89.8088C98.6813 89.7509 98.6956 89.6848 98.6903 89.6189C98.685 89.5529 98.6602 89.49 98.6192 89.4378L96.751 87.1377C96.7173 87.0949 96.6733 87.0613 96.623 87.0399C96.5727 87.0185 96.5178 87.01 96.4633 87.0153C96.408 87.0187 96.3545 87.0361 96.3081 87.066C96.2616 87.0959 96.2237 87.1372 96.198 87.186L94.7595 89.7828C94.7273 89.8408 94.713 89.9068 94.7183 89.9728C94.7236 90.0387 94.7483 90.1017 94.7894 90.1538L96.3587 92.0347L96.4372 92.9473L93.9786 90.8735C93.8684 90.7816 93.726 90.7366 93.5826 90.7484C93.4391 90.7602 93.3061 90.8279 93.2127 90.9366C93.1189 91.0483 93.0732 91.1923 93.0856 91.3373C93.0907 91.4086 93.1103 91.4782 93.143 91.5419C93.1757 91.6057 93.221 91.6622 93.2762 91.7082L96.5642 94.4832L96.6725 95.7445L95.8842 95.0767C95.8292 95.0308 95.7658 94.9962 95.6973 94.9747C95.6289 94.9532 95.5569 94.9453 95.4854 94.9515C95.4139 94.9577 95.3443 94.9779 95.2806 95.0108C95.217 95.0438 95.1605 95.0889 95.1145 95.1435C95.0681 95.198 95.0333 95.2613 95.0121 95.3295C94.9909 95.3977 94.9838 95.4695 94.9912 95.5405C94.9963 95.6118 95.0158 95.6814 95.0485 95.7452C95.0813 95.8089 95.1266 95.8654 95.1817 95.9115L96.8033 97.2804L96.9677 99.228L94.5278 97.1839L94.4905 97.1505L94.625 95.7445C94.6321 95.6797 94.62 95.6143 94.5901 95.5563C94.5602 95.4983 94.5139 95.4502 94.4569 95.418L92.7979 94.4795C92.7488 94.4522 92.6935 94.4378 92.6372 94.4378C92.581 94.4378 92.5257 94.4522 92.4766 94.4795C92.427 94.5051 92.3846 94.5426 92.3533 94.5886C92.322 94.6346 92.3027 94.6876 92.2972 94.7429L92.1067 96.6423C92.0996 96.7071 92.1117 96.7725 92.1416 96.8305C92.1714 96.8885 92.2178 96.9366 92.2748 96.9687L93.6236 97.733L93.8852 100.82L92.3906 99.5545L92.2113 97.4399C92.206 97.3685 92.1866 97.2989 92.1541 97.2351C92.1216 97.1713 92.0766 97.1144 92.0219 97.0679C91.9671 97.0214 91.9036 96.9862 91.8351 96.9641C91.7665 96.9421 91.6942 96.9338 91.6224 96.9397C91.5506 96.9456 91.4807 96.9655 91.4167 96.9984C91.3527 97.0313 91.2959 97.0764 91.2495 97.1312C91.2032 97.186 91.1682 97.2493 91.1467 97.3176C91.1252 97.3859 91.1174 97.4577 91.124 97.5289L91.2137 98.5603L90.246 97.7441L89.8723 93.4556C89.86 93.3121 89.7909 93.1793 89.6803 93.0862C89.5697 92.9931 89.4265 92.9471 89.282 92.9584C89.2106 92.965 89.1411 92.9854 89.0777 93.0186C89.0142 93.0518 88.958 93.097 88.9122 93.1518C88.8664 93.2066 88.8319 93.2698 88.8107 93.3379C88.7896 93.4059 88.7821 93.4774 88.7888 93.5483L89.0578 96.7499L88.3852 96.1823L87.7052 93.7857C87.6865 93.7219 87.6492 93.6649 87.5981 93.622C87.5469 93.5791 87.4841 93.5522 87.4175 93.5446L84.4807 93.2293C84.4263 93.2221 84.3709 93.2289 84.3199 93.2491C84.2689 93.2692 84.2239 93.302 84.1893 93.3443C84.154 93.3864 84.1294 93.4365 84.1177 93.4901C84.106 93.5437 84.1075 93.5993 84.122 93.6522L84.9366 96.4865C84.9548 96.5506 84.992 96.6078 85.0433 96.6508C85.0945 96.6937 85.1576 96.7205 85.2243 96.7276L87.6753 96.9947L88.3628 97.5994L85.1495 97.8628C85.0049 97.8746 84.8708 97.943 84.7769 98.0529C84.683 98.1629 84.637 98.3053 84.6489 98.449C84.6608 98.5926 84.7296 98.7257 84.8404 98.8189C84.9511 98.9121 85.0945 98.9579 85.2392 98.9461L89.5286 98.5751L90.4963 99.3913L89.4651 99.4803C89.3288 99.5028 89.2062 99.5755 89.1215 99.6838C89.0368 99.7921 88.9963 99.9281 89.008 100.065C89.0198 100.201 89.083 100.329 89.185 100.421C89.287 100.513 89.4204 100.564 89.5585 100.564L91.6733 100.385L93.1678 101.647L90.0181 101.914L89.069 100.753C89.028 100.702 88.9728 100.664 88.9103 100.644C88.8479 100.625 88.7809 100.624 88.7178 100.641L86.8795 101.15C86.828 101.167 86.7814 101.197 86.7436 101.236C86.7059 101.275 86.678 101.322 86.6623 101.374C86.6466 101.426 86.6436 101.481 86.6534 101.534C86.6632 101.587 86.6856 101.637 86.7188 101.68L87.9257 103.164C87.9672 103.214 88.0225 103.251 88.0848 103.271C88.1471 103.291 88.2138 103.292 88.2769 103.275L89.6893 102.882L92.1216 104.934L90.1675 105.101L88.5459 103.732C88.4369 103.645 88.2986 103.604 88.1596 103.616C88.0206 103.627 87.8915 103.691 87.7986 103.795C87.7056 103.905 87.6601 104.048 87.6719 104.192C87.6838 104.335 87.7522 104.469 87.8622 104.563L88.6543 105.23L87.3914 105.353L84.1034 102.578C83.9942 102.491 83.8555 102.45 83.7162 102.462C83.5769 102.475 83.4479 102.54 83.3561 102.645C83.2629 102.755 83.2172 102.898 83.229 103.042C83.2337 103.113 83.2531 103.183 83.2858 103.247C83.3186 103.31 83.3641 103.367 83.4196 103.413L85.8781 105.486L84.9889 105.564L82.8255 104.355C82.7671 104.323 82.7002 104.308 82.6335 104.314C82.5669 104.32 82.5036 104.346 82.4519 104.388L80.154 106.243C80.1107 106.278 80.0765 106.322 80.0543 106.372C80.0322 106.423 80.0228 106.478 80.027 106.533C80.0323 106.587 80.0507 106.64 80.0806 106.687C80.1105 106.733 80.151 106.772 80.1988 106.8L82.777 108.239C82.8357 108.271 82.9024 108.284 82.9688 108.278C83.0353 108.272 83.0985 108.247 83.1506 108.206L85.0823 106.651L85.9678 106.577L83.8941 109.033C83.8478 109.087 83.8126 109.15 83.7907 109.218C83.7688 109.286 83.7606 109.357 83.7665 109.428C83.7724 109.499 83.7923 109.568 83.8251 109.632C83.8579 109.695 83.9029 109.751 83.9576 109.797C84.0124 109.843 84.0757 109.878 84.144 109.9C84.2122 109.922 84.2842 109.93 84.3556 109.924C84.4271 109.918 84.4967 109.898 84.5605 109.866C84.6243 109.833 84.681 109.789 84.7273 109.734L87.5035 106.447L88.7626 106.34L88.0976 107.13C88.0276 107.176 87.9692 107.237 87.9269 107.308C87.8846 107.38 87.8594 107.461 87.8535 107.544C87.8475 107.627 87.8608 107.71 87.8924 107.787C87.9241 107.864 87.9731 107.932 88.0358 107.988C88.0984 108.043 88.1731 108.083 88.2538 108.105C88.3346 108.127 88.4194 108.13 88.5016 108.114C88.5838 108.098 88.6612 108.064 88.7279 108.013C88.7945 107.963 88.8486 107.898 88.8859 107.824L90.2572 106.202L92.2038 106.039L90.1563 108.465L90.1339 108.495L88.7066 108.358C88.6414 108.351 88.5755 108.363 88.517 108.393C88.4586 108.422 88.4102 108.468 88.3778 108.525L87.4399 110.183C87.4131 110.233 87.3991 110.288 87.3991 110.344C87.3991 110.401 87.4131 110.456 87.4399 110.506C87.4658 110.555 87.5035 110.597 87.5499 110.628C87.5962 110.659 87.6496 110.678 87.7052 110.684L89.6033 110.877C89.6679 110.883 89.733 110.871 89.7907 110.841C89.8484 110.811 89.8962 110.766 89.9284 110.71L90.6756 109.382L93.8179 109.118L92.5513 110.602L90.4365 110.784C90.3003 110.807 90.1776 110.879 90.0929 110.988C90.0082 111.096 89.9677 111.232 89.9795 111.369C89.9913 111.505 90.0545 111.632 90.1565 111.725C90.2585 111.817 90.3918 111.868 90.5299 111.867L91.5574 111.782L90.7541 112.75L86.4648 113.121C86.3285 113.144 86.2059 113.216 86.1212 113.325C86.0365 113.433 85.996 113.569 86.0077 113.706C86.0195 113.842 86.0827 113.97 86.1847 114.062C86.2867 114.154 86.4201 114.205 86.5582 114.205L89.7453 113.923L89.1624 114.616L86.7936 115.288C86.729 115.306 86.6714 115.343 86.6281 115.394C86.5848 115.445 86.5579 115.507 86.5507 115.573L86.2331 118.512C86.2246 118.567 86.2303 118.624 86.2496 118.676C86.269 118.729 86.3013 118.776 86.3438 118.813C86.3862 118.85 86.4373 118.876 86.4924 118.888C86.5475 118.9 86.6048 118.898 86.659 118.883L89.4987 118.074C89.5635 118.056 89.6214 118.019 89.6648 117.968C89.7081 117.917 89.7349 117.855 89.7415 117.788L90.0106 115.314L90.5785 114.639L90.8513 117.84C90.8564 117.911 90.8758 117.981 90.9082 118.044C90.9405 118.108 90.9853 118.164 91.0399 118.21C91.0945 118.257 91.1578 118.292 91.2261 118.313C91.2944 118.335 91.3664 118.343 91.4379 118.337C91.5824 118.324 91.7158 118.255 91.8089 118.144C91.902 118.034 91.9473 117.891 91.9348 117.747L91.5612 113.459L92.3757 112.494L92.4616 113.526C92.474 113.669 92.5432 113.801 92.6539 113.894C92.7646 113.986 92.9078 114.031 93.052 114.019C93.1962 114.007 93.3295 113.938 93.4227 113.828C93.5159 113.718 93.5613 113.576 93.5489 113.433L93.3696 111.326L94.6325 109.842L94.894 112.943L93.6946 113.923C93.6438 113.964 93.6061 114.018 93.5862 114.08C93.5663 114.142 93.565 114.209 93.5826 114.271L94.0907 116.126C94.1057 116.181 94.1341 116.23 94.1732 116.271C94.2123 116.312 94.261 116.342 94.3149 116.36C94.3683 116.376 94.4251 116.379 94.48 116.368C94.5348 116.357 94.586 116.333 94.6287 116.297L96.1233 115.091C96.1749 115.051 96.2132 114.996 96.2332 114.934C96.2532 114.872 96.2539 114.805 96.2354 114.742L95.8617 113.377L95.8991 113.34L97.9504 110.907L98.1185 112.858L96.7323 114.435C96.6385 114.546 96.5929 114.69 96.6053 114.835C96.6143 114.942 96.655 115.044 96.7223 115.127C96.7895 115.211 96.8803 115.273 96.9831 115.306C97.0858 115.338 97.196 115.34 97.2997 115.31C97.4034 115.281 97.4959 115.221 97.5655 115.139L98.2269 114.349L98.3352 115.611L95.5591 118.897C95.466 119.008 95.4205 119.151 95.4324 119.294C95.4443 119.438 95.5126 119.571 95.6226 119.665C95.7335 119.758 95.8764 119.803 96.0205 119.791C96.1646 119.779 96.2982 119.711 96.3923 119.602L98.466 117.143L98.5407 118.055L97.3414 120.203C97.3106 120.262 97.2974 120.328 97.3034 120.394C97.3094 120.459 97.3342 120.522 97.375 120.574L99.2432 122.874C99.2769 122.917 99.3209 122.951 99.3712 122.972C99.4215 122.994 99.4764 123.002 99.5309 122.997C99.586 122.993 99.6392 122.975 99.6855 122.945C99.7319 122.915 99.7699 122.874 99.7962 122.826L101.235 120.229C101.267 120.171 101.281 120.105 101.276 120.039C101.271 119.973 101.246 119.91 101.205 119.858L99.6392 117.914L99.5645 117.031L102.016 119.116C102.068 119.173 102.132 119.218 102.204 119.248C102.275 119.278 102.352 119.292 102.429 119.29C102.507 119.288 102.583 119.27 102.653 119.237C102.723 119.203 102.785 119.156 102.834 119.097C102.884 119.038 102.921 118.969 102.942 118.895C102.963 118.821 102.967 118.743 102.956 118.667C102.944 118.591 102.916 118.518 102.874 118.454C102.831 118.389 102.776 118.334 102.711 118.293L99.4225 115.518L99.3179 114.256L100.095 114.924C100.178 114.993 100.279 115.036 100.386 115.047C100.494 115.058 100.602 115.038 100.697 114.988C100.793 114.939 100.872 114.862 100.923 114.768C100.975 114.674 100.998 114.567 100.988 114.461C100.983 114.389 100.964 114.319 100.931 114.256C100.899 114.192 100.853 114.135 100.797 114.09L99.1759 112.721L99.0115 110.769L101.429 112.81L101.279 114.264C101.273 114.329 101.285 114.394 101.315 114.452C101.345 114.51 101.391 114.558 101.448 114.59L103.107 115.533C103.156 115.558 103.211 115.572 103.267 115.572C103.323 115.572 103.378 115.558 103.428 115.533C103.478 115.506 103.52 115.468 103.551 115.421C103.582 115.375 103.602 115.321 103.607 115.266L103.802 113.37C103.808 113.305 103.796 113.24 103.766 113.182C103.736 113.124 103.69 113.076 103.633 113.043L102.348 112.301L102.083 109.155L103.577 110.421L103.757 112.535C103.757 112.61 103.773 112.684 103.804 112.752C103.835 112.82 103.879 112.882 103.935 112.932C103.99 112.982 104.056 113.021 104.127 113.045C104.199 113.069 104.274 113.078 104.349 113.071C104.424 113.065 104.497 113.043 104.563 113.007C104.629 112.972 104.687 112.923 104.733 112.864C104.779 112.804 104.813 112.737 104.831 112.664C104.85 112.592 104.853 112.516 104.84 112.442L104.754 111.411L105.718 112.227L106.092 116.516C106.097 116.587 106.116 116.656 106.149 116.72C106.181 116.783 106.226 116.84 106.281 116.886C106.335 116.932 106.398 116.967 106.467 116.989C106.535 117.011 106.607 117.019 106.679 117.013C106.822 117.004 106.956 116.94 107.052 116.835C107.148 116.73 107.199 116.591 107.194 116.449L106.921 113.247L107.624 113.837L108.296 116.212C108.315 116.275 108.352 116.332 108.404 116.375C108.455 116.418 108.518 116.445 108.584 116.453L111.521 116.768C111.575 116.774 111.63 116.767 111.681 116.747C111.732 116.727 111.777 116.695 111.812 116.653C111.848 116.611 111.872 116.561 111.884 116.507C111.896 116.454 111.894 116.398 111.88 116.345L111.073 113.503C111.055 113.439 111.018 113.382 110.966 113.338C110.915 113.295 110.852 113.269 110.785 113.262L108.315 112.995L107.628 112.416L110.833 112.146C110.979 112.133 111.113 112.064 111.207 111.954C111.301 111.843 111.346 111.7 111.334 111.556C111.322 111.412 111.252 111.278 111.141 111.185C111.029 111.092 110.885 111.046 110.74 111.059L106.451 111.43L105.487 110.613L106.514 110.528C106.658 110.515 106.791 110.446 106.884 110.336C106.977 110.226 107.022 110.084 107.011 109.941C106.999 109.798 106.931 109.665 106.821 109.571C106.711 109.478 106.569 109.431 106.424 109.441L104.31 109.619L102.815 108.358L105.89 108.098L106.85 109.278C106.893 109.327 106.948 109.364 107.01 109.384C107.072 109.403 107.138 109.405 107.202 109.389L109.04 108.881C109.094 108.866 109.144 108.838 109.184 108.799C109.225 108.76 109.255 108.711 109.272 108.658C109.289 108.605 109.293 108.548 109.282 108.493C109.271 108.438 109.247 108.386 109.212 108.343L108.005 106.859C107.964 106.808 107.909 106.771 107.846 106.751C107.784 106.731 107.717 106.73 107.654 106.748L106.309 107.119L103.831 105.052L105.789 104.889L107.407 106.258C107.52 106.347 107.662 106.39 107.805 106.377C107.949 106.365 108.082 106.298 108.177 106.191C108.27 106.081 108.316 105.938 108.303 105.794C108.291 105.65 108.221 105.516 108.11 105.423L107.321 104.759L108.58 104.652L111.872 107.427C111.983 107.519 112.127 107.564 112.271 107.552C112.415 107.539 112.549 107.47 112.642 107.36C112.735 107.25 112.78 107.107 112.768 106.964C112.755 106.821 112.686 106.688 112.575 106.596L110.116 104.522L111.024 104.444L113.187 105.653C113.246 105.686 113.313 105.7 113.379 105.694C113.446 105.688 113.509 105.662 113.561 105.62L115.863 103.765C115.905 103.73 115.938 103.685 115.959 103.635C115.981 103.585 115.99 103.53 115.986 103.476C115.982 103.423 115.965 103.372 115.938 103.326C115.911 103.28 115.874 103.242 115.829 103.212ZM97.233 102.5C97.1223 102.534 97.0137 102.575 96.9079 102.622L96.7062 102.719C96.5932 102.782 96.4857 102.854 96.3848 102.934L95.0622 101.821L94.8081 98.8533L97.0873 100.775L97.233 102.5ZM96.7435 107.323C96.8461 107.379 96.9522 107.429 97.0611 107.471L97.289 107.545C97.4117 107.58 97.5365 107.606 97.6627 107.623L97.8084 109.322L95.8842 111.604L95.6301 108.636L96.7435 107.323ZM98.055 106.551H97.8719C97.5624 106.527 97.2678 106.409 97.0275 106.214C96.9997 106.195 96.9745 106.172 96.9528 106.147C96.7257 105.947 96.5654 105.683 96.4932 105.39C96.4762 105.302 96.465 105.213 96.4596 105.123C96.4255 104.763 96.5252 104.403 96.7398 104.11C96.8687 103.93 97.0359 103.779 97.2295 103.67C97.4231 103.56 97.6386 103.494 97.8607 103.476C98.0066 103.462 98.1537 103.468 98.2979 103.494C98.5469 103.542 98.7796 103.652 98.9741 103.813L99.0152 103.847C99.2059 104.012 99.3512 104.223 99.4375 104.459C99.4801 104.579 99.5089 104.703 99.5234 104.83V104.893C99.5512 105.225 99.4686 105.558 99.288 105.839C99.2392 105.908 99.1868 105.975 99.1311 106.039C98.8821 106.321 98.535 106.498 98.1596 106.536C98.1254 106.546 98.0903 106.552 98.055 106.555V106.551ZM99.232 102.682C99.1263 102.628 99.0178 102.58 98.9069 102.537L98.7051 102.474H98.6491L98.4847 102.433L98.3165 102.411L98.1708 100.69L100.095 98.4007L100.345 101.369L99.232 102.682ZM98.75 107.534C98.8638 107.5 98.9749 107.458 99.0825 107.408L99.2992 107.297C99.4096 107.233 99.5157 107.163 99.6168 107.085L100.921 108.198L101.171 111.166L98.8957 109.248L98.75 107.534ZM100.51 104.244C100.51 104.192 100.48 104.14 100.461 104.092C100.446 104.05 100.429 104.009 100.409 103.969L100.282 103.706C100.219 103.594 100.148 103.488 100.069 103.387L101.19 102.073L104.179 101.821L102.258 104.099L100.51 104.244ZM94.356 102.648L95.6787 103.761C95.6242 103.865 95.5756 103.972 95.5329 104.08L95.4619 104.299C95.4248 104.42 95.3985 104.545 95.3835 104.67L93.6685 104.815L91.3856 102.893L94.356 102.648ZM93.7432 105.909L95.4545 105.761C95.49 105.875 95.5325 105.986 95.5815 106.095L95.6861 106.299C95.7501 106.412 95.8225 106.52 95.9029 106.622L94.7819 107.931L91.7928 108.184L93.7432 105.909ZM101.616 107.36L100.304 106.247C100.359 106.141 100.408 106.032 100.45 105.921L100.517 105.698C100.551 105.576 100.576 105.452 100.592 105.327L102.303 105.182L104.582 107.108L101.616 107.36Z" fill="white"/>
<path d="M1063.9 9.90742L1062.32 9.02779C1062.28 9.00857 1062.24 9.00026 1062.2 9.00389C1062.16 9.00752 1062.12 9.02293 1062.09 9.04819L1060.9 9.99811L1060.35 10.0457L1061.61 8.54263C1061.65 8.50908 1061.67 8.46933 1061.68 8.42597C1061.7 8.38262 1061.71 8.33662 1061.7 8.29098C1061.7 8.22569 1061.67 8.16335 1061.63 8.11194C1061.59 8.06053 1061.53 8.0224 1061.47 8.00243C1061.41 7.98246 1061.34 7.98156 1061.28 7.99985C1061.22 8.01813 1061.16 8.05477 1061.12 8.10507L1059.42 10.1137L1058.65 10.1795L1059.06 9.69658C1059.11 9.62911 1059.14 9.54188 1059.13 9.454C1059.13 9.38877 1059.1 9.32663 1059.06 9.27544C1059.02 9.22425 1058.97 9.18631 1058.9 9.16641C1058.84 9.14651 1058.77 9.14555 1058.71 9.16365C1058.65 9.18175 1058.59 9.2181 1058.55 9.2681L1057.71 10.2679L1056.51 10.3699L1057.77 8.88496L1058.63 8.97338C1058.67 8.97645 1058.7 8.96828 1058.74 8.94982C1058.78 8.93136 1058.8 8.90336 1058.82 8.86909L1059.4 7.85569C1059.42 7.82559 1059.42 7.79215 1059.42 7.75821C1059.42 7.72426 1059.42 7.69082 1059.4 7.66072C1059.38 7.63021 1059.36 7.60404 1059.33 7.58463C1059.3 7.56522 1059.27 7.55319 1059.24 7.54963L1058.08 7.43174C1058.04 7.42867 1058 7.43683 1057.96 7.4553C1057.93 7.47376 1057.9 7.50176 1057.88 7.53603L1057.42 8.33405L1055.53 8.49502L1056.31 7.58817L1057.6 7.47935C1057.69 7.47129 1057.77 7.42885 1057.82 7.36131C1057.88 7.29377 1057.91 7.20661 1057.9 7.11888C1057.9 7.07546 1057.89 7.0331 1057.87 6.99425C1057.85 6.9554 1057.82 6.92084 1057.79 6.89258C1057.75 6.86432 1057.71 6.84292 1057.67 6.82961C1057.63 6.81631 1057.59 6.81137 1057.54 6.81509L1056.91 6.8695L1057.41 6.27779L1060.03 6.05108C1060.08 6.04736 1060.12 6.03515 1060.16 6.01514C1060.2 5.99513 1060.23 5.96771 1060.26 5.93444C1060.29 5.90118 1060.31 5.86272 1060.32 5.82127C1060.33 5.77982 1060.34 5.73619 1060.34 5.69287C1060.33 5.60627 1060.29 5.52519 1060.23 5.4671C1060.16 5.40901 1060.08 5.37855 1059.99 5.38228L1058.03 5.54778L1058.39 5.12836L1059.85 4.71348C1059.89 4.70214 1059.93 4.67951 1059.95 4.64846C1059.98 4.6174 1060 4.57929 1060 4.53892L1060.2 2.74337C1060.2 2.70988 1060.19 2.6761 1060.18 2.64491C1060.17 2.61372 1060.15 2.58605 1060.12 2.56427C1060.1 2.5432 1060.07 2.52852 1060.03 2.52142C1060 2.51432 1059.97 2.51502 1059.94 2.52346L1058.2 3.01769C1058.16 3.02848 1058.13 3.05094 1058.1 3.08211C1058.07 3.11327 1058.06 3.15167 1058.05 3.19225L1057.89 4.69081L1057.52 5.11703L1057.36 3.15825C1057.36 3.11454 1057.34 3.07183 1057.32 3.03261C1057.3 2.99338 1057.28 2.95842 1057.24 2.92974C1057.21 2.90106 1057.17 2.87924 1057.13 2.86554C1057.09 2.85183 1057.04 2.84653 1057 2.84992C1056.91 2.85798 1056.83 2.90042 1056.77 2.96796C1056.72 3.0355 1056.69 3.12266 1056.7 3.21039L1056.92 5.83117L1056.42 6.42061L1056.37 5.79716C1056.36 5.70968 1056.32 5.62855 1056.25 5.57158C1056.18 5.51461 1056.09 5.48648 1056.01 5.49337C1055.92 5.50143 1055.84 5.54387 1055.78 5.61141C1055.72 5.67895 1055.7 5.76611 1055.7 5.85384L1055.81 7.14609L1055.04 8.05293L1054.88 6.15083L1055.56 5.58178C1055.6 5.55657 1055.62 5.52268 1055.63 5.48437C1055.64 5.44605 1055.64 5.40502 1055.63 5.36641L1055.32 4.24419C1055.31 4.2115 1055.3 4.18153 1055.27 4.15699C1055.25 4.13245 1055.22 4.11412 1055.19 4.10363C1055.15 4.09362 1055.12 4.09168 1055.09 4.098C1055.05 4.10432 1055.02 4.1187 1054.99 4.1399L1054.09 4.87671C1054.06 4.90194 1054.04 4.93545 1054.02 4.97325C1054.01 5.01105 1054.01 5.05152 1054.02 5.08982L1054.25 5.94452L1053.02 7.42268L1052.92 6.22791L1053.76 5.23718C1053.79 5.20397 1053.81 5.16539 1053.82 5.12372C1053.84 5.08205 1053.84 5.03814 1053.84 4.9946C1053.83 4.951 1053.82 4.90846 1053.8 4.86952C1053.78 4.83057 1053.75 4.79602 1053.72 4.76789C1053.65 4.71486 1053.57 4.6895 1053.48 4.69711C1053.4 4.70471 1053.32 4.7447 1053.26 4.8087L1052.86 5.28933L1052.79 4.52078L1054.49 2.50985C1054.55 2.44226 1054.57 2.35512 1054.57 2.26727C1054.56 2.17932 1054.51 2.09809 1054.45 2.04056C1054.38 1.98753 1054.3 1.96217 1054.21 1.96978C1054.13 1.97738 1054.05 2.01737 1053.99 2.08137L1052.72 3.5822L1052.68 3.04262L1053.4 1.71637C1053.42 1.68096 1053.43 1.64059 1053.42 1.60029C1053.42 1.55998 1053.4 1.52151 1053.38 1.48966L1052.24 0.0840506C1052.22 0.0578961 1052.19 0.0373269 1052.16 0.0242487C1052.13 0.0111706 1052.09 0.00600674 1052.06 0.00923612C1052.03 0.0112736 1051.99 0.0219465 1051.97 0.0402187C1051.94 0.058491 1051.91 0.0837424 1051.9 0.113523L1051.02 1.7005C1051 1.73591 1050.99 1.77627 1050.99 1.81658C1051 1.85688 1051.01 1.89536 1051.04 1.92721L1052 3.07663L1052.04 3.63434L1050.54 2.36703C1050.48 2.31082 1050.39 2.28333 1050.3 2.29055C1050.21 2.29777 1050.13 2.33911 1050.07 2.40557C1050.02 2.47386 1049.99 2.56184 1050 2.65042C1050 2.69402 1050.01 2.73656 1050.03 2.7755C1050.05 2.81445 1050.08 2.849 1050.11 2.87713L1052.12 4.57292L1052.19 5.34374L1051.71 4.93566C1051.67 4.90761 1051.63 4.88641 1051.59 4.87328C1051.55 4.86015 1051.51 4.85534 1051.46 4.85913C1051.42 4.86292 1051.38 4.87524 1051.34 4.89537C1051.3 4.91551 1051.26 4.94307 1051.24 4.97647C1051.21 5.00979 1051.19 5.04845 1051.17 5.09013C1051.16 5.13181 1051.16 5.17566 1051.16 5.21905C1051.16 5.26265 1051.18 5.30519 1051.2 5.34413C1051.22 5.38308 1051.24 5.41764 1051.28 5.44576L1052.27 6.28232L1052.37 7.47255L1050.88 6.22338L1050.86 6.20297L1050.94 5.34374C1050.94 5.30416 1050.93 5.26418 1050.92 5.22873C1050.9 5.19328 1050.87 5.16391 1050.83 5.14423L1049.82 4.57065C1049.79 4.55397 1049.76 4.54522 1049.72 4.54522C1049.69 4.54522 1049.65 4.55397 1049.62 4.57065C1049.59 4.58632 1049.57 4.60925 1049.55 4.63735C1049.53 4.66546 1049.52 4.69786 1049.52 4.73162L1049.4 5.89238C1049.39 5.93196 1049.4 5.97194 1049.42 6.00739C1049.44 6.04284 1049.47 6.07221 1049.5 6.09188L1050.33 6.55891L1050.49 8.44514L1049.57 7.67206L1049.46 6.37981C1049.46 6.3362 1049.45 6.29367 1049.43 6.25465C1049.41 6.21564 1049.38 6.18092 1049.35 6.1525C1049.31 6.12408 1049.27 6.10252 1049.23 6.08907C1049.19 6.07562 1049.15 6.07055 1049.1 6.07414C1049.06 6.07774 1049.02 6.08993 1048.98 6.11001C1048.94 6.13009 1048.9 6.15767 1048.87 6.19115C1048.85 6.22463 1048.83 6.26334 1048.81 6.30506C1048.8 6.34678 1048.79 6.39068 1048.8 6.43422L1048.85 7.06447L1048.26 6.56571L1048.03 3.94493C1048.03 3.85727 1047.98 3.77612 1047.92 3.71921C1047.85 3.6623 1047.76 3.63424 1047.67 3.64114C1047.63 3.64512 1047.59 3.65761 1047.55 3.67789C1047.51 3.69817 1047.47 3.72584 1047.45 3.75932C1047.42 3.7928 1047.4 3.83144 1047.38 3.87301C1047.37 3.91459 1047.37 3.95829 1047.37 4.00161L1047.54 5.95812L1047.12 5.61126L1046.71 4.14671C1046.7 4.10768 1046.67 4.07287 1046.64 4.04666C1046.61 4.02044 1046.57 4.00398 1046.53 3.99934L1044.74 3.80664C1044.71 3.80227 1044.67 3.80644 1044.64 3.81874C1044.61 3.83105 1044.58 3.85107 1044.56 3.87692C1044.54 3.9027 1044.52 3.93326 1044.52 3.96601C1044.51 3.99877 1044.51 4.03275 1044.52 4.06509L1045.02 5.79716C1045.03 5.83633 1045.05 5.8713 1045.08 5.89756C1045.11 5.92382 1045.15 5.94018 1045.19 5.94452L1046.69 6.10775L1047.11 6.47729L1045.15 6.63826C1045.06 6.64547 1044.98 6.68726 1044.92 6.75444C1044.86 6.82162 1044.83 6.90867 1044.84 6.99646C1044.85 7.08425 1044.89 7.16557 1044.96 7.22254C1045.03 7.27951 1045.11 7.30747 1045.2 7.30025L1047.82 7.07354L1048.41 7.5723L1047.78 7.62671C1047.7 7.64048 1047.63 7.68488 1047.57 7.75107C1047.52 7.81727 1047.5 7.90039 1047.5 7.98388C1047.51 8.06737 1047.55 8.14511 1047.61 8.2016C1047.68 8.25809 1047.76 8.28919 1047.84 8.28871L1049.13 8.17989L1050.05 8.9507L1048.12 9.11394L1047.54 8.40433C1047.52 8.37324 1047.48 8.35019 1047.45 8.33809C1047.41 8.32599 1047.37 8.32537 1047.33 8.33632L1046.2 8.64691C1046.17 8.65769 1046.14 8.67574 1046.12 8.69958C1046.1 8.72343 1046.08 8.75238 1046.07 8.78404C1046.06 8.81571 1046.06 8.84919 1046.07 8.88171C1046.07 8.91424 1046.09 8.94488 1046.11 8.97111L1046.84 9.87795C1046.87 9.90858 1046.9 9.93129 1046.94 9.94335C1046.98 9.95541 1047.02 9.95632 1047.06 9.94596L1047.92 9.70565L1049.41 10.9594L1048.21 11.0614L1047.22 10.2248C1047.16 10.1721 1047.07 10.1466 1046.99 10.1538C1046.9 10.161 1046.82 10.2002 1046.77 10.2634C1046.71 10.331 1046.68 10.4181 1046.69 10.5059C1046.7 10.5937 1046.74 10.6752 1046.8 10.7327L1047.29 11.1407L1046.52 11.2155L1044.51 9.51975C1044.44 9.46672 1044.36 9.44135 1044.27 9.44896C1044.19 9.45657 1044.11 9.49655 1044.05 9.56056C1043.99 9.62815 1043.97 9.71529 1043.97 9.80314C1043.98 9.8468 1043.99 9.88942 1044.01 9.9284C1044.03 9.96738 1044.06 10.0019 1044.09 10.0298L1045.59 11.2972L1045.05 11.3448L1043.73 10.6057C1043.69 10.5859 1043.65 10.5772 1043.61 10.5809C1043.57 10.5845 1043.53 10.6003 1043.5 10.6261L1042.09 11.7596C1042.07 11.7806 1042.05 11.8077 1042.03 11.8385C1042.02 11.8693 1042.01 11.903 1042.02 11.9365C1042.02 11.97 1042.03 12.0023 1042.05 12.0306C1042.07 12.059 1042.09 12.0827 1042.12 12.0997L1043.7 12.9794C1043.73 12.9986 1043.77 13.0069 1043.81 13.0032C1043.85 12.9996 1043.89 12.9842 1043.93 12.9589L1045.11 12.009L1045.65 11.9637L1044.38 13.4645C1044.35 13.4977 1044.33 13.5361 1044.32 13.5776C1044.3 13.619 1044.3 13.6626 1044.3 13.706C1044.31 13.7494 1044.32 13.7916 1044.34 13.8303C1044.36 13.869 1044.39 13.9034 1044.42 13.9315C1044.45 13.9597 1044.49 13.981 1044.53 13.9943C1044.57 14.0076 1044.62 14.0126 1044.66 14.009C1044.71 14.0054 1044.75 13.9933 1044.79 13.9734C1044.83 13.9535 1044.86 13.9262 1044.89 13.893L1046.59 11.8843L1047.35 11.8186L1046.95 12.3015C1046.91 12.3294 1046.87 12.3668 1046.84 12.4106C1046.82 12.4545 1046.8 12.5036 1046.8 12.5543C1046.8 12.605 1046.8 12.6558 1046.82 12.7029C1046.84 12.7499 1046.87 12.7919 1046.91 12.8256C1046.95 12.8593 1046.99 12.8838 1047.04 12.8972C1047.09 12.9106 1047.15 12.9125 1047.2 12.9028C1047.25 12.8932 1047.29 12.8721 1047.33 12.8414C1047.37 12.8106 1047.41 12.7709 1047.43 12.7254L1048.27 11.7347L1049.46 11.635L1048.21 13.1176L1048.19 13.1358L1047.32 13.0519C1047.28 13.0476 1047.24 13.0549 1047.2 13.0731C1047.17 13.0912 1047.14 13.1193 1047.12 13.1539L1046.55 14.1673C1046.53 14.1976 1046.52 14.2315 1046.52 14.2659C1046.52 14.3004 1046.53 14.3342 1046.55 14.3646C1046.56 14.3946 1046.59 14.4204 1046.61 14.4394C1046.64 14.4584 1046.67 14.47 1046.71 14.4734L1047.87 14.5913C1047.91 14.5951 1047.95 14.5875 1047.98 14.5694C1048.02 14.5513 1048.05 14.5235 1048.07 14.4892L1048.52 13.6776L1050.44 13.5167L1049.67 14.4235L1048.38 14.5346C1048.29 14.5484 1048.22 14.5928 1048.17 14.6589C1048.12 14.7251 1048.09 14.8083 1048.1 14.8918C1048.11 14.9752 1048.14 15.053 1048.21 15.1095C1048.27 15.166 1048.35 15.1971 1048.44 15.1966L1049.06 15.1444L1048.57 15.7362L1045.95 15.9629C1045.87 15.9766 1045.79 16.021 1045.74 16.0872C1045.69 16.1534 1045.66 16.2365 1045.67 16.32C1045.68 16.4035 1045.72 16.4813 1045.78 16.5378C1045.84 16.5942 1045.92 16.6253 1046.01 16.6249L1047.96 16.4526L1047.6 16.8765L1046.15 17.2869C1046.11 17.2979 1046.08 17.3205 1046.05 17.3516C1046.02 17.3827 1046.01 17.4209 1046 17.4614L1045.81 19.257C1045.8 19.2908 1045.81 19.3254 1045.82 19.3576C1045.83 19.3898 1045.85 19.4185 1045.88 19.4411C1045.9 19.4637 1045.93 19.4794 1045.97 19.4868C1046 19.4943 1046.04 19.4932 1046.07 19.4837L1047.8 18.9895C1047.84 18.9787 1047.88 18.9562 1047.91 18.925C1047.93 18.8939 1047.95 18.8555 1047.95 18.8149L1048.12 17.3027L1048.46 16.8901L1048.63 18.8466C1048.63 18.89 1048.65 18.9324 1048.67 18.9713C1048.69 19.0101 1048.71 19.0447 1048.75 19.0729C1048.78 19.1012 1048.82 19.1226 1048.86 19.1359C1048.9 19.1492 1048.95 19.1541 1048.99 19.1504C1049.08 19.1424 1049.16 19.0999 1049.22 19.0324C1049.27 18.9648 1049.3 18.8777 1049.29 18.7899L1049.07 16.1692L1049.56 15.5797L1049.62 16.21C1049.62 16.2975 1049.67 16.3784 1049.73 16.4349C1049.8 16.4915 1049.89 16.519 1049.98 16.5115C1050.06 16.504 1050.15 16.462 1050.2 16.3949C1050.26 16.3277 1050.29 16.2408 1050.28 16.1533L1050.17 14.8656L1050.94 13.9587L1051.1 15.854L1050.37 16.4526C1050.34 16.4776 1050.31 16.5111 1050.3 16.549C1050.29 16.5868 1050.29 16.6274 1050.3 16.6657L1050.61 17.7992C1050.62 17.8324 1050.64 17.8628 1050.66 17.8877C1050.69 17.9127 1050.72 17.9313 1050.75 17.942C1050.78 17.9522 1050.82 17.9539 1050.85 17.9472C1050.88 17.9405 1050.91 17.9254 1050.94 17.9035L1051.85 17.1667C1051.88 17.142 1051.91 17.1086 1051.92 17.0706C1051.93 17.0326 1051.93 16.9918 1051.92 16.9536L1051.69 16.1193L1051.72 16.0966L1052.97 14.6094L1053.07 15.8019L1052.23 16.7654C1052.17 16.8337 1052.14 16.9217 1052.15 17.0103C1052.15 17.0755 1052.18 17.1376 1052.22 17.1888C1052.26 17.24 1052.32 17.278 1052.38 17.2979C1052.44 17.3178 1052.51 17.3187 1052.57 17.3006C1052.64 17.2825 1052.69 17.2462 1052.73 17.1962L1053.14 16.7133L1053.2 17.4841L1051.51 19.4928C1051.45 19.5604 1051.42 19.6475 1051.43 19.7353C1051.44 19.8231 1051.48 19.9045 1051.55 19.962C1051.61 20.0184 1051.7 20.0459 1051.79 20.0387C1051.88 20.0315 1051.96 19.9901 1052.02 19.9235L1053.28 18.4204L1053.33 18.9781L1052.6 20.2908C1052.58 20.3266 1052.57 20.3669 1052.57 20.4071C1052.58 20.4473 1052.59 20.4856 1052.62 20.5175L1053.76 21.9231C1053.78 21.9492 1053.81 21.9698 1053.84 21.9829C1053.87 21.996 1053.9 22.0011 1053.94 21.9979C1053.97 21.9954 1054 21.9846 1054.03 21.9664C1054.06 21.9481 1054.08 21.9231 1054.1 21.8936L1054.98 20.3066C1055 20.2712 1055.01 20.2309 1055 20.1906C1055 20.1503 1054.98 20.1118 1054.96 20.0799L1054 18.892L1053.96 18.3524L1055.45 19.6265C1055.49 19.6611 1055.53 19.6884 1055.57 19.7067C1055.61 19.7251 1055.66 19.734 1055.71 19.7328C1055.75 19.7317 1055.8 19.7206 1055.84 19.7002C1055.89 19.6798 1055.92 19.6506 1055.95 19.6145C1055.98 19.5785 1056.01 19.5364 1056.02 19.4911C1056.03 19.4458 1056.04 19.3984 1056.03 19.3519C1056.02 19.3054 1056 19.2609 1055.98 19.2215C1055.95 19.1821 1055.92 19.1486 1055.88 19.1232L1053.87 17.4274L1053.81 16.6566L1054.28 17.0647C1054.33 17.1066 1054.39 17.1327 1054.46 17.1397C1054.52 17.1467 1054.59 17.1342 1054.65 17.1039C1054.71 17.0736 1054.75 17.0267 1054.79 16.9693C1054.82 16.9119 1054.83 16.8465 1054.83 16.7813C1054.82 16.7376 1054.81 16.695 1054.79 16.656C1054.77 16.617 1054.74 16.5825 1054.71 16.5546L1053.72 15.718L1053.62 14.5255L1055.1 15.7724L1055 16.6611C1055 16.7007 1055.01 16.7406 1055.03 16.7759C1055.04 16.8113 1055.07 16.8407 1055.11 16.8606L1056.12 17.4365C1056.15 17.4522 1056.18 17.4604 1056.22 17.4604C1056.25 17.4604 1056.29 17.4522 1056.32 17.4365C1056.35 17.4203 1056.37 17.3969 1056.39 17.3685C1056.41 17.34 1056.42 17.3073 1056.43 17.2733L1056.55 16.1148C1056.55 16.0752 1056.54 16.0353 1056.52 16C1056.51 15.9646 1056.48 15.9351 1056.44 15.9153L1055.66 15.4618L1055.5 13.5393L1056.41 14.3124L1056.52 15.6047C1056.52 15.6503 1056.53 15.6955 1056.55 15.7372C1056.57 15.7789 1056.59 15.8164 1056.63 15.8472C1056.66 15.8779 1056.7 15.9014 1056.74 15.916C1056.79 15.9307 1056.83 15.9362 1056.88 15.9323C1056.93 15.9284 1056.97 15.9151 1057.01 15.8932C1057.05 15.8714 1057.09 15.8415 1057.11 15.8054C1057.14 15.7693 1057.16 15.7278 1057.17 15.6835C1057.19 15.6392 1057.19 15.593 1057.18 15.548L1057.13 14.9177L1057.72 15.4165L1057.95 18.0373C1057.95 18.0807 1057.96 18.1231 1057.98 18.1619C1058 18.2008 1058.03 18.2353 1058.06 18.2636C1058.09 18.2918 1058.13 18.3132 1058.17 18.3265C1058.22 18.3398 1058.26 18.3448 1058.3 18.3411C1058.39 18.3358 1058.47 18.2968 1058.53 18.2324C1058.59 18.168 1058.62 18.0834 1058.62 17.9965L1058.45 16.0399L1058.88 16.4004L1059.29 17.8514C1059.3 17.8904 1059.33 17.9252 1059.36 17.9514C1059.39 17.9776 1059.43 17.9941 1059.47 17.9987L1061.26 18.1914C1061.3 18.1954 1061.33 18.191 1061.36 18.1787C1061.39 18.1665 1061.42 18.1467 1061.44 18.1212C1061.46 18.0954 1061.48 18.0648 1061.48 18.0321C1061.49 17.9993 1061.49 17.9653 1061.48 17.933L1060.99 16.1964C1060.98 16.1571 1060.96 16.1219 1060.92 16.0956C1060.89 16.0693 1060.85 16.0531 1060.81 16.049L1059.3 15.8858L1058.88 15.5321L1060.84 15.3666C1060.93 15.3591 1061.01 15.3169 1061.07 15.2493C1061.13 15.1817 1061.16 15.0942 1061.15 15.0061C1061.14 14.9181 1061.1 14.8366 1061.03 14.7796C1060.96 14.7226 1060.87 14.6948 1060.79 14.7024L1058.16 14.9291L1057.58 14.4303L1058.2 14.3782C1058.29 14.37 1058.37 14.3277 1058.43 14.2605C1058.49 14.1933 1058.51 14.1066 1058.51 14.0191C1058.5 13.9317 1058.46 13.8506 1058.39 13.7934C1058.32 13.7363 1058.24 13.7077 1058.15 13.7139L1056.86 13.8227L1055.94 13.0519L1057.82 12.8932L1058.41 13.6141C1058.43 13.6443 1058.47 13.6667 1058.51 13.6787C1058.54 13.6908 1058.58 13.692 1058.62 13.6822L1059.75 13.3716C1059.78 13.3623 1059.81 13.345 1059.83 13.3212C1059.86 13.2975 1059.88 13.2679 1059.89 13.2353C1059.9 13.2027 1059.9 13.1681 1059.89 13.1345C1059.89 13.1009 1059.87 13.0694 1059.85 13.0428L1059.11 12.136C1059.09 12.1049 1059.06 12.0818 1059.02 12.0697C1058.98 12.0576 1058.94 12.057 1058.9 12.068L1058.08 12.2947L1056.56 11.0319L1057.76 10.9322L1058.75 11.7687C1058.82 11.8231 1058.9 11.8492 1058.99 11.8417C1059.08 11.8341 1059.16 11.7933 1059.22 11.7279C1059.28 11.6602 1059.3 11.5728 1059.3 11.4848C1059.29 11.3968 1059.25 11.3155 1059.18 11.2586L1058.7 10.8528L1059.47 10.7871L1061.48 12.4829C1061.55 12.5394 1061.63 12.5668 1061.72 12.5592C1061.81 12.5515 1061.89 12.5094 1061.95 12.442C1062 12.3747 1062.03 12.2877 1062.02 12.2001C1062.02 12.1125 1061.97 12.0315 1061.91 11.975L1060.4 10.7077L1060.96 10.6601L1062.28 11.3992C1062.32 11.419 1062.36 11.4276 1062.4 11.424C1062.44 11.4204 1062.48 11.4046 1062.51 11.3788L1063.92 10.2452C1063.94 10.2238 1063.96 10.1966 1063.98 10.1658C1063.99 10.1351 1063.99 10.1017 1063.99 10.0684C1063.99 10.0361 1063.98 10.0048 1063.96 9.9769C1063.95 9.94901 1063.92 9.92525 1063.9 9.90742ZM1052.53 9.47214C1052.46 9.49309 1052.4 9.51807 1052.33 9.54695L1052.21 9.6059C1052.14 9.64418 1052.07 9.68817 1052.01 9.73739L1051.2 9.05726L1051.05 7.24357L1052.44 8.41794L1052.53 9.47214ZM1052.23 12.4194C1052.29 12.4537 1052.36 12.484 1052.43 12.5101L1052.57 12.5554C1052.64 12.5763 1052.72 12.5922 1052.79 12.603L1052.88 13.6413L1051.71 15.0356L1051.55 13.2219L1052.23 12.4194ZM1053.03 11.9478H1052.92C1052.73 11.9328 1052.55 11.8609 1052.41 11.7415C1052.39 11.73 1052.37 11.7163 1052.36 11.7007C1052.22 11.5784 1052.12 11.4171 1052.08 11.2382C1052.07 11.1843 1052.06 11.1298 1052.06 11.075C1052.04 10.8548 1052.1 10.6347 1052.23 10.4561C1052.31 10.3458 1052.41 10.2539 1052.53 10.1869C1052.65 10.12 1052.78 10.0795 1052.91 10.0684C1053 10.0598 1053.09 10.0636 1053.18 10.0797C1053.33 10.1088 1053.48 10.1759 1053.6 10.2747L1053.62 10.2951C1053.74 10.3961 1053.83 10.5248 1053.88 10.6692C1053.9 10.7425 1053.92 10.8186 1053.93 10.8959V10.9344C1053.95 11.1376 1053.9 11.3406 1053.79 11.5125C1053.76 11.555 1053.73 11.5958 1053.69 11.635C1053.54 11.807 1053.33 11.9155 1053.1 11.9388C1053.08 11.9444 1053.06 11.9482 1053.03 11.9501V11.9478ZM1053.75 9.58323C1053.69 9.5502 1053.62 9.52068 1053.55 9.49481L1053.43 9.45627H1053.4L1053.3 9.43133L1053.19 9.41773L1053.1 8.36579L1054.28 6.96699L1054.43 8.78067L1053.75 9.58323ZM1053.46 12.5486C1053.53 12.5279 1053.6 12.5021 1053.66 12.4715L1053.79 12.4035C1053.86 12.3647 1053.93 12.3215 1053.99 12.2743L1054.78 12.9544L1054.94 14.7681L1053.55 13.596L1053.46 12.5486ZM1054.53 10.5377C1054.53 10.5059 1054.52 10.4742 1054.5 10.4447C1054.49 10.4192 1054.48 10.3943 1054.47 10.3699L1054.39 10.2089C1054.36 10.1409 1054.31 10.0758 1054.26 10.014L1054.95 9.21142L1056.78 9.05726L1055.6 10.4493L1054.53 10.5377ZM1050.77 9.56282L1051.58 10.243C1051.55 10.3063 1051.52 10.3714 1051.49 10.4379L1051.45 10.5717C1051.43 10.6457 1051.41 10.7216 1051.4 10.7984L1050.35 10.8868L1048.96 9.71245L1050.77 9.56282ZM1050.4 11.5556L1051.44 11.4649C1051.47 11.5344 1051.49 11.6026 1051.52 11.669L1051.59 11.7937C1051.63 11.8626 1051.67 11.9286 1051.72 11.9909L1051.03 12.7912L1049.21 12.9453L1050.4 11.5556ZM1055.21 12.442L1054.41 11.7619C1054.44 11.6973 1054.47 11.6306 1054.5 11.5624L1054.54 11.4264C1054.56 11.352 1054.57 11.2763 1054.58 11.1997L1055.63 11.1113L1057.02 12.2879L1055.21 12.442Z" fill="white"/>
<path d="M21.8954 423.907L20.3199 423.028C20.2841 423.009 20.2433 423 20.2027 423.004C20.1621 423.008 20.1235 423.023 20.0916 423.048L18.902 423.998L18.3471 424.046L19.6144 422.543C19.6458 422.509 19.6698 422.469 19.6848 422.426C19.6997 422.383 19.7053 422.337 19.7012 422.291C19.6962 422.226 19.6718 422.163 19.631 422.112C19.5901 422.061 19.5348 422.022 19.472 422.002C19.4092 421.982 19.3418 421.982 19.2785 422C19.2152 422.018 19.1588 422.055 19.1166 422.105L17.4201 424.114L16.6483 424.179L17.057 423.697C17.1142 423.629 17.1421 423.542 17.1347 423.454C17.1292 423.389 17.1043 423.327 17.0632 423.275C17.0221 423.224 16.9666 423.186 16.9038 423.166C16.841 423.147 16.7737 423.146 16.7103 423.164C16.6469 423.182 16.5904 423.218 16.5479 423.268L15.7053 424.268L14.5134 424.37L15.767 422.885L16.6255 422.973C16.6652 422.976 16.7049 422.968 16.74 422.95C16.7752 422.931 16.8044 422.903 16.8242 422.869L17.3995 421.856C17.4153 421.826 17.4236 421.792 17.4236 421.758C17.4236 421.724 17.4153 421.691 17.3995 421.661C17.3841 421.63 17.3611 421.604 17.3328 421.585C17.3044 421.565 17.2717 421.553 17.2374 421.55L16.0775 421.432C16.0378 421.429 15.9981 421.437 15.9629 421.455C15.9278 421.474 15.8986 421.502 15.8788 421.536L15.4222 422.334L13.5338 422.495L14.3056 421.588L15.598 421.479C15.6863 421.471 15.7678 421.429 15.8247 421.361C15.8816 421.294 15.9093 421.207 15.9017 421.119C15.8985 421.075 15.8867 421.033 15.8669 420.994C15.8471 420.955 15.8197 420.921 15.7864 420.893C15.753 420.864 15.7144 420.843 15.6726 420.83C15.6309 420.816 15.5869 420.811 15.5432 420.815L14.913 420.87L15.413 420.278L18.032 420.051C18.0757 420.047 18.1181 420.035 18.157 420.015C18.1959 419.995 18.2304 419.968 18.2586 419.934C18.2868 419.901 18.3081 419.863 18.3214 419.821C18.3346 419.78 18.3395 419.736 18.3357 419.693C18.3304 419.606 18.2911 419.525 18.2262 419.467C18.1612 419.409 18.076 419.379 17.9886 419.382L16.0295 419.548L16.3903 419.128L17.8539 418.713C17.8932 418.702 17.9283 418.68 17.9547 418.648C17.9811 418.617 17.9977 418.579 18.0023 418.539L18.1964 416.743C18.1997 416.71 18.1948 416.676 18.182 416.645C18.1693 416.614 18.1492 416.586 18.1234 416.564C18.0977 416.543 18.0673 416.529 18.0347 416.521C18.0022 416.514 17.9684 416.515 17.9361 416.523L16.2008 417.018C16.1612 417.028 16.1258 417.051 16.0993 417.082C16.0728 417.113 16.0565 417.152 16.0524 417.192L15.8903 418.691L15.5249 419.117L15.3582 417.158C15.3553 417.115 15.3438 417.072 15.3241 417.033C15.3045 416.993 15.2772 416.958 15.2439 416.93C15.2105 416.901 15.1718 416.879 15.1299 416.866C15.088 416.852 15.0437 416.847 14.9997 416.85C14.9114 416.858 14.8299 416.9 14.773 416.968C14.7161 417.036 14.6885 417.123 14.6961 417.21L14.9244 419.831L14.4244 420.421L14.365 419.797C14.358 419.71 14.3163 419.629 14.2491 419.572C14.1819 419.515 14.0946 419.486 14.0065 419.493C13.9182 419.501 13.8367 419.544 13.7798 419.611C13.7229 419.679 13.6952 419.766 13.7028 419.854L13.8124 421.146L13.0407 422.053L12.8785 420.151L13.5635 419.582C13.595 419.557 13.6184 419.523 13.6305 419.484C13.6427 419.446 13.6432 419.405 13.632 419.366L13.3215 418.244C13.3126 418.212 13.2956 418.182 13.2721 418.157C13.2485 418.132 13.2192 418.114 13.1868 418.104C13.1539 418.094 13.119 418.092 13.0852 418.098C13.0514 418.104 13.0197 418.119 12.9927 418.14L12.0908 418.877C12.0599 418.902 12.0371 418.935 12.0249 418.973C12.0128 419.011 12.0118 419.052 12.0223 419.09L12.2506 419.945L11.0245 421.423L10.924 420.228L11.7597 419.237C11.7883 419.204 11.81 419.165 11.8233 419.124C11.8366 419.082 11.8414 419.038 11.8373 418.995C11.8342 418.951 11.8223 418.908 11.8023 418.87C11.7823 418.831 11.7546 418.796 11.7209 418.768C11.6542 418.715 11.5694 418.689 11.4843 418.697C11.3992 418.705 11.3203 418.745 11.2642 418.809L10.8555 419.289L10.7916 418.521L12.4881 416.51C12.545 416.442 12.5729 416.355 12.5657 416.267C12.5571 416.179 12.5145 416.098 12.447 416.041C12.3803 415.988 12.2955 415.962 12.2104 415.97C12.1253 415.977 12.0464 416.017 11.9903 416.081L10.7231 417.582L10.6774 417.043L11.3966 415.716C11.4163 415.681 11.4251 415.641 11.4218 415.6C11.4186 415.56 11.4035 415.522 11.3784 415.49L10.2367 414.084C10.2161 414.058 10.1892 414.037 10.1585 414.024C10.1277 414.011 10.0942 414.006 10.0609 414.009C10.0271 414.011 9.99442 414.022 9.96601 414.04C9.93761 414.058 9.91445 414.084 9.89877 414.114L9.01968 415.7C9.00001 415.736 8.99126 415.776 8.99451 415.817C8.99775 415.857 9.01286 415.895 9.03795 415.927L9.99695 417.077L10.0449 417.634L8.54246 416.367C8.47511 416.311 8.38811 416.283 8.30043 416.291C8.21275 416.298 8.13149 416.339 8.07438 416.406C8.01706 416.474 7.98916 416.562 7.99674 416.65C7.99988 416.694 8.0118 416.737 8.03181 416.776C8.05181 416.814 8.07949 416.849 8.1132 416.877L10.1225 418.573L10.1888 419.344L9.70696 418.936C9.67341 418.908 9.63462 418.886 9.5928 418.873C9.55097 418.86 9.50695 418.855 9.46326 418.859C9.41956 418.863 9.37704 418.875 9.33815 418.895C9.29926 418.916 9.26474 418.943 9.2366 418.976C9.20825 419.01 9.18697 419.048 9.17402 419.09C9.16107 419.132 9.15673 419.176 9.16125 419.219C9.16439 419.263 9.1763 419.305 9.19631 419.344C9.21631 419.383 9.24398 419.418 9.27769 419.446L10.2687 420.282L10.3691 421.473L8.87811 420.223L8.85528 420.203L8.93748 419.344C8.94182 419.304 8.93441 419.264 8.91616 419.229C8.8979 419.193 8.86959 419.164 8.83473 419.144L7.82092 418.571C7.79092 418.554 7.75712 418.545 7.72274 418.545C7.68836 418.545 7.65455 418.554 7.62456 418.571C7.59425 418.586 7.56837 418.609 7.54923 418.637C7.53009 418.665 7.51831 418.698 7.51496 418.732L7.39851 419.892C7.39416 419.932 7.40157 419.972 7.41983 420.007C7.43809 420.043 7.4664 420.072 7.50126 420.092L8.32554 420.559L8.48538 422.445L7.57204 421.672L7.46245 420.38C7.45923 420.336 7.44734 420.294 7.42747 420.255C7.4076 420.216 7.38014 420.181 7.34668 420.152C7.31322 420.124 7.27441 420.103 7.23251 420.089C7.19061 420.076 7.14645 420.071 7.10257 420.074C7.05868 420.078 7.01595 420.09 6.97683 420.11C6.93772 420.13 6.90301 420.158 6.87469 420.191C6.84637 420.225 6.82502 420.263 6.81185 420.305C6.79869 420.347 6.79397 420.391 6.79799 420.434L6.85279 421.064L6.26141 420.566L6.03307 417.945C6.02551 417.857 5.98333 417.776 5.91574 417.719C5.84816 417.662 5.76065 417.634 5.6723 417.641C5.62866 417.645 5.58624 417.658 5.54746 417.678C5.50868 417.698 5.47432 417.726 5.44632 417.759C5.41833 417.793 5.39726 417.831 5.38432 417.873C5.37138 417.915 5.36681 417.958 5.3709 418.002L5.53531 419.958L5.12429 419.611L4.70874 418.147C4.69731 418.108 4.67452 418.073 4.64324 418.047C4.61196 418.02 4.57358 418.004 4.53292 417.999L2.73821 417.807C2.70495 417.802 2.67111 417.806 2.63993 417.819C2.60876 417.831 2.58127 417.851 2.56011 417.877C2.53853 417.903 2.52353 417.933 2.51637 417.966C2.50922 417.999 2.51013 418.033 2.51901 418.065L3.01677 419.797C3.02793 419.836 3.05064 419.871 3.08197 419.898C3.1133 419.924 3.15183 419.94 3.1926 419.945L4.69047 420.108L5.11059 420.477L3.14693 420.638C3.05851 420.645 2.9766 420.687 2.91922 420.754C2.86184 420.822 2.83369 420.909 2.84095 420.996C2.84822 421.084 2.89032 421.166 2.95798 421.223C3.02563 421.28 3.11331 421.307 3.20172 421.3L5.823 421.074L6.41439 421.572L5.78418 421.627C5.70093 421.64 5.62596 421.685 5.5742 421.751C5.52245 421.817 5.4977 421.9 5.5049 421.984C5.5121 422.067 5.55072 422.145 5.61306 422.202C5.67539 422.258 5.75687 422.289 5.84127 422.289L7.13365 422.18L8.04698 422.951L6.12213 423.114L5.54215 422.404C5.51712 422.373 5.48339 422.35 5.44519 422.338C5.407 422.326 5.36606 422.325 5.32751 422.336L4.20411 422.647C4.17263 422.658 4.14417 422.676 4.1211 422.7C4.09802 422.723 4.08099 422.752 4.0714 422.784C4.06181 422.816 4.05993 422.849 4.06593 422.882C4.07194 422.914 4.08565 422.945 4.10593 422.971L4.84345 423.878C4.86885 423.909 4.90261 423.931 4.94068 423.943C4.97875 423.955 5.01951 423.956 5.05808 423.946L5.92119 423.706L7.40764 424.959L6.21345 425.061L5.22249 424.225C5.15584 424.172 5.07136 424.147 4.98642 424.154C4.90148 424.161 4.82255 424.2 4.76582 424.263C4.70894 424.331 4.68113 424.418 4.68839 424.506C4.69565 424.594 4.73741 424.675 4.80463 424.733L5.2887 425.141L4.51693 425.216L2.50759 423.52C2.44088 423.467 2.35611 423.441 2.27099 423.449C2.18588 423.457 2.10703 423.497 2.05093 423.561C1.99396 423.628 1.96607 423.715 1.97329 423.803C1.97616 423.847 1.98796 423.889 2.00799 423.928C2.02801 423.967 2.05583 424.002 2.08974 424.03L3.59218 425.297L3.04874 425.345L1.72669 424.606C1.69099 424.586 1.65009 424.577 1.60935 424.581C1.56861 424.585 1.52993 424.6 1.49836 424.626L0.0940992 425.76C0.0676264 425.781 0.0467137 425.808 0.0331832 425.839C0.0196526 425.869 0.0139082 425.903 0.0164595 425.936C0.0197352 425.97 0.030967 426.002 0.049224 426.031C0.067481 426.059 0.0922486 426.083 0.121498 426.1L1.69701 426.979C1.73289 426.999 1.77366 427.007 1.81426 427.003C1.85486 427 1.8935 426.984 1.92534 426.959L3.10583 426.009L3.64698 425.964L2.37973 427.465C2.35139 427.498 2.32991 427.536 2.31652 427.578C2.30314 427.619 2.29811 427.663 2.30171 427.706C2.30532 427.749 2.3175 427.792 2.33754 427.83C2.35759 427.869 2.38511 427.903 2.41854 427.932C2.45197 427.96 2.49067 427.981 2.5324 427.994C2.57413 428.008 2.61808 428.013 2.66176 428.009C2.70544 428.005 2.74798 427.993 2.78695 427.973C2.82592 427.954 2.86057 427.926 2.88891 427.893L4.58543 425.884L5.35491 425.819L4.94849 426.301C4.90575 426.329 4.87005 426.367 4.84419 426.411C4.81832 426.454 4.80296 426.504 4.79931 426.554C4.79566 426.605 4.80382 426.656 4.82314 426.703C4.84246 426.75 4.87243 426.792 4.91073 426.826C4.94903 426.859 4.99463 426.884 5.04399 426.897C5.09336 426.911 5.14516 426.913 5.1954 426.903C5.24563 426.893 5.29296 426.872 5.33369 426.841C5.37442 426.811 5.40746 426.771 5.43027 426.725L6.26825 425.735L7.45788 425.635L6.20661 427.118L6.19291 427.136L5.32067 427.052C5.28081 427.048 5.24054 427.055 5.20483 427.073C5.16913 427.091 5.13955 427.119 5.11974 427.154L4.54662 428.167C4.53023 428.198 4.52166 428.232 4.52166 428.266C4.52166 428.3 4.53023 428.334 4.54662 428.365C4.5624 428.395 4.58548 428.42 4.61379 428.439C4.6421 428.458 4.67473 428.47 4.70874 428.473L5.86867 428.591C5.90816 428.595 5.94794 428.588 5.9832 428.569C6.01845 428.551 6.04766 428.523 6.06732 428.489L6.52398 427.678L8.44428 427.517L7.67023 428.424L6.37786 428.535C6.29461 428.548 6.21964 428.593 6.16788 428.659C6.11612 428.725 6.09137 428.808 6.09857 428.892C6.10577 428.975 6.14438 429.053 6.20672 429.109C6.26906 429.166 6.35055 429.197 6.43494 429.197L7.06286 429.144L6.57194 429.736L3.95067 429.963C3.86742 429.977 3.79244 430.021 3.74069 430.087C3.68893 430.153 3.66418 430.237 3.67138 430.32C3.67858 430.404 3.71719 430.481 3.77953 430.538C3.84186 430.594 3.92335 430.625 4.00775 430.625L5.95543 430.453L5.59923 430.877L4.1516 431.287C4.11215 431.298 4.07693 431.32 4.05048 431.352C4.02403 431.383 4.00756 431.421 4.00318 431.461L3.8091 433.257C3.80391 433.291 3.80738 433.325 3.8192 433.358C3.83103 433.39 3.8508 433.418 3.87673 433.441C3.90267 433.464 3.9339 433.479 3.96757 433.487C4.00124 433.494 4.03626 433.493 4.06939 433.484L5.80474 432.989C5.84435 432.979 5.87973 432.956 5.90622 432.925C5.93272 432.894 5.94908 432.855 5.95315 432.815L6.11756 431.303L6.46463 430.89L6.63131 432.847C6.63447 432.89 6.64629 432.932 6.66608 432.971C6.68587 433.01 6.71324 433.045 6.74659 433.073C6.77994 433.101 6.81862 433.123 6.86037 433.136C6.90212 433.149 6.94611 433.154 6.98979 433.15C7.07811 433.142 7.15961 433.1 7.21651 433.032C7.27341 432.965 7.30108 432.878 7.29347 432.79L7.06513 430.169L7.56292 429.58L7.61543 430.21C7.623 430.297 7.66526 430.378 7.73291 430.435C7.80057 430.491 7.88809 430.519 7.9762 430.512C8.06431 430.504 8.1458 430.462 8.20275 430.395C8.2597 430.328 8.28744 430.241 8.27987 430.153L8.17028 428.866L8.94205 427.959L9.10189 429.854L8.36893 430.453C8.33785 430.478 8.31482 430.511 8.30265 430.549C8.29048 430.587 8.28971 430.627 8.30043 430.666L8.61096 431.799C8.62016 431.832 8.63748 431.863 8.66138 431.888C8.68529 431.913 8.71504 431.931 8.74797 431.942C8.78062 431.952 8.81531 431.954 8.84884 431.947C8.88237 431.94 8.91364 431.925 8.93976 431.904L9.8531 431.167C9.88466 431.142 9.90805 431.109 9.92026 431.071C9.93247 431.033 9.93294 430.992 9.9216 430.954L9.69326 430.119L9.71611 430.097L10.9697 428.609L11.0724 429.802L10.2253 430.765C10.168 430.834 10.1401 430.922 10.1476 431.01C10.1532 431.075 10.1781 431.138 10.2192 431.189C10.2602 431.24 10.3157 431.278 10.3785 431.298C10.4413 431.318 10.5087 431.319 10.572 431.301C10.6354 431.283 10.6919 431.246 10.7345 431.196L11.1386 430.713L11.2048 431.484L9.50831 433.493C9.45144 433.56 9.42363 433.647 9.4309 433.735C9.43816 433.823 9.47991 433.905 9.54714 433.962C9.61487 434.018 9.70223 434.046 9.79029 434.039C9.87835 434.032 9.96 433.99 10.0175 433.924L11.2848 432.42L11.3304 432.978L10.5975 434.291C10.5787 434.327 10.5706 434.367 10.5743 434.407C10.5779 434.447 10.5931 434.486 10.618 434.517L11.7597 435.923C11.7803 435.949 11.8072 435.97 11.8379 435.983C11.8687 435.996 11.9022 436.001 11.9355 435.998C11.9692 435.995 12.0017 435.985 12.03 435.966C12.0584 435.948 12.0816 435.923 12.0976 435.894L12.9767 434.307C12.9964 434.271 13.0051 434.231 13.0019 434.191C12.9986 434.15 12.9835 434.112 12.9584 434.08L12.0017 432.892L11.9561 432.352L13.4539 433.627C13.4861 433.661 13.5253 433.688 13.5689 433.707C13.6125 433.725 13.6595 433.734 13.7069 433.733C13.7542 433.732 13.8008 433.721 13.8435 433.7C13.8861 433.68 13.924 433.651 13.9544 433.615C13.9848 433.578 14.0071 433.536 14.0199 433.491C14.0326 433.446 14.0355 433.398 14.0284 433.352C14.0212 433.305 14.0041 433.261 13.9783 433.222C13.9525 433.182 13.9185 433.149 13.8786 433.123L11.8693 431.427L11.8054 430.657L12.2803 431.065C12.3309 431.107 12.3929 431.133 12.4584 431.14C12.5239 431.147 12.5901 431.134 12.6485 431.104C12.7069 431.074 12.7549 431.027 12.7865 430.969C12.8181 430.912 12.8319 430.846 12.826 430.781C12.8231 430.738 12.8113 430.695 12.7913 430.656C12.7713 430.617 12.7435 430.583 12.7096 430.555L11.7186 429.718L11.6181 428.526L13.0954 429.772L13.0041 430.661C13.0001 430.701 13.0076 430.741 13.0258 430.776C13.0441 430.811 13.0722 430.841 13.1069 430.861L14.1207 431.436C14.151 431.452 14.1847 431.46 14.2188 431.46C14.253 431.46 14.2867 431.452 14.317 431.436C14.3474 431.42 14.3733 431.397 14.3924 431.368C14.4115 431.34 14.4233 431.307 14.4266 431.273L14.5454 430.115C14.5494 430.075 14.5419 430.035 14.5237 430C14.5054 429.965 14.4773 429.935 14.4426 429.915L13.6572 429.462L13.495 427.539L14.4084 428.312L14.518 429.605C14.5183 429.65 14.5281 429.695 14.5468 429.737C14.5655 429.779 14.5927 429.816 14.6267 429.847C14.6607 429.878 14.7008 429.901 14.7444 429.916C14.788 429.931 14.8341 429.936 14.88 429.932C14.9258 429.928 14.9703 429.915 15.0107 429.893C15.0512 429.871 15.0866 429.841 15.1148 429.805C15.143 429.769 15.1633 429.728 15.1746 429.683C15.1858 429.639 15.1877 429.593 15.1801 429.548L15.1276 428.918L15.7167 429.416L15.9451 432.037C15.9482 432.081 15.9601 432.123 15.9798 432.162C15.9996 432.201 16.027 432.235 16.0603 432.264C16.0937 432.292 16.1324 432.313 16.1741 432.327C16.2159 432.34 16.2599 432.345 16.3035 432.341C16.391 432.336 16.4729 432.297 16.5317 432.232C16.5906 432.168 16.6218 432.083 16.6186 431.996L16.452 430.04L16.8812 430.4L17.2922 431.851C17.3037 431.89 17.3264 431.925 17.3577 431.951C17.389 431.978 17.4274 431.994 17.468 431.999L19.2628 432.191C19.296 432.195 19.3297 432.191 19.3608 432.179C19.3919 432.166 19.4194 432.147 19.4409 432.121C19.4624 432.095 19.4774 432.065 19.4846 432.032C19.4917 431.999 19.4908 431.965 19.4819 431.933L18.9888 430.196C18.9779 430.157 18.9553 430.122 18.9239 430.096C18.8925 430.069 18.8538 430.053 18.8129 430.049L17.3036 429.886L16.8835 429.532L18.8426 429.367C18.9313 429.359 19.0134 429.317 19.0708 429.249C19.1282 429.182 19.1562 429.094 19.1486 429.006C19.141 428.918 19.0985 428.837 19.0304 428.78C18.9623 428.723 18.8743 428.695 18.7855 428.702L16.1643 428.929L15.5752 428.43L16.2031 428.378C16.2911 428.37 16.3723 428.328 16.4291 428.261C16.4858 428.193 16.5136 428.107 16.5064 428.019C16.4992 427.932 16.4576 427.851 16.3905 427.793C16.3235 427.736 16.2364 427.708 16.1483 427.714L14.8559 427.823L13.9426 427.052L15.8218 426.893L16.4086 427.614C16.4343 427.644 16.4681 427.667 16.5061 427.679C16.544 427.691 16.5846 427.692 16.6232 427.682L17.7466 427.372C17.7798 427.362 17.8101 427.345 17.8349 427.321C17.8596 427.297 17.878 427.268 17.8885 427.235C17.8989 427.203 17.901 427.168 17.8945 427.134C17.8881 427.101 17.8734 427.069 17.8517 427.043L17.1141 426.136C17.0891 426.105 17.0554 426.082 17.0172 426.07C16.979 426.058 16.938 426.057 16.8995 426.068L16.0775 426.295L14.5636 425.032L15.7601 424.932L16.7488 425.769C16.8175 425.823 16.9046 425.849 16.9922 425.842C17.0797 425.834 17.161 425.793 17.2192 425.728C17.2763 425.66 17.3041 425.573 17.2964 425.485C17.2887 425.397 17.2462 425.315 17.1781 425.259L16.6963 424.853L17.4658 424.787L19.4774 426.483C19.5452 426.539 19.6329 426.567 19.7211 426.559C19.8093 426.552 19.8908 426.509 19.9478 426.442C20.0047 426.375 20.0323 426.288 20.0246 426.2C20.0169 426.113 19.9745 426.032 19.9067 425.975L18.4042 424.708L18.9591 424.66L20.2811 425.399C20.3168 425.419 20.3577 425.428 20.3985 425.424C20.4392 425.42 20.4779 425.405 20.5095 425.379L21.916 424.245C21.9418 424.224 21.962 424.197 21.9751 424.166C21.9882 424.135 21.9938 424.102 21.9914 424.068C21.9887 424.036 21.9787 424.005 21.9621 423.977C21.9455 423.949 21.9227 423.925 21.8954 423.907ZM10.5313 423.472C10.4636 423.493 10.3972 423.518 10.3326 423.547L10.2093 423.606C10.1402 423.644 10.0746 423.688 10.0129 423.737L9.20464 423.057L9.04936 421.244L10.4422 422.418L10.5313 423.472ZM10.2321 426.419C10.2948 426.454 10.3597 426.484 10.4262 426.51L10.5655 426.555C10.6405 426.576 10.7167 426.592 10.7938 426.603L10.8829 427.641L9.70696 429.036L9.5517 427.222L10.2321 426.419ZM11.0336 425.948H10.9217C10.7325 425.933 10.5525 425.861 10.4057 425.742C10.3887 425.73 10.3733 425.716 10.36 425.701C10.2213 425.578 10.1233 425.417 10.0791 425.238C10.0688 425.184 10.0619 425.13 10.0586 425.075C10.0378 424.855 10.0987 424.635 10.2299 424.456C10.3087 424.346 10.4108 424.254 10.5291 424.187C10.6475 424.12 10.7791 424.08 10.9149 424.068C11.004 424.06 11.0939 424.064 11.182 424.08C11.3342 424.109 11.4764 424.176 11.5953 424.275L11.6204 424.295C11.7369 424.396 11.8257 424.525 11.8784 424.669C11.9045 424.743 11.9221 424.819 11.9309 424.896V424.934C11.948 425.138 11.8974 425.341 11.7871 425.513C11.7573 425.555 11.7253 425.596 11.6912 425.635C11.539 425.807 11.3269 425.916 11.0975 425.939C11.0766 425.944 11.0552 425.948 11.0336 425.95V425.948ZM11.7528 423.583C11.6883 423.55 11.622 423.521 11.5542 423.495L11.4309 423.456H11.3966L11.2962 423.431L11.1934 423.418L11.1044 422.366L12.2803 420.967L12.4333 422.781L11.7528 423.583ZM11.4583 426.549C11.5278 426.528 11.5958 426.502 11.6615 426.472L11.7939 426.404C11.8614 426.365 11.9262 426.321 11.988 426.274L12.7849 426.954L12.9379 428.768L11.5473 427.596L11.4583 426.549ZM12.5337 424.538C12.5337 424.506 12.5155 424.474 12.5041 424.445C12.4948 424.419 12.4841 424.394 12.4721 424.37L12.3945 424.209C12.3559 424.141 12.3124 424.076 12.2643 424.014L12.9493 423.211L14.776 423.057L13.6023 424.449L12.5337 424.538ZM8.77308 423.563L9.58138 424.243C9.54811 424.306 9.51838 424.371 9.49233 424.438L9.44894 424.572C9.42624 424.646 9.4102 424.722 9.401 424.798L8.35294 424.887L6.95782 423.712L8.77308 423.563ZM8.39861 425.556L9.44439 425.465C9.46612 425.534 9.49204 425.603 9.52201 425.669L9.58595 425.794C9.62503 425.863 9.66931 425.929 9.71839 425.991L9.03339 426.791L7.20671 426.945L8.39861 425.556ZM13.2096 426.442L12.4082 425.762C12.4418 425.697 12.4716 425.631 12.4972 425.562L12.5383 425.426C12.5591 425.352 12.5744 425.276 12.584 425.2L13.6297 425.111L15.0226 426.288L13.2096 426.442Z" fill="white"/>
<path d="M1406.83 323.212L1404.25 321.773C1404.19 321.742 1404.13 321.728 1404.06 321.734C1403.99 321.74 1403.93 321.765 1403.88 321.806L1401.93 323.361L1401.02 323.439L1403.1 320.979C1403.15 320.924 1403.19 320.859 1403.21 320.788C1403.24 320.717 1403.25 320.642 1403.24 320.567C1403.23 320.46 1403.19 320.358 1403.12 320.274C1403.06 320.19 1402.97 320.128 1402.86 320.095C1402.76 320.062 1402.65 320.061 1402.55 320.091C1402.44 320.121 1402.35 320.181 1402.28 320.263L1399.51 323.55L1398.24 323.658L1398.91 322.867C1399.01 322.757 1399.05 322.614 1399.04 322.47C1399.03 322.364 1398.99 322.262 1398.92 322.178C1398.85 322.094 1398.76 322.032 1398.66 322C1398.56 321.967 1398.45 321.966 1398.34 321.995C1398.24 322.025 1398.15 322.084 1398.08 322.166L1396.7 323.802L1394.75 323.969L1396.8 321.539L1398.21 321.684C1398.27 321.689 1398.34 321.676 1398.39 321.645C1398.45 321.615 1398.5 321.569 1398.53 321.513L1399.47 319.855C1399.5 319.806 1399.51 319.751 1399.51 319.695C1399.51 319.64 1399.5 319.585 1399.47 319.536C1399.45 319.486 1399.41 319.443 1399.36 319.411C1399.32 319.38 1399.26 319.36 1399.21 319.354L1397.31 319.161C1397.24 319.156 1397.18 319.17 1397.12 319.2C1397.06 319.23 1397.02 319.276 1396.98 319.332L1396.24 320.638L1393.15 320.901L1394.41 319.417L1396.52 319.239C1396.67 319.226 1396.8 319.157 1396.9 319.046C1396.99 318.935 1397.03 318.793 1397.02 318.649C1397.02 318.578 1397 318.509 1396.96 318.445C1396.93 318.382 1396.89 318.325 1396.83 318.279C1396.78 318.233 1396.71 318.198 1396.65 318.176C1396.58 318.154 1396.51 318.146 1396.43 318.152L1395.4 318.241L1396.22 317.273L1400.51 316.902C1400.58 316.896 1400.65 316.876 1400.71 316.843C1400.78 316.81 1400.83 316.766 1400.88 316.711C1400.92 316.657 1400.96 316.594 1400.98 316.526C1401 316.458 1401.01 316.387 1401 316.316C1401 316.174 1400.93 316.041 1400.82 315.946C1400.72 315.851 1400.58 315.801 1400.44 315.808L1397.23 316.078L1397.82 315.392L1400.22 314.713C1400.28 314.695 1400.34 314.658 1400.38 314.607C1400.42 314.556 1400.45 314.494 1400.46 314.428L1400.78 311.489C1400.78 311.435 1400.77 311.379 1400.75 311.328C1400.73 311.277 1400.7 311.232 1400.66 311.196C1400.61 311.162 1400.56 311.138 1400.51 311.126C1400.46 311.115 1400.4 311.116 1400.35 311.13L1397.51 311.938C1397.45 311.956 1397.39 311.993 1397.34 312.044C1397.3 312.095 1397.27 312.157 1397.27 312.224L1397 314.676L1396.4 315.374L1396.13 312.168C1396.13 312.097 1396.11 312.027 1396.08 311.963C1396.04 311.898 1396 311.841 1395.94 311.794C1395.89 311.747 1395.83 311.712 1395.76 311.689C1395.69 311.667 1395.62 311.658 1395.55 311.664C1395.4 311.677 1395.27 311.746 1395.17 311.857C1395.08 311.967 1395.04 312.11 1395.05 312.254L1395.42 316.542L1394.6 317.507L1394.51 316.486C1394.49 316.343 1394.43 316.211 1394.32 316.117C1394.21 316.024 1394.06 315.978 1393.92 315.989C1393.78 316.003 1393.64 316.072 1393.55 316.183C1393.46 316.293 1393.41 316.436 1393.42 316.579L1393.6 318.694L1392.34 320.178L1392.07 317.065L1393.19 316.134C1393.25 316.093 1393.28 316.037 1393.3 315.975C1393.32 315.912 1393.33 315.845 1393.31 315.782L1392.8 313.945C1392.78 313.892 1392.76 313.843 1392.72 313.803C1392.68 313.762 1392.63 313.732 1392.58 313.715C1392.52 313.699 1392.47 313.696 1392.41 313.706C1392.36 313.716 1392.3 313.74 1392.26 313.775L1390.78 314.98C1390.73 315.022 1390.7 315.076 1390.68 315.138C1390.66 315.2 1390.66 315.266 1390.67 315.329L1391.05 316.728L1389.04 319.146L1388.88 317.191L1390.24 315.57C1390.29 315.516 1390.33 315.453 1390.35 315.384C1390.37 315.316 1390.38 315.244 1390.37 315.173C1390.37 315.102 1390.35 315.032 1390.31 314.969C1390.28 314.905 1390.23 314.848 1390.18 314.802C1390.07 314.715 1389.93 314.674 1389.79 314.686C1389.65 314.699 1389.52 314.764 1389.43 314.869L1388.76 315.655L1388.66 314.398L1391.44 311.107C1391.53 310.997 1391.57 310.854 1391.56 310.71C1391.55 310.566 1391.48 310.433 1391.37 310.339C1391.26 310.253 1391.12 310.211 1390.98 310.223C1390.84 310.236 1390.71 310.301 1390.62 310.406L1388.55 312.862L1388.47 311.979L1389.65 309.809C1389.68 309.751 1389.7 309.685 1389.69 309.619C1389.68 309.553 1389.66 309.49 1389.62 309.438L1387.75 307.138C1387.72 307.095 1387.67 307.061 1387.62 307.04C1387.57 307.018 1387.52 307.01 1387.46 307.015C1387.41 307.019 1387.35 307.036 1387.31 307.066C1387.26 307.096 1387.22 307.137 1387.2 307.186L1385.76 309.783C1385.73 309.841 1385.71 309.907 1385.72 309.973C1385.72 310.039 1385.75 310.102 1385.79 310.154L1387.36 312.035L1387.44 312.947L1384.98 310.874C1384.87 310.782 1384.73 310.737 1384.58 310.748C1384.44 310.76 1384.31 310.828 1384.21 310.937C1384.12 311.048 1384.07 311.192 1384.09 311.337C1384.09 311.409 1384.11 311.478 1384.14 311.542C1384.18 311.606 1384.22 311.662 1384.28 311.708L1387.56 314.483L1387.67 315.745L1386.88 315.077C1386.83 315.031 1386.77 314.996 1386.7 314.975C1386.63 314.953 1386.56 314.945 1386.49 314.952C1386.41 314.958 1386.34 314.978 1386.28 315.011C1386.22 315.044 1386.16 315.089 1386.11 315.144C1386.07 315.198 1386.03 315.261 1386.01 315.33C1385.99 315.398 1385.98 315.469 1385.99 315.54C1386 315.612 1386.02 315.681 1386.05 315.745C1386.08 315.809 1386.13 315.865 1386.18 315.911L1387.8 317.28L1387.97 319.228L1385.53 317.184L1385.49 317.151L1385.63 315.745C1385.63 315.68 1385.62 315.614 1385.59 315.556C1385.56 315.498 1385.51 315.45 1385.46 315.418L1383.8 314.479C1383.75 314.452 1383.69 314.438 1383.64 314.438C1383.58 314.438 1383.53 314.452 1383.48 314.479C1383.43 314.505 1383.38 314.543 1383.35 314.589C1383.32 314.635 1383.3 314.688 1383.3 314.743L1383.11 316.642C1383.1 316.707 1383.11 316.772 1383.14 316.83C1383.17 316.888 1383.22 316.937 1383.27 316.969L1384.62 317.733L1384.89 320.82L1383.39 319.554L1383.21 317.44C1383.21 317.369 1383.19 317.299 1383.15 317.235C1383.12 317.171 1383.08 317.114 1383.02 317.068C1382.97 317.021 1382.9 316.986 1382.84 316.964C1382.77 316.942 1382.69 316.934 1382.62 316.94C1382.55 316.946 1382.48 316.966 1382.42 316.998C1382.35 317.031 1382.3 317.076 1382.25 317.131C1382.2 317.186 1382.17 317.249 1382.15 317.318C1382.13 317.386 1382.12 317.458 1382.12 317.529L1382.21 318.56L1381.25 317.744L1380.87 313.456C1380.86 313.312 1380.79 313.179 1380.68 313.086C1380.57 312.993 1380.43 312.947 1380.28 312.958C1380.21 312.965 1380.14 312.985 1380.08 313.019C1380.01 313.052 1379.96 313.097 1379.91 313.152C1379.87 313.207 1379.83 313.27 1379.81 313.338C1379.79 313.406 1379.78 313.477 1379.79 313.548L1380.06 316.75L1379.39 316.182L1378.71 313.786C1378.69 313.722 1378.65 313.665 1378.6 313.622C1378.55 313.579 1378.48 313.552 1378.42 313.545L1375.48 313.229C1375.43 313.222 1375.37 313.229 1375.32 313.249C1375.27 313.269 1375.22 313.302 1375.19 313.344C1375.15 313.386 1375.13 313.436 1375.12 313.49C1375.11 313.544 1375.11 313.599 1375.12 313.652L1375.94 316.486C1375.95 316.551 1375.99 316.608 1376.04 316.651C1376.09 316.694 1376.16 316.72 1376.22 316.728L1378.68 316.995L1379.36 317.599L1376.15 317.863C1376 317.875 1375.87 317.943 1375.78 318.053C1375.68 318.163 1375.64 318.305 1375.65 318.449C1375.66 318.593 1375.73 318.726 1375.84 318.819C1375.95 318.912 1376.09 318.958 1376.24 318.946L1380.53 318.575L1381.5 319.391L1380.47 319.48C1380.33 319.503 1380.21 319.575 1380.12 319.684C1380.04 319.792 1380 319.928 1380.01 320.065C1380.02 320.201 1380.08 320.329 1380.19 320.421C1380.29 320.513 1380.42 320.564 1380.56 320.564L1382.67 320.385L1384.17 321.647L1381.02 321.914L1380.07 320.753C1380.03 320.702 1379.97 320.664 1379.91 320.644C1379.85 320.625 1379.78 320.624 1379.72 320.641L1377.88 321.15C1377.83 321.167 1377.78 321.197 1377.74 321.236C1377.71 321.275 1377.68 321.322 1377.66 321.374C1377.65 321.426 1377.64 321.481 1377.65 321.534C1377.66 321.587 1377.69 321.637 1377.72 321.68L1378.93 323.164C1378.97 323.214 1379.02 323.251 1379.08 323.271C1379.15 323.291 1379.21 323.292 1379.28 323.275L1380.69 322.882L1383.12 324.934L1381.17 325.101L1379.55 323.732C1379.44 323.645 1379.3 323.604 1379.16 323.616C1379.02 323.627 1378.89 323.691 1378.8 323.795C1378.71 323.905 1378.66 324.048 1378.67 324.192C1378.68 324.335 1378.75 324.469 1378.86 324.563L1379.65 325.23L1378.39 325.353L1375.1 322.578C1374.99 322.491 1374.86 322.45 1374.72 322.462C1374.58 322.475 1374.45 322.54 1374.36 322.645C1374.26 322.755 1374.22 322.898 1374.23 323.042C1374.23 323.113 1374.25 323.183 1374.29 323.247C1374.32 323.31 1374.36 323.367 1374.42 323.413L1376.88 325.486L1375.99 325.564L1373.83 324.355C1373.77 324.323 1373.7 324.308 1373.63 324.314C1373.57 324.32 1373.5 324.346 1373.45 324.388L1371.15 326.243C1371.11 326.278 1371.08 326.322 1371.05 326.372C1371.03 326.423 1371.02 326.478 1371.03 326.533C1371.03 326.587 1371.05 326.64 1371.08 326.687C1371.11 326.733 1371.15 326.772 1371.2 326.8L1373.78 328.239C1373.84 328.271 1373.9 328.284 1373.97 328.278C1374.04 328.272 1374.1 328.247 1374.15 328.206L1376.08 326.651L1376.97 326.577L1374.89 329.033C1374.85 329.087 1374.81 329.15 1374.79 329.218C1374.77 329.286 1374.76 329.357 1374.77 329.428C1374.77 329.499 1374.79 329.568 1374.83 329.632C1374.86 329.695 1374.9 329.751 1374.96 329.797C1375.01 329.843 1375.08 329.878 1375.14 329.9C1375.21 329.922 1375.28 329.93 1375.36 329.924C1375.43 329.918 1375.5 329.898 1375.56 329.866C1375.62 329.833 1375.68 329.789 1375.73 329.734L1378.5 326.447L1379.76 326.34L1379.1 327.13C1379.03 327.176 1378.97 327.237 1378.93 327.308C1378.88 327.38 1378.86 327.461 1378.85 327.544C1378.85 327.627 1378.86 327.71 1378.89 327.787C1378.92 327.864 1378.97 327.932 1379.04 327.988C1379.1 328.043 1379.17 328.083 1379.25 328.105C1379.33 328.127 1379.42 328.13 1379.5 328.114C1379.58 328.098 1379.66 328.064 1379.73 328.013C1379.79 327.963 1379.85 327.898 1379.89 327.824L1381.26 326.202L1383.2 326.039L1381.16 328.465L1381.13 328.495L1379.71 328.358C1379.64 328.351 1379.58 328.363 1379.52 328.393C1379.46 328.422 1379.41 328.468 1379.38 328.525L1378.44 330.183C1378.41 330.233 1378.4 330.288 1378.4 330.344C1378.4 330.401 1378.41 330.456 1378.44 330.506C1378.47 330.555 1378.5 330.597 1378.55 330.628C1378.6 330.659 1378.65 330.678 1378.71 330.684L1380.6 330.877C1380.67 330.883 1380.73 330.871 1380.79 330.841C1380.85 330.811 1380.9 330.766 1380.93 330.71L1381.68 329.382L1384.82 329.118L1383.55 330.602L1381.44 330.784C1381.3 330.807 1381.18 330.879 1381.09 330.988C1381.01 331.096 1380.97 331.232 1380.98 331.369C1380.99 331.505 1381.05 331.632 1381.16 331.725C1381.26 331.817 1381.39 331.868 1381.53 331.867L1382.56 331.782L1381.75 332.75L1377.46 333.121C1377.33 333.144 1377.21 333.216 1377.12 333.325C1377.04 333.433 1377 333.569 1377.01 333.706C1377.02 333.842 1377.08 333.97 1377.18 334.062C1377.29 334.154 1377.42 334.205 1377.56 334.205L1380.75 333.923L1380.16 334.616L1377.79 335.288C1377.73 335.306 1377.67 335.343 1377.63 335.394C1377.58 335.445 1377.56 335.507 1377.55 335.573L1377.23 338.512C1377.22 338.567 1377.23 338.624 1377.25 338.676C1377.27 338.729 1377.3 338.776 1377.34 338.813C1377.39 338.85 1377.44 338.876 1377.49 338.888C1377.55 338.9 1377.6 338.898 1377.66 338.883L1380.5 338.074C1380.56 338.056 1380.62 338.019 1380.66 337.968C1380.71 337.917 1380.73 337.855 1380.74 337.788L1381.01 335.314L1381.58 334.639L1381.85 337.84C1381.86 337.911 1381.88 337.981 1381.91 338.044C1381.94 338.108 1381.99 338.164 1382.04 338.21C1382.09 338.257 1382.16 338.292 1382.23 338.313C1382.29 338.335 1382.37 338.343 1382.44 338.337C1382.58 338.324 1382.72 338.255 1382.81 338.144C1382.9 338.034 1382.95 337.891 1382.93 337.747L1382.56 333.459L1383.38 332.494L1383.46 333.526C1383.47 333.669 1383.54 333.801 1383.65 333.894C1383.76 333.986 1383.91 334.031 1384.05 334.019C1384.2 334.007 1384.33 333.938 1384.42 333.828C1384.52 333.718 1384.56 333.576 1384.55 333.433L1384.37 331.326L1385.63 329.842L1385.89 332.943L1384.69 333.923C1384.64 333.964 1384.61 334.018 1384.59 334.08C1384.57 334.142 1384.57 334.209 1384.58 334.271L1385.09 336.126C1385.11 336.181 1385.13 336.23 1385.17 336.271C1385.21 336.312 1385.26 336.342 1385.31 336.36C1385.37 336.376 1385.43 336.379 1385.48 336.368C1385.53 336.357 1385.59 336.333 1385.63 336.297L1387.12 335.091C1387.17 335.051 1387.21 334.996 1387.23 334.934C1387.25 334.872 1387.25 334.805 1387.24 334.742L1386.86 333.377L1386.9 333.34L1388.95 330.907L1389.12 332.858L1387.73 334.435C1387.64 334.546 1387.59 334.69 1387.61 334.835C1387.61 334.942 1387.66 335.044 1387.72 335.127C1387.79 335.211 1387.88 335.273 1387.98 335.306C1388.09 335.338 1388.2 335.34 1388.3 335.31C1388.4 335.281 1388.5 335.221 1388.57 335.139L1389.23 334.349L1389.34 335.611L1386.56 338.897C1386.47 339.008 1386.42 339.151 1386.43 339.294C1386.44 339.438 1386.51 339.571 1386.62 339.665C1386.73 339.758 1386.88 339.803 1387.02 339.791C1387.16 339.779 1387.3 339.711 1387.39 339.602L1389.47 337.143L1389.54 338.055L1388.34 340.203C1388.31 340.262 1388.3 340.328 1388.3 340.394C1388.31 340.459 1388.33 340.522 1388.38 340.574L1390.24 342.874C1390.28 342.917 1390.32 342.951 1390.37 342.972C1390.42 342.994 1390.48 343.002 1390.53 342.997C1390.59 342.993 1390.64 342.975 1390.69 342.945C1390.73 342.915 1390.77 342.874 1390.8 342.826L1392.23 340.229C1392.27 340.171 1392.28 340.105 1392.28 340.039C1392.27 339.973 1392.25 339.91 1392.2 339.858L1390.64 337.914L1390.56 337.031L1393.02 339.116C1393.07 339.173 1393.13 339.218 1393.2 339.248C1393.28 339.278 1393.35 339.292 1393.43 339.29C1393.51 339.288 1393.58 339.27 1393.65 339.237C1393.72 339.203 1393.78 339.156 1393.83 339.097C1393.88 339.038 1393.92 338.969 1393.94 338.895C1393.96 338.821 1393.97 338.743 1393.96 338.667C1393.94 338.591 1393.92 338.518 1393.87 338.454C1393.83 338.389 1393.78 338.334 1393.71 338.293L1390.42 335.518L1390.32 334.256L1391.1 334.924C1391.18 334.993 1391.28 335.036 1391.39 335.047C1391.49 335.058 1391.6 335.038 1391.7 334.988C1391.79 334.939 1391.87 334.862 1391.92 334.768C1391.98 334.674 1392 334.567 1391.99 334.461C1391.98 334.389 1391.96 334.319 1391.93 334.256C1391.9 334.192 1391.85 334.135 1391.8 334.09L1390.18 332.721L1390.01 330.769L1392.43 332.81L1392.28 334.264C1392.27 334.329 1392.29 334.394 1392.32 334.452C1392.34 334.51 1392.39 334.558 1392.45 334.59L1394.11 335.533C1394.16 335.558 1394.21 335.572 1394.27 335.572C1394.32 335.572 1394.38 335.558 1394.43 335.533C1394.48 335.506 1394.52 335.468 1394.55 335.421C1394.58 335.375 1394.6 335.321 1394.61 335.266L1394.8 333.37C1394.81 333.305 1394.8 333.24 1394.77 333.182C1394.74 333.124 1394.69 333.076 1394.63 333.043L1393.35 332.301L1393.08 329.155L1394.58 330.421L1394.76 332.535C1394.76 332.61 1394.77 332.684 1394.8 332.752C1394.83 332.82 1394.88 332.882 1394.93 332.932C1394.99 332.982 1395.06 333.021 1395.13 333.045C1395.2 333.069 1395.27 333.078 1395.35 333.071C1395.42 333.065 1395.5 333.043 1395.56 333.007C1395.63 332.972 1395.69 332.923 1395.73 332.864C1395.78 332.804 1395.81 332.737 1395.83 332.664C1395.85 332.592 1395.85 332.516 1395.84 332.442L1395.75 331.411L1396.72 332.227L1397.09 336.516C1397.1 336.587 1397.12 336.656 1397.15 336.72C1397.18 336.783 1397.23 336.84 1397.28 336.886C1397.34 336.932 1397.4 336.967 1397.47 336.989C1397.54 337.011 1397.61 337.019 1397.68 337.013C1397.82 337.004 1397.96 336.94 1398.05 336.835C1398.15 336.73 1398.2 336.591 1398.19 336.449L1397.92 333.247L1398.62 333.837L1399.3 336.212C1399.32 336.275 1399.35 336.332 1399.4 336.375C1399.45 336.418 1399.52 336.445 1399.58 336.453L1402.52 336.768C1402.58 336.774 1402.63 336.767 1402.68 336.747C1402.73 336.727 1402.78 336.695 1402.81 336.653C1402.85 336.611 1402.87 336.561 1402.88 336.507C1402.9 336.454 1402.89 336.398 1402.88 336.345L1402.07 333.503C1402.05 333.439 1402.02 333.382 1401.97 333.338C1401.92 333.295 1401.85 333.269 1401.78 333.262L1399.32 332.995L1398.63 332.416L1401.83 332.146C1401.98 332.133 1402.11 332.064 1402.21 331.954C1402.3 331.843 1402.35 331.7 1402.33 331.556C1402.32 331.412 1402.25 331.278 1402.14 331.185C1402.03 331.092 1401.89 331.046 1401.74 331.059L1397.45 331.43L1396.49 330.613L1397.51 330.528C1397.66 330.515 1397.79 330.446 1397.88 330.336C1397.98 330.226 1398.02 330.084 1398.01 329.941C1398 329.798 1397.93 329.665 1397.82 329.571C1397.71 329.478 1397.57 329.431 1397.42 329.441L1395.31 329.619L1393.82 328.358L1396.89 328.098L1397.85 329.278C1397.89 329.327 1397.95 329.364 1398.01 329.384C1398.07 329.403 1398.14 329.405 1398.2 329.389L1400.04 328.881C1400.09 328.866 1400.14 328.838 1400.18 328.799C1400.22 328.76 1400.26 328.711 1400.27 328.658C1400.29 328.605 1400.29 328.548 1400.28 328.493C1400.27 328.438 1400.25 328.386 1400.21 328.343L1399.01 326.859C1398.96 326.808 1398.91 326.771 1398.85 326.751C1398.78 326.731 1398.72 326.73 1398.65 326.748L1397.31 327.119L1394.83 325.052L1396.79 324.889L1398.41 326.258C1398.52 326.347 1398.66 326.39 1398.81 326.377C1398.95 326.365 1399.08 326.298 1399.18 326.191C1399.27 326.081 1399.32 325.938 1399.3 325.794C1399.29 325.65 1399.22 325.516 1399.11 325.423L1398.32 324.759L1399.58 324.652L1402.87 327.427C1402.98 327.519 1403.13 327.564 1403.27 327.552C1403.42 327.539 1403.55 327.47 1403.64 327.36C1403.74 327.25 1403.78 327.107 1403.77 326.964C1403.76 326.821 1403.69 326.688 1403.57 326.596L1401.12 324.522L1402.02 324.444L1404.19 325.653C1404.25 325.686 1404.31 325.7 1404.38 325.694C1404.45 325.688 1404.51 325.662 1404.56 325.62L1406.86 323.765C1406.9 323.73 1406.94 323.685 1406.96 323.635C1406.98 323.585 1406.99 323.53 1406.99 323.476C1406.98 323.423 1406.97 323.372 1406.94 323.326C1406.91 323.28 1406.87 323.242 1406.83 323.212ZM1388.23 322.5C1388.12 322.534 1388.01 322.575 1387.91 322.622L1387.71 322.719C1387.59 322.782 1387.49 322.854 1387.38 322.934L1386.06 321.821L1385.81 318.853L1388.09 320.775L1388.23 322.5ZM1387.74 327.323C1387.85 327.379 1387.95 327.429 1388.06 327.471L1388.29 327.545C1388.41 327.58 1388.54 327.606 1388.66 327.623L1388.81 329.322L1386.88 331.604L1386.63 328.636L1387.74 327.323ZM1389.06 326.551H1388.87C1388.56 326.527 1388.27 326.409 1388.03 326.214C1388 326.195 1387.97 326.172 1387.95 326.147C1387.73 325.947 1387.57 325.683 1387.49 325.39C1387.48 325.302 1387.47 325.213 1387.46 325.123C1387.43 324.763 1387.53 324.403 1387.74 324.11C1387.87 323.93 1388.04 323.779 1388.23 323.67C1388.42 323.56 1388.64 323.494 1388.86 323.476C1389.01 323.462 1389.15 323.468 1389.3 323.494C1389.55 323.542 1389.78 323.652 1389.97 323.813L1390.02 323.847C1390.21 324.012 1390.35 324.223 1390.44 324.459C1390.48 324.579 1390.51 324.703 1390.52 324.83V324.893C1390.55 325.225 1390.47 325.558 1390.29 325.839C1390.24 325.908 1390.19 325.975 1390.13 326.039C1389.88 326.321 1389.54 326.498 1389.16 326.536C1389.13 326.546 1389.09 326.552 1389.06 326.555V326.551ZM1390.23 322.682C1390.13 322.628 1390.02 322.58 1389.91 322.537L1389.71 322.474H1389.65L1389.48 322.433L1389.32 322.411L1389.17 320.69L1391.1 318.401L1391.35 321.369L1390.23 322.682ZM1389.75 327.534C1389.86 327.5 1389.97 327.458 1390.08 327.408L1390.3 327.297C1390.41 327.233 1390.52 327.163 1390.62 327.085L1391.92 328.198L1392.17 331.166L1389.9 329.248L1389.75 327.534ZM1391.51 324.244C1391.51 324.192 1391.48 324.14 1391.46 324.092C1391.45 324.05 1391.43 324.009 1391.41 323.969L1391.28 323.706C1391.22 323.594 1391.15 323.488 1391.07 323.387L1392.19 322.073L1395.18 321.821L1393.26 324.099L1391.51 324.244ZM1385.36 322.648L1386.68 323.761C1386.62 323.865 1386.58 323.972 1386.53 324.08L1386.46 324.299C1386.42 324.42 1386.4 324.545 1386.38 324.67L1384.67 324.815L1382.39 322.893L1385.36 322.648ZM1384.74 325.909L1386.45 325.761C1386.49 325.875 1386.53 325.986 1386.58 326.095L1386.69 326.299C1386.75 326.412 1386.82 326.52 1386.9 326.622L1385.78 327.931L1382.79 328.184L1384.74 325.909ZM1392.62 327.36L1391.3 326.247C1391.36 326.141 1391.41 326.032 1391.45 325.921L1391.52 325.698C1391.55 325.576 1391.58 325.452 1391.59 325.327L1393.3 325.182L1395.58 327.108L1392.62 327.36Z" fill="white"/>
</svg>
