<svg width="843" height="127" viewBox="0 0 843 127" fill="none" xmlns="http://www.w3.org/2000/svg">
<path d="M237.791 40.8151L234.64 39.0558C234.568 39.0174 234.487 39.0008 234.405 39.008C234.324 39.0153 234.247 39.0461 234.183 39.0966L231.804 40.9965L230.694 41.0917L233.229 38.0855C233.292 38.0184 233.34 37.9389 233.37 37.8522C233.399 37.7655 233.411 37.6735 233.402 37.5822C233.393 37.4516 233.344 37.3269 233.262 37.2241C233.18 37.1213 233.07 37.045 232.944 37.0051C232.818 36.9652 232.684 36.9634 232.557 36.9999C232.43 37.0365 232.318 37.1098 232.233 37.2104L228.84 41.2277L227.297 41.3592L228.114 40.3934C228.229 40.2585 228.284 40.084 228.269 39.9082C228.258 39.7778 228.209 39.6535 228.126 39.5511C228.044 39.4487 227.933 39.3729 227.808 39.3331C227.682 39.2933 227.547 39.2913 227.421 39.3276C227.294 39.3638 227.181 39.4364 227.096 39.5364L225.411 41.536L223.027 41.7401L225.534 38.7702L227.251 38.947C227.33 38.9531 227.41 38.9368 227.48 38.8999C227.55 38.863 227.609 38.807 227.648 38.7384L228.799 36.7116C228.831 36.6514 228.847 36.5845 228.847 36.5167C228.847 36.4488 228.831 36.3819 228.799 36.3217C228.768 36.2607 228.722 36.2083 228.666 36.1695C228.609 36.1307 228.543 36.1066 228.475 36.0995L226.155 35.8637C226.076 35.8576 225.996 35.8739 225.926 35.9108C225.856 35.9478 225.797 36.0038 225.758 36.0723L224.844 37.6683L221.068 37.9903L222.611 36.1766L225.196 35.959C225.373 35.9428 225.536 35.858 225.649 35.7229C225.763 35.5878 225.819 35.4135 225.803 35.238C225.797 35.1512 225.773 35.0664 225.734 34.9887C225.694 34.911 225.64 34.8419 225.573 34.7854C225.506 34.7289 225.429 34.6861 225.345 34.6595C225.262 34.6329 225.174 34.623 225.086 34.6304L223.826 34.7392L224.826 33.5558L230.064 33.1024C230.151 33.095 230.236 33.0706 230.314 33.0305C230.392 32.9905 230.461 32.9357 230.517 32.8691C230.574 32.8026 230.616 32.7257 230.643 32.6428C230.669 32.5599 230.679 32.4726 230.672 32.386C230.661 32.2128 230.582 32.0506 230.452 31.9345C230.323 31.8183 230.152 31.7574 229.977 31.7648L226.059 32.0958L226.781 31.257L229.708 30.4272C229.787 30.4045 229.857 30.3593 229.909 30.2972C229.962 30.235 229.995 30.1588 230.005 30.0781L230.393 26.487C230.399 26.42 230.39 26.3524 230.364 26.2901C230.339 26.2277 230.298 26.1723 230.247 26.1288C230.195 26.0866 230.135 26.0573 230.069 26.0431C230.004 26.0289 229.937 26.0303 229.872 26.0472L226.402 27.0356C226.322 27.0572 226.252 27.1021 226.199 27.1645C226.146 27.2268 226.113 27.3036 226.105 27.3848L225.781 30.3819L225.05 31.2343L224.717 27.3167C224.711 27.2293 224.688 27.1439 224.648 27.0655C224.609 26.987 224.554 26.9171 224.488 26.8597C224.421 26.8024 224.344 26.7587 224.26 26.7313C224.176 26.7039 224.088 26.6933 224 26.7001C223.823 26.7162 223.66 26.8011 223.546 26.9362C223.432 27.0713 223.377 27.2456 223.392 27.421L223.849 32.6626L222.849 33.8415L222.73 32.5946C222.716 32.4196 222.633 32.2573 222.498 32.1434C222.364 32.0295 222.189 31.9732 222.013 31.987C221.836 32.0031 221.673 32.088 221.56 32.2231C221.446 32.3581 221.39 32.5325 221.406 32.7079L221.625 35.2924L220.081 37.1061L219.757 33.3019L221.127 32.1638C221.19 32.1134 221.237 32.0456 221.261 31.969C221.286 31.8923 221.287 31.8103 221.264 31.7331L220.643 29.4886C220.625 29.4232 220.591 29.3633 220.544 29.3142C220.497 29.2652 220.438 29.2285 220.374 29.2075C220.308 29.1875 220.238 29.1836 220.171 29.1962C220.103 29.2089 220.039 29.2376 219.985 29.2801L218.182 30.7537C218.12 30.8041 218.074 30.8711 218.05 30.9467C218.026 31.0223 218.024 31.1033 218.045 31.1799L218.501 32.8893L216.049 35.8456L215.848 33.4561L217.519 31.4746C217.577 31.4082 217.62 31.331 217.647 31.2477C217.673 31.1643 217.683 31.0765 217.675 30.9895C217.668 30.9022 217.645 30.8172 217.605 30.7393C217.565 30.6614 217.509 30.5923 217.442 30.536C217.308 30.43 217.139 30.3792 216.969 30.3945C216.798 30.4097 216.641 30.4896 216.528 30.6176L215.711 31.5789L215.583 30.0418L218.976 26.02C219.09 25.8848 219.146 25.7105 219.131 25.5348C219.114 25.3589 219.029 25.1964 218.894 25.0814C218.761 24.9753 218.591 24.9246 218.421 24.9398C218.251 24.955 218.093 25.035 217.981 25.163L215.446 28.1646L215.355 27.0855L216.793 24.433C216.833 24.3622 216.85 24.2814 216.844 24.2008C216.837 24.1202 216.807 24.0433 216.757 23.9796L214.473 21.1683C214.432 21.116 214.378 21.0749 214.317 21.0487C214.256 21.0226 214.188 21.0123 214.122 21.0187C214.054 21.0228 213.989 21.0441 213.932 21.0807C213.875 21.1172 213.829 21.1677 213.798 21.2273L212.039 24.4012C212 24.4721 211.983 24.5528 211.989 24.6334C211.996 24.714 212.026 24.791 212.076 24.8547L213.994 27.1535L214.09 28.2689L211.085 25.7343C210.95 25.6219 210.776 25.5669 210.601 25.5813C210.426 25.5958 210.263 25.6785 210.149 25.8114C210.034 25.948 209.978 26.1239 209.994 26.3011C210 26.3883 210.024 26.4734 210.064 26.5512C210.104 26.6291 210.159 26.6983 210.226 26.7545L214.245 30.1461L214.378 31.6877L213.414 30.8716C213.347 30.8155 213.269 30.7731 213.186 30.7468C213.102 30.7205 213.014 30.7109 212.927 30.7185C212.839 30.7261 212.754 30.7507 212.676 30.791C212.599 30.8313 212.53 30.8864 212.473 30.9532C212.417 31.0198 212.374 31.0971 212.348 31.1805C212.322 31.2639 212.314 31.3516 212.323 31.4383C212.329 31.5255 212.353 31.6106 212.393 31.6885C212.433 31.7664 212.488 31.8355 212.555 31.8918L214.537 33.5649L214.738 35.9453L211.756 33.447L211.711 33.4062L211.875 31.6877C211.884 31.6086 211.869 31.5286 211.832 31.4577C211.796 31.3868 211.739 31.3281 211.67 31.2887L209.642 30.1416C209.582 30.1082 209.514 30.0907 209.446 30.0907C209.377 30.0907 209.309 30.1082 209.249 30.1416C209.189 30.1729 209.137 30.2187 209.099 30.2749C209.06 30.3312 209.037 30.396 209.03 30.4635L208.797 32.785C208.788 32.8642 208.803 32.9441 208.84 33.015C208.876 33.0859 208.933 33.1447 209.003 33.184L210.651 34.1181L210.971 37.8905L209.144 36.3444L208.925 33.7599C208.919 33.6727 208.895 33.5876 208.855 33.5095C208.815 33.4315 208.76 33.3621 208.693 33.3052C208.626 33.2484 208.549 33.2053 208.465 33.1784C208.381 33.1515 208.293 33.1413 208.205 33.1485C208.117 33.1557 208.032 33.1801 207.954 33.2203C207.876 33.2604 207.806 33.3156 207.749 33.3825C207.693 33.4495 207.65 33.5269 207.624 33.6104C207.597 33.6938 207.588 33.7816 207.596 33.8687L207.706 35.1292L206.523 34.1317L206.066 28.8901C206.051 28.7148 205.967 28.5525 205.832 28.4387C205.696 28.3248 205.521 28.2687 205.345 28.2825C205.257 28.2905 205.173 28.3155 205.095 28.356C205.017 28.3966 204.949 28.4519 204.893 28.5189C204.837 28.5859 204.795 28.6631 204.769 28.7463C204.743 28.8294 204.734 28.9168 204.742 29.0035L205.071 32.9165L204.249 32.2228L203.418 29.2937C203.395 29.2156 203.349 29.146 203.287 29.0936C203.224 29.0411 203.147 29.0082 203.066 28.9989L199.476 28.6135C199.41 28.6048 199.342 28.6131 199.28 28.6377C199.218 28.6623 199.163 28.7024 199.12 28.7541C199.077 28.8056 199.047 28.8668 199.033 28.9323C199.018 28.9978 199.02 29.0658 199.038 29.1304L200.034 32.5946C200.056 32.6729 200.101 32.7428 200.164 32.7954C200.227 32.8479 200.304 32.8806 200.385 32.8893L203.381 33.2158L204.221 33.9548L200.294 34.2768C200.117 34.2912 199.953 34.3748 199.838 34.5091C199.724 34.6435 199.667 34.8176 199.682 34.9932C199.696 35.1687 199.781 35.3314 199.916 35.4453C200.051 35.5593 200.227 35.6152 200.404 35.6007L205.646 35.1473L206.829 36.1449L205.568 36.2537C205.402 36.2812 205.252 36.37 205.148 36.5024C205.045 36.6348 204.995 36.801 205.01 36.968C205.024 37.135 205.102 37.2905 205.226 37.4034C205.351 37.5164 205.514 37.5786 205.683 37.5777L208.267 37.36L210.094 38.9017L206.244 39.2281L205.084 37.8089C205.034 37.7467 204.967 37.7006 204.89 37.6764C204.814 37.6522 204.732 37.651 204.655 37.6729L202.408 38.2941C202.345 38.3156 202.288 38.3517 202.242 38.3994C202.196 38.4471 202.162 38.505 202.143 38.5683C202.124 38.6317 202.12 38.6986 202.132 38.7637C202.144 38.8287 202.171 38.89 202.212 38.9425L203.687 40.7561C203.738 40.8174 203.805 40.8628 203.881 40.8869C203.958 40.9111 204.039 40.9129 204.116 40.8922L205.842 40.4115L208.815 42.919L206.427 43.123L204.445 41.4499C204.312 41.3444 204.143 41.2935 203.973 41.3079C203.803 41.3222 203.645 41.4006 203.532 41.527C203.418 41.6622 203.362 41.8364 203.377 42.012C203.391 42.1877 203.475 42.3505 203.609 42.4655L204.577 43.2817L203.034 43.4313L199.015 40.0397C198.882 39.9337 198.712 39.883 198.542 39.8982C198.372 39.9134 198.214 39.9934 198.102 40.1214C197.988 40.2566 197.932 40.4308 197.947 40.6065C197.952 40.6938 197.976 40.7791 198.016 40.857C198.056 40.935 198.112 41.004 198.18 41.0599L201.184 43.5946L200.098 43.6898L197.453 42.2116C197.382 42.172 197.3 42.1547 197.219 42.162C197.137 42.1693 197.06 42.2008 196.997 42.2524L194.188 44.5195C194.135 44.5615 194.093 44.6156 194.066 44.6773C194.039 44.7389 194.028 44.8062 194.033 44.8732C194.04 44.9402 194.062 45.0048 194.099 45.0615C194.135 45.1183 194.185 45.1656 194.243 45.1997L197.394 46.959C197.466 46.9974 197.547 47.014 197.629 47.0067C197.71 46.9995 197.787 46.9687 197.851 46.9181L200.212 45.0183L201.294 44.9276L198.76 47.9293C198.703 47.9957 198.66 48.0725 198.633 48.1554C198.606 48.2382 198.596 48.3255 198.603 48.4123C198.611 48.499 198.635 48.5835 198.675 48.6609C198.715 48.7383 198.77 48.8071 198.837 48.8633C198.904 48.9196 198.981 48.9622 199.065 48.9888C199.148 49.0154 199.236 49.0254 199.324 49.0182C199.411 49.0111 199.496 48.9869 199.574 48.9471C199.652 48.9073 199.721 48.8526 199.778 48.7862L203.171 44.7689L204.71 44.6374L203.897 45.6032C203.812 45.6591 203.74 45.7338 203.688 45.8215C203.637 45.9092 203.606 46.0075 203.599 46.1089C203.591 46.2102 203.608 46.3119 203.646 46.406C203.685 46.5001 203.745 46.5841 203.822 46.6515C203.898 46.7189 203.989 46.7679 204.088 46.7947C204.187 46.8215 204.29 46.8253 204.391 46.8059C204.491 46.7866 204.586 46.7445 204.667 46.6829C204.749 46.6214 204.815 46.5421 204.861 46.4511L206.537 44.4697L208.916 44.2702L206.413 47.2355L206.386 47.2718L204.641 47.104C204.562 47.0954 204.481 47.1101 204.41 47.1464C204.338 47.1826 204.279 47.2389 204.24 47.3081L203.093 49.3349C203.061 49.3955 203.043 49.4633 203.043 49.5321C203.043 49.6009 203.061 49.6687 203.093 49.7294C203.125 49.7895 203.171 49.841 203.228 49.879C203.284 49.917 203.35 49.9403 203.418 49.947L205.737 50.1828C205.816 50.1905 205.896 50.1753 205.966 50.1391C206.037 50.1029 206.095 50.0472 206.135 49.9787L207.048 48.3555L210.889 48.0336L209.341 49.8472L206.756 50.0694C206.589 50.097 206.439 50.1858 206.336 50.3181C206.232 50.4505 206.183 50.6168 206.197 50.7838C206.212 50.9507 206.289 51.1062 206.414 51.2192C206.538 51.3322 206.701 51.3944 206.87 51.3934L208.126 51.2891L207.144 52.4726L201.901 52.926C201.735 52.9535 201.585 53.0423 201.481 53.1747C201.378 53.3071 201.328 53.4733 201.343 53.6403C201.357 53.8073 201.434 53.9628 201.559 54.0757C201.684 54.1887 201.847 54.2509 202.016 54.25L205.911 53.9054L205.199 54.7533L202.303 55.574C202.224 55.5961 202.154 55.6412 202.101 55.7034C202.048 55.7656 202.015 55.8421 202.006 55.9231L201.618 59.5142C201.608 59.5819 201.615 59.6511 201.638 59.7155C201.662 59.7798 201.702 59.8372 201.754 59.8824C201.805 59.9276 201.868 59.9591 201.935 59.9739C202.003 59.9888 202.073 59.9867 202.139 59.9676L205.61 58.9792C205.689 58.9576 205.76 58.9126 205.813 58.8503C205.865 58.788 205.898 58.7112 205.906 58.63L206.235 55.6057L206.929 54.7805L207.263 58.6935C207.269 58.7803 207.293 58.8651 207.332 58.9428C207.372 59.0205 207.427 59.0896 207.493 59.1461C207.56 59.2026 207.637 59.2454 207.721 59.272C207.804 59.2986 207.892 59.3085 207.98 59.3011C208.156 59.285 208.319 59.2001 208.433 59.065C208.547 58.9299 208.602 58.7556 208.587 58.5801L208.13 53.3386L209.126 52.1597L209.231 53.4202C209.246 53.5952 209.331 53.757 209.466 53.8701C209.601 53.9832 209.776 54.0383 209.952 54.0233C210.129 54.0082 210.292 53.9243 210.406 53.7899C210.519 53.6556 210.575 53.4818 210.56 53.3069L210.341 50.7314L211.884 48.9177L212.204 52.7083L210.738 53.9054C210.676 53.9554 210.63 54.0225 210.605 54.0982C210.581 54.1739 210.579 54.255 210.601 54.3316L211.222 56.5987C211.24 56.6651 211.275 56.7259 211.323 56.7757C211.371 56.8256 211.43 56.8629 211.496 56.8843C211.561 56.9046 211.631 56.9081 211.698 56.8947C211.765 56.8812 211.827 56.8511 211.88 56.8073L213.706 55.3336C213.769 55.2843 213.816 55.2174 213.841 55.1414C213.865 55.0654 213.866 54.9839 213.843 54.9074L213.387 53.2388L213.432 53.1935L215.939 50.2191L216.145 52.604L214.451 54.5311C214.336 54.6677 214.28 54.8436 214.295 55.0208C214.306 55.1512 214.356 55.2755 214.438 55.3779C214.521 55.4803 214.631 55.5562 214.757 55.596C214.883 55.6358 215.017 55.6377 215.144 55.6015C215.271 55.5653 215.384 55.4926 215.469 55.3926L216.277 54.4268L216.41 55.9684L213.017 59.9857C212.903 60.121 212.847 60.2952 212.862 60.4708C212.876 60.6464 212.96 60.8093 213.094 60.9243C213.23 61.037 213.405 61.0921 213.581 61.0777C213.757 61.0632 213.92 60.9804 214.035 60.8472L216.57 57.8411L216.661 58.9565L215.195 61.5818C215.157 61.6533 215.141 61.7341 215.149 61.8145C215.156 61.8949 215.186 61.9715 215.236 62.0352L217.519 64.8464C217.561 64.8987 217.614 64.9399 217.676 64.966C217.737 64.9922 217.805 65.0025 217.871 64.9961C217.938 64.9911 218.003 64.9694 218.06 64.933C218.117 64.8965 218.163 64.8465 218.195 64.7875L219.953 61.6135C219.993 61.5427 220.01 61.462 220.004 61.3814C219.997 61.3008 219.967 61.2238 219.917 61.1601L218.004 58.7842L217.912 57.705L220.908 60.2533C220.972 60.3224 221.051 60.3771 221.138 60.4137C221.225 60.4504 221.319 60.4682 221.414 60.4659C221.509 60.4637 221.602 60.4414 221.687 60.4006C221.772 60.3598 221.848 60.3014 221.909 60.2293C221.97 60.1572 222.014 60.073 222.04 59.9825C222.065 59.8919 222.071 59.7969 222.057 59.704C222.042 59.611 222.008 59.5221 221.957 59.4433C221.905 59.3644 221.837 59.2974 221.757 59.2467L217.739 55.8551L217.611 54.3134L218.561 55.1296C218.662 55.2135 218.786 55.2657 218.917 55.2797C219.048 55.2936 219.18 55.2687 219.297 55.2081C219.414 55.1474 219.51 55.0537 219.573 54.9389C219.636 54.8241 219.664 54.6932 219.652 54.5628C219.646 54.4755 219.623 54.3903 219.583 54.3123C219.543 54.2343 219.487 54.1653 219.419 54.1094L217.437 52.4363L217.236 50.0513L220.191 52.5451L220.008 54.3225C220 54.4016 220.015 54.4813 220.052 54.5521C220.088 54.6229 220.144 54.6817 220.214 54.7215L222.241 55.8732C222.302 55.9046 222.369 55.921 222.438 55.921C222.506 55.921 222.573 55.9046 222.634 55.8732C222.695 55.8408 222.747 55.7941 222.785 55.7372C222.823 55.6802 222.847 55.6148 222.853 55.5468L223.091 53.2298C223.099 53.1507 223.084 53.0709 223.047 53.0001C223.011 52.9294 222.955 52.8705 222.885 52.8308L221.314 51.9239L220.99 48.0789L222.817 49.6251L223.036 52.2096C223.037 52.3009 223.056 52.3912 223.094 52.4747C223.131 52.5581 223.186 52.633 223.254 52.6946C223.322 52.7561 223.402 52.803 223.489 52.8323C223.576 52.8616 223.668 52.8727 223.76 52.8649C223.852 52.857 223.941 52.8304 224.022 52.7867C224.102 52.743 224.173 52.6832 224.23 52.611C224.286 52.5388 224.327 52.4558 224.349 52.3672C224.372 52.2786 224.376 52.1863 224.36 52.0962L224.255 50.8357L225.434 51.8332L225.89 57.0748C225.897 57.1616 225.92 57.2464 225.96 57.324C225.999 57.4017 226.054 57.4709 226.121 57.5274C226.187 57.5839 226.265 57.6267 226.348 57.6533C226.432 57.6799 226.52 57.6898 226.607 57.6824C226.782 57.6718 226.946 57.5939 227.064 57.4651C227.181 57.3363 227.244 57.167 227.237 56.9932L226.904 53.0801L227.763 53.8011L228.585 56.703C228.607 56.781 228.653 56.8506 228.715 56.9031C228.778 56.9555 228.855 56.9884 228.936 56.9977L232.526 57.3831C232.592 57.391 232.659 57.3823 232.722 57.3577C232.784 57.3332 232.839 57.2936 232.882 57.2425C232.925 57.191 232.955 57.1299 232.969 57.0644C232.984 56.9988 232.982 56.9309 232.964 56.8662L231.978 53.393C231.956 53.3143 231.911 53.2441 231.848 53.1915C231.785 53.1389 231.708 53.1064 231.626 53.0983L228.607 52.7718L227.767 52.0645L231.685 51.7335C231.863 51.7184 232.027 51.634 232.142 51.4988C232.256 51.3636 232.312 51.1887 232.297 51.0125C232.282 50.8364 232.197 50.6734 232.061 50.5594C231.925 50.4455 231.749 50.3899 231.571 50.405L226.329 50.8584L225.15 49.8608L226.406 49.7566C226.582 49.7403 226.745 49.6557 226.858 49.5213C226.972 49.3869 227.027 49.2134 227.013 49.0385C226.998 48.8636 226.915 48.7014 226.781 48.5871C226.647 48.4729 226.473 48.4157 226.297 48.428L223.712 48.6457L221.885 47.104L225.644 46.7866L226.817 48.2285C226.869 48.2889 226.936 48.3337 227.012 48.3577C227.088 48.3818 227.169 48.3841 227.246 48.3646L229.493 47.7434C229.56 47.7249 229.62 47.6903 229.67 47.6427C229.719 47.5952 229.756 47.5361 229.777 47.4709C229.798 47.4057 229.802 47.3364 229.789 47.2692C229.776 47.202 229.747 47.139 229.703 47.0859L228.228 45.2722C228.178 45.21 228.111 45.1639 228.034 45.1397C227.958 45.1155 227.876 45.1143 227.799 45.1362L226.155 45.5896L223.127 43.0641L225.52 42.8646L227.498 44.5377C227.635 44.6465 227.809 44.6987 227.984 44.6835C228.16 44.6684 228.322 44.5869 228.438 44.4561C228.553 44.3207 228.608 44.1459 228.593 43.9699C228.578 43.7939 228.492 43.6312 228.356 43.5175L227.393 42.7059L228.932 42.5744L232.955 45.966C233.09 46.079 233.266 46.1339 233.442 46.1186C233.619 46.1033 233.782 46.019 233.896 45.8843C234.009 45.7497 234.065 45.5756 234.049 45.4004C234.034 45.2252 233.949 45.0633 233.813 44.9503L230.808 42.4157L231.918 42.3205L234.562 43.7986C234.634 43.8382 234.716 43.8555 234.797 43.8482C234.878 43.841 234.956 43.8094 235.019 43.7578L237.832 41.4907C237.884 41.4478 237.924 41.3934 237.95 41.3319C237.976 41.2704 237.988 41.2036 237.983 41.137C237.978 41.0724 237.958 41.0098 237.924 40.9541C237.891 40.8983 237.845 40.8507 237.791 40.8151ZM215.063 39.9445C214.927 39.9864 214.795 40.0364 214.665 40.0942L214.419 40.212C214.281 40.2886 214.149 40.3766 214.026 40.475L212.409 39.1148L212.099 35.4874L214.884 37.8361L215.063 39.9445ZM214.464 45.839C214.59 45.9076 214.719 45.9682 214.853 46.0204L215.131 46.1111C215.281 46.1529 215.434 46.1847 215.588 46.2063L215.766 48.2829L213.414 51.0715L213.103 47.4441L214.464 45.839ZM216.067 44.8959H215.843C215.465 44.8659 215.105 44.722 214.811 44.4833C214.777 44.4603 214.747 44.4328 214.72 44.4017C214.443 44.1571 214.247 43.8345 214.158 43.4767C214.138 43.3688 214.124 43.2598 214.117 43.1502C214.076 42.7099 214.197 42.2697 214.46 41.9124C214.617 41.6918 214.822 41.508 215.058 41.3741C215.295 41.2402 215.558 41.1592 215.83 41.137C216.008 41.1198 216.188 41.1275 216.364 41.1597C216.668 41.2179 216.953 41.3521 217.191 41.5496L217.241 41.5904C217.474 41.7924 217.651 42.0498 217.757 42.3386C217.809 42.4853 217.844 42.6374 217.862 42.792V42.8691C217.896 43.2754 217.795 43.6815 217.574 44.0253C217.515 44.1102 217.451 44.1919 217.382 44.2702C217.078 44.6143 216.654 44.8313 216.195 44.8777C216.153 44.8891 216.11 44.8966 216.067 44.9004V44.8959ZM217.506 40.1667C217.377 40.1006 217.244 40.0416 217.108 39.9899L216.862 39.9128H216.793L216.592 39.8629L216.387 39.8357L216.209 37.7318L218.561 34.9342L218.867 38.5616L217.506 40.1667ZM216.917 46.0975C217.056 46.056 217.192 46.0045 217.323 45.9433L217.588 45.8073C217.723 45.7296 217.852 45.6432 217.976 45.5488L219.57 46.9091L219.876 50.5364L217.095 48.1923L216.917 46.0975ZM219.068 42.0756C219.068 42.0121 219.031 41.9486 219.008 41.8897C218.99 41.8387 218.968 41.7887 218.944 41.7401L218.789 41.4181C218.712 41.2821 218.625 41.1518 218.529 41.0282L219.899 39.4231L223.552 39.1148L221.205 41.8988L219.068 42.0756ZM211.546 40.1259L213.163 41.4862C213.096 41.6128 213.037 41.743 212.985 41.8761L212.898 42.1436C212.853 42.2916 212.82 42.4434 212.802 42.597L210.706 42.7739L207.916 40.4251L211.546 40.1259ZM210.797 44.1115L212.889 43.9301C212.932 44.0691 212.984 44.2054 213.044 44.3382L213.172 44.5876C213.25 44.7255 213.339 44.8574 213.437 44.982L212.067 46.5826L208.413 46.8909L210.797 44.1115ZM220.419 45.8843L218.816 44.5241C218.884 44.3947 218.943 44.2615 218.994 44.1251L219.077 43.853C219.118 43.7043 219.149 43.5528 219.168 43.3996L221.26 43.2228L224.045 45.576L220.419 45.8843Z" fill="white"/>
<path d="M574.886 10.8082L573.167 9.84859C573.128 9.82763 573.084 9.81857 573.039 9.82253C572.995 9.82648 572.953 9.84329 572.918 9.87085L571.62 10.9071L571.015 10.9591L572.398 9.31933C572.432 9.28273 572.458 9.23937 572.474 9.19207C572.491 9.14477 572.497 9.09459 572.492 9.0448C572.487 8.97358 572.46 8.90557 572.416 8.84949C572.371 8.79341 572.311 8.75181 572.242 8.73002C572.174 8.70823 572.1 8.70725 572.031 8.7272C571.962 8.74715 571.901 8.78713 571.855 8.842L570.004 11.0333L569.162 11.105L569.608 10.5782C569.67 10.5046 569.701 10.4094 569.692 10.3136C569.686 10.2424 569.659 10.1746 569.614 10.1188C569.57 10.0629 569.509 10.0215 569.441 9.99982C569.372 9.97811 569.299 9.97707 569.229 9.99681C569.16 10.0166 569.099 10.0562 569.052 10.1108L568.133 11.2014L566.833 11.3127L568.2 9.69278L569.137 9.78924C569.18 9.79259 569.224 9.78368 569.262 9.76354C569.3 9.7434 569.332 9.71286 569.354 9.67547L569.981 8.56995C569.999 8.53711 570.008 8.50063 570.008 8.4636C570.008 8.42657 569.999 8.39008 569.981 8.35725C569.964 8.32396 569.939 8.29542 569.909 8.27425C569.878 8.25307 569.842 8.23994 569.804 8.23606L568.539 8.10746C568.496 8.1041 568.452 8.11301 568.414 8.13315C568.376 8.15329 568.344 8.18383 568.322 8.22122L567.824 9.09179L565.764 9.26739L566.606 8.27811L568.016 8.15939C568.112 8.1506 568.201 8.1043 568.263 8.03062C568.325 7.95694 568.356 7.86186 568.347 7.76615C568.344 7.71878 568.331 7.67257 568.309 7.63019C568.288 7.58781 568.258 7.55011 568.222 7.51928C568.185 7.48845 568.143 7.4651 568.097 7.45059C568.052 7.43607 568.004 7.43069 567.956 7.43474L567.269 7.4941L567.814 6.84859L570.671 6.60127C570.719 6.59722 570.765 6.5839 570.808 6.56207C570.85 6.54024 570.888 6.51033 570.919 6.47404C570.949 6.43775 570.973 6.3958 570.987 6.35058C571.001 6.30536 571.007 6.25776 571.003 6.21051C570.997 6.11603 570.954 6.02758 570.883 5.96421C570.812 5.90084 570.719 5.86761 570.624 5.87168L568.487 6.05222L568.88 5.59468L570.477 5.14208C570.52 5.1297 570.558 5.10502 570.587 5.07114C570.616 5.03726 570.634 4.99569 570.639 4.95164L570.851 2.99286C570.854 2.95633 570.849 2.91948 570.835 2.88545C570.821 2.85143 570.799 2.82125 570.771 2.79748C570.743 2.7745 570.71 2.75848 570.674 2.75074C570.639 2.743 570.602 2.74376 570.567 2.75296L568.674 3.29212C568.63 3.3039 568.592 3.3284 568.563 3.3624C568.534 3.39639 568.516 3.43829 568.512 3.48256L568.335 5.11735L567.936 5.58231L567.754 3.44546C567.751 3.39778 567.739 3.35119 567.717 3.3084C567.696 3.26561 567.666 3.22747 567.63 3.19618C567.593 3.16489 567.551 3.14109 567.505 3.12614C567.46 3.11119 567.411 3.1054 567.363 3.1091C567.267 3.1179 567.178 3.16419 567.116 3.23788C567.054 3.31156 567.024 3.40664 567.032 3.50234L567.281 6.36137L566.736 7.00441L566.671 6.32427C566.663 6.22885 566.618 6.14033 566.544 6.07819C566.471 6.01604 566.376 5.98535 566.28 5.99286C566.183 6.00166 566.095 6.04795 566.032 6.12164C565.97 6.19532 565.94 6.2904 565.949 6.3861L566.068 7.79583L565.226 8.78512L565.049 6.71009L565.797 6.08932C565.831 6.06181 565.856 6.02484 565.87 5.98304C565.883 5.94125 565.884 5.89648 565.871 5.85436L565.533 4.63013C565.523 4.59446 565.504 4.56177 565.479 4.535C565.453 4.50823 565.421 4.48823 565.386 4.47679C565.35 4.46586 565.312 4.46375 565.275 4.47065C565.238 4.47754 565.203 4.49323 565.174 4.51636L564.19 5.32015C564.156 5.34766 564.131 5.38423 564.118 5.42546C564.105 5.4667 564.104 5.51085 564.115 5.55263L564.364 6.48503L563.027 8.09756L562.917 6.79418L563.829 5.71339C563.86 5.67716 563.884 5.63507 563.898 5.58961C563.913 5.54415 563.918 5.49625 563.913 5.44876C563.91 5.40119 563.897 5.35479 563.875 5.3123C563.853 5.26982 563.823 5.23212 563.786 5.20144C563.714 5.14359 563.621 5.11592 563.528 5.12421C563.435 5.13251 563.349 5.17613 563.288 5.24595L562.842 5.77028L562.773 4.93186L564.623 2.73812C564.686 2.66438 564.716 2.56932 564.708 2.47349C564.699 2.37754 564.652 2.28892 564.579 2.22617C564.506 2.16832 564.413 2.14065 564.32 2.14895C564.228 2.15724 564.142 2.20087 564.08 2.27069L562.698 3.90795L562.648 3.31933L563.433 1.8725C563.454 1.83387 563.464 1.78984 563.46 1.74587C563.457 1.7019 563.44 1.65993 563.413 1.62518L562.167 0.0917915C562.145 0.0632592 562.116 0.0408201 562.082 0.0265531C562.048 0.012286 562.012 0.00665268 561.976 0.0101756C561.939 0.0123984 561.903 0.0240415 561.872 0.0439749C561.841 0.0639082 561.816 0.0914552 561.799 0.123943L560.84 1.85519C560.818 1.89382 560.809 1.93785 560.812 1.98182C560.816 2.02579 560.832 2.06776 560.86 2.10251L561.906 3.35643L561.958 3.96483L560.319 2.58231C560.246 2.521 560.151 2.49101 560.055 2.49888C559.959 2.50676 559.871 2.55186 559.808 2.62436C559.746 2.69886 559.715 2.79483 559.724 2.89146C559.727 2.93903 559.74 2.98543 559.762 3.02792C559.784 3.0704 559.814 3.1081 559.851 3.13878L562.043 4.98874L562.115 5.82963L561.589 5.38446C561.553 5.35386 561.511 5.33073 561.465 5.31641C561.419 5.30208 561.371 5.29684 561.324 5.30097C561.276 5.30511 561.23 5.31854 561.187 5.34051C561.145 5.36247 561.107 5.39254 561.076 5.42897C561.045 5.46532 561.022 5.5075 561.008 5.55297C560.994 5.59844 560.989 5.64627 560.994 5.69361C560.998 5.74118 561.011 5.78758 561.032 5.83006C561.054 5.87255 561.084 5.91025 561.121 5.94093L562.202 6.85354L562.312 8.15197L560.685 6.78924L560.66 6.76698L560.75 5.82963C560.755 5.78645 560.747 5.74284 560.727 5.70417C560.707 5.66549 560.676 5.63345 560.638 5.61199L559.532 4.98627C559.499 4.96807 559.462 4.95852 559.425 4.95852C559.387 4.95852 559.35 4.96807 559.318 4.98627C559.285 5.00336 559.256 5.02837 559.236 5.05903C559.215 5.08969 559.202 5.12504 559.198 5.16187L559.071 6.42815C559.066 6.47133 559.074 6.51494 559.094 6.55361C559.114 6.59229 559.145 6.62433 559.183 6.64579L560.082 7.15527L560.257 9.21298L559.26 8.36962L559.141 6.95989C559.137 6.91232 559.124 6.86592 559.103 6.82336C559.081 6.78079 559.051 6.74292 559.015 6.71192C558.978 6.68091 558.936 6.6574 558.89 6.64272C558.844 6.62805 558.796 6.62252 558.748 6.62644C558.7 6.63036 558.654 6.64366 558.611 6.66557C558.568 6.68747 558.531 6.71756 558.5 6.75408C558.469 6.7906 558.445 6.83284 558.431 6.87835C558.417 6.92386 558.412 6.97175 558.416 7.01924L558.476 7.7068L557.831 7.16269L557.582 4.30366C557.573 4.20803 557.527 4.11951 557.454 4.05742C557.38 3.99534 557.284 3.96472 557.188 3.97225C557.14 3.9766 557.094 3.99022 557.052 4.01235C557.009 4.03447 556.972 4.06465 556.941 4.10118C556.911 4.1377 556.888 4.17985 556.874 4.2252C556.86 4.27056 556.855 4.31823 556.859 4.36549L557.039 6.49987L556.59 6.12147L556.137 4.52378C556.124 4.4812 556.099 4.44323 556.065 4.41463C556.031 4.38603 555.989 4.36808 555.945 4.36302L553.987 4.1528C553.951 4.14803 553.914 4.15258 553.88 4.166C553.846 4.17942 553.816 4.20127 553.793 4.22947C553.769 4.25759 553.753 4.29093 553.745 4.32666C553.737 4.36239 553.738 4.39947 553.748 4.43474L554.291 6.32427C554.303 6.36701 554.328 6.40516 554.362 6.4338C554.396 6.46245 554.438 6.48029 554.483 6.48503L556.117 6.6631L556.575 7.06624L554.433 7.24183C554.337 7.2497 554.247 7.2953 554.185 7.36858C554.122 7.44186 554.091 7.53683 554.099 7.6326C554.107 7.72837 554.153 7.81708 554.227 7.87924C554.301 7.94139 554.396 7.97188 554.493 7.96401L557.352 7.71669L557.998 8.2608L557.31 8.32015C557.219 8.33517 557.137 8.38361 557.081 8.45582C557.025 8.52803 556.998 8.6187 557.005 8.70979C557.013 8.80087 557.055 8.88567 557.123 8.9473C557.191 9.00893 557.28 9.04286 557.372 9.04233L558.782 8.92361L559.779 9.7645L557.679 9.94258L557.046 9.16846C557.019 9.13454 556.982 9.1094 556.94 9.0962C556.899 9.08299 556.854 9.08232 556.812 9.09427L555.586 9.43309C555.552 9.44485 555.521 9.46454 555.496 9.49055C555.471 9.51656 555.452 9.54815 555.442 9.58269C555.431 9.61724 555.429 9.65376 555.436 9.68924C555.442 9.72472 555.457 9.75815 555.479 9.78676L556.284 10.776C556.311 10.8095 556.348 10.8342 556.39 10.8474C556.431 10.8605 556.476 10.8615 556.518 10.8502L557.46 10.5881L559.081 11.9558L557.778 12.0671L556.697 11.1544C556.625 11.0969 556.532 11.0692 556.44 11.077C556.347 11.0848 556.261 11.1276 556.199 11.1965C556.137 11.2703 556.107 11.3653 556.115 11.4611C556.123 11.5569 556.168 11.6457 556.241 11.7084L556.77 12.1536L555.928 12.2352L553.736 10.3853C553.663 10.3274 553.57 10.2998 553.477 10.3081C553.385 10.3164 553.299 10.36 553.237 10.4298C553.175 10.5035 553.145 10.5986 553.153 10.6944C553.156 10.7421 553.169 10.7886 553.191 10.8311C553.212 10.8736 553.243 10.9113 553.28 10.9418L554.919 12.3243L554.326 12.3762L552.884 11.5699C552.845 11.5483 552.8 11.5389 552.756 11.5429C552.711 11.5468 552.669 11.564 552.635 11.5922L551.103 12.8288C551.074 12.8517 551.051 12.8812 551.036 12.9148C551.021 12.9485 551.015 12.9851 551.018 13.0217C551.022 13.0583 551.034 13.0935 551.054 13.1244C551.074 13.1554 551.101 13.1812 551.133 13.1998L552.851 14.1594C552.89 14.1804 552.935 14.1894 552.979 14.1855C553.024 14.1815 553.066 14.1647 553.1 14.1371L554.388 13.1009L554.979 13.0514L553.596 14.6887C553.565 14.7249 553.542 14.7668 553.527 14.812C553.513 14.8572 553.507 14.9048 553.511 14.9521C553.515 14.9994 553.528 15.0455 553.55 15.0877C553.572 15.1299 553.602 15.1674 553.638 15.1981C553.675 15.2288 553.717 15.2521 553.763 15.2666C553.808 15.2811 553.856 15.2865 553.904 15.2826C553.951 15.2787 553.998 15.2655 554.04 15.2438C554.083 15.2221 554.121 15.1923 554.152 15.1561L556.002 12.9648L556.842 12.8931L556.398 13.4199C556.352 13.4504 556.313 13.4911 556.285 13.539C556.256 13.5868 556.24 13.6404 556.236 13.6957C556.232 13.751 556.241 13.8065 556.262 13.8578C556.283 13.9091 556.315 13.9549 556.357 13.9917C556.399 14.0285 556.449 14.0552 556.503 14.0698C556.556 14.0844 556.613 14.0865 556.668 14.0759C556.723 14.0654 556.774 14.0424 556.819 14.0088C556.863 13.9753 556.899 13.932 556.924 13.8824L557.838 12.8016L559.136 12.6928L557.771 14.3103L557.756 14.33L556.804 14.2385C556.761 14.2338 556.717 14.2419 556.678 14.2616C556.639 14.2814 556.607 14.3121 556.585 14.3498L555.96 15.4554C555.942 15.4884 555.933 15.5254 555.933 15.5629C555.933 15.6005 555.942 15.6374 555.96 15.6705C555.977 15.7033 556.002 15.7314 556.033 15.7521C556.064 15.7729 556.1 15.7856 556.137 15.7892L557.402 15.9178C557.445 15.9221 557.489 15.9138 557.527 15.894C557.566 15.8743 557.597 15.8439 557.619 15.8066L558.117 14.9211L560.212 14.7455L559.368 15.7348L557.958 15.856C557.867 15.871 557.785 15.9195 557.729 15.9917C557.672 16.0639 557.645 16.1546 557.653 16.2456C557.661 16.3367 557.703 16.4215 557.771 16.4832C557.839 16.5448 557.928 16.5787 558.02 16.5782L558.705 16.5213L558.169 17.1668L555.31 17.4141C555.219 17.4292 555.137 17.4776 555.081 17.5498C555.024 17.622 554.997 17.7127 555.005 17.8038C555.013 17.8949 555.055 17.9797 555.123 18.0413C555.191 18.1029 555.28 18.1368 555.372 18.1363L557.497 17.9483L557.108 18.4108L555.529 18.8585C555.486 18.8706 555.448 18.8952 555.419 18.9291C555.39 18.963 555.372 19.0048 555.367 19.0489L555.155 21.0077C555.15 21.0446 555.154 21.0824 555.166 21.1175C555.179 21.1526 555.201 21.1839 555.229 21.2085C555.257 21.2332 555.292 21.2504 555.328 21.2585C555.365 21.2666 555.403 21.2654 555.439 21.255L557.332 20.7159C557.376 20.7041 557.414 20.6796 557.443 20.6456C557.472 20.6116 557.49 20.5697 557.494 20.5254L557.674 18.8758L558.052 18.4257L558.234 20.5601C558.238 20.6074 558.251 20.6536 558.272 20.696C558.294 20.7384 558.324 20.7761 558.36 20.8069C558.396 20.8378 558.439 20.8611 558.484 20.8756C558.53 20.8901 558.578 20.8955 558.625 20.8915C558.722 20.8827 558.811 20.8364 558.873 20.7627C558.935 20.689 558.965 20.5939 558.957 20.4982L558.707 17.6392L559.25 16.9962L559.308 17.6837C559.316 17.7792 559.362 17.8674 559.436 17.9291C559.51 17.9908 559.605 18.0208 559.701 18.0127C559.797 18.0045 559.886 17.9587 559.948 17.8854C560.011 17.8121 560.041 17.7173 560.033 17.6219L559.913 16.2171L560.755 15.2278L560.929 17.2954L560.13 17.9483C560.096 17.9757 560.071 18.0122 560.057 18.0535C560.044 18.0948 560.043 18.1391 560.055 18.1808L560.394 19.4174C560.404 19.4536 560.423 19.4868 560.449 19.514C560.475 19.5412 560.507 19.5615 560.543 19.5732C560.579 19.5843 560.617 19.5862 560.653 19.5789C560.69 19.5715 560.724 19.5551 560.752 19.5312L561.749 18.7274C561.783 18.7005 561.809 18.664 561.822 18.6225C561.835 18.5811 561.836 18.5367 561.824 18.4949L561.574 17.5848L561.599 17.5601L562.967 15.9376L563.079 17.2385L562.155 18.2896C562.092 18.3642 562.062 18.4601 562.07 18.5568C562.076 18.6279 562.103 18.6957 562.148 18.7515C562.193 18.8074 562.254 18.8488 562.322 18.8705C562.391 18.8922 562.464 18.8932 562.533 18.8735C562.602 18.8538 562.664 18.8141 562.71 18.7596L563.151 18.2328L563.223 19.0737L561.373 21.2649C561.311 21.3387 561.28 21.4337 561.288 21.5295C561.296 21.6253 561.342 21.7141 561.415 21.7769C561.489 21.8383 561.584 21.8684 561.68 21.8605C561.776 21.8526 561.865 21.8075 561.928 21.7348L563.311 20.0951L563.36 20.7035L562.561 22.1355C562.54 22.1745 562.532 22.2186 562.536 22.2624C562.54 22.3062 562.556 22.348 562.583 22.3828L563.829 23.9162C563.851 23.9447 563.881 23.9672 563.914 23.9814C563.948 23.9957 563.984 24.0013 564.021 23.9978C564.057 23.9951 564.093 23.9833 564.124 23.9634C564.155 23.9435 564.18 23.9162 564.197 23.884L565.156 22.1528C565.178 22.1142 565.187 22.0701 565.184 22.0262C565.18 21.9822 565.164 21.9402 565.137 21.9055L564.093 20.6095L564.043 20.0209L565.677 21.4108C565.712 21.4485 565.755 21.4784 565.802 21.4984C565.85 21.5184 565.901 21.5281 565.953 21.5268C566.005 21.5256 566.055 21.5134 566.102 21.4912C566.149 21.4689 566.19 21.4371 566.223 21.3978C566.256 21.3584 566.281 21.3125 566.294 21.2631C566.308 21.2137 566.312 21.1619 566.304 21.1112C566.296 21.0605 566.277 21.012 566.249 20.969C566.221 20.926 566.184 20.8895 566.14 20.8618L563.948 19.0118L563.879 18.1709L564.397 18.6161C564.452 18.6619 564.52 18.6903 564.591 18.698C564.662 18.7056 564.735 18.692 564.798 18.6589C564.862 18.6258 564.914 18.5747 564.949 18.5121C564.983 18.4494 564.998 18.3781 564.992 18.307C564.989 18.2593 564.976 18.2128 564.954 18.1703C564.932 18.1278 564.902 18.0901 564.865 18.0596L563.784 17.147L563.674 15.8461L565.286 17.2064L565.186 18.1759C565.182 18.219 565.19 18.2625 565.21 18.3011C565.23 18.3397 565.261 18.3718 565.298 18.3935L566.404 19.0217C566.437 19.0388 566.474 19.0478 566.511 19.0478C566.549 19.0478 566.586 19.0388 566.619 19.0217C566.652 19.0041 566.68 18.9786 566.701 18.9475C566.722 18.9165 566.734 18.8808 566.738 18.8436L566.868 17.5798C566.872 17.5367 566.864 17.4932 566.844 17.4546C566.824 17.416 566.793 17.3839 566.756 17.3622L565.899 16.8676L565.722 14.7703L566.718 15.6136L566.838 17.0234C566.838 17.0732 566.849 17.1224 566.869 17.168C566.89 17.2135 566.919 17.2543 566.956 17.2879C566.994 17.3215 567.037 17.3471 567.085 17.3631C567.132 17.379 567.183 17.3851 567.233 17.3808C567.283 17.3765 567.331 17.362 567.375 17.3382C567.419 17.3144 567.458 17.2817 567.489 17.2423C567.52 17.2029 567.542 17.1577 567.554 17.1093C567.566 17.061 567.568 17.0107 567.56 16.9615L567.503 16.274L568.146 16.8181L568.395 19.6771C568.398 19.7245 568.411 19.7707 568.433 19.8131C568.454 19.8555 568.484 19.8932 568.52 19.924C568.557 19.9548 568.599 19.9782 568.645 19.9927C568.69 20.0072 568.738 20.0126 568.786 20.0085C568.881 20.0028 568.97 19.9603 569.035 19.89C569.099 19.8198 569.133 19.7274 569.129 19.6326L568.948 17.4982L569.416 17.8915L569.864 19.4743C569.877 19.5169 569.902 19.5549 569.936 19.5835C569.97 19.6121 570.012 19.63 570.056 19.6351L572.014 19.8453C572.05 19.8496 572.087 19.8448 572.121 19.8314C572.155 19.8181 572.185 19.7965 572.208 19.7686C572.232 19.7405 572.248 19.7072 572.256 19.6714C572.264 19.6357 572.263 19.5986 572.253 19.5634L571.715 17.6689C571.703 17.626 571.678 17.5876 571.644 17.5589C571.61 17.5303 571.568 17.5125 571.523 17.5081L569.877 17.33L569.418 16.9442L571.556 16.7637C571.652 16.7555 571.742 16.7094 571.805 16.6357C571.867 16.562 571.898 16.4665 571.889 16.3704C571.881 16.2743 571.835 16.1854 571.76 16.1233C571.686 16.0611 571.59 16.0308 571.493 16.039L568.634 16.2864L567.991 15.7422L568.676 15.6854C568.772 15.6765 568.861 15.6304 568.923 15.557C568.985 15.4837 569.015 15.3891 569.007 15.2937C568.999 15.1983 568.954 15.1098 568.881 15.0475C568.807 14.9852 568.712 14.954 568.616 14.9607L567.206 15.0794L566.21 14.2385L568.26 14.0654L568.9 14.8519C568.928 14.8848 568.965 14.9092 569.007 14.9224C569.048 14.9355 569.092 14.9368 569.134 14.9261L570.36 14.5873C570.396 14.5772 570.429 14.5583 570.456 14.5324C570.483 14.5064 570.503 14.4742 570.515 14.4386C570.526 14.4031 570.528 14.3653 570.521 14.3286C570.514 14.292 570.498 14.2576 570.475 14.2286L569.67 13.2394C569.643 13.2054 569.606 13.1803 569.564 13.1671C569.523 13.1539 569.478 13.1532 569.436 13.1652L568.539 13.4125L566.888 12.0349L568.193 11.9261L569.271 12.8387C569.346 12.8981 569.441 12.9265 569.537 12.9183C569.632 12.91 569.721 12.8656 569.785 12.7942C569.847 12.7204 569.877 12.625 569.869 12.529C569.86 12.433 569.814 12.3442 569.74 12.2822L569.214 11.8395L570.054 11.7678L572.248 13.6178C572.322 13.6794 572.418 13.7094 572.514 13.701C572.61 13.6927 572.699 13.6467 572.761 13.5732C572.823 13.4998 572.853 13.4048 572.845 13.3093C572.837 13.2137 572.79 13.1254 572.716 13.0638L571.077 11.6812L571.683 11.6293L573.125 12.4356C573.164 12.4572 573.208 12.4666 573.253 12.4626C573.297 12.4587 573.34 12.4415 573.374 12.4133L574.908 11.1767C574.936 11.1533 574.959 11.1236 574.973 11.0901C574.987 11.0565 574.993 11.0201 574.991 10.9838C574.988 10.9486 574.977 10.9144 574.959 10.884C574.941 10.8536 574.916 10.8276 574.886 10.8082ZM562.489 10.3333C562.415 10.3562 562.342 10.3835 562.272 10.415L562.137 10.4793C562.062 10.521 561.99 10.569 561.923 10.6227L561.041 9.88075L560.872 7.90218L562.392 9.1833L562.489 10.3333ZM562.162 13.5485C562.231 13.5859 562.301 13.619 562.374 13.6474L562.526 13.6969C562.608 13.7197 562.691 13.7371 562.775 13.7488L562.872 14.8816L561.589 16.4026L561.42 14.424L562.162 13.5485ZM563.037 13.0341H562.915C562.708 13.0177 562.512 12.9392 562.352 12.809C562.333 12.7965 562.316 12.7815 562.302 12.7645C562.15 12.6311 562.044 12.4551 561.995 12.26C561.984 12.2012 561.977 12.1417 561.973 12.0819C561.95 11.8418 562.017 11.6016 562.16 11.4067C562.246 11.2864 562.357 11.1862 562.486 11.1131C562.615 11.0401 562.759 10.9959 562.907 10.9838C563.004 10.9744 563.102 10.9786 563.199 10.9962C563.365 11.0279 563.52 11.1011 563.649 11.2089L563.677 11.2311C563.804 11.3413 563.901 11.4817 563.958 11.6392C563.987 11.7192 564.006 11.8022 564.016 11.8865V11.9286C564.034 12.1502 563.979 12.3717 563.859 12.5592C563.826 12.6055 563.791 12.6501 563.754 12.6928C563.588 12.8805 563.357 12.9989 563.106 13.0242C563.084 13.0304 563.06 13.0345 563.037 13.0366V13.0341ZM563.821 10.4545C563.751 10.4185 563.679 10.3863 563.605 10.3581L563.47 10.316H563.433L563.323 10.2888L563.211 10.274L563.114 9.12642L564.397 7.60045L564.564 9.57901L563.821 10.4545ZM563.5 13.6895C563.576 13.6669 563.65 13.6388 563.722 13.6054L563.866 13.5312C563.94 13.4888 564.01 13.4417 564.078 13.3902L564.947 14.1322L565.114 16.1108L563.597 14.8321L563.5 13.6895ZM564.673 11.4957C564.673 11.4611 564.653 11.4265 564.641 11.3943C564.631 11.3665 564.619 11.3393 564.606 11.3127L564.521 11.1371C564.479 11.0629 564.432 10.9918 564.379 10.9244L565.127 10.0489L567.119 9.88075L565.839 11.3993L564.673 11.4957ZM560.571 10.4323L561.452 11.1742C561.416 11.2433 561.384 11.3143 561.355 11.3869L561.308 11.5328C561.283 11.6136 561.266 11.6964 561.256 11.7802L560.112 11.8766L558.59 10.5955L560.571 10.4323ZM560.162 12.6062L561.303 12.5073C561.327 12.5831 561.355 12.6574 561.388 12.7299L561.457 12.8659C561.5 12.9411 561.548 13.0131 561.602 13.0811L560.855 13.9541L558.862 14.1223L560.162 12.6062ZM565.411 13.5732L564.536 12.8313C564.573 12.7607 564.605 12.6881 564.633 12.6136L564.678 12.4652C564.701 12.3841 564.718 12.3015 564.728 12.2179L565.869 12.1215L567.388 13.4051L565.411 13.5732Z" fill="white"/>
<path d="M842.914 61.1061L841.625 60.3864C841.596 60.3707 841.563 60.3639 841.529 60.3669C841.496 60.3698 841.465 60.3824 841.439 60.4031L840.465 61.1803L840.011 61.2193L841.048 59.9895C841.074 59.962 841.093 59.9295 841.106 59.894C841.118 59.8585 841.123 59.8209 841.119 59.7836C841.115 59.7302 841.095 59.6791 841.062 59.6371C841.028 59.595 840.983 59.5638 840.932 59.5475C840.88 59.5311 840.825 59.5304 840.773 59.5454C840.722 59.5603 840.675 59.5903 840.641 59.6315L839.253 61.2749L838.621 61.3287L838.956 60.9336C839.003 60.8784 839.025 60.807 839.019 60.7351C839.015 60.6818 838.994 60.6309 838.961 60.589C838.927 60.5472 838.882 60.5161 838.83 60.4998C838.779 60.4836 838.724 60.4828 838.672 60.4976C838.62 60.5124 838.574 60.5421 838.539 60.583L837.85 61.401L836.875 61.4845L837.9 60.2696L838.603 60.3419C838.635 60.3444 838.668 60.3377 838.696 60.3226C838.725 60.3075 838.749 60.2846 838.765 60.2566L839.236 59.4274C839.249 59.4028 839.256 59.3754 839.256 59.3477C839.256 59.3199 839.249 59.2925 839.236 59.2679C839.223 59.2429 839.205 59.2215 839.181 59.2057C839.158 59.1898 839.131 59.1799 839.103 59.177L838.154 59.0806C838.122 59.078 838.089 59.0847 838.061 59.0998C838.032 59.1149 838.008 59.1378 837.992 59.1659L837.618 59.8188L836.073 59.9505L836.705 59.2085L837.762 59.1195C837.834 59.1129 837.901 59.0782 837.948 59.0229C837.994 58.9677 838.017 58.8964 838.01 58.8246C838.008 58.7891 837.998 58.7544 837.982 58.7226C837.966 58.6908 837.943 58.6626 837.916 58.6394C837.889 58.6163 837.857 58.5988 837.823 58.5879C837.789 58.577 837.753 58.573 837.717 58.576L837.202 58.6205L837.611 58.1364L839.753 57.9509C839.789 57.9479 839.824 57.9379 839.856 57.9215C839.888 57.9052 839.916 57.8827 839.939 57.8555C839.962 57.8283 839.979 57.7968 839.99 57.7629C840.001 57.729 840.005 57.6933 840.002 57.6578C839.998 57.587 839.965 57.5207 839.912 57.4731C839.859 57.4256 839.789 57.4007 839.718 57.4037L838.115 57.5391L838.41 57.196L839.608 56.8565C839.64 56.8472 839.669 56.8287 839.69 56.8033C839.712 56.7779 839.725 56.7467 839.729 56.7137L839.888 55.2446C839.891 55.2172 839.887 55.1896 839.876 55.1641C839.866 55.1385 839.849 55.1159 839.828 55.0981C839.807 55.0808 839.782 55.0688 839.756 55.063C839.729 55.0572 839.701 55.0578 839.675 55.0647L838.255 55.4691C838.223 55.4779 838.194 55.4963 838.172 55.5218C838.15 55.5473 838.137 55.5787 838.134 55.6119L838.001 56.838L837.702 57.1867L837.566 55.5841C837.563 55.5483 837.554 55.5134 837.538 55.4813C837.522 55.4492 837.5 55.4206 837.472 55.3971C837.445 55.3736 837.413 55.3558 837.379 55.3446C837.345 55.3334 837.309 55.329 837.273 55.3318C837.2 55.3384 837.134 55.3731 837.087 55.4284C837.04 55.4836 837.018 55.5549 837.024 55.6267L837.211 57.771L836.802 58.2533L836.753 57.7432C836.747 57.6716 836.713 57.6052 836.658 57.5586C836.603 57.512 836.532 57.489 836.46 57.4946C836.388 57.5012 836.321 57.5359 836.274 57.5912C836.228 57.6465 836.205 57.7178 836.211 57.7895L836.301 58.8468L835.67 59.5888L835.537 58.0325L836.097 57.567C836.123 57.5463 836.142 57.5186 836.152 57.4873C836.162 57.4559 836.163 57.4223 836.153 57.3907L835.899 56.4726C835.892 56.4458 835.878 56.4213 835.859 56.4012C835.84 56.3811 835.816 56.3661 835.789 56.3576C835.762 56.3494 835.734 56.3478 835.706 56.353C835.678 56.3581 835.652 56.3699 835.63 56.3872L834.892 56.9901C834.867 57.0107 834.849 57.0381 834.839 57.0691C834.829 57.1 834.828 57.1331 834.836 57.1644L835.023 57.8637L834.02 59.0731L833.938 58.0956L834.622 57.285C834.645 57.2578 834.663 57.2263 834.674 57.1922C834.685 57.1581 834.688 57.1222 834.685 57.0865C834.683 57.0509 834.673 57.0161 834.656 56.9842C834.64 56.9523 834.617 56.9241 834.59 56.901C834.535 56.8577 834.466 56.8369 834.396 56.8431C834.327 56.8494 834.262 56.8821 834.216 56.9344L833.882 57.3277L833.829 56.6989L835.218 55.0536C835.264 54.9983 835.287 54.927 835.281 54.8551C835.274 54.7831 835.239 54.7167 835.184 54.6696C835.129 54.6262 835.06 54.6055 834.99 54.6117C834.921 54.6179 834.856 54.6506 834.81 54.703L833.773 55.9309L833.736 55.4895L834.325 54.4043C834.341 54.3754 834.348 54.3423 834.345 54.3094C834.342 54.2764 834.33 54.2449 834.31 54.2189L833.375 53.0688C833.359 53.0474 833.337 53.0306 833.311 53.0199C833.286 53.0092 833.259 53.005 833.232 53.0076C833.204 53.0093 833.177 53.018 833.154 53.033C833.131 53.0479 833.112 53.0686 833.099 53.0929L832.38 54.3914C832.364 54.4203 832.357 54.4534 832.359 54.4863C832.362 54.5193 832.374 54.5508 832.395 54.5769L833.179 55.5173L833.219 55.9736L831.989 54.9367C831.934 54.8907 831.863 54.8682 831.791 54.8741C831.72 54.88 831.653 54.9139 831.606 54.9682C831.559 55.0241 831.537 55.0961 831.543 55.1686C831.545 55.2042 831.555 55.239 831.571 55.2709C831.588 55.3028 831.611 55.331 831.638 55.3541L833.282 56.7415L833.336 57.3722L832.942 57.0383C832.915 57.0154 832.883 56.998 832.849 56.9873C832.814 56.9765 832.778 56.9726 832.743 56.9757C832.707 56.9788 832.672 56.9889 832.64 57.0054C832.608 57.0218 832.58 57.0444 832.557 57.0717C832.534 57.099 832.517 57.1306 832.506 57.1647C832.495 57.1988 832.492 57.2347 832.496 57.2702C832.498 57.3059 832.508 57.3407 832.524 57.3725C832.541 57.4044 832.563 57.4327 832.591 57.4557L833.402 58.1401L833.484 59.1139L832.264 58.0919L832.245 58.0752L832.312 57.3722C832.316 57.3398 832.31 57.3071 832.295 57.2781C832.28 57.2491 832.257 57.2251 832.228 57.209L831.399 56.7397C831.374 56.726 831.347 56.7189 831.319 56.7189C831.29 56.7189 831.263 56.726 831.238 56.7397C831.213 56.7525 831.192 56.7712 831.177 56.7942C831.161 56.8172 831.151 56.8437 831.149 56.8714L831.053 57.8211C831.05 57.8535 831.056 57.8862 831.071 57.9152C831.086 57.9442 831.109 57.9682 831.137 57.9843L831.812 58.3664L831.943 59.9097L831.195 59.2772L831.106 58.2199C831.103 58.1842 831.093 58.1494 831.077 58.1175C831.061 58.0856 831.038 58.0572 831.011 58.0339C830.984 58.0107 830.952 57.993 830.918 57.982C830.883 57.971 830.847 57.9669 830.811 57.9698C830.775 57.9727 830.74 57.9827 830.708 57.9991C830.676 58.0156 830.648 58.0381 830.625 58.0655C830.602 58.0929 830.584 58.1246 830.573 58.1587C830.563 58.1929 830.559 58.2288 830.562 58.2644L830.607 58.7801L830.123 58.372L829.936 56.2277C829.93 56.156 829.895 56.0896 829.84 56.043C829.785 55.9965 829.713 55.9735 829.641 55.9792C829.605 55.9824 829.571 55.9926 829.539 56.0092C829.507 56.0258 829.479 56.0485 829.456 56.0759C829.433 56.1032 829.416 56.1349 829.405 56.1689C829.395 56.2029 829.391 56.2386 829.394 56.2741L829.529 57.8749L829.193 57.5911L828.853 56.3928C828.843 56.3609 828.825 56.3324 828.799 56.3109C828.773 56.2895 828.742 56.276 828.709 56.2722L827.24 56.1146C827.213 56.111 827.185 56.1144 827.16 56.1245C827.134 56.1345 827.112 56.1509 827.095 56.1721C827.077 56.1932 827.065 56.2182 827.059 56.245C827.053 56.2718 827.054 56.2996 827.061 56.326L827.468 57.7432C827.477 57.7752 827.496 57.8038 827.522 57.8253C827.547 57.8468 827.579 57.8602 827.612 57.8637L828.838 57.9973L829.181 58.2996L827.575 58.4313C827.502 58.4372 827.435 58.4714 827.388 58.5264C827.342 58.5814 827.318 58.6526 827.324 58.7244C827.33 58.7962 827.365 58.8628 827.42 58.9094C827.476 58.956 827.547 58.9789 827.62 58.973L829.764 58.7875L830.248 59.1956L829.733 59.2401C829.664 59.2513 829.603 59.2877 829.561 59.3418C829.518 59.396 829.498 59.464 829.504 59.5323C829.51 59.6006 829.542 59.6642 829.593 59.7104C829.644 59.7567 829.71 59.7821 829.779 59.7817L830.837 59.6927L831.584 60.3233L830.009 60.4569L829.535 59.8763C829.514 59.8509 829.486 59.832 829.455 59.8221C829.424 59.8122 829.39 59.8117 829.359 59.8207L828.44 60.0748C828.414 60.0836 828.391 60.0984 828.372 60.1179C828.353 60.1374 828.339 60.1611 828.331 60.187C828.323 60.2129 828.322 60.2403 828.327 60.2669C828.332 60.2935 828.343 60.3186 828.359 60.34L828.963 61.082C828.984 61.1071 829.011 61.1256 829.042 61.1355C829.074 61.1454 829.107 61.1461 829.138 61.1377L829.845 60.941L831.061 61.9668L830.084 62.0503L829.273 61.3658C829.218 61.3226 829.149 61.3018 829.08 61.3077C829.01 61.3136 828.946 61.3456 828.899 61.3973C828.853 61.4527 828.83 61.5239 828.836 61.5958C828.842 61.6676 828.876 61.7343 828.931 61.7813L829.327 62.1152L828.696 62.1764L827.052 60.7889C826.997 60.7455 826.928 60.7248 826.858 60.731C826.788 60.7372 826.724 60.77 826.678 60.8223C826.631 60.8776 826.609 60.9489 826.615 61.0208C826.617 61.0565 826.627 61.0914 826.643 61.1233C826.659 61.1552 826.682 61.1834 826.71 61.2063L827.939 62.2432L827.494 62.2821L826.413 61.6774C826.384 61.6612 826.35 61.6541 826.317 61.6571C826.283 61.6601 826.252 61.673 826.226 61.6941L825.077 62.6216C825.055 62.6387 825.038 62.6609 825.027 62.6861C825.016 62.7113 825.011 62.7388 825.013 62.7663C825.016 62.7937 825.025 62.8201 825.04 62.8433C825.055 62.8665 825.075 62.8859 825.099 62.8998L826.388 63.6195C826.418 63.6352 826.451 63.642 826.484 63.6391C826.518 63.6361 826.549 63.6235 826.575 63.6028L827.541 62.8256L827.984 62.7885L826.947 64.0165C826.924 64.0436 826.906 64.0751 826.895 64.109C826.884 64.1429 826.88 64.1786 826.883 64.2141C826.886 64.2495 826.896 64.2841 826.913 64.3158C826.929 64.3474 826.951 64.3756 826.979 64.3986C827.006 64.4216 827.038 64.439 827.072 64.4499C827.106 64.4608 827.142 64.4649 827.178 64.4619C827.214 64.459 827.248 64.4491 827.28 64.4328C827.312 64.4166 827.34 64.3942 827.364 64.367L828.752 62.7236L829.381 62.6698L829.049 63.0649C829.014 63.0878 828.985 63.1183 828.963 63.1542C828.942 63.1901 828.93 63.2303 828.927 63.2718C828.924 63.3132 828.93 63.3548 828.946 63.3933C828.962 63.4318 828.987 63.4662 829.018 63.4937C829.049 63.5213 829.087 63.5414 829.127 63.5523C829.167 63.5633 829.21 63.5648 829.251 63.5569C829.292 63.549 829.331 63.5318 829.364 63.5066C829.397 63.4814 829.424 63.449 829.443 63.4118L830.129 62.6012L831.102 62.5196L830.078 63.7327L830.067 63.7475L829.353 63.6789C829.321 63.6753 829.288 63.6814 829.259 63.6962C829.229 63.711 829.205 63.734 829.189 63.7623L828.72 64.5915C828.707 64.6163 828.7 64.644 828.7 64.6722C828.7 64.7003 828.707 64.7281 828.72 64.7529C828.733 64.7775 828.752 64.7985 828.775 64.8141C828.798 64.8296 828.825 64.8392 828.853 64.8419L829.802 64.9384C829.834 64.9415 829.867 64.9353 829.895 64.9205C829.924 64.9057 829.948 64.8829 829.964 64.8549L830.338 64.1908L831.909 64.0591L831.276 64.8011L830.218 64.892C830.15 64.9032 830.089 64.9396 830.046 64.9937C830.004 65.0479 829.984 65.1159 829.99 65.1842C829.996 65.2525 830.027 65.3161 830.078 65.3623C830.129 65.4086 830.196 65.434 830.265 65.4336L830.779 65.391L830.377 65.8751L828.232 66.0606C828.164 66.0718 828.103 66.1082 828.061 66.1623C828.018 66.2165 827.998 66.2845 828.004 66.3528C828.01 66.4211 828.041 66.4847 828.092 66.5309C828.143 66.5772 828.21 66.6026 828.279 66.6022L829.873 66.4612L829.581 66.8081L828.397 67.1438C828.365 67.1529 828.336 67.1713 828.314 67.1968C828.292 67.2222 828.279 67.2535 828.275 67.2867L828.117 68.7557C828.112 68.7835 828.115 68.8118 828.125 68.8381C828.134 68.8644 828.151 68.8879 828.172 68.9064C828.193 68.9249 828.219 68.9377 828.246 68.9438C828.274 68.9499 828.302 68.949 828.33 68.9412L829.749 68.5369C829.782 68.528 829.811 68.5097 829.832 68.4842C829.854 68.4587 829.867 68.4272 829.871 68.394L830.005 67.1568L830.289 66.8192L830.426 68.42C830.428 68.4555 830.438 68.4902 830.454 68.522C830.47 68.5538 830.493 68.582 830.52 68.6052C830.547 68.6283 830.579 68.6458 830.613 68.6567C830.647 68.6676 830.683 68.6716 830.719 68.6686C830.791 68.662 830.858 68.6272 830.904 68.572C830.951 68.5167 830.974 68.4454 830.967 68.3736L830.781 66.2294L831.188 65.7471L831.231 66.2628C831.237 66.3343 831.272 66.4005 831.327 66.4468C831.382 66.4931 831.454 66.5156 831.526 66.5095C831.598 66.5033 831.665 66.469 831.711 66.414C831.758 66.3591 831.781 66.288 831.774 66.2164L831.685 65.1628L832.316 64.4208L832.447 65.9715L831.847 66.4612C831.822 66.4817 831.803 66.5091 831.793 66.5401C831.783 66.5711 831.783 66.6043 831.791 66.6356L832.045 67.563C832.053 67.5902 832.067 67.6151 832.087 67.6355C832.106 67.6559 832.131 67.6711 832.157 67.6799C832.184 67.6882 832.213 67.6896 832.24 67.6841C832.267 67.6786 832.293 67.6663 832.314 67.6484L833.062 67.0455C833.087 67.0254 833.107 66.998 833.117 66.9669C833.127 66.9358 833.127 66.9025 833.118 66.8712L832.931 66.1886L832.95 66.17L833.975 64.9532L834.059 65.9289L833.366 66.7172C833.319 66.7731 833.296 66.8451 833.303 66.9175C833.307 66.9709 833.328 67.0217 833.361 67.0636C833.395 67.1055 833.44 67.1366 833.492 67.1528C833.543 67.1691 833.598 67.1699 833.65 67.1551C833.702 67.1403 833.748 67.1105 833.783 67.0696L834.113 66.6745L834.168 67.3052L832.78 68.9487C832.733 69.004 832.71 69.0753 832.716 69.1471C832.722 69.2189 832.756 69.2856 832.811 69.3326C832.867 69.3787 832.938 69.4013 833.01 69.3954C833.082 69.3895 833.149 69.3556 833.196 69.3011L834.233 68.0713L834.27 68.5276L833.671 69.6016C833.655 69.6309 833.649 69.6639 833.652 69.6968C833.655 69.7297 833.667 69.761 833.687 69.7871L834.622 70.9371C834.638 70.9585 834.66 70.9753 834.686 70.986C834.711 70.9967 834.738 71.001 834.765 70.9983C834.793 70.9963 834.82 70.9874 834.843 70.9725C834.866 70.9576 834.885 70.9371 834.898 70.913L835.617 69.6146C835.633 69.5856 835.641 69.5526 835.638 69.5196C835.635 69.4866 835.623 69.4551 835.602 69.4291L834.82 68.4571L834.782 68.0156L836.008 69.0581C836.034 69.0864 836.066 69.1087 836.102 69.1237C836.138 69.1387 836.176 69.146 836.215 69.1451C836.253 69.1442 836.292 69.1351 836.326 69.1184C836.361 69.1017 836.392 69.0778 836.417 69.0483C836.442 69.0188 836.46 68.9844 836.471 68.9473C836.481 68.9103 836.484 68.8714 836.478 68.8334C836.472 68.7954 836.458 68.759 836.437 68.7267C836.416 68.6945 836.388 68.6671 836.355 68.6463L834.711 67.2588L834.659 66.6282L835.048 66.9621C835.089 66.9964 835.14 67.0177 835.193 67.0234C835.247 67.0292 835.301 67.019 835.349 66.9941C835.397 66.9693 835.436 66.931 835.462 66.884C835.488 66.8371 835.499 66.7835 835.494 66.7302C835.492 66.6945 835.482 66.6596 835.466 66.6277C835.449 66.5958 835.426 66.5676 835.399 66.5447L834.588 65.8602L834.506 64.8846L835.714 65.9048L835.64 66.6319C835.636 66.6642 835.643 66.6969 835.658 66.7258C835.672 66.7548 835.695 66.7788 835.724 66.7951L836.553 67.2663C836.578 67.2791 836.606 67.2858 836.634 67.2858C836.662 67.2858 836.689 67.2791 836.714 67.2663C836.739 67.253 836.76 67.2339 836.776 67.2106C836.791 67.1873 836.801 67.1606 836.804 67.1327L836.901 66.1848C836.904 66.1525 836.898 66.1199 836.883 66.0909C836.868 66.062 836.845 66.0379 836.817 66.0216L836.174 65.6506L836.041 64.0777L836.789 64.7102L836.878 65.7675C836.879 65.8049 836.887 65.8418 836.902 65.8759C836.917 65.9101 836.94 65.9407 836.967 65.9659C836.995 65.9911 837.028 66.0103 837.064 66.0223C837.099 66.0343 837.137 66.0388 837.175 66.0356C837.212 66.0324 837.248 66.0215 837.282 66.0036C837.315 65.9857 837.344 65.9613 837.367 65.9317C837.39 65.9022 837.406 65.8682 837.416 65.832C837.425 65.7957 837.426 65.758 837.42 65.7211L837.377 65.2055L837.859 65.6135L838.046 67.7578C838.049 67.7933 838.058 67.828 838.074 67.8598C838.091 67.8916 838.113 67.9198 838.14 67.943C838.168 67.9661 838.199 67.9836 838.233 67.9945C838.268 68.0054 838.304 68.0094 838.339 68.0064C838.411 68.0021 838.478 67.9702 838.526 67.9175C838.574 67.8648 838.6 67.7955 838.597 67.7244L838.461 66.1236L838.812 66.4186L839.148 67.6057C839.158 67.6376 839.176 67.6661 839.202 67.6876C839.227 67.709 839.259 67.7225 839.292 67.7263L840.76 67.8839C840.788 67.8872 840.815 67.8836 840.841 67.8736C840.866 67.8635 840.889 67.8473 840.906 67.8264C840.924 67.8053 840.936 67.7803 840.942 67.7535C840.948 67.7267 840.947 67.6989 840.94 67.6725L840.536 66.2516C840.527 66.2194 840.509 66.1907 840.483 66.1692C840.457 66.1477 840.426 66.1344 840.392 66.1311L839.158 65.9975L838.814 65.7081L840.417 65.5727C840.489 65.5666 840.556 65.5321 840.603 65.4767C840.65 65.4214 840.673 65.3499 840.667 65.2778C840.661 65.2057 840.626 65.1391 840.57 65.0924C840.515 65.0458 840.443 65.0231 840.37 65.0292L838.225 65.2147L837.743 64.8067L838.257 64.764C838.329 64.7573 838.396 64.7227 838.442 64.6677C838.488 64.6128 838.511 64.5418 838.505 64.4702C838.499 64.3987 838.465 64.3323 838.41 64.2856C838.356 64.2388 838.284 64.2155 838.212 64.2205L837.155 64.3095L836.408 63.6789L837.945 63.549L838.425 64.1389C838.446 64.1636 838.474 64.1819 838.505 64.1917C838.536 64.2016 838.569 64.2025 838.601 64.1945L839.52 63.9404C839.547 63.9328 839.572 63.9187 839.592 63.8992C839.612 63.8798 839.628 63.8556 839.636 63.829C839.645 63.8023 839.646 63.7739 839.641 63.7464C839.636 63.7189 839.624 63.6932 839.606 63.6715L839.002 62.9295C838.982 62.904 838.954 62.8852 838.923 62.8753C838.892 62.8654 838.858 62.8649 838.827 62.8738L838.154 63.0593L836.916 62.0262L837.895 61.9445L838.704 62.629C838.76 62.6735 838.831 62.6949 838.903 62.6887C838.974 62.6825 839.041 62.6491 839.088 62.5956C839.135 62.5402 839.158 62.4687 839.152 62.3967C839.145 62.3247 839.111 62.2582 839.055 62.2116L838.661 61.8796L839.29 61.8258L840.936 63.2133C840.992 63.2595 841.063 63.282 841.135 63.2757C841.208 63.2695 841.274 63.235 841.321 63.1799C841.367 63.1248 841.39 63.0536 841.384 62.9819C841.377 62.9103 841.343 62.844 841.287 62.7978L840.058 61.7609L840.512 61.7219L841.594 62.3266C841.623 62.3429 841.656 62.3499 841.69 62.347C841.723 62.344 841.755 62.3311 841.78 62.31L842.931 61.3825C842.952 61.365 842.969 61.3427 842.98 61.3175C842.99 61.2924 842.995 61.2651 842.993 61.2378C842.991 61.2114 842.983 61.1858 842.969 61.163C842.955 61.1401 842.937 61.1207 842.914 61.1061ZM833.617 60.75C833.561 60.7671 833.507 60.7876 833.454 60.8112L833.353 60.8594C833.297 60.8907 833.243 60.9267 833.192 60.967L832.531 60.4105L832.404 58.9266L833.544 59.8874L833.617 60.75ZM833.372 63.1614C833.423 63.1894 833.476 63.2142 833.531 63.2355L833.645 63.2726C833.706 63.2898 833.768 63.3028 833.831 63.3116L833.904 64.1611L832.942 65.3019L832.815 63.818L833.372 63.1614ZM834.027 62.7755H833.936C833.781 62.7633 833.634 62.7044 833.514 62.6067C833.5 62.5973 833.487 62.5861 833.476 62.5733C833.363 62.4733 833.283 62.3413 833.247 62.1949C833.238 62.1508 833.232 62.1062 833.23 62.0614C833.213 61.8813 833.263 61.7012 833.37 61.555C833.434 61.4648 833.518 61.3896 833.615 61.3348C833.712 61.28 833.819 61.2469 833.93 61.2378C834.003 61.2308 834.077 61.2339 834.149 61.2471C834.273 61.2709 834.39 61.3258 834.487 61.4066L834.508 61.4233C834.603 61.5059 834.676 61.6112 834.719 61.7294C834.74 61.7894 834.754 61.8516 834.762 61.9149V61.9464C834.776 62.1126 834.734 62.2788 834.644 62.4194C834.62 62.4541 834.593 62.4875 834.566 62.5196C834.441 62.6603 834.268 62.7491 834.08 62.7681C834.063 62.7727 834.045 62.7758 834.027 62.7774V62.7755ZM834.616 60.8409C834.563 60.8138 834.509 60.7897 834.453 60.7685L834.353 60.737H834.325L834.242 60.7166L834.158 60.7055L834.085 59.8448L835.048 58.7003L835.173 60.1842L834.616 60.8409ZM834.375 63.2671C834.432 63.2501 834.487 63.2291 834.541 63.204L834.65 63.1484C834.705 63.1166 834.758 63.0813 834.808 63.0426L835.46 63.5991L835.586 65.083L834.448 64.124L834.375 63.2671ZM835.255 61.6218C835.255 61.5958 835.24 61.5698 835.231 61.5457C835.223 61.5249 835.214 61.5044 835.204 61.4845L835.141 61.3528C835.109 61.2972 835.074 61.2438 835.034 61.1933L835.595 60.5367L837.089 60.4105L836.129 61.5494L835.255 61.6218ZM832.178 60.8242L832.839 61.3806C832.812 61.4324 832.788 61.4857 832.766 61.5402L832.731 61.6496C832.712 61.7102 832.699 61.7722 832.692 61.8351L831.834 61.9074L830.693 60.9466L832.178 60.8242ZM831.872 62.4546L832.727 62.3804C832.745 62.4373 832.766 62.493 832.791 62.5474L832.843 62.6494C832.875 62.7058 832.911 62.7598 832.951 62.8108L832.391 63.4656L830.896 63.5917L831.872 62.4546ZM835.808 63.1799L835.152 62.6234C835.18 62.5705 835.204 62.516 835.225 62.4602L835.259 62.3489C835.276 62.2881 835.288 62.2261 835.296 62.1634L836.152 62.0911L837.291 63.0538L835.808 63.1799Z" fill="white"/>
<path d="M162.914 117.106L161.625 116.386C161.596 116.371 161.563 116.364 161.529 116.367C161.496 116.37 161.465 116.382 161.439 116.403L160.465 117.18L160.011 117.219L161.048 115.989C161.074 115.962 161.093 115.929 161.106 115.894C161.118 115.859 161.123 115.821 161.119 115.784C161.115 115.73 161.095 115.679 161.062 115.637C161.028 115.595 160.983 115.564 160.932 115.547C160.88 115.531 160.825 115.53 160.773 115.545C160.722 115.56 160.675 115.59 160.641 115.631L159.253 117.275L158.621 117.329L158.956 116.934C159.003 116.878 159.025 116.807 159.019 116.735C159.015 116.682 158.994 116.631 158.961 116.589C158.927 116.547 158.882 116.516 158.83 116.5C158.779 116.484 158.724 116.483 158.672 116.498C158.62 116.512 158.574 116.542 158.539 116.583L157.85 117.401L156.875 117.485L157.9 116.27L158.603 116.342C158.635 116.344 158.668 116.338 158.696 116.323C158.725 116.308 158.749 116.285 158.765 116.257L159.236 115.427C159.249 115.403 159.256 115.375 159.256 115.348C159.256 115.32 159.249 115.293 159.236 115.268C159.223 115.243 159.205 115.222 159.181 115.206C159.158 115.19 159.131 115.18 159.103 115.177L158.154 115.081C158.122 115.078 158.089 115.085 158.061 115.1C158.032 115.115 158.008 115.138 157.992 115.166L157.618 115.819L156.073 115.951L156.705 115.209L157.762 115.12C157.834 115.113 157.901 115.078 157.948 115.023C157.994 114.968 158.017 114.896 158.01 114.825C158.008 114.789 157.998 114.754 157.982 114.723C157.966 114.691 157.943 114.663 157.916 114.639C157.889 114.616 157.857 114.599 157.823 114.588C157.789 114.577 157.753 114.573 157.717 114.576L157.202 114.621L157.611 114.136L159.753 113.951C159.789 113.948 159.824 113.938 159.856 113.922C159.888 113.905 159.916 113.883 159.939 113.855C159.962 113.828 159.979 113.797 159.99 113.763C160.001 113.729 160.005 113.693 160.002 113.658C159.998 113.587 159.965 113.521 159.912 113.473C159.859 113.426 159.789 113.401 159.718 113.404L158.115 113.539L158.41 113.196L159.608 112.857C159.64 112.847 159.669 112.829 159.69 112.803C159.712 112.778 159.725 112.747 159.729 112.714L159.888 111.245C159.891 111.217 159.887 111.19 159.876 111.164C159.866 111.139 159.849 111.116 159.828 111.098C159.807 111.081 159.782 111.069 159.756 111.063C159.729 111.057 159.701 111.058 159.675 111.065L158.255 111.469C158.223 111.478 158.194 111.496 158.172 111.522C158.15 111.547 158.137 111.579 158.134 111.612L158.001 112.838L157.702 113.187L157.566 111.584C157.563 111.548 157.554 111.513 157.538 111.481C157.522 111.449 157.5 111.421 157.472 111.397C157.445 111.374 157.413 111.356 157.379 111.345C157.345 111.333 157.309 111.329 157.273 111.332C157.2 111.338 157.134 111.373 157.087 111.428C157.04 111.484 157.018 111.555 157.024 111.627L157.211 113.771L156.802 114.253L156.753 113.743C156.747 113.672 156.713 113.605 156.658 113.559C156.603 113.512 156.532 113.489 156.46 113.495C156.388 113.501 156.321 113.536 156.274 113.591C156.228 113.646 156.205 113.718 156.211 113.79L156.301 114.847L155.67 115.589L155.537 114.033L156.097 113.567C156.123 113.546 156.142 113.519 156.152 113.487C156.162 113.456 156.163 113.422 156.153 113.391L155.899 112.473C155.892 112.446 155.878 112.421 155.859 112.401C155.84 112.381 155.816 112.366 155.789 112.358C155.762 112.349 155.734 112.348 155.706 112.353C155.678 112.358 155.652 112.37 155.63 112.387L154.892 112.99C154.867 113.011 154.849 113.038 154.839 113.069C154.829 113.1 154.828 113.133 154.836 113.164L155.023 113.864L154.02 115.073L153.938 114.096L154.622 113.285C154.645 113.258 154.663 113.226 154.674 113.192C154.685 113.158 154.688 113.122 154.685 113.087C154.683 113.051 154.673 113.016 154.656 112.984C154.64 112.952 154.617 112.924 154.59 112.901C154.535 112.858 154.466 112.837 154.396 112.843C154.327 112.849 154.262 112.882 154.216 112.934L153.882 113.328L153.829 112.699L155.218 111.054C155.264 110.998 155.287 110.927 155.281 110.855C155.274 110.783 155.239 110.717 155.184 110.67C155.129 110.626 155.06 110.605 154.99 110.612C154.921 110.618 154.856 110.651 154.81 110.703L153.773 111.931L153.736 111.489L154.325 110.404C154.341 110.375 154.348 110.342 154.345 110.309C154.342 110.276 154.33 110.245 154.31 110.219L153.375 109.069C153.359 109.047 153.337 109.031 153.311 109.02C153.286 109.009 153.259 109.005 153.232 109.008C153.204 109.009 153.177 109.018 153.154 109.033C153.131 109.048 153.112 109.069 153.099 109.093L152.38 110.391C152.364 110.42 152.357 110.453 152.359 110.486C152.362 110.519 152.374 110.551 152.395 110.577L153.179 111.517L153.219 111.974L151.989 110.937C151.934 110.891 151.863 110.868 151.791 110.874C151.72 110.88 151.653 110.914 151.606 110.968C151.559 111.024 151.537 111.096 151.543 111.169C151.545 111.204 151.555 111.239 151.571 111.271C151.588 111.303 151.611 111.331 151.638 111.354L153.282 112.742L153.336 113.372L152.942 113.038C152.915 113.015 152.883 112.998 152.849 112.987C152.814 112.977 152.778 112.973 152.743 112.976C152.707 112.979 152.672 112.989 152.64 113.005C152.608 113.022 152.58 113.044 152.557 113.072C152.534 113.099 152.517 113.131 152.506 113.165C152.495 113.199 152.492 113.235 152.496 113.27C152.498 113.306 152.508 113.341 152.524 113.373C152.541 113.404 152.563 113.433 152.591 113.456L153.402 114.14L153.484 115.114L152.264 114.092L152.245 114.075L152.312 113.372C152.316 113.34 152.31 113.307 152.295 113.278C152.28 113.249 152.257 113.225 152.228 113.209L151.399 112.74C151.374 112.726 151.347 112.719 151.319 112.719C151.29 112.719 151.263 112.726 151.238 112.74C151.213 112.752 151.192 112.771 151.177 112.794C151.161 112.817 151.151 112.844 151.149 112.871L151.053 113.821C151.05 113.853 151.056 113.886 151.071 113.915C151.086 113.944 151.109 113.968 151.137 113.984L151.812 114.366L151.943 115.91L151.195 115.277L151.106 114.22C151.103 114.184 151.093 114.149 151.077 114.117C151.061 114.086 151.038 114.057 151.011 114.034C150.984 114.011 150.952 113.993 150.918 113.982C150.883 113.971 150.847 113.967 150.811 113.97C150.775 113.973 150.74 113.983 150.708 113.999C150.676 114.016 150.648 114.038 150.625 114.066C150.602 114.093 150.584 114.125 150.573 114.159C150.563 114.193 150.559 114.229 150.562 114.264L150.607 114.78L150.123 114.372L149.936 112.228C149.93 112.156 149.895 112.09 149.84 112.043C149.785 111.996 149.713 111.974 149.641 111.979C149.605 111.982 149.571 111.993 149.539 112.009C149.507 112.026 149.479 112.048 149.456 112.076C149.433 112.103 149.416 112.135 149.405 112.169C149.395 112.203 149.391 112.239 149.394 112.274L149.529 113.875L149.193 113.591L148.853 112.393C148.843 112.361 148.825 112.332 148.799 112.311C148.773 112.289 148.742 112.276 148.709 112.272L147.24 112.115C147.213 112.111 147.185 112.114 147.16 112.124C147.134 112.135 147.112 112.151 147.095 112.172C147.077 112.193 147.065 112.218 147.059 112.245C147.053 112.272 147.054 112.3 147.061 112.326L147.468 113.743C147.477 113.775 147.496 113.804 147.522 113.825C147.547 113.847 147.579 113.86 147.612 113.864L148.838 113.997L149.181 114.3L147.575 114.431C147.502 114.437 147.435 114.471 147.388 114.526C147.342 114.581 147.318 114.653 147.324 114.724C147.33 114.796 147.365 114.863 147.42 114.909C147.476 114.956 147.547 114.979 147.62 114.973L149.764 114.787L150.248 115.196L149.733 115.24C149.664 115.251 149.603 115.288 149.561 115.342C149.518 115.396 149.498 115.464 149.504 115.532C149.51 115.601 149.542 115.664 149.593 115.71C149.644 115.757 149.71 115.782 149.779 115.782L150.837 115.693L151.584 116.323L150.009 116.457L149.535 115.876C149.514 115.851 149.486 115.832 149.455 115.822C149.424 115.812 149.39 115.812 149.359 115.821L148.44 116.075C148.414 116.084 148.391 116.098 148.372 116.118C148.353 116.137 148.339 116.161 148.331 116.187C148.323 116.213 148.322 116.24 148.327 116.267C148.332 116.294 148.343 116.319 148.359 116.34L148.963 117.082C148.984 117.107 149.011 117.126 149.042 117.136C149.074 117.145 149.107 117.146 149.138 117.138L149.845 116.941L151.061 117.967L150.084 118.05L149.273 117.366C149.218 117.323 149.149 117.302 149.08 117.308C149.01 117.314 148.946 117.346 148.899 117.397C148.853 117.453 148.83 117.524 148.836 117.596C148.842 117.668 148.876 117.734 148.931 117.781L149.327 118.115L148.696 118.176L147.052 116.789C146.997 116.746 146.928 116.725 146.858 116.731C146.788 116.737 146.724 116.77 146.678 116.822C146.631 116.878 146.609 116.949 146.615 117.021C146.617 117.057 146.627 117.091 146.643 117.123C146.659 117.155 146.682 117.183 146.71 117.206L147.939 118.243L147.494 118.282L146.413 117.677C146.384 117.661 146.35 117.654 146.317 117.657C146.283 117.66 146.252 117.673 146.226 117.694L145.077 118.622C145.055 118.639 145.038 118.661 145.027 118.686C145.016 118.711 145.011 118.739 145.013 118.766C145.016 118.794 145.025 118.82 145.04 118.843C145.055 118.867 145.075 118.886 145.099 118.9L146.388 119.62C146.418 119.635 146.451 119.642 146.484 119.639C146.518 119.636 146.549 119.623 146.575 119.603L147.541 118.826L147.984 118.789L146.947 120.016C146.924 120.044 146.906 120.075 146.895 120.109C146.884 120.143 146.88 120.179 146.883 120.214C146.886 120.25 146.896 120.284 146.913 120.316C146.929 120.347 146.951 120.376 146.979 120.399C147.006 120.422 147.038 120.439 147.072 120.45C147.106 120.461 147.142 120.465 147.178 120.462C147.214 120.459 147.248 120.449 147.28 120.433C147.312 120.417 147.34 120.394 147.364 120.367L148.752 118.724L149.381 118.67L149.049 119.065C149.014 119.088 148.985 119.118 148.963 119.154C148.942 119.19 148.93 119.23 148.927 119.272C148.924 119.313 148.93 119.355 148.946 119.393C148.962 119.432 148.987 119.466 149.018 119.494C149.049 119.521 149.087 119.541 149.127 119.552C149.167 119.563 149.21 119.565 149.251 119.557C149.292 119.549 149.331 119.532 149.364 119.507C149.397 119.481 149.424 119.449 149.443 119.412L150.129 118.601L151.102 118.52L150.078 119.733L150.067 119.748L149.353 119.679C149.321 119.675 149.288 119.681 149.259 119.696C149.229 119.711 149.205 119.734 149.189 119.762L148.72 120.591C148.707 120.616 148.7 120.644 148.7 120.672C148.7 120.7 148.707 120.728 148.72 120.753C148.733 120.777 148.752 120.799 148.775 120.814C148.798 120.83 148.825 120.839 148.853 120.842L149.802 120.938C149.834 120.942 149.867 120.935 149.895 120.92C149.924 120.906 149.948 120.883 149.964 120.855L150.338 120.191L151.909 120.059L151.276 120.801L150.218 120.892C150.15 120.903 150.089 120.94 150.046 120.994C150.004 121.048 149.984 121.116 149.99 121.184C149.996 121.253 150.027 121.316 150.078 121.362C150.129 121.409 150.196 121.434 150.265 121.434L150.779 121.391L150.377 121.875L148.232 122.061C148.164 122.072 148.103 122.108 148.061 122.162C148.018 122.216 147.998 122.284 148.004 122.353C148.01 122.421 148.041 122.485 148.092 122.531C148.143 122.577 148.21 122.603 148.279 122.602L149.873 122.461L149.581 122.808L148.397 123.144C148.365 123.153 148.336 123.171 148.314 123.197C148.292 123.222 148.279 123.254 148.275 123.287L148.117 124.756C148.112 124.783 148.115 124.812 148.125 124.838C148.134 124.864 148.151 124.888 148.172 124.906C148.193 124.925 148.219 124.938 148.246 124.944C148.274 124.95 148.302 124.949 148.33 124.941L149.749 124.537C149.782 124.528 149.811 124.51 149.832 124.484C149.854 124.459 149.867 124.427 149.871 124.394L150.005 123.157L150.289 122.819L150.426 124.42C150.428 124.456 150.438 124.49 150.454 124.522C150.47 124.554 150.493 124.582 150.52 124.605C150.547 124.628 150.579 124.646 150.613 124.657C150.647 124.668 150.683 124.672 150.719 124.669C150.791 124.662 150.858 124.627 150.904 124.572C150.951 124.517 150.974 124.445 150.967 124.374L150.781 122.229L151.188 121.747L151.231 122.263C151.237 122.334 151.272 122.401 151.327 122.447C151.382 122.493 151.454 122.516 151.526 122.509C151.598 122.503 151.665 122.469 151.711 122.414C151.758 122.359 151.781 122.288 151.774 122.216L151.685 121.163L152.316 120.421L152.447 121.972L151.847 122.461C151.822 122.482 151.803 122.509 151.793 122.54C151.783 122.571 151.783 122.604 151.791 122.636L152.045 123.563C152.053 123.59 152.067 123.615 152.087 123.635C152.106 123.656 152.131 123.671 152.157 123.68C152.184 123.688 152.213 123.69 152.24 123.684C152.267 123.679 152.293 123.666 152.314 123.648L153.062 123.046C153.087 123.025 153.107 122.998 153.117 122.967C153.127 122.936 153.127 122.902 153.118 122.871L152.931 122.189L152.95 122.17L153.975 120.953L154.059 121.929L153.366 122.717C153.319 122.773 153.296 122.845 153.303 122.918C153.307 122.971 153.328 123.022 153.361 123.064C153.395 123.106 153.44 123.137 153.492 123.153C153.543 123.169 153.598 123.17 153.65 123.155C153.702 123.14 153.748 123.111 153.783 123.07L154.113 122.675L154.168 123.305L152.78 124.949C152.733 125.004 152.71 125.075 152.716 125.147C152.722 125.219 152.756 125.286 152.811 125.333C152.867 125.379 152.938 125.401 153.01 125.395C153.082 125.389 153.149 125.356 153.196 125.301L154.233 124.071L154.27 124.528L153.671 125.602C153.655 125.631 153.649 125.664 153.652 125.697C153.655 125.73 153.667 125.761 153.687 125.787L154.622 126.937C154.638 126.959 154.66 126.975 154.686 126.986C154.711 126.997 154.738 127.001 154.765 126.998C154.793 126.996 154.82 126.987 154.843 126.973C154.866 126.958 154.885 126.937 154.898 126.913L155.617 125.615C155.633 125.586 155.641 125.553 155.638 125.52C155.635 125.487 155.623 125.455 155.602 125.429L154.82 124.457L154.782 124.016L156.008 125.058C156.034 125.086 156.066 125.109 156.102 125.124C156.138 125.139 156.176 125.146 156.215 125.145C156.253 125.144 156.292 125.135 156.326 125.118C156.361 125.102 156.392 125.078 156.417 125.048C156.442 125.019 156.46 124.984 156.471 124.947C156.481 124.91 156.484 124.871 156.478 124.833C156.472 124.795 156.458 124.759 156.437 124.727C156.416 124.694 156.388 124.667 156.355 124.646L154.711 123.259L154.659 122.628L155.048 122.962C155.089 122.996 155.14 123.018 155.193 123.023C155.247 123.029 155.301 123.019 155.349 122.994C155.397 122.969 155.436 122.931 155.462 122.884C155.488 122.837 155.499 122.784 155.494 122.73C155.492 122.694 155.482 122.66 155.466 122.628C155.449 122.596 155.426 122.568 155.399 122.545L154.588 121.86L154.506 120.885L155.714 121.905L155.64 122.632C155.636 122.664 155.643 122.697 155.658 122.726C155.672 122.755 155.695 122.779 155.724 122.795L156.553 123.266C156.578 123.279 156.606 123.286 156.634 123.286C156.662 123.286 156.689 123.279 156.714 123.266C156.739 123.253 156.76 123.234 156.776 123.211C156.791 123.187 156.801 123.161 156.804 123.133L156.901 122.185C156.904 122.152 156.898 122.12 156.883 122.091C156.868 122.062 156.845 122.038 156.817 122.022L156.174 121.651L156.041 120.078L156.789 120.71L156.878 121.767C156.879 121.805 156.887 121.842 156.902 121.876C156.917 121.91 156.94 121.941 156.967 121.966C156.995 121.991 157.028 122.01 157.064 122.022C157.099 122.034 157.137 122.039 157.175 122.036C157.212 122.032 157.248 122.021 157.282 122.004C157.315 121.986 157.344 121.961 157.367 121.932C157.39 121.902 157.406 121.868 157.416 121.832C157.425 121.796 157.426 121.758 157.42 121.721L157.377 121.205L157.859 121.614L158.046 123.758C158.049 123.793 158.058 123.828 158.074 123.86C158.091 123.892 158.113 123.92 158.14 123.943C158.168 123.966 158.199 123.984 158.233 123.994C158.268 124.005 158.304 124.009 158.339 124.006C158.411 124.002 158.478 123.97 158.526 123.917C158.574 123.865 158.6 123.796 158.597 123.724L158.461 122.124L158.812 122.419L159.148 123.606C159.158 123.638 159.176 123.666 159.202 123.688C159.227 123.709 159.259 123.722 159.292 123.726L160.76 123.884C160.788 123.887 160.815 123.884 160.841 123.874C160.866 123.864 160.889 123.847 160.906 123.826C160.924 123.805 160.936 123.78 160.942 123.754C160.948 123.727 160.947 123.699 160.94 123.672L160.536 122.252C160.527 122.219 160.509 122.191 160.483 122.169C160.457 122.148 160.426 122.134 160.392 122.131L159.158 121.998L158.814 121.708L160.417 121.573C160.489 121.567 160.556 121.532 160.603 121.477C160.65 121.421 160.673 121.35 160.667 121.278C160.661 121.206 160.626 121.139 160.57 121.092C160.515 121.046 160.443 121.023 160.37 121.029L158.225 121.215L157.743 120.807L158.257 120.764C158.329 120.757 158.396 120.723 158.442 120.668C158.488 120.613 158.511 120.542 158.505 120.47C158.499 120.399 158.465 120.332 158.41 120.286C158.356 120.239 158.284 120.215 158.212 120.221L157.155 120.31L156.408 119.679L157.945 119.549L158.425 120.139C158.446 120.164 158.474 120.182 158.505 120.192C158.536 120.202 158.569 120.203 158.601 120.195L159.52 119.94C159.547 119.933 159.572 119.919 159.592 119.899C159.612 119.88 159.628 119.856 159.636 119.829C159.645 119.802 159.646 119.774 159.641 119.746C159.636 119.719 159.624 119.693 159.606 119.671L159.002 118.929C158.982 118.904 158.954 118.885 158.923 118.875C158.892 118.865 158.858 118.865 158.827 118.874L158.154 119.059L156.916 118.026L157.895 117.945L158.704 118.629C158.76 118.674 158.831 118.695 158.903 118.689C158.974 118.682 159.041 118.649 159.088 118.596C159.135 118.54 159.158 118.469 159.152 118.397C159.145 118.325 159.111 118.258 159.055 118.212L158.661 117.88L159.29 117.826L160.936 119.213C160.992 119.26 161.063 119.282 161.135 119.276C161.208 119.269 161.274 119.235 161.321 119.18C161.367 119.125 161.39 119.054 161.384 118.982C161.377 118.91 161.343 118.844 161.287 118.798L160.058 117.761L160.512 117.722L161.594 118.327C161.623 118.343 161.656 118.35 161.69 118.347C161.723 118.344 161.755 118.331 161.78 118.31L162.931 117.382C162.952 117.365 162.969 117.343 162.98 117.318C162.99 117.292 162.995 117.265 162.993 117.238C162.991 117.211 162.983 117.186 162.969 117.163C162.955 117.14 162.937 117.121 162.914 117.106ZM153.617 116.75C153.561 116.767 153.507 116.788 153.454 116.811L153.353 116.859C153.297 116.891 153.243 116.927 153.192 116.967L152.531 116.411L152.404 114.927L153.544 115.887L153.617 116.75ZM153.372 119.161C153.423 119.189 153.476 119.214 153.531 119.236L153.645 119.273C153.706 119.29 153.768 119.303 153.831 119.312L153.904 120.161L152.942 121.302L152.815 119.818L153.372 119.161ZM154.027 118.776H153.936C153.781 118.763 153.634 118.704 153.514 118.607C153.5 118.597 153.487 118.586 153.476 118.573C153.363 118.473 153.283 118.341 153.247 118.195C153.238 118.151 153.232 118.106 153.23 118.061C153.213 117.881 153.263 117.701 153.37 117.555C153.434 117.465 153.518 117.39 153.615 117.335C153.712 117.28 153.819 117.247 153.93 117.238C154.003 117.231 154.077 117.234 154.149 117.247C154.273 117.271 154.39 117.326 154.487 117.407L154.508 117.423C154.603 117.506 154.676 117.611 154.719 117.729C154.74 117.789 154.754 117.852 154.762 117.915V117.946C154.776 118.113 154.734 118.279 154.644 118.419C154.62 118.454 154.593 118.488 154.566 118.52C154.441 118.66 154.268 118.749 154.08 118.768C154.063 118.773 154.045 118.776 154.027 118.777V118.776ZM154.616 116.841C154.563 116.814 154.509 116.79 154.453 116.769L154.353 116.737H154.325L154.242 116.717L154.158 116.705L154.085 115.845L155.048 114.7L155.173 116.184L154.616 116.841ZM154.375 119.267C154.432 119.25 154.487 119.229 154.541 119.204L154.65 119.148C154.705 119.117 154.758 119.081 154.808 119.043L155.46 119.599L155.586 121.083L154.448 120.124L154.375 119.267ZM155.255 117.622C155.255 117.596 155.24 117.57 155.231 117.546C155.223 117.525 155.214 117.504 155.204 117.485L155.141 117.353C155.109 117.297 155.074 117.244 155.034 117.193L155.595 116.537L157.089 116.411L156.129 117.549L155.255 117.622ZM152.178 116.824L152.839 117.381C152.812 117.432 152.788 117.486 152.766 117.54L152.731 117.65C152.712 117.71 152.699 117.772 152.692 117.835L151.834 117.907L150.693 116.947L152.178 116.824ZM151.872 118.455L152.727 118.38C152.745 118.437 152.766 118.493 152.791 118.547L152.843 118.649C152.875 118.706 152.911 118.76 152.951 118.811L152.391 119.466L150.896 119.592L151.872 118.455ZM155.808 119.18L155.152 118.623C155.18 118.571 155.204 118.516 155.225 118.46L155.259 118.349C155.276 118.288 155.288 118.226 155.296 118.163L156.152 118.091L157.291 119.054L155.808 119.18Z" fill="white"/>
<path d="M17.9145 48.1061L16.6255 47.3864C16.5961 47.3707 16.5628 47.3639 16.5295 47.3669C16.4963 47.3698 16.4647 47.3824 16.4387 47.4031L15.4653 48.1803L15.0114 48.2193L16.0482 46.9895C16.0739 46.962 16.0936 46.9295 16.1058 46.894C16.118 46.8585 16.1226 46.8209 16.1192 46.7836C16.1152 46.7302 16.0952 46.6791 16.0618 46.6371C16.0284 46.595 15.9831 46.5638 15.9317 46.5475C15.8803 46.5311 15.8252 46.5304 15.7734 46.5454C15.7216 46.5603 15.6755 46.5903 15.6409 46.6315L14.2529 48.2749L13.6214 48.3287L13.9558 47.9336C14.0026 47.8784 14.0255 47.807 14.0194 47.7351C14.0148 47.6818 13.9945 47.6309 13.9609 47.589C13.9272 47.5472 13.8819 47.5161 13.8305 47.4998C13.7791 47.4836 13.724 47.4828 13.6721 47.4976C13.6203 47.5124 13.5741 47.5421 13.5392 47.583L12.8499 48.401L11.8747 48.4845L12.9003 47.2696L13.6028 47.3419C13.6352 47.3444 13.6677 47.3377 13.6965 47.3226C13.7253 47.3075 13.7491 47.2846 13.7653 47.2566L14.2361 46.4274C14.249 46.4028 14.2558 46.3754 14.2558 46.3477C14.2558 46.3199 14.249 46.2925 14.2361 46.2679C14.2234 46.2429 14.2046 46.2215 14.1814 46.2057C14.1583 46.1898 14.1314 46.1799 14.1034 46.177L13.1544 46.0806C13.1219 46.078 13.0894 46.0847 13.0607 46.0998C13.0319 46.1149 13.008 46.1378 12.9919 46.1659L12.6182 46.8188L11.0732 46.9505L11.7047 46.2085L12.7621 46.1195C12.8343 46.1129 12.901 46.0782 12.9476 46.0229C12.9941 45.9677 13.0168 45.8964 13.0105 45.8246C13.0079 45.7891 12.9983 45.7544 12.9821 45.7226C12.9659 45.6908 12.9435 45.6626 12.9162 45.6394C12.8889 45.6163 12.8573 45.5988 12.8231 45.5879C12.789 45.577 12.753 45.573 12.7172 45.576L12.2016 45.6205L12.6107 45.1364L14.7536 44.9509C14.7893 44.9479 14.824 44.9379 14.8558 44.9215C14.8876 44.9052 14.9159 44.8827 14.939 44.8555C14.962 44.8283 14.9795 44.7968 14.9903 44.7629C15.0011 44.729 15.0051 44.6933 15.002 44.6578C14.9977 44.587 14.9655 44.5207 14.9124 44.4731C14.8593 44.4256 14.7895 44.4007 14.7181 44.4037L13.1152 44.5391L13.4103 44.196L14.6078 43.8565C14.64 43.8472 14.6687 43.8287 14.6903 43.8033C14.7119 43.7779 14.7255 43.7467 14.7293 43.7137L14.8881 42.2446C14.8907 42.2172 14.8867 42.1896 14.8763 42.1641C14.8659 42.1385 14.8494 42.1159 14.8283 42.0981C14.8073 42.0808 14.7824 42.0688 14.7557 42.063C14.7291 42.0572 14.7015 42.0578 14.6751 42.0647L13.2553 42.4691C13.2229 42.4779 13.1939 42.4963 13.1722 42.5218C13.1506 42.5473 13.1372 42.5787 13.1338 42.6119L13.0012 43.838L12.7023 44.1867L12.5659 42.5841C12.5635 42.5483 12.5541 42.5134 12.538 42.4813C12.5219 42.4492 12.4996 42.4206 12.4723 42.3971C12.445 42.3736 12.4133 42.3558 12.3791 42.3446C12.3448 42.3334 12.3086 42.329 12.2726 42.3318C12.2003 42.3384 12.1337 42.3731 12.0871 42.4284C12.0405 42.4836 12.0179 42.5549 12.0241 42.6267L12.211 44.771L11.8018 45.2533L11.7532 44.7432C11.7475 44.6716 11.7134 44.6052 11.6584 44.5586C11.6034 44.512 11.532 44.489 11.4599 44.4946C11.3877 44.5012 11.321 44.5359 11.2744 44.5912C11.2279 44.6465 11.2052 44.7178 11.2115 44.7895L11.3011 45.8468L10.6697 46.5888L10.5371 45.0325L11.0975 44.567C11.1233 44.5463 11.1424 44.5186 11.1523 44.4873C11.1623 44.4559 11.1627 44.4223 11.1536 44.3907L10.8995 43.4726C10.8922 43.4458 10.8783 43.4213 10.859 43.4012C10.8398 43.3811 10.8158 43.3661 10.7893 43.3576C10.7623 43.3494 10.7338 43.3478 10.7062 43.353C10.6785 43.3581 10.6525 43.3699 10.6305 43.3872L9.89253 43.9901C9.86729 44.0107 9.84858 44.0381 9.83864 44.0691C9.8287 44.1 9.82795 44.1331 9.83648 44.1644L10.0233 44.8637L9.02009 46.0731L8.93789 45.0956L9.62164 44.285C9.64507 44.2578 9.66278 44.2263 9.67369 44.1922C9.6846 44.1581 9.6885 44.1222 9.68516 44.0865C9.6826 44.0509 9.67284 44.0161 9.65647 43.9842C9.64011 43.9523 9.61746 43.9241 9.58988 43.901C9.5353 43.8577 9.46594 43.8369 9.3963 43.8431C9.32666 43.8494 9.26215 43.8821 9.21624 43.9344L8.88184 44.3277L8.82953 43.6989L10.2176 42.0536C10.2642 41.9983 10.287 41.927 10.2811 41.8551C10.2741 41.7831 10.2392 41.7167 10.184 41.6696C10.1294 41.6262 10.06 41.6055 9.99038 41.6117C9.92075 41.6179 9.85623 41.6506 9.81033 41.703L8.77349 42.9309L8.73612 42.4895L9.3246 41.4043C9.34069 41.3754 9.34785 41.3423 9.3452 41.3094C9.34254 41.2764 9.33018 41.2449 9.30965 41.2189L8.37556 40.0688C8.35871 40.0474 8.33669 40.0306 8.31155 40.0199C8.2864 40.0092 8.25895 40.005 8.23172 40.0076C8.20408 40.0093 8.17733 40.018 8.15409 40.033C8.13085 40.0479 8.1119 40.0686 8.09907 40.0929L7.37981 41.3914C7.36372 41.4203 7.35656 41.4534 7.35922 41.4863C7.36188 41.5193 7.37424 41.5508 7.39476 41.5769L8.1794 42.5173L8.21864 42.9736L6.98937 41.9367C6.93426 41.8907 6.86308 41.8682 6.79134 41.8741C6.7196 41.88 6.65312 41.9139 6.60639 41.9682C6.55949 42.0241 6.53667 42.0961 6.54287 42.1686C6.54543 42.2042 6.55519 42.239 6.57156 42.2709C6.58792 42.3028 6.61057 42.331 6.63815 42.3541L8.28215 43.7415L8.33634 44.3722L7.94214 44.0383C7.91468 44.0154 7.88295 43.998 7.84873 43.9873C7.81451 43.9765 7.77849 43.9726 7.74274 43.9757C7.70699 43.9788 7.6722 43.9889 7.64038 44.0054C7.60856 44.0218 7.58032 44.0444 7.55729 44.0717C7.5341 44.099 7.51669 44.1306 7.50609 44.1647C7.4955 44.1988 7.49195 44.2347 7.49565 44.2702C7.49821 44.3059 7.50796 44.3407 7.52433 44.3725C7.54069 44.4044 7.56334 44.4327 7.59092 44.4557L8.40172 45.1401L8.48392 46.1139L7.26399 45.0919L7.24531 45.0752L7.31256 44.3722C7.31612 44.3398 7.31005 44.3071 7.29511 44.2781C7.28018 44.2491 7.25701 44.2251 7.22849 44.209L6.39901 43.7397C6.37447 43.726 6.34681 43.7189 6.31868 43.7189C6.29055 43.7189 6.26289 43.726 6.23835 43.7397C6.21356 43.7525 6.19238 43.7712 6.17672 43.7942C6.16106 43.8172 6.15142 43.8437 6.14868 43.8714L6.0534 44.8211C6.04985 44.8535 6.05591 44.8862 6.07085 44.9152C6.08579 44.9442 6.10895 44.9682 6.13747 44.9843L6.81189 45.3664L6.94266 46.9097L6.19539 46.2772L6.10572 45.2199C6.10308 45.1842 6.09335 45.1494 6.0771 45.1175C6.06084 45.0856 6.03837 45.0572 6.011 45.0339C5.98362 45.0107 5.95187 44.993 5.91759 44.982C5.88331 44.971 5.84717 44.9669 5.81127 44.9698C5.77536 44.9727 5.7404 44.9827 5.7084 44.9991C5.67639 45.0156 5.648 45.0381 5.62483 45.0655C5.60166 45.0929 5.58418 45.1246 5.57341 45.1587C5.56264 45.1929 5.55878 45.2288 5.56207 45.2644L5.6069 45.7801L5.12305 45.372L4.93623 43.2277C4.93004 43.156 4.89553 43.0896 4.84023 43.043C4.78493 42.9965 4.71334 42.9735 4.64105 42.9792C4.60534 42.9824 4.57063 42.9926 4.53891 43.0092C4.50718 43.0258 4.47906 43.0485 4.45616 43.0759C4.43326 43.1032 4.41602 43.1349 4.40543 43.1689C4.39484 43.2029 4.39111 43.2386 4.39445 43.2741L4.52896 44.8749L4.19268 44.5911L3.85268 43.3928C3.84333 43.3609 3.82468 43.3324 3.79909 43.3109C3.7735 43.2895 3.7421 43.276 3.70883 43.2722L2.24043 43.1146C2.21322 43.111 2.18553 43.1144 2.16002 43.1245C2.13451 43.1345 2.11203 43.1509 2.09471 43.1721C2.07706 43.1932 2.06478 43.2182 2.05893 43.245C2.05307 43.2718 2.05382 43.2996 2.06108 43.326L2.46835 44.7432C2.47747 44.7752 2.49605 44.8038 2.52169 44.8253C2.54732 44.8468 2.57885 44.8602 2.6122 44.8637L3.83773 44.9973L4.18147 45.2996L2.57484 45.4313C2.5025 45.4372 2.43548 45.4714 2.38853 45.5264C2.34158 45.5814 2.31855 45.6526 2.32449 45.7244C2.33044 45.7962 2.36488 45.8628 2.42024 45.9094C2.4756 45.956 2.54733 45.9789 2.61967 45.973L4.76435 45.7875L5.24821 46.1956L4.73259 46.2401C4.66448 46.2513 4.60314 46.2877 4.56079 46.3418C4.51844 46.396 4.49819 46.464 4.50408 46.5323C4.50997 46.6006 4.54158 46.6642 4.59258 46.7104C4.64358 46.7567 4.71024 46.7821 4.7793 46.7817L5.8367 46.6927L6.58397 47.3233L5.00909 47.4569L4.53456 46.8763C4.51408 46.8509 4.48648 46.832 4.45524 46.8221C4.42399 46.8122 4.39049 46.8117 4.35895 46.8207L3.43981 47.0748C3.41405 47.0836 3.39076 47.0984 3.37188 47.1179C3.353 47.1374 3.33907 47.1611 3.33122 47.187C3.32337 47.2129 3.32184 47.2403 3.32675 47.2669C3.33167 47.2935 3.34288 47.3186 3.35948 47.34L3.9629 48.082C3.98368 48.1071 4.01131 48.1256 4.04245 48.1355C4.0736 48.1454 4.10695 48.1461 4.13851 48.1377L4.84469 47.941L6.06087 48.9668L5.08381 49.0503L4.27302 48.3658C4.21849 48.3226 4.14937 48.3018 4.07988 48.3077C4.01038 48.3136 3.9458 48.3456 3.89939 48.3973C3.85285 48.4527 3.83009 48.5239 3.83603 48.5958C3.84198 48.6676 3.87614 48.7343 3.93114 48.7813L4.3272 49.1152L3.69575 49.1764L2.05174 47.7889C1.99716 47.7455 1.9278 47.7248 1.85816 47.731C1.78853 47.7372 1.72401 47.77 1.67811 47.8223C1.6315 47.8776 1.60868 47.9489 1.61458 48.0208C1.61694 48.0565 1.62659 48.0914 1.64298 48.1233C1.65936 48.1552 1.68212 48.1834 1.70986 48.2063L2.93913 49.2432L2.4945 49.2821L1.41283 48.6774C1.38361 48.6612 1.35015 48.6541 1.31682 48.6571C1.28349 48.6601 1.25184 48.673 1.22601 48.6941L0.077068 49.6216C0.0554084 49.6387 0.038298 49.6609 0.0272275 49.6861C0.0161571 49.7113 0.0114571 49.7388 0.0135445 49.7663C0.0162246 49.7937 0.0254143 49.8201 0.0403518 49.8433C0.0552894 49.8665 0.0755538 49.8859 0.0994853 49.8998L1.38854 50.6195C1.4179 50.6352 1.45125 50.642 1.48447 50.6391C1.51769 50.6361 1.5493 50.6235 1.57536 50.6028L2.54121 49.8256L2.98397 49.7885L1.94713 51.0165C1.92394 51.0436 1.90637 51.0751 1.89542 51.109C1.88447 51.1429 1.88035 51.1786 1.8833 51.2141C1.88624 51.2495 1.89621 51.2841 1.91261 51.3158C1.92901 51.3474 1.95153 51.3756 1.97888 51.3986C2.00624 51.4216 2.0379 51.439 2.07204 51.4499C2.10619 51.4608 2.14214 51.4649 2.17788 51.4619C2.21362 51.459 2.24842 51.4491 2.28031 51.4328C2.3122 51.4166 2.34055 51.3942 2.36373 51.367L3.75179 49.7236L4.38137 49.6698L4.04884 50.0649C4.01387 50.0878 3.98467 50.1183 3.9635 50.1542C3.94234 50.1901 3.92977 50.2303 3.92679 50.2718C3.9238 50.3132 3.93048 50.3548 3.94628 50.3933C3.96209 50.4318 3.98661 50.4662 4.01795 50.4937C4.04929 50.5213 4.08659 50.5414 4.12698 50.5523C4.16737 50.5633 4.20975 50.5648 4.25086 50.5569C4.29196 50.549 4.33068 50.5318 4.364 50.5066C4.39733 50.4814 4.42436 50.449 4.44302 50.4118L5.12865 49.6012L6.10198 49.5196L5.07821 50.7327L5.067 50.7475L4.35335 50.6789C4.32074 50.6753 4.28779 50.6814 4.25858 50.6962C4.22936 50.711 4.20516 50.734 4.18895 50.7623L3.72004 51.5915C3.70663 51.6163 3.69961 51.644 3.69961 51.6722C3.69961 51.7003 3.70663 51.7281 3.72004 51.7529C3.73295 51.7775 3.75184 51.7985 3.775 51.8141C3.79816 51.8296 3.82486 51.8392 3.85268 51.8419L4.80171 51.9384C4.83403 51.9415 4.86658 51.9353 4.89542 51.9205C4.92426 51.9057 4.94816 51.8829 4.96424 51.8549L5.33788 51.1908L6.90904 51.0591L6.27572 51.8011L5.21833 51.892C5.15021 51.9032 5.08887 51.9396 5.04653 51.9937C5.00418 52.0479 4.98393 52.1159 4.98982 52.1842C4.99571 52.2525 5.0273 52.3161 5.0783 52.3623C5.12931 52.4086 5.19598 52.434 5.26503 52.4336L5.77878 52.391L5.37712 52.8751L3.23244 53.0606C3.16433 53.0718 3.10299 53.1082 3.06064 53.1623C3.01829 53.2165 2.99804 53.2845 3.00393 53.3528C3.00983 53.4211 3.04142 53.4847 3.09242 53.5309C3.14342 53.5772 3.21009 53.6026 3.27915 53.6022L4.87271 53.4612L4.58127 53.8081L3.39684 54.1438C3.36456 54.1529 3.33575 54.1713 3.31411 54.1968C3.29247 54.2222 3.27899 54.2535 3.27541 54.2867L3.11661 55.7557C3.11237 55.7835 3.11521 55.8118 3.12488 55.8381C3.13455 55.8644 3.15073 55.8879 3.17195 55.9064C3.19317 55.9249 3.21873 55.9377 3.24627 55.9438C3.27382 55.9499 3.30247 55.949 3.32958 55.9412L4.74941 55.5369C4.78182 55.528 4.81077 55.5097 4.83244 55.4842C4.85412 55.4587 4.8675 55.4272 4.87084 55.394L5.00535 54.1568L5.28932 53.8192L5.42569 55.42C5.42828 55.4555 5.43795 55.4902 5.45414 55.522C5.47033 55.5538 5.49273 55.582 5.52001 55.6052C5.5473 55.6283 5.57895 55.6458 5.61311 55.6567C5.64726 55.6676 5.68326 55.6716 5.719 55.6686C5.79126 55.662 5.85794 55.6272 5.9045 55.572C5.95105 55.5167 5.97369 55.4454 5.96746 55.3736L5.78064 53.2294L6.18792 52.7471L6.23088 53.2628C6.23708 53.3343 6.27165 53.4005 6.32701 53.4468C6.38236 53.4931 6.45397 53.5156 6.52606 53.5095C6.59815 53.5033 6.66482 53.469 6.71142 53.414C6.75802 53.3591 6.78071 53.288 6.77452 53.2164L6.68485 52.1628L7.3163 51.4208L7.44708 52.9715L6.84738 53.4612C6.82195 53.4817 6.80311 53.5091 6.79315 53.5401C6.7832 53.5711 6.78257 53.6043 6.79134 53.6356L7.04541 54.563C7.05293 54.5902 7.06711 54.6151 7.08666 54.6355C7.10622 54.6559 7.13056 54.6711 7.15751 54.6799C7.18422 54.6882 7.21261 54.6896 7.24004 54.6841C7.26747 54.6786 7.29306 54.6663 7.31443 54.6484L8.06171 54.0455C8.08753 54.0254 8.10666 53.998 8.11665 53.9669C8.12664 53.9358 8.12703 53.9025 8.11775 53.8712L7.93093 53.1886L7.94962 53.17L8.97525 51.9532L9.05932 52.9289L8.36622 53.7172C8.31932 53.7731 8.2965 53.8451 8.3027 53.9175C8.30722 53.9709 8.32758 54.0217 8.3612 54.0636C8.39482 54.1055 8.4402 54.1366 8.49159 54.1528C8.54298 54.1691 8.59808 54.1699 8.64992 54.1551C8.70176 54.1403 8.74801 54.1105 8.78282 54.0696L9.1135 53.6745L9.16767 54.3052L7.77961 55.9487C7.73307 56.004 7.71032 56.0753 7.71627 56.1471C7.72221 56.2189 7.75637 56.2856 7.81137 56.3326C7.86679 56.3787 7.93827 56.4013 8.01031 56.3954C8.08236 56.3895 8.14917 56.3556 8.19622 56.3011L9.23306 55.0713L9.27043 55.5276L8.67074 56.6016C8.65537 56.6309 8.64878 56.6639 8.65176 56.6968C8.65474 56.7297 8.66716 56.761 8.68754 56.7871L9.62164 57.9371C9.63849 57.9585 9.66052 57.9753 9.68566 57.986C9.71081 57.9967 9.73826 58.001 9.76549 57.9983C9.79304 57.9963 9.81964 57.9874 9.84282 57.9725C9.86601 57.9576 9.88503 57.9371 9.89814 57.913L10.6174 56.6146C10.6335 56.5856 10.6406 56.5526 10.638 56.5196C10.6353 56.4866 10.623 56.4551 10.6024 56.4291L9.81968 55.4571L9.78231 55.0156L11.0078 56.0581C11.0341 56.0864 11.0662 56.1087 11.1019 56.1237C11.1376 56.1387 11.1761 56.146 11.2148 56.1451C11.2535 56.1442 11.2916 56.1351 11.3266 56.1184C11.3615 56.1017 11.3924 56.0778 11.4173 56.0483C11.4422 56.0188 11.4604 55.9844 11.4709 55.9473C11.4813 55.9103 11.4837 55.8714 11.4778 55.8334C11.472 55.7954 11.458 55.759 11.4369 55.7267C11.4158 55.6945 11.388 55.6671 11.3553 55.6463L9.71132 54.2588L9.659 53.6282L10.0476 53.9621C10.089 53.9964 10.1397 54.0177 10.1933 54.0234C10.2469 54.0292 10.301 54.019 10.3488 53.9941C10.3966 53.9693 10.4359 53.931 10.4618 53.884C10.4876 53.8371 10.4989 53.7835 10.4941 53.7302C10.4917 53.6945 10.4821 53.6596 10.4657 53.6277C10.4493 53.5958 10.4266 53.5676 10.3988 53.5447L9.58801 52.8602L9.50581 51.8846L10.7145 52.9048L10.6398 53.6319C10.6365 53.6642 10.6427 53.6969 10.6576 53.7258C10.6725 53.7548 10.6955 53.7788 10.7239 53.7951L11.5534 54.2663C11.5782 54.2791 11.6057 54.2858 11.6337 54.2858C11.6617 54.2858 11.6892 54.2791 11.714 54.2663C11.7388 54.253 11.76 54.2339 11.7757 54.2106C11.7913 54.1873 11.8009 54.1606 11.8037 54.1327L11.9008 53.1848C11.9041 53.1525 11.898 53.1199 11.8831 53.0909C11.8682 53.062 11.8451 53.0379 11.8168 53.0216L11.1741 52.6506L11.0415 51.0777L11.7887 51.7102L11.8784 52.7675C11.8787 52.8049 11.8867 52.8418 11.902 52.8759C11.9173 52.9101 11.9396 52.9407 11.9674 52.9659C11.9952 52.9911 12.028 53.0103 12.0637 53.0223C12.0993 53.0343 12.1371 53.0388 12.1746 53.0356C12.2121 53.0324 12.2485 53.0215 12.2816 53.0036C12.3147 52.9857 12.3436 52.9613 12.3667 52.9317C12.3898 52.9022 12.4064 52.8682 12.4156 52.832C12.4248 52.7957 12.4264 52.758 12.4202 52.7211L12.3772 52.2055L12.8592 52.6135L13.046 54.7578C13.0486 54.7933 13.0583 54.828 13.0745 54.8598C13.0907 54.8916 13.1131 54.9198 13.1404 54.943C13.1676 54.9661 13.1993 54.9836 13.2334 54.9945C13.2676 55.0054 13.3036 55.0094 13.3393 55.0064C13.4109 55.0021 13.4779 54.9702 13.526 54.9175C13.5742 54.8648 13.5997 54.7955 13.5971 54.7244L13.4608 53.1236L13.812 53.4186L14.1483 54.6057C14.1576 54.6376 14.1763 54.6661 14.2018 54.6876C14.2274 54.709 14.2588 54.7225 14.2921 54.7263L15.7605 54.8839C15.7877 54.8872 15.8153 54.8836 15.8407 54.8736C15.8662 54.8635 15.8887 54.8473 15.9062 54.8264C15.9239 54.8053 15.9362 54.7803 15.942 54.7535C15.9479 54.7267 15.9471 54.6989 15.9399 54.6725L15.5363 53.2516C15.5274 53.2194 15.5089 53.1907 15.4832 53.1692C15.4576 53.1477 15.4259 53.1344 15.3925 53.1311L14.1576 52.9975L13.8139 52.7081L15.4168 52.5727C15.4894 52.5666 15.5565 52.5321 15.6035 52.4767C15.6504 52.4214 15.6733 52.3499 15.6671 52.2778C15.6609 52.2057 15.6261 52.1391 15.5704 52.0924C15.5147 52.0458 15.4426 52.0231 15.3701 52.0292L13.2254 52.2147L12.7434 51.8067L13.2571 51.764C13.3291 51.7573 13.3956 51.7227 13.442 51.6677C13.4885 51.6128 13.5112 51.5418 13.5053 51.4702C13.4994 51.3987 13.4654 51.3323 13.4105 51.2856C13.3556 51.2388 13.2844 51.2155 13.2123 51.2205L12.1549 51.3095L11.4076 50.6789L12.9452 50.549L13.4253 51.1389C13.4463 51.1636 13.474 51.1819 13.505 51.1917C13.5361 51.2016 13.5693 51.2025 13.6009 51.1945L14.52 50.9404C14.5472 50.9328 14.572 50.9187 14.5922 50.8992C14.6125 50.8798 14.6276 50.8556 14.6361 50.829C14.6446 50.8023 14.6463 50.7739 14.6411 50.7464C14.6358 50.7189 14.6238 50.6932 14.606 50.6715L14.0025 49.9295C13.9821 49.904 13.9545 49.8852 13.9232 49.8753C13.892 49.8654 13.8585 49.8649 13.8269 49.8738L13.1544 50.0593L11.9158 49.0262L12.8947 48.9445L13.7036 49.629C13.7599 49.6735 13.8311 49.6949 13.9028 49.6887C13.9744 49.6825 14.0409 49.6491 14.0885 49.5956C14.1353 49.5402 14.158 49.4687 14.1517 49.3967C14.1454 49.3247 14.1106 49.2582 14.0549 49.2116L13.6607 48.8796L14.2903 48.8258L15.9361 50.2133C15.9916 50.2595 16.0633 50.282 16.1355 50.2757C16.2077 50.2695 16.2744 50.235 16.321 50.1799C16.3675 50.1248 16.3902 50.0536 16.3839 49.9819C16.3776 49.9103 16.3428 49.844 16.2873 49.7978L15.0581 48.7609L15.512 48.7219L16.5937 49.3266C16.6229 49.3429 16.6564 49.3499 16.6897 49.347C16.7231 49.344 16.7547 49.3311 16.7805 49.31L17.9314 48.3825C17.9524 48.365 17.969 48.3427 17.9797 48.3175C17.9904 48.2924 17.995 48.2651 17.993 48.2378C17.9909 48.2114 17.9827 48.1858 17.9691 48.163C17.9555 48.1401 17.9368 48.1207 17.9145 48.1061ZM8.61656 47.75C8.5612 47.7671 8.50691 47.7876 8.45402 47.8112L8.35314 47.8594C8.29664 47.8907 8.2429 47.9267 8.19248 47.967L7.53115 47.4105L7.4041 45.9266L8.5437 46.8874L8.61656 47.75ZM8.37183 50.1614C8.42312 50.1894 8.47616 50.2142 8.53062 50.2355L8.64458 50.2726C8.7059 50.2898 8.76832 50.3028 8.8314 50.3116L8.90426 51.1611L7.94214 52.3019L7.8151 50.818L8.37183 50.1614ZM9.02756 49.7755H8.93602C8.78125 49.7633 8.63394 49.7044 8.5138 49.6067C8.49989 49.5973 8.48733 49.5861 8.47645 49.5733C8.36293 49.4733 8.28277 49.3413 8.24665 49.1949C8.23816 49.1508 8.23255 49.1062 8.22985 49.0614C8.21281 48.8813 8.26264 48.7012 8.36996 48.555C8.43443 48.4648 8.518 48.3896 8.61482 48.3348C8.71164 48.28 8.81936 48.2469 8.93042 48.2378C9.00336 48.2308 9.07692 48.2339 9.14899 48.2471C9.27351 48.2709 9.38988 48.3258 9.48713 48.4066L9.50768 48.4233C9.60301 48.5059 9.67565 48.6112 9.71879 48.7294C9.74009 48.7894 9.7545 48.8516 9.76175 48.9149V48.9464C9.77569 49.1126 9.73435 49.2788 9.64407 49.4194C9.61968 49.4541 9.59348 49.4875 9.56559 49.5196C9.4411 49.6603 9.26758 49.7491 9.07987 49.7681C9.06275 49.7727 9.04523 49.7758 9.02756 49.7774V49.7755ZM9.61604 47.8409C9.56322 47.8138 9.50897 47.7897 9.45351 47.7685L9.35263 47.737H9.3246L9.2424 47.7166L9.15833 47.7055L9.08547 46.8448L10.0476 45.7003L10.1728 47.1842L9.61604 47.8409ZM9.37505 50.2671C9.43195 50.2501 9.48752 50.2291 9.54131 50.204L9.64967 50.1484C9.70485 50.1166 9.75789 50.0813 9.80846 50.0426L10.4605 50.5991L10.5856 52.083L9.4479 51.124L9.37505 50.2671ZM10.255 48.6218C10.255 48.5958 10.24 48.5698 10.2307 48.5457C10.2231 48.5249 10.2144 48.5044 10.2045 48.4845L10.141 48.3528C10.1094 48.2972 10.0738 48.2438 10.0345 48.1933L10.595 47.5367L12.0895 47.4105L11.1293 48.5494L10.255 48.6218ZM7.17806 47.8242L7.83939 48.3806C7.81217 48.4324 7.78784 48.4857 7.76653 48.5402L7.73103 48.6496C7.71246 48.7102 7.69933 48.7722 7.69181 48.8351L6.8343 48.9074L5.69284 47.9466L7.17806 47.8242ZM6.87167 49.4546L7.7273 49.3804C7.74508 49.4373 7.76629 49.493 7.79082 49.5474L7.84313 49.6494C7.8751 49.7058 7.91133 49.7598 7.95149 49.8108L7.39103 50.4656L5.89648 50.5917L6.87167 49.4546ZM10.8079 50.1799L10.1522 49.6234C10.1798 49.5705 10.2041 49.516 10.2251 49.4602L10.2587 49.3489C10.2757 49.2881 10.2882 49.2261 10.2961 49.1634L11.1517 49.0911L12.2913 50.0538L10.8079 50.1799Z" fill="white"/>
</svg>
