<svg width="250" height="276" viewBox="0 0 250 276" fill="none" xmlns="http://www.w3.org/2000/svg">
<rect y="13" width="250" height="250" rx="20" fill="#D4EDFD"/>
<path d="M225 13L225 11.9532C217.423 6.39503 203.781 2.68667 188.211 2.68667C182.301 2.68667 176.669 3.22104 171.54 4.18811C164.186 1.56606 154.882 3.40684e-06 144.764 2.52231e-06C132.105 1.41558e-06 120.72 2.45174 112.833 6.35608C107.467 5.2789 101.521 4.67999 95.2643 4.67999C90.8945 4.67999 86.6766 4.9721 82.702 5.51523C76.8914 4.2045 70.3301 3.46666 63.3852 3.46666C48.0883 3.46666 34.6522 7.04631 27 12.4429L27 13L225 13Z" fill="#D4EDFD"/>
<path d="M225 263L225 264.047C217.423 269.605 203.781 273.313 188.211 273.313C182.301 273.313 176.669 272.779 171.54 271.812C164.186 274.434 154.882 276 144.764 276C132.105 276 120.72 273.548 112.833 269.644C107.467 270.721 101.521 271.32 95.2643 271.32C90.8945 271.32 86.6766 271.028 82.702 270.485C76.8914 271.795 70.3301 272.533 63.3852 272.533C48.0883 272.533 34.6522 268.954 27 263.557L27 263L225 263Z" fill="#D4EDFD"/>
</svg>
