<svg width="650" height="44" viewBox="0 0 650 44" fill="none" xmlns="http://www.w3.org/2000/svg">
<path d="M650 44L650 40.4569C625.124 21.6447 580.341 9.09337 529.229 9.09337C509.827 9.09336 491.336 10.902 474.501 14.1752C450.357 5.30053 419.815 3.7097e-05 386.6 3.41933e-05C345.041 3.05601e-05 307.665 8.29821 281.774 21.5129C264.159 17.8671 244.64 15.84 224.1 15.84C209.755 15.84 195.908 16.8287 182.86 18.667C163.785 14.2306 142.245 11.7333 119.446 11.7333C69.2293 11.7333 25.1209 23.8491 1.64825e-07 42.1146L0 43.9999L650 44Z" fill="#D4EDFD"/>
</svg>
