<svg width="650" height="44" viewBox="0 0 650 44" fill="none" xmlns="http://www.w3.org/2000/svg">
<path d="M650 0L650 3.54314C625.124 22.3553 580.341 34.9066 529.229 34.9066C509.827 34.9066 491.336 33.098 474.501 29.8248C450.357 38.6995 419.815 44 386.6 44C345.041 44 307.665 35.7018 281.774 22.4871C264.159 26.1329 244.64 28.16 224.1 28.16C209.755 28.16 195.908 27.1713 182.86 25.333C163.785 29.7694 142.245 32.2667 119.446 32.2667C69.2293 32.2667 25.1209 20.1509 1.64825e-07 1.88543L0 5.68248e-05L650 0Z" fill="#D4EDFD"/>
</svg>
