<svg width="22" height="22" viewBox="0 0 22 22" fill="none" xmlns="http://www.w3.org/2000/svg">
<g clip-path="url(#clip0_1071_608)">
<path d="M21.9486 10.7935L20.4496 9.78907C20.4153 9.76702 20.3754 9.75543 20.3346 9.75576C20.2939 9.75609 20.2541 9.76831 20.2203 9.79092L18.9576 10.6413L18.4008 10.6438L19.7856 9.24835C19.8197 9.21746 19.8468 9.17979 19.8652 9.13778C19.8836 9.09578 19.8929 9.05039 19.8925 9.00456C19.8929 8.93909 19.8736 8.87497 19.837 8.82043C19.8005 8.76588 19.7484 8.72339 19.6874 8.69839C19.6265 8.6734 19.5594 8.66705 19.4948 8.68015C19.4302 8.69325 19.3711 8.7252 19.3249 8.77191L17.4713 10.6365L16.6967 10.6395L17.1432 10.1913C17.2057 10.1287 17.2406 10.044 17.2402 9.95586C17.24 9.89039 17.2202 9.82644 17.1834 9.77209C17.1466 9.71774 17.0944 9.67543 17.0334 9.65051C16.9724 9.62558 16.9054 9.61917 16.8408 9.63208C16.7762 9.64499 16.7169 9.67664 16.6704 9.72303L15.7496 10.6513L14.5534 10.6564L15.9231 9.27788L16.7717 9.43556C16.8109 9.44184 16.8512 9.43691 16.8877 9.42136C16.9243 9.40581 16.9556 9.38027 16.9781 9.34771L17.6337 8.38425C17.6519 8.35554 17.6628 8.32287 17.6656 8.28904C17.6683 8.25521 17.6628 8.2212 17.6495 8.18992C17.6365 8.15825 17.6158 8.13032 17.5891 8.10868C17.5624 8.08704 17.5307 8.07239 17.4969 8.06607L16.3503 7.8546C16.3111 7.84832 16.2708 7.85324 16.2342 7.8688C16.1977 7.88435 16.1664 7.90989 16.1439 7.94245L15.6241 8.70086L13.7289 8.70832L14.5716 7.86698L15.8686 7.86321C15.9572 7.86233 16.0419 7.82663 16.1041 7.76392C16.1663 7.70121 16.2009 7.61658 16.2004 7.52852C16.2008 7.48499 16.1925 7.44181 16.1759 7.40148C16.1593 7.36116 16.1348 7.3245 16.1039 7.29363C16.0729 7.26276 16.0361 7.23829 15.9956 7.22165C15.955 7.20501 15.9116 7.19652 15.8677 7.19669L15.2352 7.19987L15.7815 6.65061L18.4103 6.63681C18.4541 6.63664 18.4974 6.62791 18.5378 6.61112C18.5782 6.59432 18.6148 6.56978 18.6456 6.53891C18.6764 6.50804 18.7008 6.47144 18.7173 6.4312C18.7338 6.39096 18.7422 6.34786 18.742 6.30438C18.7437 6.21763 18.7111 6.13364 18.6511 6.07048C18.5911 6.00732 18.5086 5.97005 18.4212 5.96669L16.4552 5.97294L16.8487 5.58413L18.3411 5.28918C18.3812 5.28105 18.418 5.26135 18.4468 5.23253C18.4757 5.20372 18.4953 5.16708 18.5032 5.12721L18.8421 3.35329C18.8481 3.32017 18.8459 3.2861 18.8357 3.25398C18.8256 3.22187 18.8078 3.19266 18.7838 3.16885C18.7599 3.14578 18.7308 3.12868 18.6989 3.11897C18.667 3.10926 18.6333 3.10722 18.6005 3.11301L16.8308 3.46504C16.7905 3.47259 16.7534 3.49211 16.7244 3.52103C16.6955 3.54994 16.6761 3.58689 16.6687 3.62701L16.3858 5.10751L15.9871 5.50273L15.9796 3.53688C15.9803 3.49308 15.9722 3.44958 15.9558 3.40889C15.9394 3.36821 15.9151 3.33115 15.8841 3.29986C15.8532 3.26857 15.8164 3.24368 15.7757 3.22663C15.7351 3.20958 15.6914 3.20071 15.6473 3.20053C15.5586 3.20141 15.474 3.23711 15.4118 3.29982C15.3496 3.36253 15.3149 3.44716 15.3154 3.53521L15.3307 6.16587L14.7845 6.71287L14.7759 6.08666C14.776 5.99891 14.741 5.91466 14.6786 5.85243C14.6162 5.79021 14.5316 5.7551 14.4432 5.75483C14.3545 5.75571 14.2698 5.7914 14.2076 5.85411C14.1454 5.91682 14.1108 6.00145 14.1113 6.08951L14.1159 7.38639L13.2732 8.22773L13.2657 6.31875L13.9945 5.80707C14.0279 5.78449 14.0539 5.7526 14.0692 5.7154C14.0844 5.6782 14.0883 5.63734 14.0802 5.59795L13.8616 4.45426C13.8554 4.42096 13.8409 4.38971 13.8194 4.36335C13.7979 4.33698 13.7702 4.31633 13.7387 4.30325C13.7068 4.2906 13.6722 4.28586 13.638 4.28942C13.6038 4.29297 13.5709 4.30474 13.5423 4.32368L12.5837 4.98501C12.5509 5.00765 12.5254 5.0392 12.5102 5.07589C12.4951 5.11258 12.4909 5.15285 12.4982 5.19187L12.6565 6.06225L11.3146 7.43622L11.3113 6.23724L12.2245 5.31747C12.2557 5.28669 12.2804 5.24998 12.2971 5.20953C12.3138 5.16908 12.3221 5.1257 12.3215 5.08198C12.3219 5.03826 12.3135 4.9949 12.2967 4.95446C12.2799 4.91403 12.2552 4.87734 12.2238 4.84658C12.1616 4.78832 12.0792 4.75617 11.9937 4.75686C11.9083 4.75754 11.8265 4.79101 11.7654 4.85026L11.3191 5.2962L11.3176 4.52499L13.1714 2.65811C13.2337 2.59535 13.2685 2.51076 13.2685 2.42262C13.267 2.33426 13.2312 2.24984 13.1685 2.18703C13.1063 2.12878 13.0238 2.09663 12.9384 2.09731C12.853 2.098 12.7711 2.13147 12.71 2.19071L11.3253 3.58395L11.3235 3.04245L12.1479 1.77882C12.1703 1.74512 12.1823 1.70559 12.1824 1.66516C12.1824 1.62472 12.1704 1.58515 12.148 1.55137L11.124 0.0578996C11.1056 0.0301626 11.0804 0.00748119 11.0508 -0.0080437C11.0213 -0.0235686 10.9882 -0.0314338 10.9548 -0.030911C10.921 -0.0316169 10.8875 -0.0236274 10.8577 -0.00771619C10.8279 0.00819489 10.8028 0.0314872 10.7848 0.0599001L9.78 1.57044C9.75753 1.60414 9.74554 1.64367 9.74551 1.6841C9.74548 1.72454 9.75742 1.76411 9.77985 1.79789L10.6426 3.02122L10.6452 3.58098L9.25036 2.19612C9.18778 2.13465 9.1033 2.1002 9.01532 2.10029C8.92734 2.10039 8.843 2.13501 8.7807 2.19662C8.71804 2.26005 8.6831 2.34547 8.68348 2.43437C8.68307 2.47809 8.69151 2.52145 8.70829 2.56189C8.72508 2.60232 8.74986 2.63901 8.78118 2.66977L10.6465 4.52277L10.6501 5.29642L10.203 4.85065C10.1718 4.81998 10.1348 4.79571 10.0942 4.77923C10.0536 4.76275 10.0101 4.75439 9.96625 4.75463C9.92239 4.75487 9.87901 4.7637 9.83861 4.78062C9.79822 4.79754 9.76159 4.82221 9.73082 4.85322C9.69987 4.88413 9.67553 4.92094 9.65925 4.96144C9.64297 5.00194 9.63509 5.04529 9.63608 5.0889C9.63567 5.13262 9.6441 5.17598 9.66088 5.21641C9.67767 5.25685 9.70245 5.29354 9.73377 5.3243L10.6537 6.23839L10.6574 7.43285L9.27251 6.06699L9.25141 6.0448L9.40294 5.19505C9.41048 5.15595 9.40633 5.1155 9.391 5.07869C9.37568 5.04188 9.34984 5.01031 9.31668 4.98788L8.35268 4.33406C8.32413 4.315 8.29115 4.30353 8.25688 4.30075C8.22261 4.29796 8.18821 4.30396 8.15696 4.31815C8.12548 4.33131 8.09783 4.35206 8.07648 4.37853C8.05513 4.40499 8.04076 4.43633 8.03468 4.46971L7.82458 5.61722C7.81704 5.65632 7.82119 5.69677 7.83652 5.73358C7.85184 5.77039 7.87768 5.80196 7.91084 5.82439L8.69458 6.35666L8.70109 8.24964L7.85338 7.40511L7.84883 6.10822C7.84915 6.0645 7.84074 6.02114 7.8241 5.98065C7.80745 5.94015 7.7829 5.90332 7.75185 5.87228C7.7208 5.84125 7.68387 5.81662 7.6432 5.79982C7.60253 5.78302 7.55892 5.77439 7.51489 5.77441C7.47086 5.77444 7.42727 5.78313 7.38666 5.79998C7.34605 5.81682 7.30922 5.8415 7.27829 5.87257C7.24735 5.90365 7.22293 5.94051 7.20642 5.98102C7.18992 6.02154 7.18166 6.06491 7.18214 6.10863L7.1857 6.74125L6.63667 6.19622L6.6214 3.56556C6.62096 3.47757 6.58549 3.39328 6.52274 3.33108C6.45998 3.26888 6.37503 3.23382 6.28642 3.23354C6.2426 3.23398 6.1993 3.24299 6.15901 3.26006C6.11872 3.27713 6.08222 3.30193 6.05161 3.33303C6.02099 3.36413 5.99687 3.40093 5.9806 3.44132C5.96433 3.48171 5.95624 3.5249 5.95681 3.56841L5.96218 5.53181L5.58062 5.15279L5.28507 3.65939C5.27684 3.61956 5.25694 3.58303 5.22789 3.55436C5.19883 3.5257 5.16192 3.50618 5.12176 3.49827L3.34857 3.16081C3.31577 3.15376 3.2817 3.15517 3.24963 3.16491C3.21756 3.17465 3.18854 3.19238 3.16535 3.21643C3.14176 3.24038 3.12433 3.26962 3.11455 3.30169C3.10476 3.33376 3.10291 3.3677 3.10915 3.40065L3.46496 5.16735C3.47291 5.2073 3.49271 5.24399 3.52181 5.27271C3.55091 5.30142 3.58799 5.32084 3.62827 5.32847L5.10799 5.61251L5.4968 6.01487L3.52655 6.01623C3.43784 6.01626 3.35281 6.05128 3.29018 6.11358C3.22755 6.17589 3.19243 6.26038 3.19256 6.34847C3.1927 6.43655 3.22807 6.52102 3.29089 6.58329C3.35371 6.64555 3.43883 6.68052 3.52754 6.68049L6.15856 6.66687L6.70761 7.2119L6.07507 7.21508C5.99097 7.22206 5.91265 7.26024 5.8557 7.32202C5.79875 7.3838 5.76735 7.46465 5.76776 7.54845C5.76818 7.63225 5.80038 7.71286 5.85793 7.77421C5.91549 7.83557 5.99418 7.87317 6.07833 7.87952L7.37528 7.87575L8.22317 8.71803L6.29142 8.72479L5.77083 7.97053C5.7484 7.93752 5.71665 7.91181 5.67956 7.89666C5.64248 7.8815 5.60172 7.87757 5.56241 7.88536L4.41754 8.10392C4.38529 8.11211 4.35546 8.1278 4.33053 8.1497C4.3056 8.17159 4.28628 8.19907 4.27416 8.22985C4.26203 8.26064 4.25745 8.29385 4.2608 8.32676C4.26415 8.35966 4.27533 8.39131 4.29342 8.4191L4.95505 9.38271C4.97789 9.4153 5.0097 9.44066 5.04667 9.45577C5.08363 9.47088 5.12418 9.47508 5.16347 9.46789L6.04321 9.29828L7.42321 10.6683L6.22469 10.6732L5.30475 9.75914C5.24259 9.70115 5.16045 9.66898 5.07521 9.66925C4.98997 9.66951 4.90812 9.70219 4.84646 9.76056C4.78429 9.82335 4.74951 9.90793 4.74964 9.99603C4.74976 10.0841 4.78478 10.1687 4.84713 10.2315L5.29655 10.6774L4.52125 10.6895L2.65589 8.83646C2.5937 8.7782 2.51125 8.74605 2.42581 8.74674C2.34036 8.74742 2.25852 8.78089 2.19742 8.84014C2.13517 8.9029 2.10031 8.98749 2.10038 9.07563C2.09971 9.11938 2.10802 9.16282 2.12482 9.2033C2.14162 9.24377 2.16655 9.28043 2.19809 9.31103L3.59293 10.6959L3.04742 10.6993L1.78959 9.85557C1.7556 9.83294 1.71554 9.821 1.67464 9.82133C1.63374 9.82166 1.59391 9.83423 1.56035 9.85741L0.0688785 10.8735C0.0407944 10.8922 0.0177575 10.9175 0.00177476 10.9471C-0.014208 10.9768 -0.0226584 11.0098 -0.0228313 11.0434C-0.0222811 11.0771 -0.0137 11.1102 0.00219857 11.1399C0.0180971 11.1697 0.0408654 11.1953 0.0686389 11.2147L1.56771 12.219C1.60192 12.2411 1.64188 12.2527 1.68264 12.2523C1.7234 12.252 1.76316 12.2398 1.79695 12.2172L3.05051 11.366L3.59355 11.3647L2.20888 12.7579C2.17795 12.7887 2.15343 12.8252 2.13673 12.8655C2.12004 12.9057 2.11148 12.9488 2.11156 12.9923C2.11164 13.0358 2.12036 13.0789 2.1372 13.1191C2.15405 13.1593 2.17869 13.1958 2.20974 13.2265C2.24078 13.2573 2.27762 13.2817 2.31814 13.2983C2.35866 13.3149 2.40206 13.3235 2.44588 13.3234C2.4897 13.3234 2.53308 13.3148 2.57354 13.2981C2.614 13.2814 2.65075 13.257 2.68168 13.2262L4.53534 11.3616L5.30763 11.3584L4.86342 11.8068C4.81855 11.8312 4.77995 11.8655 4.75062 11.9071C4.72128 11.9487 4.702 11.9965 4.69425 12.0467C4.68651 12.0969 4.69052 12.1482 4.70597 12.1967C4.72141 12.2452 4.74788 12.2895 4.78333 12.3262C4.81877 12.3629 4.86223 12.391 4.91035 12.4083C4.95847 12.4256 5.00994 12.4318 5.0608 12.4262C5.11166 12.4206 5.16053 12.4035 5.20362 12.3761C5.24671 12.3487 5.28285 12.3119 5.30927 12.2684L6.22476 11.3488L7.41855 11.3457L6.05129 12.7222L6.03616 12.7392L5.17359 12.5849C5.1342 12.5774 5.09347 12.5814 5.05641 12.5966C5.01936 12.6118 4.9876 12.6374 4.96505 12.6703L4.31172 13.6339C4.29293 13.6628 4.28164 13.6959 4.27885 13.7302C4.27606 13.7645 4.28186 13.799 4.29574 13.8305C4.30903 13.8618 4.32996 13.8893 4.35663 13.9105C4.38331 13.9317 4.41489 13.946 4.44851 13.9521L5.59508 14.1636C5.63413 14.1706 5.6744 14.1663 5.711 14.1511C5.7476 14.1359 5.77898 14.1105 5.80134 14.078L6.32226 13.306L8.24928 13.3012L7.40431 14.1423L6.10719 14.1483C6.0231 14.1553 5.94478 14.1935 5.88783 14.2553C5.83088 14.3171 5.79948 14.3979 5.79989 14.4817C5.8003 14.5655 5.83249 14.6461 5.89004 14.7075C5.9476 14.7688 6.0263 14.8064 6.11046 14.8128L6.74054 14.8117L6.20329 15.3617L3.57227 15.3753C3.48818 15.3823 3.40986 15.4205 3.35291 15.4822C3.29596 15.544 3.26456 15.6249 3.26497 15.7087C3.26538 15.7925 3.29757 15.8731 3.35512 15.9344C3.41268 15.9958 3.49138 16.0334 3.57554 16.0397L5.53078 16.0258L5.14141 16.4195L3.66529 16.7112C3.62507 16.7191 3.58814 16.7387 3.55926 16.7675C3.53038 16.7964 3.51086 16.8332 3.50322 16.8732L3.16432 18.6471C3.1564 18.6804 3.15706 18.7152 3.16624 18.7482C3.17541 18.7813 3.1928 18.8115 3.21682 18.8361C3.24083 18.8607 3.27069 18.8789 3.30365 18.8891C3.3366 18.8992 3.37159 18.901 3.40539 18.8942L5.17507 18.5421C5.21542 18.5346 5.25251 18.5151 5.28144 18.4862C5.31037 18.4572 5.32979 18.4203 5.33713 18.3802L5.6235 16.8863L6.00286 16.5032L6.01049 18.4667C6.01013 18.5103 6.01847 18.5535 6.03505 18.5938C6.05163 18.6341 6.07611 18.6708 6.10706 18.7016C6.13801 18.7325 6.17483 18.757 6.21536 18.7736C6.2559 18.7903 6.29935 18.7987 6.34319 18.7986C6.43187 18.7977 6.51654 18.762 6.57872 18.6993C6.64091 18.6366 6.67555 18.5519 6.67507 18.4639L6.65979 15.8332L7.20369 15.286L7.20497 15.9185C7.20543 16.0063 7.24099 16.0904 7.30384 16.1522C7.3667 16.2141 7.4517 16.2486 7.54013 16.2482C7.62856 16.2479 7.71318 16.2127 7.77539 16.1503C7.83759 16.088 7.87228 16.0036 7.87182 15.9158L7.8669 14.6235L8.7096 13.7821L8.71538 15.6841L7.93634 16.2213C7.90334 16.2437 7.87766 16.2753 7.86247 16.312C7.84727 16.3488 7.84322 16.3891 7.85081 16.4282L8.06849 17.5831C8.07497 17.617 8.08977 17.6487 8.11157 17.6755C8.13338 17.7022 8.16152 17.7232 8.19348 17.7366C8.2252 17.7493 8.25963 17.7539 8.2936 17.7499C8.32756 17.7459 8.35995 17.7335 8.38776 17.7137L9.35778 17.0533C9.39124 17.0313 9.41726 16.9998 9.43251 16.963C9.44776 16.9261 9.45152 16.8855 9.44332 16.8465L9.28332 15.9964L9.30793 15.9757L10.6778 14.5949L10.6836 15.7918L9.76125 16.6835C9.69859 16.7469 9.66366 16.8324 9.66403 16.9213C9.66426 16.9867 9.68403 17.0507 9.72084 17.105C9.75765 17.1594 9.80986 17.2017 9.87085 17.2266C9.93184 17.2515 9.99888 17.258 10.0635 17.245C10.1281 17.2321 10.1874 17.2005 10.2339 17.1541L10.6758 16.7055L10.6794 17.4792L8.8257 19.3438C8.76353 19.4066 8.72876 19.4912 8.72889 19.5793C8.72901 19.6674 8.76403 19.7519 8.82638 19.8147C8.88932 19.8763 8.97417 19.9109 9.06252 19.9108C9.15087 19.9108 9.23561 19.8761 9.29833 19.8144L10.6832 18.4189L10.6835 18.9785L9.84663 20.2274C9.82501 20.2616 9.81372 20.3012 9.81409 20.3415C9.81447 20.3819 9.82649 20.4213 9.84874 20.4551L10.8728 21.9485C10.8912 21.9763 10.9164 21.999 10.9459 22.0145C10.9755 22.03 11.0085 22.0379 11.042 22.0373C11.0757 22.0376 11.109 22.0294 11.1387 22.0136C11.1685 21.9977 11.1937 21.9746 11.212 21.9465L12.2168 20.436C12.2392 20.4023 12.2512 20.3628 12.2513 20.3223C12.2513 20.2819 12.2393 20.2423 12.2169 20.2085L11.3596 18.947L11.3578 18.4055L12.7475 19.7968C12.7767 19.8338 12.8136 19.8642 12.8556 19.886C12.8976 19.9078 12.9437 19.9205 12.991 19.9232C13.0383 19.9259 13.0856 19.9186 13.1298 19.9017C13.174 19.8848 13.214 19.8588 13.2473 19.8253C13.2805 19.7919 13.3062 19.7518 13.3226 19.7076C13.339 19.6635 13.3457 19.6165 13.3423 19.5695C13.3389 19.5226 13.3255 19.477 13.303 19.4356C13.2804 19.3942 13.2493 19.358 13.2116 19.3295L11.3462 17.4765L11.3449 16.7031L11.7853 17.1483C11.8323 17.1942 11.8919 17.2252 11.9567 17.2375C12.0214 17.2497 12.0884 17.2427 12.149 17.2172C12.2097 17.1917 12.2614 17.1489 12.2975 17.0942C12.3337 17.0396 12.3527 16.9755 12.3522 16.91C12.3528 16.8663 12.3445 16.8228 12.3277 16.7824C12.3109 16.7419 12.286 16.7052 12.2544 16.6746L11.3345 15.7605L11.331 14.5638L12.7024 15.9263L12.5394 16.8047C12.5321 16.8438 12.5364 16.8841 12.5517 16.9209C12.567 16.9576 12.5927 16.9892 12.6256 17.0119L13.5895 17.6679C13.6184 17.686 13.6513 17.6969 13.6854 17.6997C13.7195 17.7025 13.7537 17.697 13.7852 17.6838C13.8168 17.6702 13.8444 17.649 13.8658 17.6221C13.8871 17.5953 13.9015 17.5637 13.9077 17.53L14.1198 16.385C14.1271 16.3459 14.1228 16.3055 14.1075 16.2688C14.0922 16.232 14.0665 16.2004 14.0336 16.1778L13.2874 15.6622L13.2816 13.7329L14.1293 14.5774L14.1339 15.8743C14.1305 15.9199 14.1366 15.9657 14.1519 16.0088C14.1671 16.0519 14.1912 16.0914 14.2226 16.1248C14.254 16.1583 14.292 16.1849 14.3343 16.203C14.3765 16.2212 14.4221 16.2304 14.4681 16.2302C14.5141 16.23 14.5596 16.2204 14.6016 16.2019C14.6437 16.1834 14.6814 16.1564 14.7124 16.1227C14.7435 16.089 14.7671 16.0493 14.7819 16.0061C14.7967 15.9628 14.8024 15.917 14.7984 15.8715L14.7972 15.239L15.3439 15.7839L15.3592 18.4145C15.3588 18.4581 15.3672 18.5013 15.3838 18.5416C15.4003 18.5819 15.4248 18.6186 15.4558 18.6494C15.4867 18.6803 15.5235 18.7048 15.5641 18.7214C15.6046 18.7381 15.648 18.7465 15.6919 18.7464C15.7794 18.7482 15.8642 18.716 15.9281 18.6566C15.992 18.5972 16.03 18.5153 16.0339 18.4284L16.0262 16.4648L16.4249 16.8589L16.717 18.3384C16.7252 18.3782 16.7451 18.4147 16.7742 18.4434C16.8032 18.4721 16.8401 18.4916 16.8803 18.4995L18.6535 18.837C18.6863 18.8436 18.7202 18.842 18.7522 18.8322C18.7842 18.8225 18.8133 18.805 18.8367 18.7813C18.8603 18.7574 18.8777 18.7281 18.8875 18.6961C18.8973 18.664 18.8991 18.6301 18.8929 18.5971L18.542 16.8263C18.5344 16.7862 18.5147 16.7493 18.4855 16.7206C18.4564 16.6918 18.4191 16.6725 18.3787 16.6651L16.8876 16.3802L16.4975 15.9936L18.4636 15.9874C18.5526 15.9871 18.6378 15.9517 18.7005 15.8889C18.7632 15.8262 18.7982 15.7413 18.7977 15.6529C18.7973 15.5645 18.7616 15.4798 18.6983 15.4175C18.6351 15.3552 18.5495 15.3204 18.4605 15.3207L15.8295 15.3343L15.2827 14.7895L15.9128 14.7884C16.0011 14.7874 16.0855 14.7518 16.1476 14.6894C16.2096 14.627 16.2443 14.5428 16.2442 14.4551C16.2441 14.3673 16.2092 14.2831 16.147 14.2208C16.0848 14.1584 16.0003 14.1228 15.912 14.1218L14.615 14.1256L13.7672 13.2833L15.653 13.2774L16.1795 14.0435C16.2027 14.0757 16.2346 14.1007 16.2714 14.1158C16.3083 14.1308 16.3487 14.1353 16.3879 14.1287L17.5328 13.9101C17.5666 13.9036 17.5982 13.8888 17.6248 13.8671C17.6514 13.8454 17.6722 13.8175 17.6852 13.7858C17.6982 13.7542 17.7031 13.7198 17.6994 13.6858C17.6958 13.6518 17.6836 13.6192 17.6641 13.591L17.0025 12.6274C16.98 12.5943 16.9483 12.5686 16.9112 12.5535C16.8741 12.5383 16.8334 12.5344 16.7941 12.5422L15.9564 12.7016L14.5498 11.3203L15.7504 11.3178L16.6681 12.2317C16.7322 12.2915 16.8169 12.3246 16.9048 12.3241C16.9927 12.3236 17.077 12.2896 17.1402 12.2291C17.2027 12.1663 17.2375 12.0814 17.2369 11.9931C17.2364 11.9048 17.2005 11.8202 17.1373 11.7581L16.69 11.3145L17.4622 11.3114L19.3299 13.1645C19.3929 13.2264 19.478 13.2608 19.5666 13.2603C19.6551 13.2599 19.7398 13.2245 19.802 13.162C19.8642 13.0995 19.8988 13.0149 19.8982 12.927C19.8976 12.8391 19.8619 12.755 19.7989 12.6931L18.404 11.3083L18.9609 11.3058L20.2188 12.1495C20.2527 12.1722 20.2928 12.1841 20.3337 12.1838C20.3746 12.1834 20.4144 12.1709 20.448 12.1477L21.9417 11.1318C21.9692 11.1125 21.9915 11.087 22.0071 11.0574C22.0226 11.0279 22.0309 10.995 22.0312 10.9617C22.0312 10.9292 22.0238 10.8973 22.0095 10.8681C21.9951 10.839 21.9743 10.8134 21.9486 10.7935ZM10.657 9.43899C10.5879 9.45439 10.5197 9.47392 10.453 9.49747L10.3253 9.54623C10.2534 9.57879 10.1843 9.61731 10.1189 9.66139L9.36839 8.91801L9.36055 7.09771L10.6537 8.38104L10.657 9.43899ZM10.1202 12.3523C10.1799 12.3916 10.242 12.427 10.3063 12.4584L10.4414 12.5149C10.5144 12.5418 10.5892 12.5639 10.6651 12.5809L10.6698 13.623L9.38476 14.9174L9.37693 13.0971L10.1202 12.3523ZM10.9572 11.9472L10.8457 11.9382C10.6583 11.9079 10.4847 11.8216 10.348 11.6907C10.332 11.6779 10.3178 11.663 10.3058 11.6464C10.1774 11.5133 10.0929 11.3445 10.0634 11.1626C10.0574 11.1081 10.055 11.0532 10.0561 10.9983C10.0532 10.7772 10.1317 10.5627 10.2769 10.3953C10.3644 10.2917 10.4736 10.2084 10.597 10.1513C10.7204 10.0941 10.8549 10.0644 10.9911 10.0644C11.0806 10.063 11.1699 10.0741 11.2564 10.0973C11.4058 10.1387 11.5421 10.217 11.6526 10.3251L11.6759 10.3475C11.7839 10.4576 11.862 10.5931 11.9028 10.7412C11.9228 10.8165 11.9342 10.8937 11.9368 10.9714L11.9337 11.0099C11.9342 11.2137 11.8674 11.412 11.7435 11.5744C11.7103 11.6143 11.6751 11.6524 11.638 11.6887C11.4723 11.8478 11.2522 11.9388 11.0216 11.9434C11.0003 11.9473 10.9787 11.9494 10.957 11.9495L10.9572 11.9472ZM11.8656 9.64868C11.8039 9.61053 11.7402 9.57574 11.6748 9.54446L11.555 9.49606L11.5209 9.49328L11.4227 9.46029L11.3214 9.4384L11.3179 8.38271L12.6033 7.08376L12.6088 8.90388L11.8656 9.64868ZM11.3318 12.5804C11.4028 12.5654 11.4726 12.5453 11.5406 12.5201L11.6781 12.463C11.7485 12.4298 11.8166 12.392 11.882 12.3499L12.6212 13.0924L12.6268 14.9125L11.3357 13.6316L11.3318 12.5804ZM12.5666 10.6633C12.5692 10.6316 12.5536 10.5985 12.5446 10.5682C12.5374 10.542 12.5288 10.5163 12.5188 10.491L12.4544 10.3243C12.4215 10.2534 12.3834 10.1849 12.3405 10.1194L13.0883 9.37502L14.9214 9.36934L13.6389 10.6617L12.5666 10.6633ZM8.8973 9.38695L9.64785 10.1303C9.60955 10.1907 9.57464 10.2532 9.54329 10.3174L9.48921 10.4473C9.46059 10.5192 9.43846 10.5935 9.42306 10.6693L8.37129 10.6726L7.07589 9.38904L8.8973 9.38695ZM8.36263 11.3429L9.41231 11.3372C9.42834 11.4082 9.44865 11.4782 9.47315 11.5468L9.52678 11.6763C9.56014 11.7482 9.59893 11.8175 9.6428 11.8836L8.89522 12.6258L7.06206 12.6315L8.36263 11.3429ZM13.086 12.6161L12.3423 11.8733C12.3811 11.8116 12.4161 11.7476 12.4472 11.6817L12.4992 11.5494C12.5259 11.477 12.5473 11.4027 12.5631 11.3271L13.6126 11.3237L14.9055 12.6093L13.086 12.6161Z" fill="url(#paint0_linear_1071_608)"/>
</g>
<defs>
<linearGradient id="paint0_linear_1071_608" x1="3.24473" y1="-2.81099" x2="17.4312" y2="-4.9796" gradientUnits="userSpaceOnUse">
<stop stop-color="#FCE7A7"/>
<stop offset="0.550108" stop-color="#F6B748"/>
<stop offset="1" stop-color="#F7B645"/>
</linearGradient>
<clipPath id="clip0_1071_608">
<rect width="22" height="22" fill="white"/>
</clipPath>
</defs>
</svg>
