<svg width="71" height="71" viewBox="0 0 71 71" fill="none" xmlns="http://www.w3.org/2000/svg">
<path d="M70.6627 31.9743L65.5781 29.1354C65.4624 29.0734 65.3307 29.0466 65.1997 29.0583C65.0687 29.07 64.944 29.1198 64.8413 29.2013L61.002 32.2669L59.2113 32.4206L63.3011 27.5697C63.4026 27.4614 63.48 27.3331 63.5282 27.1932C63.5765 27.0533 63.5945 26.9049 63.5811 26.7576C63.5653 26.5469 63.4864 26.3457 63.3546 26.1798C63.2229 26.0138 63.0442 25.8908 62.8415 25.8263C62.6389 25.7619 62.4215 25.759 62.2171 25.818C62.0128 25.877 61.8309 25.9953 61.6947 26.1576L56.2196 32.6401L53.7288 32.8523L55.0479 31.2938C55.2324 31.0761 55.3225 30.7945 55.2984 30.511C55.2806 30.3004 55.2003 30.0999 55.0677 29.9347C54.935 29.7695 54.7561 29.647 54.5533 29.5828C54.3506 29.5186 54.1333 29.5155 53.9288 29.5739C53.7244 29.6323 53.5419 29.7496 53.4046 29.911L50.6855 33.1376L46.8389 33.4669L50.8844 28.6745L53.6552 28.9598C53.7832 28.9698 53.9113 28.9434 54.0248 28.8838C54.1383 28.8242 54.2325 28.7339 54.2963 28.6233L56.1532 25.3528C56.2042 25.2556 56.2309 25.1477 56.2309 25.0382C56.2309 24.9286 56.2042 24.8207 56.1532 24.7235C56.1032 24.6251 56.0291 24.5406 55.9377 24.478C55.8463 24.4154 55.7405 24.3765 55.63 24.365L51.8866 23.9846C51.7586 23.9746 51.6304 24.001 51.5169 24.0606C51.4034 24.1202 51.3093 24.2105 51.2455 24.3211L49.7717 26.8966L43.6776 27.416L46.1683 24.4894L50.3391 24.1382C50.6241 24.1122 50.8872 23.9752 51.0708 23.7573C51.2544 23.5393 51.3437 23.258 51.3192 22.9749C51.309 22.8348 51.2708 22.698 51.207 22.5727C51.1431 22.4473 51.0548 22.3358 50.9471 22.2445C50.8395 22.1533 50.7147 22.0843 50.58 22.0413C50.4452 21.9984 50.3032 21.9825 50.1622 21.9945L48.1284 22.1701L49.7422 20.2604L58.1944 19.5288C58.3352 19.5168 58.4723 19.4774 58.5978 19.4128C58.7233 19.3482 58.8347 19.2597 58.9257 19.1524C59.0167 19.045 59.0855 18.9209 59.1282 18.7871C59.1709 18.6534 59.1866 18.5126 59.1745 18.3728C59.1574 18.0933 59.0304 17.8316 58.8209 17.6441C58.6114 17.4567 58.3362 17.3584 58.0544 17.3704L51.7318 17.9045L52.8961 16.5509L57.6196 15.212C57.7465 15.1754 57.8596 15.1024 57.9449 15.0022C58.0301 14.9019 58.0836 14.7789 58.0986 14.6486L58.725 8.8539C58.7355 8.74582 58.7196 8.6368 58.6786 8.53615C58.6375 8.4355 58.5726 8.34621 58.4892 8.27589C58.4062 8.20792 58.3081 8.16052 58.2031 8.13762C58.098 8.11472 57.989 8.11697 57.8849 8.1442L52.2845 9.73921C52.1567 9.77405 52.0425 9.84654 51.957 9.94711C51.8715 10.0477 51.8187 10.1716 51.8055 10.3026L51.2823 15.1388L50.1033 16.5144L49.5654 10.1928C49.556 10.0518 49.5186 9.91396 49.4552 9.78737C49.3919 9.66078 49.3038 9.54793 49.1962 9.45538C49.0886 9.36282 48.9636 9.29239 48.8283 9.24817C48.6931 9.20396 48.5504 9.18683 48.4084 9.19778C48.1234 9.2238 47.8604 9.36075 47.6767 9.57873C47.4931 9.79671 47.4038 10.078 47.4284 10.3611L48.1653 18.8191L46.5515 20.7214L46.3599 18.7093C46.3373 18.427 46.2027 18.1652 45.9858 17.9813C45.7689 17.7975 45.4873 17.7067 45.2029 17.7289C44.9179 17.7549 44.6549 17.8919 44.4712 18.1099C44.2876 18.3278 44.1983 18.6091 44.2229 18.8922L44.5766 23.0627L42.0859 25.9893L41.5627 19.8507L43.7734 18.0142C43.875 17.9329 43.9503 17.8235 43.9896 17.6999C44.0289 17.5762 44.0306 17.4438 43.9944 17.3192L42.9922 13.6975C42.9634 13.592 42.9086 13.4953 42.8327 13.4161C42.7568 13.3369 42.6622 13.2777 42.5575 13.2438C42.4513 13.2115 42.3389 13.2053 42.2298 13.2257C42.1207 13.2461 42.0182 13.2925 41.9311 13.3609L39.0204 15.7388C38.9208 15.8202 38.847 15.9284 38.8078 16.0503C38.7686 16.1723 38.7656 16.3029 38.7993 16.4266L39.5362 19.1849L35.5791 23.9553L35.2548 20.0995L37.9519 16.9021C38.0443 16.7949 38.1141 16.6704 38.1572 16.5359C38.2002 16.4015 38.2156 16.2598 38.2024 16.1193C38.1923 15.9785 38.1538 15.8413 38.0893 15.7156C38.0247 15.5899 37.9354 15.4784 37.8266 15.3876C37.6113 15.2165 37.3377 15.1346 37.063 15.1592C36.7883 15.1837 36.5339 15.3127 36.3528 15.5193L35.0338 17.0704L34.8274 14.5901L40.3026 8.1003C40.4864 7.88214 40.5764 7.60092 40.5531 7.31742C40.5253 7.03357 40.388 6.7714 40.1699 6.58577C39.9546 6.41463 39.681 6.33277 39.4064 6.35731C39.1317 6.38186 38.8772 6.51091 38.6961 6.71746L34.6064 11.561L34.459 9.81969L36.7802 5.5395C36.8437 5.42523 36.8719 5.29495 36.8614 5.16487C36.851 5.03479 36.8022 4.91064 36.7213 4.80784L33.0368 0.271565C32.9703 0.187157 32.8835 0.120775 32.7843 0.078568C32.6851 0.0363613 32.5768 0.0196961 32.4694 0.0301182C32.3604 0.0366939 32.2549 0.0711382 32.1632 0.130108C32.0715 0.189077 31.9968 0.27057 31.9462 0.366681L29.1091 5.48828C29.0456 5.60255 29.0174 5.73282 29.0279 5.8629C29.0383 5.99298 29.0871 6.11714 29.1681 6.21994L32.263 9.92944L32.4178 11.7293L27.569 7.63935C27.3516 7.45796 27.0709 7.36924 26.7879 7.39254C26.5049 7.41584 26.2427 7.54927 26.0584 7.76373C25.8734 7.98414 25.7834 8.26805 25.8078 8.55392C25.8179 8.69465 25.8564 8.83193 25.921 8.95761C25.9855 9.08329 26.0748 9.19482 26.1836 9.28558L32.6683 14.7584L32.882 17.246L31.3272 15.929C31.2189 15.8385 31.0937 15.7701 30.9587 15.7277C30.8237 15.6853 30.6817 15.6698 30.5407 15.6821C30.3996 15.6943 30.2624 15.734 30.1369 15.799C30.0114 15.864 29.9 15.9529 29.8092 16.0607C29.7177 16.1683 29.649 16.293 29.6072 16.4275C29.5654 16.5621 29.5514 16.7036 29.566 16.8436C29.5761 16.9843 29.6146 17.1216 29.6791 17.2473C29.7437 17.373 29.833 17.4845 29.9418 17.5753L33.1399 20.2751L33.4642 24.1163L28.6522 20.0848L28.5786 20.019L28.8438 17.246C28.8578 17.1183 28.8339 16.9892 28.775 16.8748C28.7161 16.7604 28.6247 16.6656 28.5122 16.6022L25.2404 14.7511C25.1436 14.6972 25.0345 14.669 24.9235 14.669C24.8126 14.669 24.7035 14.6972 24.6067 14.7511C24.5089 14.8016 24.4253 14.8756 24.3636 14.9663C24.3018 15.057 24.2638 15.1616 24.253 15.2705L23.8771 19.0166C23.8631 19.1444 23.887 19.2734 23.946 19.3878C24.0049 19.5022 24.0962 19.597 24.2088 19.6605L26.8689 21.1677L27.3848 27.2551L24.4372 24.7601L24.0835 20.5897C24.0731 20.449 24.0347 20.3117 23.9706 20.1858C23.9065 20.0599 23.8179 19.9478 23.7099 19.8561C23.6019 19.7644 23.4766 19.6948 23.3414 19.6514C23.2062 19.608 23.0637 19.5916 22.9221 19.6032C22.7804 19.6148 22.6425 19.6542 22.5163 19.719C22.3901 19.7838 22.278 19.8728 22.1867 19.9808C22.0953 20.0889 22.0263 20.2138 21.9839 20.3485C21.9414 20.4831 21.9261 20.6248 21.9391 20.7653L22.116 22.7993L20.2074 21.1896L19.4705 12.7317C19.4461 12.4488 19.31 12.1869 19.0919 12.0032C18.8737 11.8196 18.5913 11.729 18.3062 11.7513C18.1654 11.7641 18.0285 11.8044 17.9033 11.8699C17.7782 11.9353 17.6673 12.0246 17.5769 12.1327C17.4866 12.2407 17.4186 12.3654 17.3768 12.4996C17.335 12.6337 17.3203 12.7748 17.3335 12.9146L17.8641 19.2288L16.5376 18.1094L15.1965 13.3829C15.1596 13.2569 15.0861 13.1446 14.9851 13.06C14.8842 12.9754 14.7603 12.9222 14.6291 12.9073L8.83711 12.2854C8.72976 12.2713 8.62055 12.2847 8.51993 12.3244C8.41931 12.3641 8.33062 12.4288 8.26231 12.5122C8.19268 12.5954 8.14426 12.694 8.12117 12.7997C8.09808 12.9054 8.10101 13.0151 8.12967 13.1195L9.7361 18.7093C9.7721 18.8358 9.84538 18.9486 9.9465 19.0333C10.0476 19.1181 10.172 19.1709 10.3035 19.1849L15.1376 19.7117L16.4934 20.9043L10.1561 21.4238C9.8708 21.4471 9.60644 21.5819 9.42126 21.7987C9.23608 22.0155 9.14522 22.2965 9.16867 22.5798C9.19213 22.8631 9.32799 23.1256 9.54634 23.3094C9.76469 23.4933 10.0476 23.5835 10.333 23.5602L18.7925 22.8286L20.7011 24.4382L18.6673 24.6138C18.3986 24.6582 18.1567 24.8015 17.9896 25.0151C17.8226 25.2288 17.7427 25.497 17.766 25.7665C17.7892 26.0359 17.9138 26.2868 18.115 26.4691C18.3162 26.6514 18.5791 26.7518 18.8515 26.7502L23.0224 26.399L25.97 28.8867L19.7579 29.4135L17.8862 27.1234C17.8054 27.023 17.6965 26.9487 17.5733 26.9096C17.45 26.8705 17.3179 26.8686 17.1935 26.9039L13.568 27.9063C13.4664 27.941 13.3745 27.9993 13.3 28.0762C13.2256 28.1532 13.1706 28.2466 13.1397 28.3488C13.1087 28.451 13.1026 28.559 13.122 28.664C13.1414 28.769 13.1857 28.8679 13.2511 28.9525L15.6313 31.8792C15.7132 31.978 15.8222 32.0513 15.9451 32.0902C16.0679 32.1291 16.1995 32.1321 16.324 32.0986L19.1094 31.3231L23.9066 35.3692L20.0527 35.6984L16.8545 32.9986C16.6394 32.8283 16.3668 32.7463 16.0927 32.7694C15.8186 32.7926 15.5638 32.9191 15.3808 33.123C15.1972 33.3412 15.1074 33.6223 15.1309 33.9057C15.1543 34.1891 15.2891 34.4519 15.506 34.6375L17.0682 35.9545L14.5775 36.1959L8.09283 30.7231C7.87754 30.552 7.60395 30.4701 7.32927 30.4947C7.05459 30.5192 6.8001 30.6483 6.61904 30.8548C6.43521 31.073 6.34519 31.3542 6.36848 31.6377C6.37775 31.7786 6.41585 31.9162 6.48047 32.042C6.54508 32.1678 6.63487 32.2792 6.7443 32.3694L11.5931 36.4593L9.83928 36.613L5.57266 34.2278C5.45742 34.1638 5.32543 34.1359 5.19396 34.1477C5.06248 34.1594 4.93765 34.2103 4.83576 34.2936L0.303831 37.9519C0.218396 38.0196 0.150905 38.1069 0.107238 38.2064C0.0635715 38.3059 0.0450326 38.4144 0.0532662 38.5226C0.0638378 38.6308 0.100086 38.7349 0.159006 38.8264C0.217927 38.918 0.297858 38.9944 0.392255 39.0494L5.47686 41.8882C5.59265 41.9502 5.72422 41.977 5.85525 41.9653C5.98628 41.9536 6.11098 41.9039 6.21376 41.8224L10.0235 38.7567L11.7699 38.6104L7.68017 43.454C7.58873 43.5611 7.5194 43.6851 7.4762 43.8188C7.43301 43.9525 7.41676 44.0934 7.42839 44.2333C7.44003 44.3733 7.47934 44.5096 7.54403 44.6345C7.60872 44.7594 7.69753 44.8704 7.80543 44.9612C7.91333 45.052 8.03821 45.1208 8.17289 45.1637C8.30757 45.2066 8.4494 45.2227 8.59036 45.2111C8.73133 45.1996 8.86861 45.1606 8.99439 45.0964C9.12017 45.0321 9.23199 44.9439 9.32344 44.8368L14.7986 38.3543L17.2819 38.1421L15.9703 39.7006C15.8323 39.7908 15.7171 39.9113 15.6337 40.0528C15.5502 40.1943 15.5006 40.3529 15.4888 40.5165C15.477 40.6801 15.5034 40.8441 15.5657 40.996C15.6281 41.1478 15.7248 41.2834 15.8484 41.3921C15.972 41.5009 16.1192 41.58 16.2785 41.6232C16.4378 41.6664 16.605 41.6726 16.7671 41.6413C16.9292 41.6101 17.082 41.5421 17.2134 41.4429C17.3449 41.3436 17.4515 41.2156 17.5251 41.0688L20.2295 37.8714L24.0687 37.5495L20.0306 42.3345L19.9864 42.3931L17.1714 42.1224C17.0427 42.1084 16.9128 42.1322 16.7976 42.1907C16.6823 42.2492 16.5869 42.3399 16.5229 42.4516L14.6733 45.7221C14.6204 45.82 14.5928 45.9293 14.5928 46.0404C14.5928 46.1514 14.6204 46.2608 14.6733 46.3586C14.7242 46.4558 14.7987 46.5387 14.8901 46.6C14.9815 46.6614 15.0868 46.6991 15.1965 46.7098L18.9399 47.0903C19.0674 47.1028 19.1958 47.0783 19.3095 47.0199C19.4233 46.9614 19.5176 46.8715 19.581 46.7611L21.0548 44.1417L27.2521 43.6222L24.7541 46.5489L20.5832 46.9074C20.3146 46.9518 20.0726 47.0951 19.9056 47.3087C19.7385 47.5224 19.6587 47.7906 19.6819 48.0601C19.7051 48.3295 19.8298 48.5804 20.0309 48.7627C20.2321 48.945 20.4951 49.0454 20.7675 49.0438L22.7939 48.8755L21.2096 50.7852L12.75 51.5168C12.4814 51.5613 12.2394 51.7046 12.0724 51.9182C11.9053 52.1318 11.8255 52.4 11.8487 52.6695C11.8719 52.9389 11.9965 53.1898 12.1977 53.3721C12.3989 53.5545 12.6619 53.6548 12.9342 53.6533L19.22 53.0972L18.0704 54.4654L13.3985 55.7897C13.2712 55.8255 13.1575 55.8982 13.0721 55.9986C12.9868 56.099 12.9336 56.2225 12.9195 56.3531L12.2932 62.1478C12.2764 62.2571 12.2876 62.3688 12.3258 62.4726C12.3639 62.5765 12.4277 62.6691 12.5114 62.742C12.5951 62.8149 12.6959 62.8657 12.8046 62.8897C12.9132 62.9137 13.0262 62.9102 13.1332 62.8795L18.7336 61.2845C18.8615 61.2496 18.9756 61.1771 19.0611 61.0766C19.1466 60.976 19.1994 60.852 19.2126 60.7211L19.7432 55.8409L20.8633 54.5093L21.4012 60.8235C21.4114 60.9636 21.4495 61.1004 21.5134 61.2257C21.5773 61.3511 21.6656 61.4626 21.7732 61.5538C21.8809 61.6451 22.0057 61.7141 22.1404 61.7571C22.2752 61.8 22.4171 61.8159 22.5581 61.8039C22.8431 61.7779 23.1062 61.641 23.2898 61.423C23.4734 61.205 23.5627 60.9237 23.5382 60.6406L22.8013 52.1826L24.4077 50.2803L24.5772 52.3143C24.6016 52.5967 24.738 52.8578 24.9564 53.0403C25.1747 53.2228 25.4572 53.3117 25.7415 53.2874C26.0259 53.2632 26.2889 53.1278 26.4727 52.911C26.6565 52.6942 26.746 52.4138 26.7216 52.1314L26.3679 47.9756L28.8586 45.049L29.3744 51.1656L27.009 53.0972C26.9087 53.178 26.8343 53.2861 26.795 53.4083C26.7558 53.5305 26.7533 53.6614 26.7879 53.785L27.7901 57.4433C27.8197 57.5503 27.8756 57.6485 27.9528 57.7289C28.0299 57.8093 28.126 57.8695 28.2322 57.9042C28.3376 57.9369 28.4496 57.9426 28.5578 57.9209C28.666 57.8991 28.7669 57.8506 28.8512 57.7798L31.7988 55.4019C31.9006 55.3223 31.9761 55.2143 32.0155 55.0917C32.0549 54.9691 32.0564 54.8376 32.0198 54.7142L31.2829 52.0217L31.3567 51.9485L35.4022 47.1488L35.7338 50.9974L32.9999 54.1069C32.8149 54.3273 32.7249 54.6112 32.7494 54.8971C32.7672 55.1076 32.8475 55.3081 32.9801 55.4733C33.1128 55.6385 33.2917 55.761 33.4944 55.8252C33.6972 55.8894 33.9145 55.8925 34.1189 55.8341C34.3234 55.7757 34.5059 55.6584 34.6432 55.497L35.9475 53.9386L36.1612 56.4263L30.6861 62.9087C30.5025 63.127 30.4128 63.4081 30.4362 63.6915C30.4597 63.9748 30.5944 64.2377 30.8114 64.4233C31.03 64.6051 31.3119 64.694 31.5961 64.6707C31.8803 64.6474 32.1438 64.5138 32.3294 64.2989L36.4191 59.448L36.5665 61.2479L34.2011 65.4842C34.1405 65.5996 34.1145 65.7299 34.1262 65.8596C34.138 65.9893 34.187 66.1129 34.2674 66.2158L37.9519 70.7521C38.0183 70.8365 38.1052 70.9029 38.2044 70.9451C38.3036 70.9873 38.4119 71.004 38.5193 70.9935C38.6279 70.9856 38.7329 70.9506 38.8243 70.8918C38.9158 70.833 38.9908 70.7522 39.0425 70.657L41.8795 65.5354C41.943 65.4211 41.9712 65.2908 41.9608 65.1608C41.9503 65.0307 41.9015 64.9065 41.8206 64.8037L38.733 60.9698L38.5856 59.2285L43.4197 63.3404C43.5234 63.4519 43.6498 63.5402 43.7906 63.5994C43.9313 63.6585 44.0832 63.6872 44.236 63.6836C44.3888 63.6799 44.5391 63.644 44.6768 63.5781C44.8145 63.5123 44.9366 63.418 45.0347 63.3017C45.1329 63.1854 45.2049 63.0496 45.2461 62.9034C45.2873 62.7573 45.2966 62.6041 45.2735 62.4541C45.2504 62.304 45.1953 62.1606 45.112 62.0334C45.0287 61.9061 44.919 61.798 44.7903 61.7161L38.3056 56.2433L38.0992 53.7557L39.632 55.0727C39.7953 55.208 39.9953 55.2923 40.2068 55.3148C40.4182 55.3374 40.6317 55.2971 40.8201 55.1993C41.0086 55.1014 41.1637 54.9503 41.2656 54.7649C41.3676 54.5796 41.412 54.3685 41.3932 54.1581C41.3839 54.0172 41.3458 53.8796 41.2812 53.7538C41.2166 53.628 41.1268 53.5167 41.0174 53.4265L37.8192 50.7266L37.495 46.8781L42.2627 50.9022L41.968 53.7703C41.9549 53.898 41.9792 54.0266 42.0381 54.1409C42.0969 54.2551 42.1877 54.35 42.2996 54.4142L45.5714 56.2726C45.6692 56.3233 45.7779 56.3497 45.8882 56.3497C45.9986 56.3497 46.1073 56.3233 46.2051 56.2726C46.3031 56.2203 46.3866 56.1449 46.4482 56.0531C46.5099 55.9612 46.5479 55.8557 46.5588 55.7458L46.942 52.007C46.9551 51.8794 46.9308 51.7507 46.8719 51.6365C46.8131 51.5223 46.7223 51.4274 46.6104 51.3632L44.0755 49.8999L43.5523 43.6954L46.4999 46.1904L46.8536 50.3608C46.8545 50.5082 46.8862 50.6539 46.9466 50.7886C47.007 50.9233 47.0949 51.0441 47.2046 51.1434C47.3144 51.2427 47.4436 51.3184 47.5843 51.3657C47.7249 51.413 47.8739 51.4309 48.0218 51.4182C48.1698 51.4056 48.3135 51.3626 48.4439 51.2921C48.5743 51.2216 48.6886 51.1251 48.7796 51.0086C48.8706 50.8921 48.9363 50.7581 48.9727 50.6152C49.009 50.4722 49.0151 50.3233 48.9906 50.1779L48.8211 48.1439L50.7223 49.7535L51.4592 58.2115C51.4694 58.3516 51.5076 58.4883 51.5714 58.6137C51.6353 58.7391 51.7236 58.8506 51.8312 58.9418C51.9389 59.033 52.0637 59.1021 52.1984 59.145C52.3332 59.188 52.4751 59.2039 52.6161 59.1919C52.8982 59.1749 53.1625 59.0491 53.3525 58.8413C53.5425 58.6335 53.6432 58.3603 53.633 58.0798L53.0951 51.7656L54.4805 52.9289L55.8069 57.6115C55.8438 57.7375 55.9173 57.8498 56.0182 57.9344C56.1192 58.019 56.243 58.0721 56.3743 58.0871L62.1663 58.709C62.2736 58.7217 62.3823 58.7076 62.4827 58.668C62.5831 58.6284 62.6719 58.5645 62.7411 58.4822C62.8107 58.399 62.8591 58.3004 62.8822 58.1947C62.9053 58.089 62.9024 57.9793 62.8737 57.8749L61.282 52.2704C61.2469 52.1435 61.1739 52.0301 61.0726 51.9452C60.9713 51.8603 60.8465 51.8079 60.7146 51.7949L55.8437 51.2681L54.4878 50.1267L60.8104 49.5926C61.0967 49.5683 61.3616 49.4321 61.5468 49.214C61.732 48.9958 61.8223 48.7135 61.7979 48.4292C61.7734 48.145 61.6362 47.882 61.4165 47.6981C61.1968 47.5142 60.9125 47.4246 60.6262 47.4488L52.1666 48.1805L50.2654 46.5708L52.2919 46.4025C52.5758 46.3762 52.8379 46.2398 53.0212 46.0229C53.2045 45.806 53.2942 45.5261 53.2709 45.2439C53.2476 44.9617 53.1132 44.6999 52.8968 44.5155C52.6804 44.3311 52.3995 44.2389 52.115 44.2588L47.9442 44.61L44.9966 42.1224L51.0613 41.6102L52.9551 43.9369C53.0382 44.0343 53.1472 44.1065 53.2697 44.1453C53.3922 44.1842 53.5232 44.188 53.6478 44.1564L57.2733 43.154C57.3803 43.1241 57.4782 43.0683 57.5581 42.9916C57.638 42.9148 57.6975 42.8196 57.7311 42.7143C57.7647 42.6091 57.7714 42.4973 57.7507 42.3888C57.73 42.2804 57.6824 42.1787 57.6123 42.0931L55.2321 39.1665C55.1513 39.0661 55.0424 38.9917 54.9192 38.9527C54.7959 38.9136 54.6638 38.9116 54.5394 38.947L51.8866 39.6786L47.001 35.6033L50.8623 35.2814L54.0531 37.9812C54.2748 38.1568 54.556 38.2411 54.8386 38.2165C55.1211 38.192 55.3834 38.0606 55.5711 37.8495C55.7556 37.6311 55.8453 37.3489 55.8204 37.065C55.7956 36.781 55.6582 36.5184 55.4384 36.3349L53.8836 35.0253L56.3669 34.8131L62.859 40.2859C63.0779 40.4683 63.3608 40.5569 63.6455 40.5322C63.9301 40.5075 64.1933 40.3715 64.377 40.1542C64.5607 39.9369 64.6499 39.656 64.625 39.3733C64.6002 39.0907 64.4633 38.8294 64.2444 38.647L59.3956 34.557L61.1862 34.4034L65.4528 36.7886C65.5681 36.8525 65.7001 36.8804 65.8315 36.8687C65.963 36.8569 66.0879 36.8061 66.1897 36.7227L70.729 33.0644C70.8122 32.9952 70.8776 32.9074 70.9198 32.8082C70.9621 32.709 70.9801 32.6012 70.9722 32.4937C70.9638 32.3895 70.9315 32.2885 70.8779 32.1985C70.8243 32.1085 70.7507 32.0318 70.6627 31.9743ZM33.9874 30.5695C33.769 30.6371 33.5549 30.7177 33.3463 30.8109L32.9483 31.0012C32.7255 31.1247 32.5135 31.2667 32.3146 31.4255L29.706 29.2306L29.2049 23.3773L33.7 27.1673L33.9874 30.5695ZM33.0221 40.081C33.2244 40.1917 33.4336 40.2894 33.6484 40.3737L34.0979 40.52C34.3398 40.5876 34.586 40.6389 34.8348 40.6737L35.1222 44.0247L31.3272 48.5243L30.8261 42.6711L33.0221 40.081ZM35.6085 38.5592H35.2475C34.637 38.5108 34.0559 38.2785 33.5821 37.8934C33.5272 37.8563 33.4776 37.812 33.4347 37.7617C32.9869 37.3671 32.6708 36.8465 32.5283 36.2691C32.4948 36.0951 32.4727 35.9191 32.462 35.7423C32.3948 35.0319 32.5914 34.3215 33.0147 33.7449C33.269 33.3889 33.5986 33.0924 33.9805 32.8763C34.3624 32.6602 34.7873 32.5296 35.2254 32.4937C35.5131 32.466 35.8033 32.4783 36.0875 32.5303C36.5787 32.6243 37.0377 32.8408 37.4213 33.1595L37.5024 33.2254C37.8784 33.5513 38.1649 33.9667 38.3351 34.4326C38.4191 34.6694 38.4759 34.9149 38.5045 35.1643V35.2887C38.5595 35.9443 38.3964 36.5997 38.0403 37.1544C37.9441 37.2913 37.8408 37.4232 37.7308 37.5495C37.2397 38.1047 36.5553 38.455 35.8149 38.5299C35.7473 38.5482 35.6783 38.5604 35.6085 38.5665V38.5592ZM37.9298 30.928C37.7214 30.8214 37.5074 30.7261 37.2887 30.6427L36.8908 30.5183H36.7802L36.456 30.4378L36.1244 30.3939L35.837 26.999L39.632 22.4847L40.1257 28.3379L37.9298 30.928ZM36.9792 40.4981C37.2036 40.4312 37.4228 40.3481 37.635 40.2493L38.0624 40.0298C38.2801 39.9044 38.4893 39.7651 38.6888 39.6128L41.2606 41.8077L41.7543 47.661L37.2665 43.8783L36.9792 40.4981ZM40.4499 34.0083C40.4499 33.9058 40.391 33.8034 40.3541 33.7083C40.3242 33.626 40.2898 33.5454 40.251 33.4669L40.0005 32.9474C39.8759 32.7278 39.7356 32.5175 39.5804 32.3181L41.7911 29.7281L47.6863 29.2306L43.8986 33.7229L40.4499 34.0083ZM28.3133 30.8621L30.9219 33.0571C30.8145 33.2615 30.7185 33.4715 30.6345 33.6863L30.4945 34.118C30.4212 34.3569 30.3694 34.6017 30.3397 34.8497L26.9574 35.135L22.4549 31.345L28.3133 30.8621ZM27.1048 37.2934L30.4798 37.0008C30.5499 37.225 30.6335 37.4449 30.7303 37.6592L30.9366 38.0617C31.0627 38.2842 31.2056 38.497 31.364 38.6982L29.1534 41.2809L23.2582 41.7785L27.1048 37.2934ZM42.6312 40.1542L40.0447 37.9592C40.1534 37.7505 40.2494 37.5355 40.3321 37.3154L40.4647 36.8764C40.5318 36.6364 40.5811 36.3919 40.6121 36.1447L43.987 35.8594L48.4821 39.6567L42.6312 40.1542Z" fill="white"/>
</svg>
