<svg width="14" height="13" viewBox="0 0 14 13" fill="none" xmlns="http://www.w3.org/2000/svg">
<path d="M7.97085 0.514055L9.57488 2.93832C9.73172 3.17544 9.9751 3.34658 10.2565 3.41759L13.1364 4.14538C13.3239 4.19289 13.496 4.28529 13.637 4.41408C13.778 4.54286 13.8833 4.70391 13.9433 4.88241C14.0032 5.06092 14.0159 5.25115 13.9801 5.43564C13.9444 5.62013 13.8613 5.79294 13.7385 5.93821L11.8509 8.16637C11.6659 8.38391 11.5724 8.66099 11.5891 8.94234L11.7636 11.8163C11.7748 12.0033 11.7373 12.19 11.6546 12.3594C11.5719 12.5287 11.4467 12.6752 11.2903 12.7855C11.134 12.8958 10.9516 12.9663 10.7598 12.9906C10.5681 13.0148 10.3731 12.9921 10.1928 12.9245L7.42192 11.8738C7.15099 11.7707 6.84983 11.7707 6.5789 11.8738L3.80807 12.9245C3.62773 12.9921 3.43274 13.0148 3.24098 12.9906C3.04921 12.9663 2.86681 12.8958 2.71048 12.7855C2.55416 12.6752 2.42891 12.5287 2.34622 12.3594C2.26353 12.19 2.22605 12.0033 2.2372 11.8163L2.41174 8.94234C2.42837 8.66099 2.33489 8.38391 2.14993 8.16637L0.26228 5.93821C0.139306 5.79308 0.0560066 5.62031 0.0200511 5.43582C-0.0159044 5.25132 -0.00336028 5.06103 0.0565286 4.88246C0.116418 4.70389 0.221726 4.54279 0.362759 4.41398C0.503791 4.28518 0.676014 4.1928 0.863571 4.14538L3.74349 3.41759C4.02471 3.34678 4.26788 3.17556 4.4242 2.93832L6.02909 0.510673C6.13411 0.353661 6.27808 0.224654 6.44785 0.135443C6.61762 0.0462326 6.80778 -0.000334511 7.00092 1.80887e-06C7.19407 0.000338128 7.38405 0.0475663 7.55349 0.137368C7.72293 0.227169 7.86642 0.356679 7.97085 0.514055Z" fill="#007BC4"/>
</svg>
