<svg width="15" height="14" viewBox="0 0 15 14" fill="none" xmlns="http://www.w3.org/2000/svg">
<path d="M8.41368 0.553597L10.1068 3.16434C10.2724 3.41971 10.5293 3.60401 10.8263 3.68048L13.8662 4.46425C14.0641 4.51542 14.2458 4.61493 14.3946 4.75362C14.5435 4.89231 14.6546 5.06575 14.7179 5.25798C14.7812 5.45022 14.7946 5.65509 14.7568 5.85377C14.719 6.05244 14.6313 6.23856 14.5018 6.395L12.5093 8.79455C12.314 9.02883 12.2154 9.32722 12.2329 9.63021L12.4171 12.7252C12.4289 12.9266 12.3894 13.1277 12.3021 13.3101C12.2148 13.4924 12.0826 13.6502 11.9176 13.769C11.7526 13.8878 11.56 13.9637 11.3576 13.9898C11.1552 14.016 10.9494 13.9915 10.759 13.9186L7.83425 12.7871C7.54827 12.6761 7.23038 12.6761 6.94439 12.7871L4.01963 13.9186C3.82927 13.9915 3.62345 14.016 3.42103 13.9898C3.21861 13.9637 3.02608 13.8878 2.86107 13.769C2.69605 13.6502 2.56385 13.4924 2.47657 13.3101C2.38928 13.1277 2.34972 12.9266 2.36149 12.7252L2.54573 9.63021C2.56328 9.32722 2.4646 9.02883 2.26938 8.79455L0.276851 6.395C0.147045 6.2387 0.0591181 6.05264 0.021165 5.85396C-0.016788 5.65527 -0.00354696 5.45034 0.0596691 5.25804C0.122885 5.06573 0.234044 4.89224 0.382912 4.75352C0.531779 4.6148 0.713571 4.51533 0.911548 4.46425L3.95146 3.68048C4.24831 3.60422 4.50499 3.41984 4.66998 3.16434L6.36404 0.549955C6.47489 0.380866 6.62686 0.241935 6.80607 0.145862C6.98527 0.0497889 7.18599 -0.000360242 7.38986 1.94802e-06C7.59374 0.000364138 7.79428 0.0512252 7.97313 0.147934C8.15198 0.244643 8.30345 0.384115 8.41368 0.553597Z" fill="#CF2C4A"/>
</svg>
